<?xml version="1.0" encoding="UTF-8" ?>
<!DOCTYPE svg PUBLIC "-//W3C//DTD SVG 1.1//EN" "http://www.w3.org/Graphics/SVG/1.1/DTD/svg11.dtd">
<svg width="220pt" height="193pt" viewBox="0 0 220 193" version="1.1" xmlns="http://www.w3.org/2000/svg">
<path fill="#ffffff" d=" M 0.00 0.00 L 108.36 0.00 C 107.26 0.07 106.16 0.16 105.07 0.27 C 93.71 1.32 82.63 4.94 72.81 10.75 C 68.09 13.52 63.70 16.84 59.69 20.56 C 56.41 23.63 53.36 26.95 50.62 30.52 C 40.30 44.02 34.54 61.01 34.89 78.02 C 34.66 94.92 40.58 111.71 50.84 125.08 C 54.11 129.25 57.76 133.11 61.71 136.64 C 64.85 133.52 67.99 130.40 71.04 127.19 C 62.42 119.77 55.65 110.21 51.75 99.52 C 46.79 85.72 46.77 70.44 51.44 56.56 C 53.70 50.24 56.92 44.29 60.90 38.89 C 64.47 34.17 68.75 30.04 73.37 26.36 C 82.24 19.60 92.89 15.19 103.96 13.79 C 114.03 12.20 124.40 13.73 133.98 17.04 C 142.85 20.25 150.98 25.46 157.66 32.12 C 169.87 44.35 177.00 61.63 176.35 78.96 C 176.37 97.34 167.46 115.09 153.63 127.01 C 156.73 130.15 159.82 133.31 162.92 136.45 C 177.03 124.14 186.72 106.68 188.98 88.03 C 192.93 61.74 181.75 33.93 161.05 17.30 C 153.29 10.97 144.27 6.21 134.69 3.27 C 128.84 1.47 122.75 0.52 116.66 0.00 L 220.00 0.00 L 220.00 192.96 C 212.43 185.14 204.67 177.51 197.00 169.78 C 203.20 163.18 209.51 156.69 215.65 150.03 C 211.11 150.04 206.58 150.04 202.05 150.03 C 197.98 154.45 194.08 159.03 190.02 163.45 C 185.87 158.99 181.70 154.55 177.58 150.08 C 172.42 150.02 167.25 150.03 162.09 150.05 C 168.98 157.01 175.78 164.05 182.78 170.91 C 175.99 178.29 169.19 185.67 162.35 193.00 L 158.97 193.00 C 158.97 189.75 158.97 186.50 158.96 183.25 C 147.97 183.26 136.98 183.26 125.99 183.25 C 125.99 180.53 125.99 177.80 125.99 175.07 C 132.32 175.07 138.64 175.07 144.97 175.07 C 144.97 172.07 144.97 169.08 144.97 166.08 C 138.64 166.08 132.32 166.09 125.99 166.08 C 125.99 163.67 125.99 161.26 125.99 158.86 C 136.84 158.85 147.68 158.85 158.53 158.86 C 158.53 155.92 158.54 152.98 158.54 150.04 C 143.89 150.04 129.25 150.04 114.61 150.04 C 114.60 164.36 114.60 178.68 114.61 193.00 L 75.00 193.00 C 75.00 187.64 75.00 182.28 75.00 176.92 C 84.03 176.82 93.07 177.09 102.10 176.81 C 105.93 176.81 109.33 173.87 109.80 170.05 C 110.16 165.70 110.15 161.30 109.81 156.94 C 109.40 153.07 105.94 150.05 102.05 150.12 C 89.26 149.90 76.47 150.11 63.68 150.04 C 63.67 164.36 63.68 178.68 63.68 193.00 L 59.35 193.00 C 51.02 178.75 42.93 164.36 34.72 150.03 C 31.21 150.04 27.70 150.04 24.19 150.04 C 16.11 164.29 8.16 178.60 0.00 192.80 L 0.00 0.00 Z" />
<path fill="#00a5b7" d=" M 108.36 0.00 L 116.66 0.00 C 122.75 0.52 128.84 1.47 134.69 3.27 C 133.82 7.81 133.80 12.44 133.98 17.04 C 124.40 13.73 114.03 12.20 103.96 13.79 C 105.04 9.37 105.28 4.80 105.07 0.27 C 106.16 0.16 107.26 0.07 108.36 0.00 Z" />
<path fill="#00afc0" d=" M 72.81 10.75 C 82.63 4.94 93.71 1.32 105.07 0.27 C 105.28 4.80 105.04 9.37 103.96 13.79 C 92.89 15.19 82.24 19.60 73.37 26.36 C 73.20 21.16 73.13 15.95 72.81 10.75 Z" />
<path fill="#009dae" d=" M 133.98 17.04 C 133.80 12.44 133.82 7.81 134.69 3.27 C 144.27 6.21 153.29 10.97 161.05 17.30 C 156.65 20.95 158.12 27.09 157.66 32.12 C 150.98 25.46 142.85 20.25 133.98 17.04 Z" />
<path fill="#16b8c7" d=" M 59.69 20.56 C 63.70 16.84 68.09 13.52 72.81 10.75 C 73.13 15.95 73.20 21.16 73.37 26.36 C 68.75 30.04 64.47 34.17 60.90 38.89 C 59.38 32.89 60.27 26.67 59.69 20.56 Z" />
<path fill="#0094a4" d=" M 157.66 32.12 C 158.12 27.09 156.65 20.95 161.05 17.30 C 181.75 33.93 192.93 61.74 188.98 88.03 C 186.72 106.68 177.03 124.14 162.92 136.45 C 159.82 133.31 156.73 130.15 153.63 127.01 C 167.46 115.09 176.37 97.34 176.35 78.96 C 177.00 61.63 169.87 44.35 157.66 32.12 Z" />
<path fill="#23bcca" d=" M 50.62 30.52 C 53.36 26.95 56.41 23.63 59.69 20.56 C 60.27 26.67 59.38 32.89 60.90 38.89 C 56.92 44.29 53.70 50.24 51.44 56.56 C 50.35 47.91 51.43 39.19 50.62 30.52 Z" />
<path fill="#00afbf" d=" M 88.04 32.44 C 93.63 29.80 99.51 27.52 105.70 26.91 C 109.54 30.02 107.44 35.62 108.58 39.87 C 101.18 40.68 94.39 43.87 88.28 47.98 C 88.02 42.88 88.01 37.77 88.04 32.67 L 88.04 32.44 Z" />
<path fill="#00a6b6" d=" M 105.70 26.91 C 112.41 26.24 119.20 26.61 125.77 28.12 L 125.75 28.33 C 125.23 32.87 125.14 37.44 125.17 42.01 C 119.83 40.27 114.20 39.48 108.58 39.87 C 107.44 35.62 109.54 30.02 105.70 26.91 Z" />
<path fill="#0096a7" d=" M 125.17 42.01 C 125.14 37.44 125.23 32.87 125.75 28.33 C 139.43 31.95 151.22 41.72 157.66 54.27 C 165.06 68.57 165.12 86.46 157.77 100.79 C 154.58 107.27 149.79 112.82 144.38 117.55 C 141.25 114.34 138.12 111.14 134.96 107.96 C 144.72 100.52 150.58 88.27 150.03 75.98 C 149.39 61.02 139.23 47.16 125.17 42.01 Z" />
<path fill="#31bfcd" d=" M 34.89 78.02 C 34.54 61.01 40.30 44.02 50.62 30.52 C 51.43 39.19 50.35 47.91 51.44 56.56 C 46.77 70.44 46.79 85.72 51.75 99.52 C 50.16 107.95 51.62 116.57 50.84 125.08 C 40.58 111.71 34.66 94.92 34.89 78.02 Z" />
<path fill="#12b7c6" d=" M 79.58 38.28 C 82.23 36.16 84.98 34.15 88.04 32.67 C 88.01 37.77 88.02 42.88 88.28 47.98 L 89.57 47.58 C 85.95 49.88 83.30 53.32 80.69 56.64 C 79.64 50.57 80.37 44.38 79.58 38.28 Z" />
<path fill="#1fbac9" d=" M 71.84 46.57 C 73.82 43.31 76.80 40.82 79.58 38.28 C 80.37 44.38 79.64 50.57 80.69 56.64 C 75.51 65.06 72.95 75.40 75.24 85.16 C 76.82 94.37 82.57 102.17 89.56 108.11 C 86.50 111.34 83.42 114.56 80.26 117.69 C 77.10 114.96 74.25 111.90 71.50 108.77 L 71.55 108.29 C 71.92 104.88 72.09 101.45 72.04 98.02 C 71.96 80.87 72.33 63.72 71.84 46.57 Z" />
<path fill="#31bfcd" d=" M 71.55 108.29 C 57.63 90.90 57.81 63.85 71.84 46.57 C 72.33 63.72 71.96 80.87 72.04 98.02 C 72.09 101.45 71.92 104.88 71.55 108.29 Z" />
<path fill="#00a7b8" d=" M 107.99 52.66 C 111.37 51.99 114.81 52.36 118.16 52.99 C 118.17 57.41 118.13 61.82 118.11 66.24 C 115.08 65.19 111.88 64.61 108.69 65.31 C 107.78 61.15 107.78 56.89 107.99 52.66 Z" />
<path fill="#04b3c3" d=" M 97.16 57.30 C 100.43 55.06 104.07 53.37 107.99 52.66 C 107.78 56.89 107.78 61.15 108.69 65.31 L 108.74 65.59 C 104.44 66.91 100.82 70.53 99.94 75.00 C 98.41 80.99 102.25 87.55 108.07 89.46 C 104.60 92.66 101.61 96.37 97.85 99.25 L 97.84 98.38 C 97.79 91.25 97.90 84.12 97.85 76.99 C 97.76 70.43 98.29 63.81 97.16 57.30 Z" />
<path fill="#0099a9" d=" M 118.16 52.99 C 128.27 55.48 136.45 64.56 137.31 75.01 C 138.44 84.29 133.77 93.64 126.16 98.89 C 123.05 95.80 120.04 92.59 116.89 89.53 C 119.99 87.88 122.84 85.43 124.01 82.03 C 126.38 76.30 123.47 69.36 118.11 66.50 L 118.11 66.24 C 118.13 61.82 118.17 57.41 118.16 52.99 Z" />
<path fill="#24bcca" d=" M 87.09 76.05 C 87.51 68.72 91.36 61.76 97.16 57.30 C 98.29 63.81 97.76 70.43 97.85 76.99 C 97.90 84.12 97.79 91.25 97.84 98.38 C 90.63 93.53 86.49 84.67 87.09 76.05 Z" />
<path fill="#1fbac9" d=" M 50.84 125.08 C 51.62 116.57 50.16 107.95 51.75 99.52 C 55.65 110.21 62.42 119.77 71.04 127.19 C 67.99 130.40 64.85 133.52 61.71 136.64 C 57.76 133.11 54.11 129.25 50.84 125.08 Z" />
<path fill="#0090a1" d=" M 174.99 135.80 C 171.75 133.58 172.66 128.75 175.71 126.81 C 178.14 127.01 181.40 126.66 182.36 129.55 C 184.66 133.82 178.78 139.02 174.99 135.80 Z" />
<path fill="#ffffff" d=" M 174.19 130.06 C 175.01 126.99 180.36 126.47 181.03 129.89 C 179.35 129.55 177.67 129.23 175.98 128.94 C 176.03 131.33 176.07 133.72 176.20 136.12 C 174.62 134.52 173.42 132.33 174.19 130.06 Z" />
<path fill="#ffffff" d=" M 181.03 129.89 L 181.37 129.89 C 181.74 131.06 181.69 132.64 180.81 133.59 C 178.99 133.46 179.64 130.38 181.03 129.89 Z" />
<path fill="#ffffff" d=" M 177.14 130.19 C 180.09 128.55 177.44 133.50 177.14 130.19 Z" />
<path fill="#ffffff" d=" M 177.63 136.25 C 176.67 135.34 176.33 132.76 177.77 132.21 C 179.62 132.72 179.73 136.09 177.63 136.25 Z" />
<path fill="#0090a1" d=" M 24.19 150.04 C 27.70 150.04 31.21 150.04 34.72 150.03 C 42.93 164.36 51.02 178.75 59.35 193.00 L 46.35 193.00 C 44.48 190.13 43.32 186.78 41.11 184.14 C 32.89 183.84 24.65 184.10 16.42 184.07 C 14.87 187.06 13.39 190.09 11.70 193.00 L 0.00 193.00 L 0.00 192.80 C 8.16 178.60 16.11 164.29 24.19 150.04 Z" />
<path fill="#0090a1" d=" M 63.68 150.04 C 76.47 150.11 89.26 149.90 102.05 150.12 C 105.94 150.05 109.40 153.07 109.81 156.94 C 110.15 161.30 110.16 165.70 109.80 170.05 C 109.33 173.87 105.93 176.81 102.10 176.81 C 93.07 177.09 84.03 176.82 75.00 176.92 C 75.00 182.28 75.00 187.64 75.00 193.00 L 63.68 193.00 C 63.68 178.68 63.67 164.36 63.68 150.04 Z" />
<path fill="#0090a1" d=" M 114.61 150.04 C 129.25 150.04 143.89 150.04 158.54 150.04 C 158.54 152.98 158.53 155.92 158.53 158.86 C 147.68 158.85 136.84 158.85 125.99 158.86 C 125.99 161.26 125.99 163.67 125.99 166.08 C 132.32 166.09 138.64 166.08 144.97 166.08 C 144.97 169.08 144.97 172.07 144.97 175.07 C 138.64 175.07 132.32 175.07 125.99 175.07 C 125.99 177.80 125.99 180.53 125.99 183.25 C 136.98 183.26 147.97 183.26 158.96 183.25 C 158.97 186.50 158.97 189.75 158.97 193.00 L 114.61 193.00 C 114.60 178.68 114.60 164.36 114.61 150.04 Z" />
<path fill="#0090a1" d=" M 162.09 150.05 C 167.25 150.03 172.42 150.02 177.58 150.08 C 181.70 154.55 185.87 158.99 190.02 163.45 C 194.08 159.03 197.98 154.45 202.05 150.03 C 206.58 150.04 211.11 150.04 215.65 150.03 C 209.51 156.69 203.20 163.18 197.00 169.78 C 204.67 177.51 212.43 185.14 220.00 192.96 L 220.00 193.00 L 204.43 193.00 C 199.46 187.93 194.60 182.76 189.82 177.53 C 185.30 182.67 180.92 187.94 176.31 193.00 L 162.35 193.00 C 169.19 185.67 175.99 178.29 182.78 170.91 C 175.78 164.05 168.98 157.01 162.09 150.05 Z" />
<path fill="#ffffff" d=" M 75.00 158.89 C 82.32 158.99 89.64 158.70 96.95 159.02 C 98.67 158.70 98.49 160.91 98.62 161.96 C 98.56 163.89 98.98 166.05 97.91 167.79 C 90.30 168.41 82.64 167.89 75.00 168.06 C 75.00 165.00 75.00 161.95 75.00 158.89 Z" />
<path fill="#ffffff" d=" M 21.72 174.64 C 24.07 170.06 26.53 165.52 29.15 161.09 C 31.54 165.59 34.05 170.03 36.22 174.65 C 31.39 174.67 26.55 174.67 21.72 174.64 Z" />
<path fill="#ffffff" d=" M 176.31 193.00 C 180.92 187.94 185.30 182.67 189.82 177.53 C 194.60 182.76 199.46 187.93 204.43 193.00 L 176.31 193.00 Z" />
<path fill="#ffffff" d=" M 16.42 184.07 C 24.65 184.10 32.89 183.84 41.11 184.14 C 43.32 186.78 44.48 190.13 46.35 193.00 L 11.70 193.00 C 13.39 190.09 14.87 187.06 16.42 184.07 Z" />
</svg>
