<?xml version="1.0" encoding="UTF-8" standalone="no"?>
<svg
   xmlns:dc="http://purl.org/dc/elements/1.1/"
   xmlns:cc="http://creativecommons.org/ns#"
   xmlns:rdf="http://www.w3.org/1999/02/22-rdf-syntax-ns#"
   xmlns:svg="http://www.w3.org/2000/svg"
   xmlns="http://www.w3.org/2000/svg"
   xmlns:xlink="http://www.w3.org/1999/xlink"
   xmlns:sodipodi="http://sodipodi.sourceforge.net/DTD/sodipodi-0.dtd"
   xmlns:inkscape="http://www.inkscape.org/namespaces/inkscape"
   width="228pt"
   height="201pt"
   viewBox="0 0 228 201"
   version="1.1"
   id="svg2"
   inkscape:version="0.91 r13725"
   sodipodi:docname="apex_covantage.svg">
  <metadata
     id="metadata72">
    <rdf:RDF>
      <cc:Work
         rdf:about="">
        <dc:format>image/svg+xml</dc:format>
        <dc:type
           rdf:resource="http://purl.org/dc/dcmitype/StillImage" />
        <dc:title></dc:title>
      </cc:Work>
    </rdf:RDF>
  </metadata>
  <defs
     id="defs70">
    <marker
       inkscape:stockid="Arrow1Lstart"
       orient="auto"
       refY="0.0"
       refX="0.0"
       id="Arrow1Lstart"
       style="overflow:visible"
       inkscape:isstock="true">
      <path
         id="path4668"
         d="M 0.0,0.0 L 5.0,-5.0 L -12.5,0.0 L 5.0,5.0 L 0.0,0.0 z "
         style="fill-rule:evenodd;stroke:none;stroke-width:1pt;stroke-opacity:1;fill:#0090a1;fill-opacity:1"
         transform="scale(0.8) translate(12.5,0)" />
    </marker>
    <linearGradient
       inkscape:collect="always"
       id="linearGradient4456">
      <stop
         style="stop-color:#008080;stop-opacity:1;"
         offset="0"
         id="stop4458" />
      <stop
         style="stop-color:#31bfcd;stop-opacity:1"
         offset="1"
         id="stop4460" />
    </linearGradient>
    <linearGradient
       inkscape:collect="always"
       xlink:href="#linearGradient4456"
       id="linearGradient4462"
       x1="34.874928"
       y1="68.32"
       x2="189.76637"
       y2="68.32"
       gradientUnits="userSpaceOnUse"
       gradientTransform="translate(4,4)" />
    <linearGradient
       inkscape:collect="always"
       xlink:href="#linearGradient4456"
       id="linearGradient4475"
       x1="61.213009"
       y1="72.139771"
       x2="163.24643"
       y2="72.139771"
       gradientUnits="userSpaceOnUse"
       gradientTransform="translate(4,4)" />
    <linearGradient
       inkscape:collect="always"
       xlink:href="#linearGradient4456"
       id="linearGradient4484"
       x1="87.032608"
       y1="75.776932"
       x2="137.47786"
       y2="75.776932"
       gradientUnits="userSpaceOnUse"
       gradientTransform="translate(4,4)" />
  </defs>
  <sodipodi:namedview
     pagecolor="#ffffff"
     bordercolor="#666666"
     borderopacity="1"
     objecttolerance="10"
     gridtolerance="10"
     guidetolerance="10"
     inkscape:pageopacity="0"
     inkscape:pageshadow="2"
     inkscape:window-width="1500"
     inkscape:window-height="769"
     id="namedview68"
     showgrid="false"
     inkscape:zoom="2.26"
     inkscape:cx="142.5"
     inkscape:cy="125.625"
     inkscape:window-x="0"
     inkscape:window-y="0"
     inkscape:window-maximized="0"
     inkscape:current-layer="svg2"
     fit-margin-top="4"
     fit-margin-left="4"
     fit-margin-right="4"
     fit-margin-bottom="4" />
  <path
     d="m 4,4 108.36,0 c -1.1,0.07 -2.2,0.16 -3.29,0.27 -11.36,1.05 -22.44,4.67 -32.26,10.48 -4.72,2.77 -9.11,6.09 -13.12,9.81 -3.28,3.07 -6.33,6.39 -9.07,9.96 -10.32,13.5 -16.08,30.49 -15.73,47.5 -0.23,16.9 5.69,33.69 15.95,47.06 3.27,4.17 6.92,8.03 10.87,11.56 3.14,-3.12 6.28,-6.24 9.33,-9.45 -8.62,-7.42 -15.39,-16.98 -19.29,-27.67 -4.96,-13.8 -4.98,-29.08 -0.31,-42.96 2.26,-6.32 5.48,-12.27 9.46,-17.67 3.57,-4.72 7.85,-8.85 12.47,-12.53 8.87,-6.76 19.52,-11.17 30.59,-12.57 10.07,-1.59 20.44,-0.06 30.02,3.25 8.87,3.21 17,8.42 23.68,15.08 12.21,12.23 19.34,29.51 18.69,46.84 0.02,18.38 -8.89,36.13 -22.72,48.05 3.1,3.14 6.19,6.3 9.29,9.44 14.11,-12.31 23.8,-29.77 26.06,-48.42 C 196.93,65.74 185.75,37.93 165.05,21.3 157.29,14.97 148.27,10.21 138.69,7.27 132.84,5.47 126.75,4.52 120.66,4 L 224,4 l 0,192.96 c -7.57,-7.82 -15.33,-15.45 -23,-23.18 6.2,-6.6 12.51,-13.09 18.65,-19.75 -4.54,0.01 -9.07,0.01 -13.6,0 -4.07,4.42 -7.97,9 -12.03,13.42 -4.15,-4.46 -8.32,-8.9 -12.44,-13.37 -5.16,-0.06 -10.33,-0.05 -15.49,-0.03 6.89,6.96 13.69,14 20.69,20.86 -6.79,7.38 -13.59,14.76 -20.43,22.09 l -3.38,0 c 0,-3.25 0,-6.5 -0.01,-9.75 -10.99,0.01 -21.98,0.01 -32.97,0 0,-2.72 0,-5.45 0,-8.18 6.33,0 12.65,0 18.98,0 0,-3 0,-5.99 0,-8.99 -6.33,0 -12.65,0.01 -18.98,0 0,-2.41 0,-4.82 0,-7.22 10.85,-0.01 21.69,-0.01 32.54,0 0,-2.94 0.01,-5.88 0.01,-8.82 -14.65,0 -29.29,0 -43.93,0 -0.01,14.32 -0.01,28.64 0,42.96 L 79,197 c 0,-5.36 0,-10.72 0,-16.08 9.03,-0.1 18.07,0.17 27.1,-0.11 3.83,0 7.23,-2.94 7.7,-6.76 0.36,-4.35 0.35,-8.75 0.01,-13.11 -0.41,-3.87 -3.87,-6.89 -7.76,-6.82 -12.79,-0.22 -25.58,-0.01 -38.37,-0.08 -0.01,14.32 0,28.64 0,42.96 l -4.33,0 C 55.02,182.75 46.93,168.36 38.72,154.03 35.21,154.04 31.7,154.04 28.19,154.04 20.11,168.29 12.16,182.6 4,196.8 L 4,4 Z"
     id="path4"
     style="fill:none"
     inkscape:connector-curvature="0" />
  <path
     id="path30"
     d="M 75.55,112.29 C 61.63,94.9 61.81,67.85 75.84,50.57 c 0.49,17.15 0.12,34.3 0.2,51.45 0.05,3.43 -0.12,6.86 -0.49,10.27 z m 0.29,-61.72 c 1.98,-3.26 4.96,-5.75 7.74,-8.29 0.79,6.1 0.06,12.29 1.11,18.36 -5.18,8.42 -7.74,18.76 -5.45,28.52 1.58,9.21 7.33,17.01 14.32,22.95 -3.06,3.23 -6.14,6.45 -9.3,9.58 -3.16,-2.73 -6.01,-5.79 -8.76,-8.92 l 0.05,-0.48 c 0.37,-3.41 0.54,-6.84 0.49,-10.27 -0.08,-17.15 0.29,-34.3 -0.2,-51.45 z m 7.74,-8.29 c 2.65,-2.12 5.4,-4.13 8.46,-5.61 -0.03,5.1 -0.02,10.21 0.24,15.31 l 1.29,-0.4 c -3.62,2.3 -6.27,5.74 -8.88,9.06 -1.05,-6.07 -0.32,-12.26 -1.11,-18.36 z m 45.59,3.73 c -0.03,-4.57 0.06,-9.14 0.58,-13.68 13.68,3.62 25.47,13.39 31.91,25.94 7.4,14.3 7.46,32.19 0.11,46.52 -3.19,6.48 -7.98,12.03 -13.39,16.76 -3.13,-3.21 -6.26,-6.41 -9.42,-9.59 9.76,-7.44 15.62,-19.69 15.07,-31.98 -0.64,-14.96 -10.8,-28.82 -24.86,-33.97 z M 109.7,30.91 c 6.71,-0.67 13.5,-0.3 20.07,1.21 l -0.02,0.21 c -0.52,4.54 -0.61,9.11 -0.58,13.68 -5.34,-1.74 -10.97,-2.53 -16.59,-2.14 -1.14,-4.25 0.96,-9.85 -2.88,-12.96 z m -17.66,5.53 c 5.59,-2.64 11.47,-4.92 17.66,-5.53 3.84,3.11 1.74,8.71 2.88,12.96 -7.4,0.81 -14.19,4 -20.3,8.11 -0.26,-5.1 -0.27,-10.21 -0.24,-15.31 l 0,-0.23 z"
     style="fill:url(#linearGradient4475);fill-opacity:1"
     inkscape:connector-curvature="0" />
  <path
     id="path38"
     d="m 91.09,80.05 c 0.42,-7.33 4.27,-14.29 10.07,-18.75 1.13,6.51 0.6,13.13 0.69,19.69 0.05,7.13 -0.06,14.26 -0.01,21.39 C 94.63,97.53 90.49,88.67 91.09,80.05 Z m 31.07,-23.06 c 10.11,2.49 18.29,11.57 19.15,22.02 1.13,9.28 -3.54,18.63 -11.15,23.88 -3.11,-3.09 -6.12,-6.3 -9.27,-9.36 3.1,-1.65 5.95,-4.1 7.12,-7.5 2.37,-5.73 -0.54,-12.67 -5.9,-15.53 l 0,-0.26 c 0.02,-4.42 0.06,-8.83 0.05,-13.25 z m -21,4.31 c 3.27,-2.24 6.91,-3.93 10.83,-4.64 -0.21,4.23 -0.21,8.49 0.7,12.65 l 0.05,0.28 c -4.3,1.32 -7.92,4.94 -8.8,9.41 -1.53,5.99 2.31,12.55 8.13,14.46 -3.47,3.2 -6.46,6.91 -10.22,9.79 l -0.01,-0.87 c -0.05,-7.13 0.06,-14.26 0.01,-21.39 -0.09,-6.56 0.44,-13.18 -0.69,-19.69 z m 10.83,-4.64 c 3.38,-0.67 6.82,-0.3 10.17,0.33 0.01,4.42 -0.03,8.83 -0.05,13.25 -3.03,-1.05 -6.23,-1.63 -9.42,-0.93 -0.91,-4.16 -0.91,-8.42 -0.7,-12.65 z"
     style="fill:url(#linearGradient4484);fill-opacity:1"
     inkscape:connector-curvature="0" />
  <path
     id="path40"
     d="m 54.84,129.08 c 0.78,-8.51 -0.68,-17.13 0.91,-25.56 3.9,10.69 10.67,20.25 19.29,27.67 -3.05,3.21 -6.19,6.33 -9.33,9.45 -3.95,-3.53 -7.6,-7.39 -10.87,-11.56 z M 38.89,82.02 c -0.35,-17.01 5.41,-34 15.73,-47.5 0.81,8.67 -0.27,17.39 0.82,26.04 -4.67,13.88 -4.65,29.16 0.31,42.96 -1.59,8.43 -0.13,17.05 -0.91,25.56 C 44.58,115.71 38.66,98.92 38.89,82.02 Z m 15.73,-47.5 c 2.74,-3.57 5.79,-6.89 9.07,-9.96 0.58,6.11 -0.31,12.33 1.21,18.33 -3.98,5.4 -7.2,11.35 -9.46,17.67 -1.09,-8.65 -0.01,-17.37 -0.82,-26.04 z m 107.04,1.6 c 0.46,-5.03 -1.01,-11.17 3.39,-14.82 20.7,16.63 31.88,44.44 27.93,70.73 -2.26,18.65 -11.95,36.11 -26.06,48.42 -3.1,-3.14 -6.19,-6.3 -9.29,-9.44 13.83,-11.92 22.74,-29.67 22.72,-48.05 C 181,65.63 173.87,48.35 161.66,36.12 Z M 63.69,24.56 c 4.01,-3.72 8.4,-7.04 13.12,-9.81 0.32,5.2 0.39,10.41 0.56,15.61 -4.62,3.68 -8.9,7.81 -12.47,12.53 -1.52,-6 -0.63,-12.22 -1.21,-18.33 z m 74.29,-3.52 c -0.18,-4.6 -0.16,-9.23 0.71,-13.77 9.58,2.94 18.6,7.7 26.36,14.03 -4.4,3.65 -2.93,9.79 -3.39,14.82 -6.68,-6.66 -14.81,-11.87 -23.68,-15.08 z M 76.81,14.75 c 9.82,-5.81 20.9,-9.43 32.26,-10.48 0.21,4.53 -0.03,9.1 -1.11,13.52 C 96.89,19.19 86.24,23.6 77.37,30.36 77.2,25.16 77.13,19.95 76.81,14.75 Z M 112.36,4 l 8.3,0 c 6.09,0.52 12.18,1.47 18.03,3.27 -0.87,4.54 -0.89,9.17 -0.71,13.77 -9.58,-3.31 -19.95,-4.84 -30.02,-3.25 1.08,-4.42 1.32,-8.99 1.11,-13.52 1.09,-0.11 2.19,-0.2 3.29,-0.27 z"
     style="opacity:1;fill:url(#linearGradient4462);fill-opacity:1;fill-rule:nonzero;stroke:none"
     inkscape:connector-curvature="0" />
  <path
     d="m 38.720313,154.02969 c -3.51,0.01 -7.019688,0.011 -10.529688,0.011 C 20.110625,168.29062 12.16,182.6 4,196.8 l 0,0.2 11.7,0 c 1.69,-2.91 3.170313,-5.93969 4.720313,-8.92969 8.23,0.03 16.469062,-0.22969 24.689062,0.0703 2.21,2.64 3.370625,5.98938 5.240625,8.85938 l 13,0 C 55.02,182.75 46.930313,168.35969 38.720313,154.02969 Z M 33.15,165.09062 c 2.39,4.5 4.900313,8.93938 7.070313,13.55938 -4.83,0.02 -9.67,0.0206 -14.5,-0.009 2.35,-4.58 4.809687,-9.12 7.429687,-13.55 z"
     id="path52"
     style="fill:#0090a1;fill-opacity:1;stroke:none;stroke-opacity:1"
     inkscape:connector-curvature="0" />
  <path
     d="m 86.865624,154.02344 c -6.394999,0.0162 -12.790937,0.0522 -19.185937,0.0172 -0.01,14.32 0,28.63938 0,42.95938 l 11.320313,0 0,-16.07969 c 9.03,-0.1 18.07,0.16906 27.1,-0.11094 3.83,0 7.23,-2.93937 7.7,-6.75937 0.36,-4.35 0.34938,-8.74938 0.009,-13.10938 -0.41,-3.87 -3.86938,-6.89031 -7.75938,-6.82031 -6.394996,-0.11 -12.789372,-0.11313 -19.184372,-0.0969 z m 3.112504,8.84843 c 3.658744,-0.02 7.316872,-0.0116 10.971872,0.14844 1.72,-0.32 1.54031,1.88907 1.67031,2.93907 -0.06,1.93 0.35907,4.09124 -0.71093,5.83124 -7.610004,0.62 -15.26938,0.0988 -22.90938,0.26876 l 0,-9.16876 c 3.66,0.05 7.319376,0.002 10.978128,-0.0187 z"
     id="path54"
     style="fill:#0090a1;fill-opacity:1;stroke:none;stroke-opacity:1"
     inkscape:connector-curvature="0" />
  <path
     d="m 118.61,154.04 c 14.64,0 29.28,0 43.93,0 0,2.94 -0.01,5.88 -0.01,8.82 -10.85,-0.01 -21.69,-0.01 -32.54,0 0,2.4 0,4.81 0,7.22 6.33,0.01 12.65,0 18.98,0 0,3 0,5.99 0,8.99 -6.33,0 -12.65,0 -18.98,0 0,2.73 0,5.46 0,8.18 10.99,0.01 21.98,0.01 32.97,0 0.01,3.25 0.01,6.5 0.01,9.75 l -44.36,0 c -0.01,-14.32 -0.01,-28.64 0,-42.96 z"
     id="path56"
     inkscape:connector-curvature="0"
     style="fill:#0090a1;stroke:none;stroke-opacity:1" />
  <path
     d="m 166.09,154.05 c 5.16,-0.02 10.33,-0.03 15.49,0.03 4.12,4.47 8.29,8.91 12.44,13.37 4.06,-4.42 7.96,-9 12.03,-13.42 4.53,0.01 9.06,0.01 13.6,0 -6.14,6.66 -12.45,13.15 -18.65,19.75 7.67,7.73 15.43,15.36 23,23.18 l 0,0.04 -15.57,0 c -4.97,-5.07 -9.83,-10.24 -14.61,-15.47 -4.52,5.14 -8.9,10.41 -13.51,15.47 l -13.96,0 c 6.84,-7.33 13.64,-14.71 20.43,-22.09 -7,-6.86 -13.8,-13.9 -20.69,-20.86 z"
     id="path58"
     inkscape:connector-curvature="0"
     style="fill:#0090a1;stroke:none;stroke-opacity:1" />
  <path
     d="m 180.31,197 c 4.61,-5.06 8.99,-10.33 13.51,-15.47 4.78,5.23 9.64,10.4 14.61,15.47 l -28.12,0 z"
     id="path64"
     style="fill:#ffffff;fill-opacity:0"
     inkscape:connector-curvature="0" />
</svg>
