<?xml version="1.0" encoding="UTF-8" standalone="no"?>
<svg
   xmlns:dc="http://purl.org/dc/elements/1.1/"
   xmlns:cc="http://creativecommons.org/ns#"
   xmlns:rdf="http://www.w3.org/1999/02/22-rdf-syntax-ns#"
   xmlns:svg="http://www.w3.org/2000/svg"
   xmlns="http://www.w3.org/2000/svg"
   xmlns:sodipodi="http://sodipodi.sourceforge.net/DTD/sodipodi-0.dtd"
   xmlns:inkscape="http://www.inkscape.org/namespaces/inkscape"
   width="448.89999pt"
   height="142.33031pt"
   viewBox="0 0 448.89999 142.33031"
   version="1.1"
   id="svg2"
   inkscape:version="0.91 r13725"
   sodipodi:docname="cengage.svg">
  <metadata
     id="metadata70">
    <rdf:RDF>
      <cc:Work
         rdf:about="">
        <dc:format>image/svg+xml</dc:format>
        <dc:type
           rdf:resource="http://purl.org/dc/dcmitype/StillImage" />
        <dc:title></dc:title>
      </cc:Work>
    </rdf:RDF>
  </metadata>
  <defs
     id="defs68" />
  <sodipodi:namedview
     pagecolor="#ffffff"
     bordercolor="#666666"
     borderopacity="1"
     objecttolerance="10"
     gridtolerance="10"
     guidetolerance="10"
     inkscape:pageopacity="0"
     inkscape:pageshadow="2"
     inkscape:window-width="1468"
     inkscape:window-height="798"
     id="namedview66"
     showgrid="false"
     fit-margin-top="4"
     fit-margin-left="4"
     fit-margin-right="4"
     fit-margin-bottom="4"
     inkscape:zoom="1.5"
     inkscape:cx="279.95"
     inkscape:cy="79.962662"
     inkscape:window-x="0"
     inkscape:window-y="0"
     inkscape:window-maximized="0"
     inkscape:current-layer="svg2" />
  <path
     d="m 55.9,4.0701746 c 6.34,0.11 12.7,-0.32 19.02,0.17 2.42,0.26 2.76,3.08 3.24,4.96 1.62,8.2500004 3.34,16.4900004 4.88,24.7600004 -6.62,2.26 -13.21,4.57 -19.87,6.66 -2.39,-12.19 -4.91,-24.35 -7.27,-36.5500004 z"
     id="path6"
     inkscape:connector-curvature="0"
     style="fill:#aae0fa" />
  <path
     d="m 143.94,18.340175 c 7.07,-5.43 17.06,-5.44 25.08,-2.22 -0.01,1.67 0,3.34 0.01,5.01 -6.51,-3.21 -14.89,-4.13 -21.1,0.23 -7.26,5.06 -8.91,15.25 -6.39,23.27 1.52,5.24 5.77,9.66 11.14,10.92 5.23,1.79 10.74,-0.05 15.57,-2.17 0.49,1.36 0.99,2.71 1.5,4.06 -8.02,4.2 -18.65,4.68 -26.21,-0.76 -11.95,-8.96 -11.37,-29.44 0.4,-38.34 z"
     id="path8"
     inkscape:connector-curvature="0"
     style="fill:#00335e" />
  <path
     d="m 185.03,14.280175 c 7.42,0.01 14.85,-0.01 22.27,0.02 -0.52,1.48 -1.11,2.94 -1.67,4.4 -5.05,-0.06 -10.09,-0.02 -15.14,-0.03 0.01,5.22 0.01,10.43 0,15.65 4.98,0 9.96,0 14.94,0 -0.01,1.45 -0.01,2.91 0,4.36 -4.98,0 -9.96,0 -14.94,0 0.01,5.61 0,11.22 0.01,16.84 5.78,0 11.56,0 17.34,0 -0.01,1.49 -0.01,2.98 0,4.47 -7.61,0 -15.22,0 -22.82,0.01 -0.01,-15.24 -0.02,-30.48 0.01,-45.72 z"
     id="path10"
     inkscape:connector-curvature="0"
     style="fill:#00335e" />
  <path
     d="m 224.61,14.280175 c 1.67,0 3.35,0.01 5.03,0.01 9.2,12.37 19.2,24.17 27.78,36.99 -0.41,-12.33 -0.11,-24.67 -0.19,-37 1.88,0 3.75,0 5.63,0 0.02,15.24 0.01,30.48 0.01,45.72 -1.56,-0.01 -3.11,-0.01 -4.66,-0.02 -9.46,-12.6 -19.4,-24.85 -28.57,-37.67 0.34,12.56 0.07,25.13 0.16,37.69 -1.74,-0.01 -3.47,-0.01 -5.2,-0.01 0.01,-15.24 0,-30.47 0.01,-45.71 z"
     id="path12"
     inkscape:connector-curvature="0"
     style="fill:#00335e" />
  <path
     d="m 284.43,18.610175 c 7.82,-5.99 18.71,-5.56 27.58,-2.36 0,1.69 0.01,3.39 0.03,5.09 -7.28,-3.68 -16.76,-4.49 -23.72,0.31 -8.44,6.26 -9.11,19.53 -3.53,27.88 5.31,7.28 15.7,8.11 23.55,4.87 -0.02,-4.39 -0.01,-8.78 -0.01,-13.17 -3.7,0 -7.39,-0.02 -11.08,0.03 -0.44,-1.54 -0.93,-3.06 -1.43,-4.57 5.8,0.02 11.6,0 17.4,0.01 0.03,6.84 -0.08,13.68 0.06,20.52 -6.46,3.23 -14.08,4.26 -21.15,2.72 -7.23,-1.57 -13.3,-7.33 -15.3,-14.44 -2.75,-9.35 -0.49,-20.82 7.6,-26.89 z"
     id="path14"
     inkscape:connector-curvature="0"
     style="fill:#00335e" />
  <path
     d="m 340.13969,14.16955 c -5.99,15.22 -11.62,30.571249 -17.5,45.831249 1.83,-0.01 3.68031,-0.01096 5.52031,-0.01096 1.64,-3.92 2.76062,-8.060312 4.54062,-11.920312 6.08,-0.61 12.25907,-0.12 18.38907,-0.2 1.41,4.06 3.01062,8.050936 4.44062,12.110936 l 5.67031,0 c -5.87,-15.25 -11.67,-30.520937 -17.55,-45.760937 -1.17,-0.02 -2.35093,-0.03 -3.51093,-0.05 z m 1.72969,8.140625 c 2.32,7.1 4.96124,14.09 7.53124,21.1 -5.04,0.02 -10.07,0.0094 -15.1,0.0094 2.54,-7.03 5.12876,-14.039376 7.56876,-21.109376 z"
     id="path16"
     style="fill:#00335e;fill-opacity:1"
     inkscape:connector-curvature="0" />
  <path
     d="m 378.77,18.180175 c 7.79,-5.54 18.33,-5.06 26.97,-1.91 0.04,1.66 0.1,3.33 0.17,5 -6.95,-3.26 -15.55,-4.36 -22.48,-0.5 -10.28,6.09 -11.2,22.07 -3.42,30.51 5.69,5.7 14.72,6 21.89,3.17 -0.01,-4.4 0,-8.81 -0.01,-13.22 -3.57,-0.01 -7.14,0 -10.71,0.02 -0.52,-1.5 -1.02,-3.01 -1.48,-4.53 5.81,-0.05 11.62,-0.01 17.43,-0.02 0.01,6.84 -0.04,13.69 0.03,20.54 -7.37,3.43 -16.14,4.66 -23.92,1.91 -6.77,-2.4 -11.91,-8.63 -13.14,-15.68 -2.12,-9.1 0.8,-19.77 8.67,-25.29 z"
     id="path18"
     inkscape:connector-curvature="0"
     style="fill:#00335e" />
  <path
     d="m 422.26,14.280175 c 7.37,0.01 14.74,0 22.11,0.01 -0.51,1.47 -1.02,2.94 -1.54,4.4 -5.1,-0.04 -10.2,-0.02 -15.3,-0.02 0,5.22 0,10.43 0,15.65 5.02,0 10.04,0 15.06,0 -0.02,1.45 -0.02,2.91 -0.01,4.36 -5.02,0 -10.03,0 -15.04,0 -0.01,5.61 -0.01,11.22 0,16.84 5.78,0 11.57,0 17.36,-0.01 -0.01,1.5 -0.01,2.99 0,4.49 -7.55,-0.02 -15.1,-0.01 -22.65,-0.01 0.01,-15.23 -0.01,-30.47 0.01,-45.71 z"
     id="path20"
     inkscape:connector-curvature="0"
     style="fill:#00335e" />
  <path
     d="m 25.4,22.170175 c 6.17,1.25 11.9,3.96 17.97,5.56 -0.67,4.34 -1.58,8.63 -2.52,12.92 -7.36,-2.46 -14.72,-4.88 -22.03,-7.48 2.12,-3.7 4.2,-7.45 6.58,-11 z"
     id="path22"
     inkscape:connector-curvature="0"
     style="fill:#00335e" />
  <path
     d="m 74.31,59.940175 c 8.53,-7.53 17.15,-14.95 25.69,-22.47 3.06,5.33 6.28,10.57 9.08,16.05 -1,1.6 -2.1,3.18 -3.58,4.37 -5.68,4.79 -11.16,9.8 -16.85,14.58 -4.77,-4.19 -9.54,-8.37 -14.34,-12.53 z"
     id="path26"
     inkscape:connector-curvature="0"
     style="fill:#6ed0f7" />
  <path
     d="m 4.05,63.780175 c 4.58,-4.84 9.99,-8.82 14.87,-13.36 3.63,3.17 7.25,6.34 10.89,9.5 -6.46,5.63 -12.9,11.27 -19.36,16.9 -2.1,-3.83 -4.63,-7.44 -6.45,-11.41 0.02,-0.41 0.04,-1.22 0.05,-1.63 z"
     id="path28"
     inkscape:connector-curvature="0"
     style="fill:#007ac0" />
  <path
     d="m 297.08,77.180175 c 1.37,0.01 2.74,0.02 4.12,0.03 0.52,1.41 2.17,2.87 1.1,4.41 -0.81,2.27 -4.16,2.9 -5.71,1.03 -1.69,-1.51 -0.5,-3.93 0.49,-5.47 z"
     id="path30"
     inkscape:connector-curvature="0"
     style="fill:#00335e" />
  <path
     d="m 140.43,78.320175 c 1.62,0 3.23,0 4.85,0 0.03,13.27 0.01,26.549995 0.01,39.819995 5.49,0 10.99,0 16.48,0 0,1.43 0,2.87 0,4.32 -7.12,0 -14.24,0 -21.35,0 0,-14.72 -0.02,-29.429995 0.01,-44.139995 z"
     id="path32"
     inkscape:connector-curvature="0"
     style="fill:#00335e" />
  <path
     d="m 25.98,84.240175 c 4.97,-1.68 9.92,-3.42 14.93,-5 1.78,9.15 3.67,18.28 5.46,27.429995 -5.05,-0.21 -10.19,0.51 -15.18,-0.46 -0.24,-0.3 -0.73,-0.89 -0.97,-1.18 -1.67,-6.869995 -2.83,-13.859995 -4.24,-20.789995 z"
     id="path34"
     inkscape:connector-curvature="0"
     style="fill:#007ac0" />
  <path
     d="m 63.14,79.150175 c 9.83,3.3 19.65,6.66 29.49,9.92 -2.66,4.34 -4.92,8.95 -7.8,13.149995 -1.05,2.14 -3.58,1.19 -5.3,0.64 -6.56,-2.26 -13.14,-4.439995 -19.69,-6.709995 1.03,-5.68 2.26,-11.32 3.3,-17 z"
     id="path36"
     inkscape:connector-curvature="0"
     style="fill:#18b9ea" />
  <path
     d="m 374.57094,88.464863 c -2.7851,0.04952 -5.45844,0.87344 -7.61094,2.754688 -2.92,-0.94 -6.05,-1.608752 -9.1,-0.918752 -5.07,0.9 -9.28031,5.809064 -8.82031,11.039061 -0.39,3.77 1.79031,7.08 4.47031,9.5 -2.61,2.59 -4.65938,7.31969 -1.05938,10.02969 -2.54,1.79 -5.47124,4.04 -5.53124,7.45 -0.57,3.49 1.75031,6.80094 4.87031,8.16094 5.77,2.54 12.53062,2.37906 18.34062,0.039 3.22,-1.37 6.11031,-4.43969 5.97031,-8.12969 0.19,-2.64 -1.37031,-5.31031 -3.77031,-6.42031 -4.89,-2.68 -10.86,-1.72938 -15.85,-4.05938 -2.47,-1.27 -0.91,-3.98 0.15,-5.65 5.6,2.02 12.97907,-0.0297 15.58907,-5.67969 1.88,-4.5 0.91062,-9.839997 -2.35938,-13.449997 1.54,-0.6 3.19062,-0.760624 4.84062,-0.840624 0.35,-1.27 0.71876,-2.53 1.06876,-3.8 -0.40125,-0.02376 -0.80057,-0.03208 -1.19844,-0.02496 z m -13.31876,5.765624 c 2.2813,0.0724 4.52095,1.02844 5.7172,3.070312 3.19,4.370001 -0.0894,12.238751 -6.00938,11.318751 -7.73,0.9 -9.81,-11.619375 -2.75,-13.959375 0.95938,-0.312496 2.00524,-0.462584 3.04218,-0.429688 z M 355.61,122.33049 c 4.34,1.42 9.16062,0.89937 13.29062,3.00937 1.93,0.97 2.95907,3.69094 1.53907,5.51094 -2.55,3.64 -7.62031,3.49875 -11.57031,3.26875 -3.18,-0.24 -7.40907,-1.99875 -7.28907,-5.76875 -0.31,-2.77 2.37969,-4.29031 4.02969,-6.02031 z"
     id="path38"
     style="fill:#00335e;fill-opacity:1"
     inkscape:connector-curvature="0" />
  <path
     d="m 179.73656,89.947679 c -3.9618,-0.08317 -8.00843,1.656248 -10.23594,5.00312 -4.75,7.010001 -4.53093,17.369371 1.03907,23.859371 5.31,5.71 14.40031,5.13063 20.77031,1.59063 -0.51,-1.21 -1.02031,-2.41094 -1.52031,-3.61094 -4.24,2 -9.57,3.23094 -13.75,0.41094 -3.38,-2.07 -4.26,-6.14094 -4.85,-9.76094 6.91,-0.05 13.83,-0.0103 20.75,-0.0203 0.1,-4.84 -0.59938,-10.158749 -4.00938,-13.868749 -2.08249,-2.371248 -5.11235,-3.53844 -8.19375,-3.60312 z m -0.15938,4.168744 c 2.88212,-0.102464 4.95469,2.24844 6.32344,4.564064 0.28,1.640003 0.61969,3.270003 0.97969,4.900003 -5.19,-0.01 -10.38031,0.009 -15.57031,-0.011 0.32,-4.240003 2.66969,-9.580003 7.67969,-9.400003 0.19937,-0.02936 0.39536,-0.04632 0.58749,-0.05312 z"
     id="path42"
     style="fill:#00335e;fill-opacity:1"
     inkscape:connector-curvature="0" />
  <path
     d="m 211.79438,89.953927 c -3.68389,0.09522 -7.36876,1.27812 -10.475,3.215624 l 1.8,3.481248 c 3.75,-1.97 8.32,-3.43 12.45,-1.75 2.99,1.46 3.22,5.069688 3.3,7.979691 -5.2,0.55 -11.03,-0.35969 -15.6,2.72031 -6.06,3.98 -4.65,15.01875 2.55,16.86875 4.63,1.78 9.57124,-0.34938 13.18124,-3.30938 0.36,1.1 0.71969,2.19938 1.07969,3.30938 1.39,-0.01 2.78907,-0.009 4.18907,-0.009 -0.86,-7.6 -0.16876,-15.25031 -0.51876,-22.870311 -0.19,-3.52 -1.97,-7.259376 -5.45,-8.559376 -2.085,-0.798752 -4.29592,-1.133688 -6.50624,-1.07656 z m 6.975,16.765623 c -0.03,2.75 -0.04,5.49062 -0.05,8.24062 -3.03,2.6 -7.35,5.28938 -11.35,3.15938 -4.29,-2.21 -3.33938,-9.12969 1.09062,-10.67969 3.44,-0.11 6.87938,-0.40031 10.30938,-0.72031 z"
     id="path44"
     style="fill:#00335e;fill-opacity:1"
     inkscape:connector-curvature="0" />
  <path
     d="m 235.36,90.800175 c 1.48,0 2.96,0 4.45,0.01 0.05,1.28 0.09,2.57 0.14,3.86 3.3,-3.45 7.92,-5.72 12.76,-4.34 -0.54,1.61 -1.12,3.22 -1.7,4.82 -3.9,-1.56 -8.3,0.94 -10.26,4.27 -0.29,7.669995 -0.02,15.359995 -0.11,23.039995 -1.76,0 -3.52,0 -5.28,0 0,-10.56 0,-21.11 0,-31.659995 z"
     id="path46"
     inkscape:connector-curvature="0"
     style="fill:#00335e" />
  <path
     d="m 259.6,90.800175 c 1.45,0 2.9,0.01 4.36,0.01 0.11,1.31 0.23,2.62 0.35,3.93 3.87,-2.99 8.66,-5.73 13.74,-4.51 4.55,0.91 6.92,5.73 6.91,10.019995 0.08,7.4 -0.01,14.81 0.02,22.21 -1.7,0 -3.4,-0.01 -5.09,-0.01 -0.03,-7.04 0.05,-14.09 -0.01,-21.14 0.01,-2.679995 -1.03,-5.999995 -3.95,-6.709995 -4.33,-0.88 -8.08,1.96 -11.24,4.49 0.04,7.789995 0.01,15.579995 0.02,23.369995 -1.71,-0.01 -3.41,-0.01 -5.11,0 0,-10.56 0,-21.11 0,-31.659995 z"
     id="path48"
     inkscape:connector-curvature="0"
     style="fill:#00335e" />
  <path
     d="m 296.81,90.800175 c 1.62,0 3.24,0 4.86,0 0.01,10.549995 0,21.099995 0,31.659995 -1.62,0 -3.24,-0.01 -4.85,0 -0.01,-10.55 -0.01,-21.1 -0.01,-31.659995 z"
     id="path50"
     inkscape:connector-curvature="0"
     style="fill:#00335e" />
  <path
     d="m 317.92,94.800175 c 3.95,-3.05 8.89,-5.92 14.08,-4.49 4.43,1.03 6.61,5.78 6.74,9.979995 0.08,7.39 -0.01,14.78 0.03,22.17 -1.61,0 -3.21,-0.01 -4.81,0 -0.07,-6.72 0.13,-13.44 -0.08,-20.15 -0.46,-2.799995 -0.82,-6.649995 -4.03,-7.629995 -4.51,-1.11 -8.53,1.95 -11.72,4.73 0.1,7.679995 0.02,15.369995 0.05,23.049995 -1.67,-0.01 -3.33,-0.01 -4.99,0 0,-10.56 -0.01,-21.11 0.01,-31.659995 1.52,0 3.05,0 4.59,0.01 0.03,1 0.09,2.99 0.13,3.99 z"
     id="path52"
     inkscape:connector-curvature="0"
     style="fill:#00335e" />
</svg>
