<?xml version="1.0" encoding="UTF-8" ?>
<!DOCTYPE svg PUBLIC "-//W3C//DTD SVG 1.1//EN" "http://www.w3.org/Graphics/SVG/1.1/DTD/svg11.dtd">
<svg width="646pt" height="224pt" viewBox="0 0 646 224" version="1.1" xmlns="http://www.w3.org/2000/svg">
<path fill="#ffffff" d=" M 0.00 0.00 L 646.00 0.00 L 646.00 224.00 L 0.00 224.00 L 0.00 0.00 Z" />
<path fill="#aae0fa" d=" M 154.94 37.71 C 161.28 37.82 167.64 37.39 173.96 37.88 C 176.38 38.14 176.72 40.96 177.20 42.84 C 178.82 51.09 180.54 59.33 182.08 67.60 C 175.46 69.86 168.87 72.17 162.21 74.26 C 159.82 62.07 157.30 49.91 154.94 37.71 Z" />
<path fill="#00335e" d=" M 242.98 51.98 C 250.05 46.55 260.04 46.54 268.06 49.76 C 268.05 51.43 268.06 53.10 268.07 54.77 C 261.56 51.56 253.18 50.64 246.97 55.00 C 239.71 60.06 238.06 70.25 240.58 78.27 C 242.10 83.51 246.35 87.93 251.72 89.19 C 256.95 90.98 262.46 89.14 267.29 87.02 C 267.78 88.38 268.28 89.73 268.79 91.08 C 260.77 95.28 250.14 95.76 242.58 90.32 C 230.63 81.36 231.21 60.88 242.98 51.98 Z" />
<path fill="#00335e" d=" M 284.07 47.92 C 291.49 47.93 298.92 47.91 306.34 47.94 C 305.82 49.42 305.23 50.88 304.67 52.34 C 299.62 52.28 294.58 52.32 289.53 52.31 C 289.54 57.53 289.54 62.74 289.53 67.96 C 294.51 67.96 299.49 67.96 304.47 67.96 C 304.46 69.41 304.46 70.87 304.47 72.32 C 299.49 72.32 294.51 72.32 289.53 72.32 C 289.54 77.93 289.53 83.54 289.54 89.16 C 295.32 89.16 301.10 89.16 306.88 89.16 C 306.87 90.65 306.87 92.14 306.88 93.63 C 299.27 93.63 291.66 93.63 284.06 93.64 C 284.05 78.40 284.04 63.16 284.07 47.92 Z" />
<path fill="#00335e" d=" M 323.65 47.92 C 325.32 47.92 327.00 47.93 328.68 47.93 C 337.88 60.30 347.88 72.10 356.46 84.92 C 356.05 72.59 356.35 60.25 356.27 47.92 C 358.15 47.92 360.02 47.92 361.90 47.92 C 361.92 63.16 361.91 78.40 361.91 93.64 C 360.35 93.63 358.80 93.63 357.25 93.62 C 347.79 81.02 337.85 68.77 328.68 55.95 C 329.02 68.51 328.75 81.08 328.84 93.64 C 327.10 93.63 325.37 93.63 323.64 93.63 C 323.65 78.39 323.64 63.16 323.65 47.92 Z" />
<path fill="#00335e" d=" M 383.47 52.25 C 391.29 46.26 402.18 46.69 411.05 49.89 C 411.05 51.58 411.06 53.28 411.08 54.98 C 403.80 51.30 394.32 50.49 387.36 55.29 C 378.92 61.55 378.25 74.82 383.83 83.17 C 389.14 90.45 399.53 91.28 407.38 88.04 C 407.36 83.65 407.37 79.26 407.37 74.87 C 403.67 74.87 399.98 74.85 396.29 74.90 C 395.85 73.36 395.36 71.84 394.86 70.33 C 400.66 70.35 406.46 70.33 412.26 70.34 C 412.29 77.18 412.18 84.02 412.32 90.86 C 405.86 94.09 398.24 95.12 391.17 93.58 C 383.94 92.01 377.87 86.25 375.87 79.14 C 373.12 69.79 375.38 58.32 383.47 52.25 Z" />
<path fill="#00335e" d=" M 439.18 47.81 C 440.34 47.83 441.52 47.84 442.69 47.86 C 448.57 63.10 454.37 78.37 460.24 93.62 C 458.34 93.62 456.45 93.62 454.57 93.62 C 453.14 89.56 451.54 85.57 450.13 81.51 C 444.00 81.59 437.82 81.10 431.74 81.71 C 429.96 85.57 428.84 89.71 427.20 93.63 C 425.36 93.63 423.51 93.63 421.68 93.64 C 427.56 78.38 433.19 63.03 439.18 47.81 Z" />
<path fill="#00335e" d=" M 477.81 51.82 C 485.60 46.28 496.14 46.76 504.78 49.91 C 504.82 51.57 504.88 53.24 504.95 54.91 C 498.00 51.65 489.40 50.55 482.47 54.41 C 472.19 60.50 471.27 76.48 479.05 84.92 C 484.74 90.62 493.77 90.92 500.94 88.09 C 500.93 83.69 500.94 79.28 500.93 74.87 C 497.36 74.86 493.79 74.87 490.22 74.89 C 489.70 73.39 489.20 71.88 488.74 70.36 C 494.55 70.31 500.36 70.35 506.17 70.34 C 506.18 77.18 506.13 84.03 506.20 90.88 C 498.83 94.31 490.06 95.54 482.28 92.79 C 475.51 90.39 470.37 84.16 469.14 77.11 C 467.02 68.01 469.94 57.34 477.81 51.82 Z" />
<path fill="#00335e" d=" M 521.30 47.92 C 528.67 47.93 536.04 47.92 543.41 47.93 C 542.90 49.40 542.39 50.87 541.87 52.33 C 536.77 52.29 531.67 52.31 526.57 52.31 C 526.57 57.53 526.57 62.74 526.57 67.96 C 531.59 67.96 536.61 67.96 541.63 67.96 C 541.61 69.41 541.61 70.87 541.62 72.32 C 536.60 72.32 531.59 72.32 526.58 72.32 C 526.57 77.93 526.57 83.54 526.58 89.16 C 532.36 89.16 538.15 89.16 543.94 89.15 C 543.93 90.65 543.93 92.14 543.94 93.64 C 536.39 93.62 528.84 93.63 521.29 93.63 C 521.30 78.40 521.28 63.16 521.30 47.92 Z" />
<path fill="#00335e" d=" M 124.44 55.81 C 130.61 57.06 136.34 59.77 142.41 61.37 C 141.74 65.71 140.83 70.00 139.89 74.29 C 132.53 71.83 125.17 69.41 117.86 66.81 C 119.98 63.11 122.06 59.36 124.44 55.81 Z" />
<path fill="#ffffff" d=" M 433.34 77.06 C 435.88 70.03 438.47 63.02 440.91 55.95 C 443.23 63.05 445.87 70.04 448.44 77.05 C 443.40 77.07 438.37 77.06 433.34 77.06 Z" />
<path fill="#6ed0f7" d=" M 173.35 93.58 C 181.88 86.05 190.50 78.63 199.04 71.11 C 202.10 76.44 205.32 81.68 208.12 87.16 C 207.12 88.76 206.02 90.34 204.54 91.53 C 198.86 96.32 193.38 101.33 187.69 106.11 C 182.92 101.92 178.15 97.74 173.35 93.58 Z" />
<path fill="#007ac0" d=" M 103.09 97.42 C 107.67 92.58 113.08 88.60 117.96 84.06 C 121.59 87.23 125.21 90.40 128.85 93.56 C 122.39 99.19 115.95 104.83 109.49 110.46 C 107.39 106.63 104.86 103.02 103.04 99.05 C 103.06 98.64 103.08 97.83 103.09 97.42 Z" />
<path fill="#00335e" d=" M 396.12 110.82 C 397.49 110.83 398.86 110.84 400.24 110.85 C 400.76 112.26 402.41 113.72 401.34 115.26 C 400.53 117.53 397.18 118.16 395.63 116.29 C 393.94 114.78 395.13 112.36 396.12 110.82 Z" />
<path fill="#00335e" d=" M 239.47 111.96 C 241.09 111.96 242.70 111.96 244.32 111.96 C 244.35 125.23 244.33 138.51 244.33 151.78 C 249.82 151.78 255.32 151.78 260.81 151.78 C 260.81 153.21 260.81 154.65 260.81 156.10 C 253.69 156.10 246.57 156.10 239.46 156.10 C 239.46 141.38 239.44 126.67 239.47 111.96 Z" />
<path fill="#007ac0" d=" M 125.02 117.88 C 129.99 116.20 134.94 114.46 139.95 112.88 C 141.73 122.03 143.62 131.16 145.41 140.31 C 140.36 140.10 135.22 140.82 130.23 139.85 C 129.99 139.55 129.50 138.96 129.26 138.67 C 127.59 131.80 126.43 124.81 125.02 117.88 Z" />
<path fill="#18b9ea" d=" M 162.18 112.79 C 172.01 116.09 181.83 119.45 191.67 122.71 C 189.01 127.05 186.75 131.66 183.87 135.86 C 182.82 138.00 180.29 137.05 178.57 136.50 C 172.01 134.24 165.43 132.06 158.88 129.79 C 159.91 124.11 161.14 118.47 162.18 112.79 Z" />
<path fill="#00335e" d=" M 466.00 124.86 C 468.46 122.71 471.60 121.94 474.81 122.13 C 474.46 123.40 474.09 124.66 473.74 125.93 C 472.09 126.01 470.44 126.17 468.90 126.77 C 472.17 130.38 473.14 135.72 471.26 140.22 C 468.65 145.87 461.27 147.92 455.67 145.90 C 454.61 147.57 453.05 150.28 455.52 151.55 C 460.51 153.88 466.48 152.93 471.37 155.61 C 473.77 156.72 475.33 159.39 475.14 162.03 C 475.28 165.72 472.39 168.79 469.17 170.16 C 463.36 172.50 456.60 172.66 450.83 170.12 C 447.71 168.76 445.39 165.45 445.96 161.96 C 446.02 158.55 448.95 156.30 451.49 154.51 C 447.89 151.80 449.94 147.07 452.55 144.48 C 449.87 142.06 447.69 138.75 448.08 134.98 C 447.62 129.75 451.83 124.84 456.90 123.94 C 459.95 123.25 463.08 123.92 466.00 124.86 Z" />
<path fill="#00335e" d=" M 481.52 122.70 C 485.62 121.77 488.81 126.95 486.36 130.30 C 484.21 133.64 478.27 132.51 477.63 128.54 C 476.96 125.90 478.88 123.18 481.52 122.70 Z" />
<path fill="#00335e" d=" M 268.54 128.59 C 272.50 122.64 282.21 121.77 286.97 127.19 C 290.38 130.90 291.08 136.22 290.98 141.06 C 284.06 141.07 277.14 141.03 270.23 141.08 C 270.82 144.70 271.70 148.77 275.08 150.84 C 279.26 153.66 284.59 152.43 288.83 150.43 C 289.33 151.63 289.84 152.83 290.35 154.04 C 283.98 157.58 274.89 158.16 269.58 152.45 C 264.01 145.96 263.79 135.60 268.54 128.59 Z" />
<path fill="#00335e" d=" M 300.36 126.81 C 305.33 123.71 311.78 122.54 317.34 124.67 C 320.82 125.97 322.60 129.71 322.79 133.23 C 323.14 140.85 322.45 148.50 323.31 156.10 C 321.91 156.10 320.51 156.10 319.12 156.11 C 318.76 155.00 318.40 153.90 318.04 152.80 C 314.43 155.76 309.49 157.89 304.86 156.11 C 297.66 154.26 296.25 143.22 302.31 139.24 C 306.88 136.16 312.71 137.07 317.91 136.52 C 317.83 133.61 317.60 130.00 314.61 128.54 C 310.48 126.86 305.91 128.32 302.16 130.29 C 301.56 129.13 300.96 127.97 300.36 126.81 Z" />
<path fill="#00335e" d=" M 334.40 124.44 C 335.88 124.44 337.36 124.44 338.85 124.45 C 338.90 125.73 338.94 127.02 338.99 128.31 C 342.29 124.86 346.91 122.59 351.75 123.97 C 351.21 125.58 350.63 127.19 350.05 128.79 C 346.15 127.23 341.75 129.73 339.79 133.06 C 339.50 140.73 339.77 148.42 339.68 156.10 C 337.92 156.10 336.16 156.10 334.40 156.10 C 334.40 145.54 334.40 134.99 334.40 124.44 Z" />
<path fill="#00335e" d=" M 358.64 124.44 C 360.09 124.44 361.54 124.45 363.00 124.45 C 363.11 125.76 363.23 127.07 363.35 128.38 C 367.22 125.39 372.01 122.65 377.09 123.87 C 381.64 124.78 384.01 129.60 384.00 133.89 C 384.08 141.29 383.99 148.70 384.02 156.10 C 382.32 156.10 380.62 156.09 378.93 156.09 C 378.90 149.05 378.98 142.00 378.92 134.95 C 378.93 132.27 377.89 128.95 374.97 128.24 C 370.64 127.36 366.89 130.20 363.73 132.73 C 363.77 140.52 363.74 148.31 363.75 156.10 C 362.04 156.09 360.34 156.09 358.64 156.10 C 358.64 145.54 358.64 134.99 358.64 124.44 Z" />
<path fill="#00335e" d=" M 395.85 124.44 C 397.47 124.44 399.09 124.44 400.71 124.44 C 400.72 134.99 400.71 145.54 400.71 156.10 C 399.09 156.10 397.47 156.09 395.86 156.10 C 395.85 145.55 395.85 135.00 395.85 124.44 Z" />
<path fill="#00335e" d=" M 416.96 128.44 C 420.91 125.39 425.85 122.52 431.04 123.95 C 435.47 124.98 437.65 129.73 437.78 133.93 C 437.86 141.32 437.77 148.71 437.81 156.10 C 436.20 156.10 434.60 156.09 433.00 156.10 C 432.93 149.38 433.13 142.66 432.92 135.95 C 432.46 133.15 432.10 129.30 428.89 128.32 C 424.38 127.21 420.36 130.27 417.17 133.05 C 417.27 140.73 417.19 148.42 417.22 156.10 C 415.55 156.09 413.89 156.09 412.23 156.10 C 412.23 145.54 412.22 134.99 412.24 124.44 C 413.76 124.44 415.29 124.44 416.83 124.45 C 416.86 125.45 416.92 127.44 416.96 128.44 Z" />
<path fill="#ffffff" d=" M 479.24 129.57 C 477.08 126.64 480.66 122.23 483.94 124.08 C 486.75 125.09 486.18 128.68 484.99 130.73 C 483.64 128.98 484.53 126.85 483.89 124.98 C 483.03 124.89 481.31 124.71 480.46 124.62 C 480.47 126.66 480.49 128.71 480.58 130.75 C 481.05 130.20 481.98 129.10 482.45 128.55 C 483.11 129.21 484.44 130.52 485.11 131.18 C 483.13 130.86 480.28 131.85 479.24 129.57 Z" />
<path fill="#ffffff" d=" M 482.16 126.25 C 482.93 126.72 482.93 126.72 482.16 126.25 Z" />
<path fill="#ffffff" d=" M 270.35 137.21 C 270.67 132.97 273.02 127.63 278.03 127.81 C 281.22 127.34 283.48 129.85 284.94 132.32 C 285.22 133.96 285.56 135.59 285.92 137.22 C 280.73 137.21 275.54 137.23 270.35 137.21 Z" />
<path fill="#ffffff" d=" M 457.25 128.30 C 460.32 127.30 464.27 127.97 466.01 130.94 C 469.20 135.31 465.92 143.18 460.00 142.26 C 452.27 143.16 450.19 130.64 457.25 128.30 Z" />
<path fill="#ffffff" d=" M 307.50 141.08 C 310.94 140.97 314.38 140.68 317.81 140.36 C 317.78 143.11 317.77 145.85 317.76 148.60 C 314.73 151.20 310.41 153.89 306.41 151.76 C 302.12 149.55 303.07 142.63 307.50 141.08 Z" />
<path fill="#ffffff" d=" M 454.65 155.97 C 458.99 157.39 463.81 156.87 467.94 158.98 C 469.87 159.95 470.90 162.67 469.48 164.49 C 466.93 168.13 461.86 167.99 457.91 167.76 C 454.73 167.52 450.50 165.76 450.62 161.99 C 450.31 159.22 453.00 157.70 454.65 155.97 Z" />
</svg>
