<?xml version="1.0" encoding="UTF-8" ?>
<!DOCTYPE svg PUBLIC "-//W3C//DTD SVG 1.1//EN" "http://www.w3.org/Graphics/SVG/1.1/DTD/svg11.dtd">
<svg width="422pt" height="133pt" viewBox="0 0 422 133" version="1.1" xmlns="http://www.w3.org/2000/svg">
<path fill="#ffffff" d=" M 0.00 0.00 L 422.00 0.00 L 422.00 133.00 L 0.00 133.00 L 0.00 0.00 Z" />
<path fill="#021b2a" d=" M 310.00 15.19 C 313.33 15.21 316.68 15.19 320.00 14.84 C 320.02 29.05 319.99 43.25 320.02 57.46 C 321.67 57.45 323.33 57.45 325.00 57.44 L 325.00 59.28 C 319.98 59.27 314.97 59.28 309.96 59.27 C 309.98 58.81 310.02 57.88 310.04 57.41 C 311.58 57.44 313.13 57.46 314.68 57.48 C 314.79 44.00 314.68 30.50 314.74 17.02 C 313.15 17.00 311.57 17.00 310.00 17.00 C 310.00 16.54 310.00 15.64 310.00 15.19 Z" />
<path fill="#021b2a" d=" M 339.64 15.34 C 342.69 15.03 345.78 15.19 348.84 14.85 C 348.87 28.97 348.71 43.10 348.91 57.23 C 350.04 57.35 351.16 57.50 352.29 57.69 L 352.27 59.19 C 349.30 59.27 346.34 59.50 343.39 59.78 C 343.44 58.90 343.54 57.13 343.59 56.25 C 340.58 59.94 335.19 61.20 330.88 59.16 C 321.93 54.39 321.43 39.25 330.55 34.40 C 334.94 32.02 340.44 33.28 343.51 37.16 C 343.39 30.47 343.45 23.78 343.47 17.09 C 341.83 17.03 340.19 16.96 338.56 16.81 C 338.83 16.44 339.37 15.71 339.64 15.34 Z" />
<path fill="#021b2a" d=" M 66.04 17.52 C 67.21 16.66 68.48 15.93 70.00 16.18 C 86.31 16.26 102.63 16.06 118.93 16.27 C 120.69 16.13 120.35 18.37 120.82 19.46 C 118.90 19.88 116.95 20.28 114.98 20.25 C 99.29 20.16 83.59 20.24 67.90 20.20 C 67.51 19.80 66.72 18.99 66.33 18.59 C 49.88 18.65 33.42 18.58 16.97 18.62 C 17.01 18.36 17.08 17.83 17.12 17.57 C 33.43 17.58 49.74 17.67 66.04 17.52 Z" />
<path fill="#021b2a" d=" M 169.40 18.52 C 169.43 18.07 169.49 17.17 169.52 16.72 C 176.01 16.74 182.49 16.71 188.98 16.71 C 192.85 16.70 197.00 17.40 199.98 20.07 C 204.11 23.84 203.17 31.51 198.32 34.25 C 195.85 35.79 192.91 36.17 190.07 36.46 C 193.57 37.74 197.65 38.97 199.51 42.53 C 201.94 46.61 200.40 51.51 201.34 55.89 C 202.47 59.26 206.58 57.26 209.10 57.52 C 205.51 61.82 196.71 61.25 194.61 55.62 C 193.28 50.78 194.02 45.50 192.22 40.77 C 190.06 36.61 184.77 37.27 180.85 37.24 C 180.80 43.95 180.82 50.66 180.84 57.37 C 182.78 57.68 185.65 56.58 186.41 59.15 C 180.79 59.39 175.16 59.22 169.54 59.28 C 169.50 58.83 169.43 57.93 169.39 57.48 C 171.08 57.46 172.76 57.44 174.44 57.43 C 174.45 44.48 174.45 31.53 174.44 18.58 C 172.76 18.56 171.08 18.54 169.40 18.52 Z" />
<path fill="#ffffff" d=" M 180.83 18.58 C 184.70 18.75 188.86 17.83 192.49 19.59 C 196.14 21.96 195.35 27.14 194.75 30.81 C 192.73 36.48 185.58 35.22 180.84 35.48 C 180.81 29.84 180.82 24.21 180.83 18.58 Z" />
<path fill="#021b2a" d=" M 79.13 26.33 C 80.28 25.67 81.40 24.60 82.85 24.80 C 89.90 24.76 96.95 24.79 104.00 24.84 C 107.00 24.83 109.99 24.76 112.99 24.89 C 118.52 24.87 124.28 24.29 129.84 25.38 C 129.79 26.48 129.74 27.58 129.69 28.67 C 127.48 29.00 125.25 29.27 123.01 29.23 C 109.65 29.15 96.29 29.27 82.93 29.18 C 81.49 29.24 80.30 28.30 79.09 27.68 C 58.40 27.52 37.71 27.65 17.03 27.62 C 17.02 27.31 17.01 26.69 17.01 26.38 C 37.71 26.36 58.42 26.46 79.13 26.33 Z" />
<path fill="#021b2a" d=" M 209.55 55.53 C 203.10 48.25 207.92 34.31 217.87 33.27 C 224.70 32.13 231.12 37.83 231.05 44.72 C 225.04 44.94 219.02 44.78 213.00 44.83 C 213.12 48.81 212.39 53.47 215.33 56.67 C 218.49 59.64 223.85 58.65 226.56 55.53 C 228.12 53.96 228.68 51.40 230.95 50.62 C 230.28 53.58 229.08 56.70 226.34 58.33 C 221.06 61.50 213.45 60.40 209.55 55.53 Z" />
<path fill="#021b2a" d=" M 266.17 39.85 C 268.29 37.55 269.72 34.21 273.11 33.55 C 276.74 32.49 282.58 33.51 283.19 38.00 C 283.43 44.47 283.19 50.95 283.27 57.42 C 284.16 57.44 285.92 57.47 286.81 57.49 L 286.82 59.26 C 282.88 59.28 278.94 59.27 275.01 59.28 L 274.99 57.49 C 276.05 57.45 277.11 57.42 278.17 57.39 C 278.01 50.88 278.55 44.33 277.87 37.85 C 277.49 35.26 274.05 35.02 272.15 36.00 C 269.26 37.57 267.63 40.84 267.08 43.98 C 266.57 48.43 266.91 52.91 266.83 57.37 C 267.98 57.42 269.12 57.46 270.28 57.51 L 270.27 59.27 C 266.03 59.25 261.79 59.37 257.56 59.15 C 258.16 57.19 260.10 57.42 261.72 57.28 C 261.73 50.19 261.72 43.11 261.72 36.03 C 260.15 35.82 258.27 36.02 257.51 34.29 C 260.64 33.92 263.79 33.70 266.92 33.35 C 267.05 35.58 266.80 37.75 266.17 39.85 Z" />
<path fill="#021b2a" d=" M 295.54 33.68 C 302.94 31.22 310.97 37.52 311.21 45.10 C 312.42 52.72 305.97 61.10 297.90 60.04 C 289.75 59.74 284.70 50.40 286.88 43.00 C 287.94 38.72 291.18 34.83 295.54 33.68 Z" />
<path fill="#021b2a" d=" M 85.07 36.00 C 87.53 33.72 90.96 34.47 94.00 34.38 C 108.26 34.47 122.51 34.24 136.76 34.50 C 136.69 36.03 137.46 39.03 134.92 38.57 C 119.95 38.68 104.98 38.56 90.01 38.63 C 88.37 38.81 86.86 38.23 85.57 37.27 C 80.71 37.21 75.85 37.14 71.00 37.22 C 65.34 37.22 59.67 37.12 54.01 37.28 C 41.74 37.14 29.47 37.24 17.19 37.23 L 17.16 35.78 C 30.78 35.76 44.35 36.12 57.96 35.73 C 67.00 36.31 76.03 35.35 85.07 36.00 Z" />
<path fill="#021b2a" d=" M 228.71 35.07 C 229.61 34.30 230.70 33.80 231.92 33.98 C 235.42 33.98 238.92 33.91 242.41 34.13 C 241.85 36.24 239.67 35.78 238.00 35.97 C 240.27 41.31 242.47 46.67 244.64 52.04 C 246.45 46.73 248.32 41.43 250.22 36.15 C 248.57 35.81 246.93 35.48 245.31 35.05 C 248.73 33.12 252.82 34.15 256.55 34.22 C 255.74 35.84 253.92 35.82 252.40 36.21 C 248.65 46.43 245.06 56.72 241.17 66.89 C 239.91 70.10 237.49 74.53 233.35 73.53 C 230.74 73.04 230.21 69.80 232.05 68.12 C 234.25 67.13 236.10 68.70 237.50 70.22 C 239.33 66.66 240.69 62.90 241.99 59.13 C 238.85 51.78 235.95 44.32 232.84 36.96 C 232.21 35.40 229.90 35.98 228.71 35.07 Z" />
<path fill="#021b2a" d=" M 356.15 45.90 C 352.80 41.58 355.39 34.85 360.52 33.32 C 361.34 33.84 362.16 34.35 362.99 34.88 C 360.00 34.76 357.06 37.10 357.49 40.27 C 361.65 44.16 368.40 42.54 372.72 46.24 C 375.84 50.30 374.21 57.30 369.35 59.26 C 365.86 60.82 361.80 60.10 358.60 58.20 C 357.22 57.24 356.07 59.45 354.80 59.72 C 354.71 56.53 354.65 53.34 354.86 50.16 C 357.82 51.88 358.10 56.07 361.37 57.51 C 365.15 60.14 372.31 57.36 371.05 52.19 C 367.09 48.10 360.50 49.30 356.15 45.90 Z" />
<path fill="#021b2a" d=" M 364.11 36.14 C 363.89 35.32 363.45 33.66 363.23 32.83 C 366.06 33.72 368.96 35.71 371.84 33.82 C 371.55 36.47 372.59 39.56 370.97 41.90 C 369.13 39.10 367.65 35.77 364.19 34.61 L 364.11 36.14 Z" />
<path fill="#ffffff" d=" M 214.84 36.86 C 217.03 34.12 221.97 34.09 223.87 37.17 C 224.88 38.83 224.67 40.84 224.86 42.69 C 220.85 42.75 216.84 42.74 212.83 42.70 C 213.28 40.71 213.37 38.44 214.84 36.86 Z" />
<path fill="#ffffff" d=" M 296.33 35.35 C 298.63 34.38 301.71 34.73 303.28 36.82 C 305.21 39.45 305.07 42.89 305.20 45.99 C 305.14 49.27 305.32 52.77 303.79 55.78 C 301.96 59.36 295.96 59.46 294.05 55.90 C 292.32 52.59 292.58 48.65 292.55 45.01 C 292.79 41.60 292.80 37.13 296.33 35.35 Z" />
<path fill="#ffffff" d=" M 333.39 35.47 C 336.60 33.78 340.89 35.64 342.34 38.88 C 344.27 42.88 343.90 47.55 343.45 51.84 C 342.89 56.63 336.69 60.44 332.54 57.30 C 330.01 54.57 330.34 50.45 330.01 46.99 C 330.09 43.07 329.73 37.98 333.39 35.47 Z" />
<path fill="#021b2a" d=" M 84.01 45.60 C 86.49 45.88 88.49 43.85 90.99 44.18 C 106.66 44.25 122.33 44.08 137.99 44.26 C 140.17 43.76 139.63 46.25 140.00 47.60 C 127.73 49.12 115.32 47.53 103.00 48.21 C 99.99 48.14 96.99 48.25 93.99 48.09 C 92.23 48.11 90.46 48.19 88.71 48.33 C 87.94 47.74 87.17 47.15 86.41 46.56 C 65.27 46.70 44.13 46.55 22.99 46.63 C 20.69 46.65 18.39 46.60 16.11 46.31 C 18.59 45.24 21.34 45.64 23.97 45.58 C 43.98 45.61 63.99 45.58 84.01 45.60 Z" />
<path fill="#021b2a" d=" M 81.41 55.14 C 82.50 54.43 83.48 53.23 84.93 53.41 C 100.91 53.40 116.89 53.32 132.86 53.45 C 135.56 52.94 135.66 58.11 132.94 57.56 C 117.29 57.69 101.64 57.57 85.99 57.62 C 83.51 57.89 81.52 55.85 79.03 56.19 C 60.70 56.22 42.36 56.18 24.03 56.22 C 21.30 56.17 18.46 56.54 15.88 55.44 C 37.71 54.82 59.57 55.42 81.41 55.14 Z" />
<path fill="#021b2a" d=" M 72.76 64.29 C 76.88 61.30 82.31 63.48 87.01 62.72 C 92.33 62.78 97.66 62.90 102.97 62.71 C 104.64 62.96 106.34 62.97 108.03 62.83 C 113.95 62.95 119.92 62.34 125.80 63.32 C 125.80 64.44 125.79 65.56 125.79 66.68 C 123.54 67.12 121.26 67.21 118.98 67.14 C 110.65 67.35 102.32 67.02 94.00 67.32 C 87.71 66.93 81.40 67.57 75.12 67.06 C 74.53 66.72 73.35 66.05 72.76 65.71 C 54.18 65.49 35.60 65.66 17.03 65.62 C 17.02 65.31 17.02 64.69 17.01 64.38 C 35.60 64.33 54.18 64.51 72.76 64.29 Z" />
<path fill="#021b2a" d=" M 338.00 68.23 C 341.34 68.16 344.68 67.98 348.00 67.60 C 348.00 81.76 347.99 95.93 348.01 110.10 C 349.92 110.38 352.69 109.37 353.43 111.87 C 348.29 112.16 343.14 111.93 338.00 112.00 C 338.00 111.55 338.00 110.64 338.00 110.19 C 339.57 110.17 341.15 110.16 342.73 110.14 C 342.72 96.71 342.72 83.28 342.73 69.85 C 341.14 69.83 339.57 69.82 338.00 69.82 C 338.00 69.42 338.00 68.63 338.00 68.23 Z" />
<path fill="#021b2a" d=" M 367.16 68.28 C 370.39 68.13 373.62 67.95 376.85 67.61 C 376.80 81.73 376.83 95.85 376.83 109.96 C 378.38 110.12 380.27 109.99 380.69 111.87 C 377.59 112.04 374.49 112.25 371.41 112.55 C 371.45 111.69 371.53 109.98 371.57 109.12 C 368.36 112.85 362.69 114.13 358.35 111.62 C 352.34 108.17 350.67 99.99 352.88 93.79 C 354.60 88.53 360.43 84.91 365.90 86.22 C 368.19 86.73 369.89 88.44 371.58 89.95 C 371.25 83.36 371.61 76.75 371.40 70.16 C 370.02 69.76 368.57 69.80 367.16 69.65 C 367.16 69.31 367.16 68.62 367.16 68.28 Z" />
<path fill="#021b2a" d=" M 168.99 73.00 C 170.25 69.14 175.31 67.18 178.80 69.33 C 182.96 71.84 183.71 78.14 180.73 81.83 C 179.39 83.47 177.50 84.51 175.92 85.89 C 178.00 91.40 180.55 96.72 182.86 102.13 C 185.27 97.78 186.33 92.91 186.77 88.00 C 185.68 87.82 181.00 88.15 183.04 86.07 C 186.17 85.86 189.32 85.94 192.45 86.16 C 191.82 88.16 189.77 87.79 188.13 87.97 C 187.75 93.62 186.51 99.27 183.72 104.25 C 184.56 106.17 185.40 108.10 186.23 110.03 C 187.55 110.30 191.36 109.53 190.15 111.95 C 187.42 112.08 184.69 112.08 181.97 111.97 C 181.34 111.02 180.78 110.03 180.29 109.00 C 177.22 111.61 173.20 114.08 169.03 112.70 C 163.72 111.13 161.96 104.94 161.95 100.01 C 161.66 94.07 165.83 89.09 170.64 86.15 C 169.07 82.02 167.12 77.37 168.99 73.00 Z" />
<path fill="#ffffff" d=" M 171.98 73.89 C 172.21 71.23 175.62 68.90 177.70 71.32 C 180.17 75.52 179.06 81.46 175.07 84.35 C 173.68 81.02 171.55 77.62 171.98 73.89 Z" />
<path fill="#021b2a" d=" M 197.50 69.45 C 203.67 69.45 209.85 69.45 216.03 69.43 C 219.99 69.44 224.28 69.89 227.47 72.47 C 231.95 75.91 231.46 83.74 226.75 86.75 C 224.16 88.44 221.06 88.99 218.05 89.34 C 221.63 90.47 225.75 91.79 227.55 95.42 C 230.13 99.86 228.13 105.19 229.71 109.88 C 230.27 110.12 231.40 110.59 231.96 110.83 C 233.52 110.50 235.09 110.18 236.66 109.90 C 236.39 112.69 233.22 112.68 231.09 113.02 C 227.73 113.44 223.80 111.93 222.64 108.51 C 221.14 103.49 222.18 97.88 219.94 93.07 C 217.51 89.46 212.62 90.00 208.83 90.00 C 208.83 96.69 208.82 103.39 208.83 110.08 C 210.79 110.40 213.63 109.35 214.46 111.85 C 208.98 112.11 203.48 112.07 198.00 111.92 C 197.70 111.56 197.11 110.84 196.81 110.47 C 198.68 110.27 200.56 110.16 202.45 110.07 C 202.46 97.15 202.44 84.24 202.46 71.32 C 200.78 71.29 199.10 71.27 197.43 71.24 L 197.50 69.45 Z" />
<path fill="#ffffff" d=" M 208.85 71.27 C 213.09 71.57 218.20 70.18 221.67 73.34 C 223.93 76.31 223.39 80.59 222.59 83.99 C 220.31 89.30 213.48 87.96 208.84 88.18 C 208.82 82.55 208.81 76.91 208.85 71.27 Z" />
<path fill="#021b2a" d=" M 78.72 73.29 C 79.98 72.38 81.38 71.59 83.00 71.79 C 97.33 71.70 111.68 71.99 125.99 71.65 C 127.87 72.03 129.88 71.42 131.66 72.26 C 131.76 73.39 131.81 74.53 131.82 75.67 C 115.54 75.99 99.24 75.72 82.94 75.82 C 80.47 76.11 78.49 74.09 76.01 74.40 C 57.32 74.42 38.64 74.39 19.95 74.42 C 18.62 74.48 17.33 74.13 16.08 73.70 C 36.94 72.92 57.85 73.72 78.72 73.29 Z" />
<path fill="#021b2a" d=" M 82.98 82.60 C 85.08 82.73 86.85 81.19 88.94 81.21 C 104.31 81.15 119.68 81.22 135.06 81.17 C 136.44 81.24 139.09 80.90 138.60 83.09 C 139.13 85.07 136.47 85.58 135.03 85.41 C 119.02 85.38 103.01 85.45 87.00 85.38 C 86.60 84.93 85.80 84.03 85.40 83.58 C 62.58 83.66 39.76 83.58 16.94 83.62 C 16.99 83.36 17.08 82.83 17.13 82.57 C 39.08 82.63 61.03 82.58 82.98 82.60 Z" />
<path fill="#021b2a" d=" M 234.69 100.92 C 234.02 93.43 240.03 85.25 248.04 86.00 C 254.25 85.96 258.92 91.48 259.13 97.45 C 253.09 97.64 247.06 97.53 241.02 97.53 C 241.08 101.21 240.49 105.26 242.56 108.54 C 244.95 112.03 250.34 111.88 253.43 109.39 C 255.91 107.99 256.07 104.18 259.06 103.56 C 258.16 107.47 255.74 111.34 251.62 112.35 C 244.06 114.91 234.57 109.25 234.69 100.92 Z" />
<path fill="#021b2a" d=" M 294.80 92.16 C 296.38 89.41 298.52 86.56 301.90 86.11 C 305.47 85.47 310.77 86.67 311.19 91.00 C 311.43 97.32 311.19 103.65 311.28 109.98 C 312.87 110.18 314.85 109.92 315.40 111.88 C 311.27 112.12 307.13 111.95 303.00 112.01 C 303.00 111.55 303.00 110.64 303.00 110.18 C 303.79 110.18 305.37 110.16 306.17 110.16 C 306.09 104.09 306.37 98.02 306.04 91.96 C 306.14 90.36 305.00 89.21 304.12 88.03 C 299.10 87.66 295.66 92.31 295.06 96.84 C 294.57 101.18 294.91 105.56 294.84 109.92 C 295.92 110.25 300.29 110.20 297.88 111.92 C 293.79 112.12 289.67 112.07 285.58 111.87 C 286.15 109.93 288.12 110.18 289.73 109.98 C 289.72 102.84 289.72 95.70 289.72 88.56 C 288.86 88.56 287.12 88.54 286.25 88.54 L 286.12 86.84 C 289.04 86.73 291.95 86.46 294.85 86.09 C 294.83 88.11 294.82 90.13 294.80 92.16 Z" />
<path fill="#021b2a" d=" M 323.40 86.51 C 330.89 83.93 339.03 90.40 339.23 98.07 C 340.33 105.66 333.89 113.84 325.89 112.84 C 317.48 112.44 312.47 102.62 315.06 95.08 C 316.25 91.08 319.36 87.71 323.40 86.51 Z" />
<path fill="#021b2a" d=" M 387.46 86.70 C 390.67 85.24 394.26 86.13 397.13 87.91 C 397.83 87.38 398.55 86.88 399.29 86.39 C 400.34 88.96 399.68 91.83 399.73 94.51 C 396.78 93.43 396.81 89.29 393.78 88.26 C 390.59 86.65 385.98 88.11 385.38 91.95 C 385.64 94.66 388.79 94.95 390.87 95.61 C 394.20 96.62 398.26 96.51 400.82 99.23 C 403.66 103.19 402.28 109.73 397.74 111.84 C 393.86 113.80 389.11 112.92 385.77 110.29 C 384.90 111.20 383.91 111.96 382.82 112.57 C 382.67 109.33 382.67 106.09 382.89 102.86 C 385.74 104.82 386.19 109.03 389.61 110.43 C 393.40 112.80 400.42 110.00 398.95 104.95 C 395.15 100.84 388.51 102.10 384.23 98.74 C 381.12 95.03 382.80 88.32 387.46 86.70 Z" />
<path fill="#021b2a" d=" M 257.16 86.74 C 261.58 86.74 266.00 86.63 270.41 86.85 C 269.83 89.01 267.62 88.49 265.95 88.69 C 268.24 94.02 270.43 99.40 272.59 104.78 C 274.49 99.38 276.50 94.01 278.26 88.56 C 277.32 88.56 275.45 88.55 274.52 88.55 L 274.42 86.73 C 277.77 86.72 281.12 86.67 284.47 86.87 C 283.77 88.62 281.91 88.53 280.39 88.91 C 276.87 98.78 273.26 108.62 269.67 118.46 C 268.26 121.87 266.52 126.45 262.14 126.56 C 259.25 126.61 257.72 122.62 260.13 120.91 C 262.36 120.00 264.14 121.53 265.67 122.94 C 267.28 119.36 268.66 115.68 269.96 111.98 C 266.79 104.19 263.54 96.42 260.41 88.61 C 259.61 88.58 258.01 88.52 257.21 88.49 L 257.16 86.74 Z" />
<path fill="#ffffff" d=" M 166.47 95.02 C 166.41 91.76 168.95 89.57 171.31 87.78 C 174.10 94.21 176.87 100.66 179.59 107.12 C 177.40 108.85 174.22 111.78 171.42 109.47 C 167.80 105.70 166.51 100.11 166.47 95.02 Z" />
<path fill="#ffffff" d=" M 242.70 89.80 C 244.76 87.05 249.32 86.92 251.59 89.47 C 252.93 91.14 252.61 93.43 252.86 95.42 C 248.85 95.46 244.85 95.46 240.86 95.44 C 241.27 93.51 241.31 91.34 242.70 89.80 Z" />
<path fill="#ffffff" d=" M 324.14 88.21 C 326.74 87.03 330.36 87.62 331.76 90.32 C 333.46 93.61 333.13 97.47 333.18 101.06 C 332.99 103.84 333.08 107.00 331.25 109.30 C 329.67 111.42 326.61 111.58 324.30 110.79 C 320.20 108.45 320.69 103.03 320.52 98.98 C 320.74 95.28 320.43 90.33 324.14 88.21 Z" />
<path fill="#ffffff" d=" M 361.35 88.20 C 364.20 86.94 367.85 87.85 369.58 90.49 C 372.46 94.66 371.92 100.08 371.39 104.84 C 370.81 109.68 364.16 113.31 360.26 109.82 C 357.85 106.43 358.14 101.96 358.00 97.99 C 358.14 94.58 358.22 90.34 361.35 88.20 Z" />
<path fill="#021b2a" d=" M 86.23 92.22 C 86.61 91.81 87.36 90.98 87.73 90.57 C 103.50 90.61 119.27 90.61 135.03 90.57 C 136.62 90.62 138.48 90.30 139.51 91.84 C 139.36 92.53 139.05 93.90 138.90 94.59 C 121.88 94.59 104.87 94.70 87.86 94.53 C 85.99 92.71 83.35 93.25 81.00 93.19 C 61.98 93.24 42.96 93.17 23.94 93.22 C 21.29 93.17 18.52 93.53 16.02 92.44 C 18.67 92.11 21.34 92.17 24.01 92.18 C 44.75 92.22 65.49 92.14 86.23 92.22 Z" />
<path fill="#021b2a" d=" M 85.99 101.77 C 87.25 101.92 88.06 100.78 89.06 100.24 C 104.72 100.11 120.39 100.24 136.06 100.17 C 138.08 100.10 141.37 100.15 140.45 103.15 C 140.13 103.44 139.48 104.01 139.15 104.30 C 122.38 104.56 105.60 104.31 88.83 104.42 C 88.42 104.01 87.61 103.19 87.20 102.79 C 63.70 102.85 40.19 102.79 16.69 102.81 L 16.70 101.80 C 39.80 101.77 62.89 101.83 85.99 101.77 Z" />
<path fill="#021b2a" d=" M 407.77 105.84 C 410.25 103.37 415.36 105.48 414.82 109.11 C 415.31 111.43 412.85 112.72 411.42 113.91 C 411.69 113.22 412.25 111.84 412.52 111.15 C 411.69 110.37 410.86 109.58 410.05 108.79 C 410.10 109.61 410.20 111.23 410.26 112.04 C 408.26 110.55 409.23 107.95 408.81 105.89 C 406.22 108.01 406.92 112.64 410.88 112.40 C 409.53 112.76 408.14 112.83 406.76 112.77 C 406.81 110.47 405.81 107.65 407.77 105.84 Z" />
<path fill="#ffffff" d=" M 410.09 108.67 C 409.95 107.49 409.83 106.32 409.72 105.14 C 413.29 105.20 414.73 108.45 413.96 111.52 C 412.57 110.12 412.40 108.24 412.02 106.43 C 411.54 106.99 410.58 108.11 410.09 108.67 Z" />
<path fill="#021b2a" d=" M 91.66 111.30 C 93.77 108.86 97.12 109.72 99.96 109.58 C 114.92 109.81 129.91 109.18 144.85 109.91 C 144.48 111.32 145.49 114.26 143.05 113.73 C 127.38 113.93 111.70 113.75 96.02 113.82 C 93.51 114.15 91.50 112.09 89.00 112.40 C 65.99 112.42 42.98 112.38 19.98 112.43 C 18.64 112.49 17.35 112.13 16.11 111.69 C 20.72 111.13 25.36 111.47 29.98 111.39 C 50.54 111.33 71.10 111.50 91.66 111.30 Z" />
</svg>
