<?xml version="1.0" encoding="UTF-8" standalone="no"?>
<svg
   xmlns:dc="http://purl.org/dc/elements/1.1/"
   xmlns:cc="http://creativecommons.org/ns#"
   xmlns:rdf="http://www.w3.org/1999/02/22-rdf-syntax-ns#"
   xmlns:svg="http://www.w3.org/2000/svg"
   xmlns="http://www.w3.org/2000/svg"
   xmlns:sodipodi="http://sodipodi.sourceforge.net/DTD/sodipodi-0.dtd"
   xmlns:inkscape="http://www.inkscape.org/namespaces/inkscape"
   width="394.41666pt"
   height="119.72047pt"
   viewBox="0 0 394.41666 119.72047"
   version="1.1"
   id="svg2"
   inkscape:version="0.91 r13725"
   sodipodi:docname="reyrey.svg">
  <metadata
     id="metadata92">
    <rdf:RDF>
      <cc:Work
         rdf:about="">
        <dc:format>image/svg+xml</dc:format>
        <dc:type
           rdf:resource="http://purl.org/dc/dcmitype/StillImage" />
        <dc:title></dc:title>
      </cc:Work>
    </rdf:RDF>
  </metadata>
  <defs
     id="defs90" />
  <sodipodi:namedview
     pagecolor="#ffffff"
     bordercolor="#666666"
     borderopacity="1"
     objecttolerance="10"
     gridtolerance="10"
     guidetolerance="10"
     inkscape:pageopacity="0"
     inkscape:pageshadow="2"
     inkscape:window-width="1695"
     inkscape:window-height="905"
     id="namedview88"
     showgrid="false"
     inkscape:zoom="2"
     inkscape:cx="269.55579"
     inkscape:cy="35.210877"
     inkscape:window-x="0"
     inkscape:window-y="0"
     inkscape:window-maximized="0"
     inkscape:current-layer="svg2"
     fit-margin-top="4"
     fit-margin-left="4"
     fit-margin-right="4"
     fit-margin-bottom="4" />
  <path
     d="m 298.12,4.35 c 3.33,0.02 6.68,0 10,-0.35 0.02,14.21 -0.01,28.41 0.02,42.62 1.65,-0.01 3.31,-0.01 4.98,-0.02 l 0,1.84 c -5.02,-0.01 -10.03,0 -15.04,-0.01 0.02,-0.46 0.06,-1.39 0.08,-1.86 1.54,0.03 3.09,0.05 4.64,0.07 0.11,-13.48 0,-26.98 0.06,-40.46 -1.59,-0.02 -3.17,-0.02 -4.74,-0.02 0,-0.46 0,-1.36 0,-1.81 z"
     id="path6"
     style="fill:#231f20;fill-opacity:1"
     inkscape:connector-curvature="0" />
  <path
     d="m 336.96062,4.01 c -3.06,0.34 -6.15,0.1806248 -9.2,0.4906248 -0.27,0.37 -0.81124,1.0987504 -1.08124,1.4687504 1.63,0.15 3.27093,0.2212496 4.91093,0.2812496 -0.02,6.6900002 -0.0809,13.3787502 0.039,20.0687502 C 328.55938,22.439375 323.06,21.18 318.67,23.56 c -9.12,4.85 -8.62031,19.989375 0.32969,24.759375 4.31,2.04 9.70093,0.780625 12.71093,-2.909375 -0.05,0.88 -0.15,2.649687 -0.2,3.529687 2.95,-0.28 5.90969,-0.509062 8.87969,-0.589062 l 0.0203,-1.5 c -1.13,-0.19 -2.25125,-0.340938 -3.38125,-0.460938 -0.2,-14.13 -0.0387,-28.259687 -0.0687,-42.379687 z m -12.90156,19.984375 c 2.62876,-0.03797 5.31407,1.615312 6.40156,4.045312 1.93,4 1.55938,8.670938 1.10938,12.960938 -0.56,4.79 -6.75938,8.599375 -10.90938,5.459375 -2.53,-2.73 -2.20124,-6.849375 -2.53124,-10.309375 0.08,-3.92 -0.27876,-9.010312 3.38124,-11.520312 0.80251,-0.4225 1.6722,-0.623282 2.54844,-0.635938 z"
     id="path8"
     style="fill:#231f20;fill-opacity:1"
     inkscape:connector-curvature="0" />
  <path
     d="m 54.16,6.68 c 1.17,-0.86 2.44,-1.59 3.96,-1.34 16.31,0.08 32.63,-0.12 48.93,0.09 1.76,-0.14 1.42,2.1 1.89,3.19 -1.92,0.42 -3.87,0.82 -5.84,0.79 C 87.41,9.32 71.71,9.4 56.02,9.36 55.63,8.96 54.84,8.15 54.45,7.75 38,7.81 21.54,7.74 5.09,7.78 5.13,7.52 5.2,6.99 5.24,6.73 21.55,6.74 37.86,6.83 54.16,6.68 Z"
     id="path10"
     style="fill:#024890;fill-opacity:1"
     inkscape:connector-curvature="0" />
  <path
     d="m 177.09969,5.8693752 c -6.49,0 -12.96938,0.030936 -19.45938,0.010936 l -0.12031,1.8 5.04062,0.059376 c 0.01,12.9499998 0.01,25.8999998 0,38.8499998 -1.68,0.01 -3.36,0.03 -5.05,0.05 0.04,0.45 0.11,1.35 0.15,1.8 5.62,-0.06 11.24876,0.110313 16.86876,-0.129687 -0.76,-2.57 -3.62876,-1.469687 -5.56876,-1.779687 -0.02,-6.71 -0.0406,-13.419688 0.009,-20.129688 3.92,0.03 9.21032,-0.630312 11.37032,3.529688 1.8,4.73 1.05906,10.01 2.38906,14.85 2.1,5.63 10.90062,6.2 14.49062,1.9 -2.52,-0.26 -6.62937,1.740312 -7.75937,-1.629688 -0.94,-4.38 0.59875,-9.280938 -1.83125,-13.360938 -1.86,-3.56 -5.93906,-4.790312 -9.43906,-6.070312 2.84,-0.29 5.78,-0.669375 8.25,-2.209375 4.85,-2.74 5.78937,-10.409687 1.65937,-14.1796872 -2.98,-2.67 -7.13,-3.3709376 -11,-3.3609376 z M 174.87,7.6490624 c 1.9775,0.011248 3.92562,0.2215624 5.74062,1.1015624 3.65,2.3700002 2.85938,7.5487502 2.25938,11.2187502 -2.02,5.67 -9.16938,4.410312 -13.90938,4.670312 -0.03,-5.64 -0.021,-11.27 -0.011,-16.8999998 1.935,0.085 3.94281,-0.1018744 5.92032,-0.090625 z"
     id="path12"
     style="fill:#231f20;fill-opacity:1"
     inkscape:connector-curvature="0" />
  <path
     d="m 67.25,15.49 c 1.15,-0.66 2.27,-1.73 3.72,-1.53 7.05,-0.04 14.1,-0.01 21.15,0.04 3,-0.01 5.99,-0.08 8.99,0.05 5.53,-0.02 11.29,-0.6 16.85,0.49 -0.05,1.1 -0.1,2.2 -0.15,3.29 -2.21,0.33 -4.44,0.6 -6.68,0.56 C 97.77,18.31 84.41,18.43 71.05,18.34 69.61,18.4 68.42,17.46 67.21,16.84 46.52,16.68 25.83,16.81 5.15,16.78 5.14,16.47 5.13,15.85 5.13,15.54 c 20.7,-0.02 41.41,0.08 62.12,-0.05 z"
     id="path16"
     style="fill:#024890;fill-opacity:1"
     inkscape:connector-curvature="0" />
  <path
     d="m 207.26375,22.294375 c -0.42219,0.01919 -0.84657,0.06469 -1.27344,0.135938 -9.95,1.04 -14.77031,14.979374 -8.32031,22.259374 3.9,4.87 11.51062,5.97 16.79062,2.8 2.74,-1.63 3.93938,-4.749374 4.60938,-7.709374 -2.27,0.78 -2.83062,3.339374 -4.39062,4.909374 -2.71,3.12 -8.06969,4.110626 -11.22969,1.140626 -2.94,-3.2 -2.20969,-7.860626 -2.32969,-11.840626 6.02,-0.05 12.04,0.110626 18.05,-0.109374 0.0656,-6.459375 -5.57344,-11.873816 -11.90625,-11.585938 z m 0.32031,1.698438 c 1.74625,0.035 3.45625,0.7975 4.40625,2.3375 1.01,1.66 0.79907,3.670312 0.98907,5.520312 -4.01,0.06 -8.01969,0.04938 -12.02969,0.0094 0.45,-1.99 0.54093,-4.260625 2.01093,-5.840625 1.095,-1.37 2.8772,-2.061562 4.62344,-2.026562 z"
     id="path18"
     style="fill:#231f20;fill-opacity:1"
     inkscape:connector-curvature="0" />
  <path
     d="m 254.29,29.01 c 2.12,-2.3 3.55,-5.64 6.94,-6.3 3.63,-1.06 9.47,-0.04 10.08,4.45 0.24,6.47 0,12.95 0.08,19.42 0.89,0.02 2.65,0.05 3.54,0.07 l 0.01,1.77 c -3.94,0.02 -7.88,0.01 -11.81,0.02 l -0.02,-1.79 c 1.06,-0.04 2.12,-0.07 3.18,-0.1 -0.16,-6.51 0.38,-13.06 -0.3,-19.54 -0.38,-2.59 -3.82,-2.83 -5.72,-1.85 -2.89,1.57 -4.52,4.84 -5.07,7.98 -0.51,4.45 -0.17,8.93 -0.25,13.39 1.15,0.05 2.29,0.09 3.45,0.14 l -0.01,1.76 c -4.24,-0.02 -8.48,0.1 -12.71,-0.12 0.6,-1.96 2.54,-1.73 4.16,-1.87 0.01,-7.09 0,-14.17 0,-21.25 -1.57,-0.21 -3.45,-0.01 -4.21,-1.74 3.13,-0.37 6.28,-0.59 9.41,-0.94 0.13,2.23 -0.12,4.4 -0.75,6.5 z"
     id="path20"
     style="fill:#231f20;fill-opacity:1"
     inkscape:connector-curvature="0" />
  <path
     d="m 287.14344,22.300625 c -1.1549,-0.01482 -2.32657,0.154688 -3.48282,0.539062 -4.36,1.15 -7.60093,5.040313 -8.66093,9.320313 -2.18,7.4 2.87031,16.740625 11.02031,17.040625 8.07,1.06 14.51938,-7.320625 13.30938,-14.940625 -0.20251,-6.395625 -5.94952,-11.879318 -12.18594,-11.959375 z m 0.10312,1.696875 c 1.60186,0.04942 3.17188,0.676562 4.15313,1.982813 1.93,2.63 1.79031,6.070312 1.92031,9.170312 -0.06,3.28 0.12062,6.779062 -1.40938,9.789062 -1.83,3.58 -7.83062,3.680313 -9.74062,0.120313 -1.73,-3.31 -1.47,-7.250625 -1.5,-10.890625 0.24,-3.41 0.24969,-7.879375 3.77969,-9.659375 0.86249,-0.36375 1.83576,-0.542149 2.79687,-0.5125 z"
     id="path22"
     style="fill:#231f20;fill-opacity:1"
     inkscape:connector-curvature="0" />
  <path
     d="m 73.19,25.16 c 2.46,-2.28 5.89,-1.53 8.93,-1.62 14.26,0.09 28.51,-0.14 42.76,0.12 -0.07,1.53 0.7,4.53 -1.84,4.07 -14.97,0.11 -29.94,-0.01 -44.91,0.06 -1.64,0.18 -3.15,-0.4 -4.44,-1.36 -4.86,-0.06 -9.72,-0.13 -14.57,-0.05 -5.66,0 -11.33,-0.1 -16.99,0.06 C 29.86,26.3 17.59,26.4 5.31,26.39 L 5.28,24.94 c 13.62,-0.02 27.19,0.34 40.8,-0.05 9.04,0.58 18.07,-0.38 27.11,0.27 z"
     id="path24"
     style="fill:#024890;fill-opacity:1"
     inkscape:connector-curvature="0" />
  <path
     d="m 216.83,24.23 c 0.9,-0.77 1.99,-1.27 3.21,-1.09 3.5,0 7,-0.07 10.49,0.15 -0.56,2.11 -2.74,1.65 -4.41,1.84 2.27,5.34 4.47,10.7 6.64,16.07 1.81,-5.31 3.68,-10.61 5.58,-15.89 -1.65,-0.34 -3.29,-0.67 -4.91,-1.1 3.42,-1.93 7.51,-0.9 11.24,-0.83 -0.81,1.62 -2.63,1.6 -4.15,1.99 -3.75,10.22 -7.34,20.51 -11.23,30.68 -1.26,3.21 -3.68,7.64 -7.82,6.64 -2.61,-0.49 -3.14,-3.73 -1.3,-5.41 2.2,-0.99 4.05,0.58 5.45,2.1 1.83,-3.56 3.19,-7.32 4.49,-11.09 -3.14,-7.35 -6.04,-14.81 -9.15,-22.17 -0.63,-1.56 -2.94,-0.98 -4.13,-1.89 z"
     id="path26"
     style="fill:#231f20;fill-opacity:1"
     inkscape:connector-curvature="0" />
  <path
     d="m 72.13,34.76 c 2.48,0.28 4.48,-1.75 6.98,-1.42 15.67,0.07 31.34,-0.1 47,0.08 2.18,-0.5 1.64,1.99 2.01,3.34 -12.27,1.52 -24.68,-0.07 -37,0.61 -3.01,-0.07 -6.01,0.04 -9.01,-0.12 -1.76,0.02 -3.53,0.1 -5.28,0.24 -0.77,-0.59 -1.54,-1.18 -2.3,-1.77 -21.14,0.14 -42.28,-0.01 -63.42,0.07 -2.3,0.02 -4.6,-0.03 -6.88,-0.32 2.48,-1.07 5.23,-0.67 7.86,-0.73 20.01,0.03 40.02,0 60.04,0.02 z"
     id="path38"
     style="fill:#024890;fill-opacity:1"
     inkscape:connector-curvature="0" />
  <path
     d="m 69.53,44.3 c 1.09,-0.71 2.07,-1.91 3.52,-1.73 15.98,-0.01 31.96,-0.09 47.93,0.04 2.7,-0.51 2.8,4.66 0.08,4.11 -15.65,0.13 -31.3,0.01 -46.95,0.06 -2.48,0.27 -4.47,-1.77 -6.96,-1.43 -18.33,0.03 -36.67,-0.01 -55,0.03 C 9.42,45.33 6.58,45.7 4,44.6 25.83,43.98 47.69,44.58 69.53,44.3 Z"
     id="path40"
     style="fill:#024890;fill-opacity:1"
     inkscape:connector-curvature="0" />
  <path
     d="m 60.88,53.45 c 4.12,-2.99 9.55,-0.81 14.25,-1.57 5.32,0.06 10.65,0.18 15.96,-0.01 1.67,0.25 3.37,0.26 5.06,0.12 5.92,0.12 11.89,-0.49 17.77,0.49 0,1.12 -0.01,2.24 -0.01,3.36 -2.25,0.44 -4.53,0.53 -6.81,0.46 C 98.77,56.51 90.44,56.18 82.12,56.48 75.83,56.09 69.52,56.73 63.24,56.22 62.65,55.88 61.47,55.21 60.88,54.87 42.3,54.65 23.72,54.82 5.15,54.78 5.14,54.47 5.14,53.85 5.13,53.54 23.72,53.49 42.3,53.67 60.88,53.45 Z"
     id="path42"
     style="fill:#024890;fill-opacity:1"
     inkscape:connector-curvature="0" />
  <path
     d="m 326.12,57.39 c 3.34,-0.07 6.68,-0.25 10,-0.63 0,14.16 -0.01,28.33 0.01,42.5 1.91,0.28 4.68,-0.73 5.42,1.77 -5.14,0.29 -10.29,0.06 -15.43,0.13 0,-0.45 0,-1.36 0,-1.81 1.57,-0.02 3.15,-0.03 4.73,-0.05 -0.01,-13.43 -0.01,-26.86 0,-40.29 -1.59,-0.02 -3.16,-0.03 -4.73,-0.03 0,-0.4 0,-1.19 0,-1.59 z"
     id="path44"
     style="fill:#231f20;fill-opacity:1"
     inkscape:connector-curvature="0" />
  <path
     d="m 364.97,56.769375 c -3.23,0.34 -6.46062,0.520312 -9.69062,0.670312 l 0,1.370313 c 1.41,0.15 2.86062,0.109375 4.24062,0.509375 0.21,6.59 -0.15031,13.200625 0.17969,19.790625 -1.69,-1.51 -3.38969,-3.219688 -5.67969,-3.729688 -5.47,-1.31 -11.30031,2.310312 -13.02031,7.570312 -2.21,6.2 -0.53969,14.379688 5.47031,17.829686 4.34,2.51 10.01031,1.23 13.22031,-2.499998 -0.04,0.86 -0.12093,2.569688 -0.16093,3.429688 3.08,-0.3 6.18124,-0.50969 9.28124,-0.67969 -0.42,-1.879998 -2.31093,-1.750934 -3.86093,-1.910934 0,-14.11 -0.0297,-28.23 0.0203,-42.350001 z m -12.67656,20.031249 c 2.1205,0.03664 4.21687,1.035 5.40625,2.85 2.88,4.17 2.34093,9.59 1.81093,14.35 -0.58,4.84 -7.23124,8.469686 -11.13124,4.979688 -2.41,-3.39 -2.11938,-7.859688 -2.25938,-11.829688 0.14,-3.41 0.22,-7.650624 3.35,-9.790624 0.89062,-0.393752 1.85957,-0.576024 2.82344,-0.559376 z"
     id="path46"
     style="fill:#231f20;fill-opacity:1"
     inkscape:connector-curvature="0" />
  <path
     d="m 163.35282,57.611562 c -2.71346,0.139515 -5.37595,1.894688 -6.2422,4.548438 -1.87,4.37 0.08,9.02 1.65,13.15 -4.81,2.94 -8.98062,7.919376 -8.69062,13.859376 0.01,4.93 1.76969,11.120624 7.07969,12.690624 4.17,1.38 8.19093,-1.09 11.26093,-3.7 0.49,1.03 1.04969,2.02031 1.67969,2.97031 2.72,0.11 5.44969,0.10969 8.17969,-0.0203 1.21,-2.419998 -2.60031,-1.65031 -3.92031,-1.92031 -0.83,-1.93 -1.66938,-3.859688 -2.50938,-5.779688 2.79,-4.98 4.02938,-10.629688 4.40938,-16.279688 1.64,-0.18 3.69031,0.189064 4.32031,-1.810936 -3.13,-0.22 -6.27938,-0.299064 -9.40938,-0.08906 -2.04,2.08 2.63969,1.749688 3.72969,1.929688 -0.44,4.91 -1.50093,9.779688 -3.91093,14.129688 -2.31,-5.41 -4.85907,-10.729064 -6.93907,-16.239064 1.58,-1.38 3.46938,-2.420936 4.80938,-4.060936 2.98,-3.690002 2.23031,-9.990001 -1.92969,-12.500001 -1.09062,-0.671874 -2.3338,-0.94154 -3.56718,-0.878125 z m 0.26562,1.856251 c 0.77213,-0.0366 1.55156,0.256249 2.20156,1.0125 2.47,4.2 1.36031,10.139687 -2.62969,13.029687 -1.39,-3.33 -3.52062,-6.729375 -3.09062,-10.459375 0.15813,-1.82875 1.82006,-3.5023 3.51875,-3.582812 z m -4.18906,17.471875 c 2.79,6.43 5.56124,12.880624 8.28124,19.340624 -2.19,1.73 -5.37031,4.659998 -8.17031,2.35 -3.62,-3.77 -4.91,-9.36 -4.95,-14.45 -0.06,-3.26 2.47907,-5.450624 4.83907,-7.240624 z"
     id="path48"
     style="fill:#231f20;fill-opacity:1"
     inkscape:connector-curvature="0" />
  <path
     d="m 204.14969,58.589687 c -6.18,0.02 -12.35969,0.02031 -18.52969,0.02031 l -0.0703,1.790625 c 1.67,0.03 3.34969,0.04969 5.02969,0.07969 -0.02,12.92 6.2e-4,25.83 -0.009,38.75 -1.89,0.09 -3.77063,0.2 -5.64063,0.4 0.3,0.369998 0.89063,1.089998 1.19063,1.449998 5.48,0.15 10.97937,0.18969 16.45937,-0.0703 -0.83,-2.499998 -3.66968,-1.45031 -5.62968,-1.77031 -0.01,-6.69 0,-13.389688 0,-20.079688 3.79,0 8.68093,-0.539688 11.11093,3.070312 2.24,4.81 1.2,10.419064 2.7,15.439064 1.16,3.420002 5.09,4.930932 8.45,4.510932 2.13,-0.34 5.29875,-0.33031 5.56875,-3.120308 -1.57,0.28 -3.14,0.599688 -4.7,0.929688 -0.56,-0.24 -1.69,-0.71 -2.25,-0.95 -1.58,-4.69 0.42063,-10.019376 -2.15937,-14.459376 -1.8,-3.63 -5.92,-4.949688 -9.5,-6.079688 3.01,-0.35 6.11,-0.900624 8.7,-2.590624 4.71,-3.01 5.20031,-10.839688 0.72031,-14.279688 -3.19,-2.58 -7.48062,-3.030626 -11.44062,-3.040626 z m -2.175,1.793751 c 2.83721,-0.05625 5.64687,0.142187 7.81562,2.117187 2.26,2.97 1.72031,7.249999 0.92031,10.649999 -2.28,5.31 -9.11,3.969064 -13.75,4.189064 -0.02,-5.63 -0.0306,-11.269375 0.009,-16.909375 1.59,0.1125 3.30236,-0.01313 5.00469,-0.04687 z"
     id="path52"
     style="fill:#231f20;fill-opacity:1"
     inkscape:connector-curvature="0" />
  <path
     d="m 66.84,62.45 c 1.26,-0.91 2.66,-1.7 4.28,-1.5 14.33,-0.09 28.68,0.2 42.99,-0.14 1.88,0.38 3.89,-0.23 5.67,0.61 0.1,1.13 0.15,2.27 0.16,3.41 -16.28,0.32 -32.58,0.05 -48.88,0.15 -2.47,0.29 -4.45,-1.73 -6.93,-1.42 C 45.44,63.58 26.76,63.55 8.07,63.58 6.74,63.64 5.45,63.29 4.2,62.86 25.06,62.08 45.97,62.88 66.84,62.45 Z"
     id="path56"
     style="fill:#024890;fill-opacity:1"
     inkscape:connector-curvature="0" />
  <path
     d="m 71.1,71.76 c 2.1,0.13 3.87,-1.41 5.96,-1.39 15.37,-0.06 30.74,0.01 46.12,-0.04 1.38,0.07 4.03,-0.27 3.54,1.92 0.53,1.98 -2.13,2.49 -3.57,2.32 -16.01,-0.03 -32.02,0.04 -48.03,-0.03 -0.4,-0.45 -1.2,-1.35 -1.6,-1.8 -22.82,0.08 -45.64,0 -68.46,0.04 0.05,-0.26 0.14,-0.79 0.19,-1.05 21.95,0.06 43.9,0.01 65.85,0.03 z"
     id="path58"
     style="fill:#024890;fill-opacity:1"
     inkscape:connector-curvature="0" />
  <path
     d="m 235.41531,75.116248 c -7.63417,-0.194976 -13.25375,7.708128 -12.60469,14.964064 -0.12,8.33 9.36969,13.989688 16.92969,11.429688 4.12,-1.01 6.53907,-4.880624 7.43907,-8.790624 -2.99,0.62 -3.14969,4.431248 -5.62969,5.831248 -3.09,2.489996 -8.48031,2.639996 -10.87031,-0.85 -2.07,-3.28 -1.47907,-7.330936 -1.53907,-11.010936 6.04,0 12.06938,0.110312 18.10938,-0.07968 -0.21,-5.97 -4.87907,-11.49 -11.08907,-11.45 -0.25031,-0.02344 -0.49904,-0.03744 -0.74531,-0.04376 z m -0.22969,1.690624 c 1.68125,-0.05752 3.39,0.54844 4.525,1.82344 1.34,1.67 1.01876,3.96 1.26876,5.95 -4.01,0.04 -8.01,0.04032 -12,0.02032 0.41,-1.93 0.45062,-4.100624 1.84062,-5.640624 1.03,-1.375 2.68438,-2.095624 4.36562,-2.153128 z"
     id="path60"
     style="fill:#231f20;fill-opacity:1"
     inkscape:connector-curvature="0" />
  <path
     d="m 282.92,81.32 c 1.58,-2.75 3.72,-5.6 7.1,-6.05 3.57,-0.64 8.87,0.56 9.29,4.89 0.24,6.32 0,12.65 0.09,18.98 1.59,0.2 3.57,-0.06 4.12,1.9 -4.13,0.24 -8.27,0.07 -12.4,0.13 0,-0.46 0,-1.37 0,-1.83 0.79,0 2.37,-0.02 3.17,-0.02 -0.08,-6.07 0.2,-12.14 -0.13,-18.2 0.1,-1.6 -1.04,-2.75 -1.92,-3.93 -5.02,-0.37 -8.46,4.28 -9.06,8.81 -0.49,4.34 -0.15,8.72 -0.22,13.08 1.08,0.33 5.45,0.28 3.04,2 -4.09,0.2 -8.21,0.15 -12.3,-0.05 0.57,-1.94 2.54,-1.69 4.15,-1.89 -0.01,-7.14 -0.01,-14.28 -0.01,-21.42 -0.86,0 -2.6,-0.02 -3.47,-0.02 L 274.24,76 c 2.92,-0.11 5.83,-0.38 8.73,-0.75 -0.02,2.02 -0.03,4.04 -0.05,6.07 z"
     id="path62"
     style="fill:#231f20;fill-opacity:1"
     inkscape:connector-curvature="0" />
  <path
     d="m 315.045,75.092816 c -1.16928,-0.0088 -2.35469,0.173432 -3.525,0.57656 -4.04,1.2 -7.15062,4.570312 -8.34062,8.570312 -2.59,7.54 2.42124,17.360932 10.83124,17.760932 8,1 14.43907,-7.180308 13.33907,-14.770308 -0.16875,-6.47156 -5.99056,-12.089848 -12.30469,-12.137496 z m -0.14687,1.7 c 2.00825,-0.02792 4.01874,0.831248 4.98125,2.687496 1.7,3.29 1.37031,7.149064 1.42031,10.739064 -0.19,2.78 -0.0997,5.940624 -1.92969,8.240624 -1.58,2.12 -4.64,2.28062 -6.95,1.490624 -4.1,-2.34 -3.60969,-7.760936 -3.77969,-11.810936 0.22,-3.7 -0.0897,-8.650312 3.62031,-10.770312 0.81251,-0.368752 1.72466,-0.563896 2.63751,-0.57656 z"
     id="path64"
     style="fill:#231f20;fill-opacity:1"
     inkscape:connector-curvature="0" />
  <path
     d="m 375.58,75.86 c 3.21,-1.46 6.8,-0.57 9.67,1.21 0.7,-0.53 1.42,-1.03 2.16,-1.52 1.05,2.57 0.39,5.44 0.44,8.12 -2.95,-1.08 -2.92,-5.22 -5.95,-6.25 -3.19,-1.61 -7.8,-0.15 -8.4,3.69 0.26,2.71 3.41,3 5.49,3.66 3.33,1.01 7.39,0.9 9.95,3.62 2.84,3.96 1.46,10.5 -3.08,12.61 -3.88,1.96 -8.63,1.08 -11.97,-1.55 -0.87,0.91 -1.86,1.67 -2.95,2.28 -0.15,-3.24 -0.15,-6.48 0.07,-9.71 2.85,1.96 3.3,6.17 6.72,7.57 3.79,2.37 10.81,-0.43 9.34,-5.48 -3.8,-4.11 -10.44,-2.85 -14.72,-6.21 -3.11,-3.71 -1.43,-10.42 3.23,-12.04 z"
     id="path66"
     style="fill:#231f20;fill-opacity:1"
     inkscape:connector-curvature="0" />
  <path
     d="m 245.28,75.9 c 4.42,0 8.84,-0.11 13.25,0.11 -0.58,2.16 -2.79,1.64 -4.46,1.84 2.29,5.33 4.48,10.71 6.64,16.09 1.9,-5.4 3.91,-10.77 5.67,-16.22 -0.94,0 -2.81,-0.01 -3.74,-0.01 l -0.1,-1.82 c 3.35,-0.01 6.7,-0.06 10.05,0.14 -0.7,1.75 -2.56,1.66 -4.08,2.04 -3.52,9.87 -7.13,19.71 -10.72,29.55 -1.41,3.41 -3.15,7.99 -7.53,8.1 -2.89,0.05 -4.42,-3.94 -2.01,-5.65 2.23,-0.91 4.01,0.62 5.54,2.03 1.61,-3.58 2.99,-7.26 4.29,-10.96 -3.17,-7.79 -6.42,-15.56 -9.55,-23.37 -0.8,-0.03 -2.4,-0.09 -3.2,-0.12 l -0.05,-1.75 z"
     id="path68"
     style="fill:#231f20;fill-opacity:1"
     inkscape:connector-curvature="0" />
  <path
     d="m 74.35,81.38 c 0.38,-0.41 1.13,-1.24 1.5,-1.65 15.77,0.04 31.54,0.04 47.3,0 1.59,0.05 3.45,-0.27 4.48,1.27 -0.15,0.69 -0.46,2.06 -0.61,2.75 C 110,83.75 92.99,83.86 75.98,83.69 74.11,81.87 71.47,82.41 69.12,82.35 50.1,82.4 31.08,82.33 12.06,82.38 9.41,82.33 6.64,82.69 4.14,81.6 c 2.65,-0.33 5.32,-0.27 7.99,-0.26 20.74,0.04 41.48,-0.04 62.22,0.04 z"
     id="path78"
     style="fill:#024890;fill-opacity:1"
     inkscape:connector-curvature="0" />
  <path
     d="m 74.11,90.93 c 1.26,0.15 2.07,-0.99 3.07,-1.53 15.66,-0.13 31.33,0 47,-0.07 2.02,-0.07 5.31,-0.02 4.39,2.98 -0.32,0.29 -0.97,0.86 -1.3,1.15 -16.77,0.26 -33.55,0.01 -50.32,0.12 -0.41,-0.41 -1.22,-1.23 -1.63,-1.63 -23.5,0.06 -47.01,0 -70.51,0.02 l 0.01,-1.01 c 23.1,-0.03 46.19,0.03 69.29,-0.03 z"
     id="path80"
     style="fill:#024890;fill-opacity:1"
     inkscape:connector-curvature="0" />
  <path
     d="m 79.78,100.46 c 2.11,-2.44 5.46,-1.58 8.3,-1.72 14.96,0.23 29.95,-0.4 44.89,0.33 -0.37,1.41 0.64,4.35 -1.8,3.82 -15.67,0.2 -31.35,0.02 -47.03,0.09 -2.51,0.33 -4.52,-1.73 -7.02,-1.42 -23.01,0.02 -46.02,-0.02 -69.02,0.03 -1.34,0.06 -2.63,-0.3 -3.87,-0.74 4.61,-0.56 9.25,-0.22 13.87,-0.3 20.56,-0.06 41.12,0.11 61.68,-0.09 z"
     id="path86"
     style="fill:#024890;fill-opacity:1"
     inkscape:connector-curvature="0" />
  <path
     inkscape:connector-curvature="0"
     d="m 347.22527,23.023773 c 3.21,-1.46 6.8,-0.57 9.67,1.21 0.7,-0.53 1.42,-1.03 2.16,-1.52 1.05,2.57 0.39,5.44 0.44,8.12 -2.95,-1.08 -2.92,-5.22 -5.95,-6.25 -3.19,-1.61 -7.8,-0.15 -8.4,3.69 0.26,2.71 3.41,3 5.49,3.66 3.33,1.01 7.39,0.9 9.95,3.62 2.84,3.96 1.46,10.499997 -3.08,12.609997 -3.88,1.96 -8.63,1.08 -11.97,-1.55 -0.87,0.91 -1.86,1.67 -2.95,2.28 -0.15,-3.24 -0.15,-6.479997 0.07,-9.709997 2.85,1.96 3.3,6.169997 6.72,7.569997 3.79,2.37 10.81,-0.43 9.34,-5.479997 -3.8,-4.11 -10.44,-2.85 -14.72,-6.21 -3.11,-3.71 -1.43,-10.42 3.23,-12.04 z"
     id="path66-8"
     style="fill:#231f20;fill-opacity:1" />
</svg>
