<?xml version="1.0" encoding="UTF-8" ?>
<!DOCTYPE svg PUBLIC "-//W3C//DTD SVG 1.1//EN" "http://www.w3.org/Graphics/SVG/1.1/DTD/svg11.dtd">
<svg width="600pt" height="333pt" viewBox="0 0 600 333" version="1.1" xmlns="http://www.w3.org/2000/svg">
<path fill="#ffffff" d=" M 0.00 0.00 L 600.00 0.00 L 600.00 333.00 L 0.00 333.00 L 0.00 0.00 Z" />
<path fill="#ed5f14" d=" M 205.34 35.63 C 212.57 33.04 221.13 34.03 227.32 38.67 C 234.65 43.77 238.49 53.36 236.74 62.11 C 235.28 70.42 228.98 77.66 220.95 80.23 C 212.61 83.06 202.74 80.77 196.65 74.37 C 190.66 68.45 188.28 59.14 190.84 51.10 C 192.88 44.02 198.42 38.13 205.34 35.63 Z" />
<path fill="#ef2416" d=" M 146.44 37.57 C 158.40 33.71 172.38 39.91 177.72 51.23 C 181.40 58.73 181.25 68.02 177.24 75.36 C 173.59 82.22 166.74 87.28 159.09 88.70 C 150.66 90.43 141.50 87.68 135.42 81.59 C 130.26 76.51 127.31 69.22 127.67 61.97 C 127.73 50.89 135.83 40.56 146.44 37.57 Z" />
<path fill="#ed5f14" d=" M 255.56 64.73 C 264.29 62.14 274.41 66.44 278.34 74.70 C 282.42 82.49 280.24 92.91 273.33 98.36 C 267.23 103.54 257.78 104.33 250.99 100.04 C 244.19 96.12 240.30 87.72 241.84 80.01 C 243.03 72.85 248.58 66.71 255.56 64.73 Z" />
<path fill="#bb0a19" d=" M 90.42 65.72 C 105.19 61.40 122.22 69.92 127.54 84.36 C 133.58 98.74 126.66 116.87 112.58 123.56 C 98.48 131.09 79.27 125.40 71.58 111.39 C 63.92 98.74 67.11 80.96 78.67 71.76 C 82.12 68.97 86.15 66.89 90.42 65.72 Z" />
<path fill="#ed5f14" d=" M 283.25 104.33 C 292.21 101.48 302.52 107.82 304.17 117.03 C 306.52 126.76 298.06 137.34 288.01 136.91 C 279.33 137.43 271.31 129.72 271.19 121.09 C 270.62 113.57 276.07 106.33 283.25 104.33 Z" />
<path fill="#bb0a19" d=" M 65.47 134.72 C 82.06 130.98 100.19 141.18 105.83 157.17 C 111.78 172.37 105.51 191.11 91.56 199.60 C 80.23 206.90 64.71 206.94 53.38 199.61 C 41.22 192.12 34.71 176.89 37.53 162.91 C 39.96 148.98 51.60 137.34 65.47 134.72 Z" />
<path fill="#251b19" d=" M 163.37 156.35 C 194.27 156.15 225.18 156.34 256.08 156.26 C 258.57 156.07 261.32 157.34 262.09 159.86 C 263.13 163.06 263.29 166.75 261.79 169.83 C 260.75 171.92 258.25 172.76 256.05 172.69 C 228.01 172.68 199.97 172.69 171.94 172.67 C 169.70 172.72 167.20 172.70 165.40 174.24 C 161.50 177.78 163.10 186.14 169.06 186.15 C 194.06 186.40 219.07 186.16 244.07 186.27 C 249.23 186.30 254.39 188.35 257.89 192.18 C 263.52 197.85 264.98 206.46 263.84 214.12 C 262.89 221.64 258.04 228.81 250.87 231.62 C 247.11 233.16 243.00 232.73 239.04 232.77 C 210.34 232.77 181.64 232.76 152.93 232.78 C 150.40 232.97 147.74 231.48 147.01 228.97 C 145.23 224.26 146.46 216.04 152.95 216.45 C 180.98 216.45 209.01 216.45 237.04 216.46 C 239.54 216.29 242.51 216.46 244.37 214.46 C 248.07 210.74 245.83 202.71 240.06 202.84 C 215.00 202.72 189.93 202.87 164.87 202.77 C 157.99 202.76 151.60 198.51 148.28 192.60 C 144.69 186.43 144.25 178.80 145.99 171.97 C 147.97 163.97 154.95 157.04 163.37 156.35 Z" />
<path fill="#251b19" d=" M 269.33 156.27 C 298.58 156.27 327.83 156.27 357.07 156.28 C 364.52 156.35 372.19 159.09 377.18 164.79 C 383.25 171.70 386.07 180.91 386.71 189.96 C 387.51 200.82 385.66 212.27 379.44 221.41 C 373.77 229.98 362.96 233.70 353.02 232.77 C 325.12 232.76 297.23 232.77 269.34 232.77 C 269.33 207.27 269.33 181.77 269.33 156.27 Z" />
<path fill="#251b19" d=" M 410.39 156.35 C 441.28 156.18 472.17 156.31 503.06 156.28 C 506.44 155.92 509.28 158.71 509.37 162.04 C 510.19 166.13 509.18 172.48 503.94 172.63 C 475.28 172.76 446.62 172.63 417.96 172.69 C 415.34 172.67 412.04 173.22 410.85 175.90 C 409.39 179.10 409.77 183.93 413.33 185.56 C 415.76 186.51 418.44 186.20 421.00 186.27 C 444.33 186.25 467.67 186.23 491.01 186.27 C 496.41 186.29 501.69 188.68 505.21 192.78 C 510.68 198.73 511.69 207.46 510.42 215.14 C 509.20 222.56 504.09 229.55 496.79 231.90 C 493.66 233.00 490.30 232.78 487.05 232.78 C 457.68 232.74 428.31 232.81 398.94 232.74 C 394.41 232.86 392.64 227.68 393.12 223.92 C 392.90 220.43 395.22 216.24 399.15 216.48 C 427.43 216.42 455.72 216.46 484.00 216.46 C 486.92 216.38 490.75 216.17 492.16 213.11 C 493.30 210.45 493.11 207.03 491.24 204.74 C 489.93 203.30 487.91 202.78 486.02 202.81 C 461.32 202.77 436.61 202.82 411.91 202.78 C 403.68 202.88 396.31 196.94 393.49 189.41 C 389.97 179.79 391.63 167.55 399.78 160.73 C 402.71 158.15 406.50 156.62 410.39 156.35 Z" />
<path fill="#ffffff" d=" M 287.00 172.68 C 308.33 172.69 329.66 172.67 350.99 172.70 C 355.79 172.66 360.96 174.06 364.14 177.87 C 368.11 182.61 368.82 189.12 368.81 195.08 C 368.66 201.10 367.63 207.73 363.12 212.14 C 359.42 215.75 354.00 216.45 349.05 216.46 C 328.37 216.44 307.69 216.46 287.00 216.45 C 287.00 201.86 287.00 187.27 287.00 172.68 Z" />
<path fill="#8d0602" d=" M 98.57 208.82 C 113.75 205.38 130.46 214.69 135.41 229.46 C 140.82 243.59 134.54 260.89 121.32 268.25 C 107.99 276.36 89.09 272.79 79.68 260.33 C 70.42 248.94 70.59 231.22 80.07 220.00 C 84.68 214.27 91.37 210.27 98.57 208.82 Z" />
</svg>
