<?xml version="1.0" encoding="UTF-8" standalone="no"?>
<svg
   xmlns:dc="http://purl.org/dc/elements/1.1/"
   xmlns:cc="http://creativecommons.org/ns#"
   xmlns:rdf="http://www.w3.org/1999/02/22-rdf-syntax-ns#"
   xmlns:svg="http://www.w3.org/2000/svg"
   xmlns="http://www.w3.org/2000/svg"
   xmlns:xlink="http://www.w3.org/1999/xlink"
   xmlns:sodipodi="http://sodipodi.sourceforge.net/DTD/sodipodi-0.dtd"
   xmlns:inkscape="http://www.inkscape.org/namespaces/inkscape"
   width="228pt"
   height="201pt"
   viewBox="0 0 228 201"
   version="1.1"
   id="svg2"
   inkscape:version="0.91 r13725"
   sodipodi:docname="apex_covantage.svg">
  <metadata
     id="metadata72">
    <rdf:RDF>
      <cc:Work
         rdf:about="">
        <dc:format>image/svg+xml</dc:format>
        <dc:type
           rdf:resource="http://purl.org/dc/dcmitype/StillImage" />
        <dc:title></dc:title>
      </cc:Work>
    </rdf:RDF>
  </metadata>
  <defs
     id="defs70">
    <marker
       inkscape:stockid="Arrow1Lstart"
       orient="auto"
       refY="0.0"
       refX="0.0"
       id="Arrow1Lstart"
       style="overflow:visible"
       inkscape:isstock="true">
      <path
         id="path4668"
         d="M 0.0,0.0 L 5.0,-5.0 L -12.5,0.0 L 5.0,5.0 L 0.0,0.0 z "
         style="fill-rule:evenodd;stroke:none;stroke-width:1pt;stroke-opacity:1;fill:#0090a1;fill-opacity:1"
         transform="scale(0.8) translate(12.5,0)" />
    </marker>
    <linearGradient
       inkscape:collect="always"
       id="linearGradient4456">
      <stop
         id="stop4460"
         offset="0"
         style="stop-color:#31bfcd;stop-opacity:1" />
      <stop
         id="stop4458"
         offset="1"
         style="stop-color:#008080;stop-opacity:1;" />
    </linearGradient>
    <linearGradient
       inkscape:collect="always"
       xlink:href="#linearGradient4456"
       id="linearGradient5018"
       x1="38.607292"
       y1="81.599991"
       x2="193.79266"
       y2="81.599991"
       gradientUnits="userSpaceOnUse" />
  </defs>
  <sodipodi:namedview
     pagecolor="#ffffff"
     bordercolor="#666666"
     borderopacity="1"
     objecttolerance="10"
     gridtolerance="10"
     guidetolerance="10"
     inkscape:pageopacity="0"
     inkscape:pageshadow="2"
     inkscape:window-width="1615"
     inkscape:window-height="911"
     id="namedview68"
     showgrid="false"
     inkscape:zoom="4"
     inkscape:cx="138.09336"
     inkscape:cy="167.2396"
     inkscape:window-x="114"
     inkscape:window-y="89"
     inkscape:window-maximized="0"
     inkscape:current-layer="svg2"
     fit-margin-top="4"
     fit-margin-left="4"
     fit-margin-right="4"
     fit-margin-bottom="4" />
  <path
     style="opacity:1;fill:url(#linearGradient5018);fill-opacity:1;fill-rule:nonzero;stroke:none;stroke-width:0.81440002;stroke-linejoin:round;stroke-miterlimit:4;stroke-dasharray:none;stroke-opacity:1"
     d="M 193.79267,81.599991 A 77.59269,77.59269 0 0 1 116.19998,159.19268 77.59269,77.59269 0 0 1 38.607292,81.599991 77.59269,77.59269 0 0 1 116.19998,4.0073013 77.59269,77.59269 0 0 1 193.79267,81.599991 Z"
     id="path4946" />
  <path
     d="m 4,4 108.36,0 c -1.1,0.07 -2.2,0.16 -3.29,0.27 -11.36,1.05 -22.44,4.67 -32.26,10.48 -4.72,2.77 -9.11,6.09 -13.12,9.81 -3.28,3.07 -6.33,6.39 -9.07,9.96 -10.32,13.5 -16.08,30.49 -15.73,47.5 -0.23,16.9 5.69,33.69 15.95,47.06 3.27,4.17 6.92,8.03 10.87,11.56 3.14,-3.12 6.28,-6.24 9.33,-9.45 -8.62,-7.42 -15.39,-16.98 -19.29,-27.67 -4.96,-13.8 -4.98,-29.08 -0.31,-42.96 2.26,-6.32 5.48,-12.27 9.46,-17.67 3.57,-4.72 7.85,-8.85 12.47,-12.53 8.87,-6.76 19.52,-11.17 30.59,-12.57 10.07,-1.59 20.44,-0.06 30.02,3.25 8.87,3.21 17,8.42 23.68,15.08 12.21,12.23 19.34,29.51 18.69,46.84 0.02,18.38 -8.89,36.13 -22.72,48.05 3.1,3.14 6.19,6.3 9.29,9.44 14.11,-12.31 23.8,-29.77 26.06,-48.42 C 196.93,65.74 185.75,37.93 165.05,21.3 157.29,14.97 148.27,10.21 138.69,7.27 132.84,5.47 126.75,4.52 120.66,4 L 224,4 l 0,192.96 c -7.57,-7.82 -15.33,-15.45 -23,-23.18 6.2,-6.6 12.51,-13.09 18.65,-19.75 -4.54,0.01 -9.07,0.01 -13.6,0 -4.07,4.42 -7.97,9 -12.03,13.42 -4.15,-4.46 -8.32,-8.9 -12.44,-13.37 -5.16,-0.06 -10.33,-0.05 -15.49,-0.03 6.89,6.96 13.69,14 20.69,20.86 -6.79,7.38 -13.59,14.76 -20.43,22.09 l -3.38,0 c 0,-3.25 0,-6.5 -0.01,-9.75 -10.99,0.01 -21.98,0.01 -32.97,0 0,-2.72 0,-5.45 0,-8.18 6.33,0 12.65,0 18.98,0 0,-3 0,-5.99 0,-8.99 -6.33,0 -12.65,0.01 -18.98,0 0,-2.41 0,-4.82 0,-7.22 10.85,-0.01 21.69,-0.01 32.54,0 0,-2.94 0.01,-5.88 0.01,-8.82 -14.65,0 -29.29,0 -43.93,0 -0.01,14.32 -0.01,28.64 0,42.96 L 79,197 c 0,-5.36 0,-10.72 0,-16.08 9.03,-0.1 18.07,0.17 27.1,-0.11 3.83,0 7.23,-2.94 7.7,-6.76 0.36,-4.35 0.35,-8.75 0.01,-13.11 -0.41,-3.87 -3.87,-6.89 -7.76,-6.82 -12.79,-0.22 -25.58,-0.01 -38.37,-0.08 -0.01,14.32 0,28.64 0,42.96 l -4.33,0 C 55.02,182.75 46.93,168.36 38.72,154.03 35.21,154.04 31.7,154.04 28.19,154.04 20.11,168.29 12.16,182.6 4,196.8 L 4,4 Z"
     id="path4"
     style="fill:none"
     inkscape:connector-curvature="0" />
  <path
     d="m 180.31,197 c 4.61,-5.06 8.99,-10.33 13.51,-15.47 4.78,5.23 9.64,10.4 14.61,15.47 l -28.12,0 z"
     id="path64"
     style="fill:#ffffff;fill-opacity:0"
     inkscape:connector-curvature="0" />
  <path
     inkscape:connector-curvature="0"
     id="path4956"
     d="M 173.5384,82.000023 A 57.738358,57.738358 0 0 1 115.80004,139.73838 57.738358,57.738358 0 0 1 58.061684,82.000023 57.738358,57.738358 0 0 1 115.80004,24.261665 57.738358,57.738358 0 0 1 173.5384,82.000023 Z"
     style="opacity:1;fill:none;fill-opacity:1;fill-rule:nonzero;stroke:#ffffff;stroke-width:12.84153938;stroke-linejoin:round;stroke-miterlimit:4;stroke-dasharray:none;stroke-opacity:1" />
  <path
     inkscape:connector-curvature="0"
     id="path4956-7"
     d="M 147.48331,82.200005 A 31.483345,31.483345 0 0 1 115.99997,113.68335 31.483345,31.483345 0 0 1 84.516624,82.200005 31.483345,31.483345 0 0 1 115.99997,50.71666 31.483345,31.483345 0 0 1 147.48331,82.200005 Z"
     style="opacity:1;fill:none;fill-opacity:1;fill-rule:nonzero;stroke:#ffffff;stroke-width:12.53279877;stroke-linejoin:round;stroke-miterlimit:4;stroke-dasharray:none;stroke-opacity:1" />
  <path
     inkscape:connector-curvature="0"
     id="path4956-7-3"
     d="M 128.68335,81.9 A 12.983344,12.983344 0 0 1 115.7,94.883344 12.983344,12.983344 0 0 1 102.71666,81.9 12.983344,12.983344 0 0 1 115.7,68.916656 12.983344,12.983344 0 0 1 128.68335,81.9 Z"
     style="opacity:1;fill:#ffffff;fill-opacity:1;fill-rule:nonzero;stroke:none;stroke-width:12.53279877;stroke-linejoin:round;stroke-miterlimit:4;stroke-dasharray:none;stroke-opacity:1" />
  <path
     inkscape:connector-curvature="0"
     id="rect4996"
     d="M 27.470442,178.10001 115.7,89.870448 203.92956,178.10001 Z"
     style="opacity:1;fill:#ffffff;fill-opacity:1;fill-rule:nonzero;stroke:none;stroke-width:15.5;stroke-linejoin:round;stroke-miterlimit:4;stroke-dasharray:none;stroke-opacity:1"
     sodipodi:nodetypes="cccc" />
  <path
     d="m 38.720313,154.02969 c -3.51,0.01 -7.019688,0.011 -10.529688,0.011 C 20.110625,168.29062 12.16,182.6 4,196.8 l 0,0.2 11.7,0 c 1.69,-2.91 3.170313,-5.93969 4.720313,-8.92969 8.23,0.03 16.469062,-0.22969 24.689062,0.0703 2.21,2.64 3.370625,5.98938 5.240625,8.85938 l 13,0 C 55.02,182.75 46.930313,168.35969 38.720313,154.02969 Z M 33.15,165.09062 c 2.39,4.5 4.900313,8.93938 7.070313,13.55938 -4.83,0.02 -9.67,0.0206 -14.5,-0.009 2.35,-4.58 4.809687,-9.12 7.429687,-13.55 z"
     id="path52"
     style="fill:#0090a1;fill-opacity:1;stroke:none;stroke-opacity:1"
     inkscape:connector-curvature="0" />
  <path
     d="m 86.865624,154.02344 c -6.394999,0.0162 -12.790937,0.0522 -19.185937,0.0172 -0.01,14.32 0,28.63938 0,42.95938 l 11.320313,0 0,-16.07969 c 9.03,-0.1 18.07,0.16906 27.1,-0.11094 3.83,0 7.23,-2.93937 7.7,-6.75937 0.36,-4.35 0.34938,-8.74938 0.009,-13.10938 -0.41,-3.87 -3.86938,-6.89031 -7.75938,-6.82031 -6.394996,-0.11 -12.789372,-0.11313 -19.184372,-0.0969 z m 3.112504,8.84843 c 3.658744,-0.02 7.316872,-0.0116 10.971872,0.14844 1.72,-0.32 1.54031,1.88907 1.67031,2.93907 -0.06,1.93 0.35907,4.09124 -0.71093,5.83124 -7.610004,0.62 -15.26938,0.0988 -22.90938,0.26876 l 0,-9.16876 c 3.66,0.05 7.319376,0.002 10.978128,-0.0187 z"
     id="path54"
     style="fill:#0090a1;fill-opacity:1;stroke:none;stroke-opacity:1"
     inkscape:connector-curvature="0" />
  <path
     d="m 118.61,154.04 c 14.64,0 29.28,0 43.93,0 0,2.94 -0.01,5.88 -0.01,8.82 -10.85,-0.01 -21.69,-0.01 -32.54,0 0,2.4 0,4.81 0,7.22 6.33,0.01 12.65,0 18.98,0 0,3 0,5.99 0,8.99 -6.33,0 -12.65,0 -18.98,0 0,2.73 0,5.46 0,8.18 10.99,0.01 21.98,0.01 32.97,0 0.01,3.25 0.01,6.5 0.01,9.75 l -44.36,0 c -0.01,-14.32 -0.01,-28.64 0,-42.96 z"
     id="path56"
     inkscape:connector-curvature="0"
     style="fill:#0090a1;stroke:none;stroke-opacity:1" />
  <path
     d="m 166.09,154.05 c 5.16,-0.02 10.33,-0.03 15.49,0.03 4.12,4.47 8.29,8.91 12.44,13.37 4.06,-4.42 7.96,-9 12.03,-13.42 4.53,0.01 9.06,0.01 13.6,0 -6.14,6.66 -12.45,13.15 -18.65,19.75 7.67,7.73 15.43,15.36 23,23.18 l 0,0.04 -15.57,0 c -4.97,-5.07 -9.83,-10.24 -14.61,-15.47 -4.52,5.14 -8.9,10.41 -13.51,15.47 l -13.96,0 c 6.84,-7.33 13.64,-14.71 20.43,-22.09 -7,-6.86 -13.8,-13.9 -20.69,-20.86 z"
     id="path58"
     inkscape:connector-curvature="0"
     style="fill:#0090a1;stroke:none;stroke-opacity:1" />
</svg>
