<?xml version="1.0" encoding="UTF-8" standalone="no"?>
<svg
   xmlns:dc="http://purl.org/dc/elements/1.1/"
   xmlns:cc="http://creativecommons.org/ns#"
   xmlns:rdf="http://www.w3.org/1999/02/22-rdf-syntax-ns#"
   xmlns:svg="http://www.w3.org/2000/svg"
   xmlns="http://www.w3.org/2000/svg"
   xmlns:sodipodi="http://sodipodi.sourceforge.net/DTD/sodipodi-0.dtd"
   xmlns:inkscape="http://www.inkscape.org/namespaces/inkscape"
   width="400pt"
   height="400pt"
   viewBox="0 0 400 400"
   version="1.1"
   id="svg3003"
   inkscape:version="0.48.5 r10040"
   sodipodi:docname="appveyor_icon.svg">
  <metadata
     id="metadata3019">
    <rdf:RDF>
      <cc:Work
         rdf:about="">
        <dc:format>image/svg+xml</dc:format>
        <dc:type
           rdf:resource="http://purl.org/dc/dcmitype/StillImage" />
      </cc:Work>
    </rdf:RDF>
  </metadata>
  <defs
     id="defs3017" />
  <sodipodi:namedview
     pagecolor="#ffffff"
     bordercolor="#666666"
     borderopacity="1"
     objecttolerance="10"
     gridtolerance="10"
     guidetolerance="10"
     inkscape:pageopacity="0"
     inkscape:pageshadow="2"
     inkscape:window-width="640"
     inkscape:window-height="480"
     id="namedview3015"
     showgrid="false"
     inkscape:zoom="0.57709375"
     inkscape:cx="250"
     inkscape:cy="234.3991"
     inkscape:window-x="0"
     inkscape:window-y="0"
     inkscape:window-maximized="0"
     inkscape:current-layer="svg3003" />
  <path
     style="fill:#ffffff"
     inkscape:connector-curvature="0"
     id="path3008"
     d="m 183.04,116.19 c 10.12,-2.54 20.66,-2.03 30.99,-1.67 18.54,2.17 36.06,11.02 49.29,24.1 17.34,17.87 26.41,43.67 23.24,68.42 -1.25,16.76 -8.66,32.53 -18.61,45.88 -24.18,35.26 -48.86,70.21 -72.83,105.61 -15.35,-0.73 -30.63,-3.55 -45.28,-8.22 2.51,-4.49 6.88,-7.44 10.51,-10.95 11.59,-11.08 23.23,-22.1 34.74,-33.27 7.14,-7.11 14.78,-13.7 21.76,-20.99 -7.84,1.36 -15.89,2.66 -23.84,1.85 -20.68,-0.74 -40.7,-10.06 -55.33,-24.58 -12.43,-12.84 -20.64,-29.69 -23.04,-47.41 -0.66,-7.71 -0.28,-15.46 -0.2,-23.19 -16.56,17.02 -32.03,35.09 -48.4,52.31 -4.28,4.33 -7.72,9.53 -12.67,13.17 -3.15,-8.21 -6.12,-16.54 -7.59,-25.25 -0.94,-5.76 -2.61,-11.54 -2.24,-17.42 4.47,-4.28 9.73,-7.68 14.57,-11.52 29.4,-22.93 58.93,-45.7 88.4,-68.55 10.56,-8.77 23.17,-15.12 36.53,-18.32 m 9.43,28.69 c -6.29,1.39 -12.46,3.47 -18.13,6.53 -16.2,9.05 -27.89,26 -29.9,44.52 -0.42,7.72 -0.44,15.62 2.26,22.97 5.08,17.47 19.95,31.35 37.42,36.01 6.75,2.28 13.94,1.89 20.95,1.66 17.29,-2.02 33.32,-12.15 42.65,-26.85 10.75,-16.31 12.19,-38.3 3.33,-55.76 -7.94,-16.4 -24.95,-27.78 -42.99,-29.58 -5.2,-0.09 -10.46,-0.38 -15.59,0.5 z" />
  <g
     id="#00b3ffff">
    <path
       fill="#00b3ff"
       opacity="1.00"
       d=" M 178.45 24.76 C 196.35 22.77 214.59 22.96 232.31 26.38 C 268.15 32.69 301.85 50.65 327.12 76.85 C 358.73 108.69 377.12 153.16 377.48 198.01 C 378.29 240.94 362.70 284.02 334.37 316.32 C 314.98 339.01 289.56 356.39 261.59 366.74 C 217.02 383.16 165.86 380.76 123.19 359.81 C 88.19 342.87 59.04 314.04 41.86 279.15 C 18.83 233.22 17.35 177.14 38.04 130.11 C 54.94 90.60 86.92 57.86 125.94 39.90 C 142.47 32.00 160.35 27.29 178.45 24.76 M 183.04 116.19 C 169.68 119.39 157.07 125.74 146.51 134.51 C 117.04 157.36 87.51 180.13 58.11 203.06 C 53.27 206.90 48.01 210.30 43.54 214.58 C 43.17 220.46 44.84 226.24 45.78 232.00 C 47.25 240.71 50.22 249.04 53.37 257.25 C 58.32 253.61 61.76 248.41 66.04 244.08 C 82.41 226.86 97.88 208.79 114.44 191.77 C 114.36 199.50 113.98 207.25 114.64 214.96 C 117.04 232.68 125.25 249.53 137.68 262.37 C 152.31 276.89 172.33 286.21 193.01 286.95 C 200.96 287.76 209.01 286.46 216.85 285.10 C 209.87 292.39 202.23 298.98 195.09 306.09 C 183.58 317.26 171.94 328.28 160.35 339.36 C 156.72 342.87 152.35 345.82 149.84 350.31 C 164.49 354.98 179.77 357.80 195.12 358.53 C 219.09 323.13 243.77 288.18 267.95 252.92 C 277.90 239.57 285.31 223.80 286.56 207.04 C 289.73 182.29 280.66 156.49 263.32 138.62 C 250.09 125.54 232.57 116.69 214.03 114.52 C 203.70 114.16 193.16 113.65 183.04 116.19 Z"
       id="path3011" />
    <path
       fill="#00b3ff"
       opacity="1.00"
       d=" M 192.47 144.88 C 197.60 144.00 202.86 144.29 208.06 144.38 C 226.10 146.18 243.11 157.56 251.05 173.96 C 259.91 191.42 258.47 213.41 247.72 229.72 C 238.39 244.42 222.36 254.55 205.07 256.57 C 198.06 256.80 190.87 257.19 184.12 254.91 C 166.65 250.25 151.78 236.37 146.70 218.90 C 144.00 211.55 144.02 203.65 144.44 195.93 C 146.45 177.41 158.14 160.46 174.34 151.41 C 180.01 148.35 186.18 146.27 192.47 144.88 Z"
       id="path3013" />
  </g>
</svg>
