<?xml version="1.0" encoding="UTF-8" standalone="no"?>
<!-- Created with Inkscape (http://www.inkscape.org/) -->

<svg
   xmlns:osb="http://www.openswatchbook.org/uri/2009/osb"
   xmlns:dc="http://purl.org/dc/elements/1.1/"
   xmlns:cc="http://creativecommons.org/ns#"
   xmlns:rdf="http://www.w3.org/1999/02/22-rdf-syntax-ns#"
   xmlns:svg="http://www.w3.org/2000/svg"
   xmlns="http://www.w3.org/2000/svg"
   xmlns:sodipodi="http://sodipodi.sourceforge.net/DTD/sodipodi-0.dtd"
   xmlns:inkscape="http://www.inkscape.org/namespaces/inkscape"
   width="351.57144"
   height="317.38626"
   viewBox="0 0 351.57144 317.38625"
   id="svg2"
   version="1.1"
   inkscape:version="0.91 r13725"
   sodipodi:docname="crocus.svg">
  <title
     id="title4198">Crocus.co.uk Logo</title>
  <defs
     id="defs4">
    <linearGradient
       id="linearGradient4174"
       osb:paint="solid">
      <stop
         style="stop-color:#8ca12a;stop-opacity:1;"
         offset="0"
         id="stop4176" />
    </linearGradient>
  </defs>
  <sodipodi:namedview
     id="base"
     pagecolor="#ffffff"
     bordercolor="#666666"
     borderopacity="1.0"
     inkscape:pageopacity="0.0"
     inkscape:pageshadow="2"
     inkscape:zoom="1"
     inkscape:cx="190.36536"
     inkscape:cy="162.32273"
     inkscape:document-units="px"
     inkscape:current-layer="layer1"
     showgrid="false"
     fit-margin-top="4"
     fit-margin-left="4"
     fit-margin-right="4"
     fit-margin-bottom="4"
     inkscape:window-width="1387"
     inkscape:window-height="856"
     inkscape:window-x="361"
     inkscape:window-y="118"
     inkscape:window-maximized="0"
     units="px" />
  <metadata
     id="metadata7">
    <rdf:RDF>
      <cc:Work
         rdf:about="">
        <dc:format>image/svg+xml</dc:format>
        <dc:type
           rdf:resource="http://purl.org/dc/dcmitype/StillImage" />
        <dc:title>Crocus.co.uk Logo</dc:title>
      </cc:Work>
    </rdf:RDF>
  </metadata>
  <g
     inkscape:label="Layer 1"
     inkscape:groupmode="layer"
     id="layer1"
     transform="translate(-194.21429,-176.85442)">
    <path
       style="fill:#8ca12a"
       inkscape:connector-curvature="0"
       d="m 285.49465,356.93003 c -28.48815,-13.0573 -60.0621,-12.92013 -87.28036,-2.12882 8.2465,27.047 27.90276,50.67679 56.38879,63.73197 28.48921,13.06364 60.0621,12.92304 87.28142,2.13173 -8.24545,-27.04647 -27.90276,-50.67229 -56.38985,-63.73488 z"
       id="path3339" />
    <path
       style="fill:#d7dca6"
       inkscape:connector-curvature="0"
       d="m 336.47193,476.12289 c 10.91922,-10.44457 16.46526,-24.62086 16.46209,-38.73953 -13.58693,-1.10974 -27.67151,3.50284 -38.58677,13.95138 -10.91421,10.44748 -16.46104,24.6272 -16.45998,38.74561 13.58904,1.10577 27.67045,-3.50364 38.58466,-13.95746 z"
       id="path3341" />
    <path
       style="fill:#f15d2a"
       inkscape:connector-curvature="0"
       d="m 456.65321,180.85443 c -29.68563,-0.01 -60.07505,6.24666 -89.35394,19.47389 -58.55884,26.45553 -100.86517,75.46388 -120.84253,132.07679 52.92321,23.67736 115.92761,25.10609 174.48539,-1.34918 58.55673,-26.45447 100.86412,-75.46176 120.84359,-132.07573 -26.46478,-11.83921 -55.44688,-18.11573 -85.13251,-18.12577 z"
       id="path3343" />
    <path
       style="fill:#ffffff;fill-opacity:1"
       inkscape:connector-curvature="0"
       d="m 332.9192,249.45924 c 0,0.31963 -0.10613,0.46137 -0.31908,0.56805 -0.24842,0.0356 -0.53245,0 -0.887,-0.17734 -0.88755,-0.39071 -1.91683,-0.67419 -3.05185,-0.88755 -1.1005,-0.24842 -2.09418,-0.31909 -3.05239,-0.31909 -1.9875,0 -3.76164,0.31909 -5.32337,0.99368 -1.56118,0.7098 -2.83848,1.66787 -3.93939,2.90956 -1.02819,1.24279 -1.84521,2.69729 -2.41271,4.43528 -0.56806,1.66787 -0.81647,3.55032 -0.81647,5.57179 0,1.91642 0.24841,3.65496 0.81647,5.35843 0.5675,1.66787 1.34837,3.12292 2.37765,4.43637 1.02929,1.24169 2.34206,2.23591 3.79711,2.98131 1.52613,0.74472 3.19358,1.09995 5.0744,1.09995 1.02929,0 2.09472,-0.10667 3.05239,-0.24896 0.95821,-0.17735 1.95135,-0.42576 3.05185,-0.81593 0.67418,-0.17734 1.13596,-0.31908 1.34837,-0.24842 0.24896,0.035 0.31963,0.1768 0.31963,0.53191 l 0,2.66222 c 0,0.31963 -0.28403,0.60257 -0.887,0.81539 -1.20663,0.31963 -2.37766,0.56914 -3.61989,0.67418 -1.20664,0.14229 -2.51995,0.17789 -3.90393,0.17789 -2.66114,0 -5.00373,-0.46083 -6.99069,-1.4189 -1.9875,-0.95821 -3.65537,-2.23592 -5.00374,-3.86886 -1.34837,-1.56119 -2.27152,-3.4064 -2.94625,-5.57125 -0.70925,-2.12924 -1.02874,-4.29408 -1.02874,-6.63613 0,-2.55446 0.39016,-4.93321 1.20663,-7.09696 0.7458,-2.09364 1.91683,-3.93885 3.33587,-5.50018 1.49066,-1.52612 3.19413,-2.69728 5.21669,-3.58429 1.9875,-0.85207 4.22287,-1.2777 6.70721,-1.2777 1.56173,0 2.98131,0.14229 4.29462,0.3907 1.31277,0.24788 2.27098,0.42523 3.05131,0.67365 0.46177,0.17789 0.67473,0.46177 0.67473,0.85153 l -0.14243,2.51967 z m 29.34906,0.56805 c -0.42631,0.53244 -0.99368,0.81647 -1.66841,0.81647 -0.74472,0 -1.38343,-0.28403 -1.9519,-0.85207 -0.5319,-0.56805 -1.20608,-0.88701 -1.95134,-0.88701 -0.67419,0 -1.24224,0.28403 -1.80961,0.81593 -0.56805,0.56805 -1.13597,1.38452 -1.77468,2.41381 -0.56805,1.02874 -1.1005,2.12815 -1.66787,3.33478 -0.56805,1.34837 -1.41945,3.40586 -2.41272,6.31759 -1.02983,2.90848 -1.95244,5.64137 -2.80451,8.37467 -0.85099,2.66114 -1.56119,5.14494 -2.19991,7.41592 -0.19556,0.68288 -0.44031,1.11531 -0.53244,1.20772 -0.0921,0.0924 -0.39016,0.1768 -0.74526,0.1768 l -2.41286,0 c -0.17789,0 -0.3426,-0.0407 -0.42631,-0.10668 -0.0837,-0.0661 -0.14636,-0.17939 -0.17735,-0.31963 -0.031,-0.14025 -0.0287,-0.42156 0,-0.81593 0.0286,-0.39437 0.10668,-0.81592 0.17735,-1.38343 l 4.04607,-22.6057 c 0.17734,-0.95821 0.28348,-1.70293 0.28348,-2.34205 0,-0.31909 -0.10614,-0.56751 -0.24842,-0.81593 -0.14228,-0.17734 -0.42577,-0.31963 -0.74526,-0.31963 -0.46137,0 -0.95821,0.17734 -1.49011,0.60311 -0.53245,0.39071 -1.1005,0.99423 -1.77468,1.81016 -0.60312,0.74471 -1.2417,1.70292 -1.91643,2.76727 -0.17735,0.28457 -0.42631,0.42631 -0.74526,0.24842 l -0.42631,-0.24842 c -0.28348,-0.17789 -0.31909,-0.46083 -0.0351,-0.95767 1.91642,-3.12251 3.7971,-5.50017 5.64245,-7.13297 1.84522,-1.63186 3.47762,-2.41272 4.8976,-2.41272 0.7098,0 1.20664,0.1768 1.56119,0.67418 0.31963,0.42577 0.53245,1.02875 0.53245,1.84522 0,1.52612 -1.02929,6.7068 -3.33587,15.54216 -0.95821,3.79765 -1.84521,7.02739 -2.48434,9.654 -0.64864,2.53626 -1.02236,4.00843 -1.20663,4.64864 l 0.24896,0 c 0.81593,-2.66222 1.56119,-5.32336 2.41272,-7.98559 0.85154,-2.69675 1.66841,-5.21723 2.51995,-7.59326 0.85207,-2.41435 1.66746,-4.57906 2.48379,-6.53 0.74526,-1.95135 1.52613,-3.40641 2.20085,-4.57757 1.24224,-1.95189 2.41273,-3.47761 3.54869,-4.47183 1.20609,-0.99327 2.41272,-1.52572 3.76164,-1.52572 1.02874,0 1.84521,0.28402 2.41326,0.85153 0.56751,0.53245 0.85099,1.30937 0.85099,2.05857 2.3e-4,1.13978 -0.17653,1.73881 -0.6379,2.30686 z m 31.01651,19.02032 c -0.60311,2.09363 -1.52667,3.93939 -2.80397,5.57179 -1.27729,1.63239 -2.9101,2.9101 -4.86145,3.86831 -1.95189,0.99328 -4.29408,1.49011 -6.99123,1.49011 -2.66169,0 -5.00374,-0.46082 -6.95577,-1.49011 -1.95135,-0.95821 -3.58429,-2.23592 -4.862,-3.86831 -1.27716,-1.6324 -2.23537,-3.47816 -2.80288,-5.57179 -0.60352,-2.09418 -0.88754,-4.29463 -0.88754,-6.56506 0,-2.2699 0.28402,-4.4713 0.88754,-6.56452 0.56751,-2.09418 1.52572,-3.93885 2.80288,-5.57124 1.27771,-1.63295 2.91065,-2.91065 4.862,-3.86832 1.95189,-0.99368 4.29408,-1.49066 6.95577,-1.49066 2.69729,0 5.03934,0.46137 6.99123,1.49066 1.95135,0.95767 3.54868,2.23537 4.86145,3.86832 1.31332,1.63239 2.20086,3.47706 2.80397,5.57124 0.60257,2.09309 0.887,4.29462 0.887,6.56452 0,2.27043 -0.28456,4.47088 -0.887,6.56506 z m -4.29408,-11.99457 c -0.46137,-1.70293 -1.17103,-3.19304 -2.12978,-4.43528 -0.95767,-1.27716 -2.09309,-2.23537 -3.47761,-2.98077 -1.38398,-0.70979 -2.94517,-1.02928 -4.75532,-1.02928 -1.77468,0 -3.37148,0.31963 -4.75532,1.02928 -1.38398,0.74526 -2.5194,1.70348 -3.47761,2.98077 -0.88754,1.24224 -1.63294,2.69675 -2.09418,4.43528 -0.46082,1.66746 -0.70979,3.47925 -0.70979,5.42951 0,1.91588 0.24897,3.72603 0.70979,5.4295 0.46138,1.66787 1.20664,3.12292 2.09418,4.43637 0.95821,1.24169 2.09363,2.23591 3.47761,2.98131 1.38398,0.70925 2.98077,1.0282 4.75532,1.0282 2.62608,0 4.79092,-0.74472 6.56547,-2.27098 1.77414,-1.52572 2.94516,-3.37093 3.54868,-5.50017 0.60312,-2.12978 0.95767,-4.18835 0.95767,-6.10423 1.4e-4,-1.95026 -0.24828,-3.76218 -0.70911,-5.42951 z m 34.84869,-7.5938 c 0,0.31963 -0.14229,0.46137 -0.39016,0.56805 -0.1783,0.0356 -0.53299,0 -0.85208,-0.17734 -0.95822,-0.39071 -1.95244,-0.67419 -3.05184,-0.88755 -1.1005,-0.21282 -2.12979,-0.31909 -3.05239,-0.31909 -2.05817,0 -3.79711,0.31909 -5.35843,0.99368 -1.56174,0.7098 -2.83903,1.66787 -3.90339,2.90956 -1.10103,1.24279 -1.91642,2.69729 -2.41381,4.43528 -0.5675,1.66787 -0.85207,3.55032 -0.85207,5.57179 0,1.91642 0.28457,3.65496 0.85207,5.35843 0.53245,1.66787 1.34892,3.12292 2.37821,4.43637 1.02929,1.24169 2.27044,2.23591 3.7967,2.98131 1.49066,0.74472 3.12346,1.09995 5.03935,1.09995 1.10049,0 2.09363,-0.10667 3.05184,-0.24896 0.95821,-0.17735 1.95189,-0.42576 3.05239,-0.81593 0.67419,-0.17734 1.13501,-0.31908 1.34837,-0.24842 0.24842,0.035 0.39016,0.1768 0.39016,0.53191 l 0,2.66222 c 0,0.31963 -0.31963,0.60257 -0.95821,0.81539 -1.17157,0.31963 -2.37766,0.56914 -3.54868,0.67418 -1.24224,0.14229 -2.5194,0.17789 -3.93939,0.17789 -2.66169,0 -5.00266,-0.46083 -6.9907,-1.4189 -1.98696,-0.95821 -3.65496,-2.23592 -4.93321,-3.86886 -1.34783,-1.56119 -2.34151,-3.4064 -2.98077,-5.57125 -0.60311,-2.09308 -0.95821,-4.29408 -0.95821,-6.60107 0,-2.55392 0.3907,-4.93212 1.13542,-7.09696 0.81647,-2.09309 1.91683,-3.9379 3.37188,-5.50017 1.4185,-1.52572 3.19359,-2.69621 5.18055,-3.58429 2.05857,-0.85153 4.29462,-1.27717 6.74336,-1.27717 1.56064,0 2.98022,0.14174 4.29354,0.39016 1.31331,0.24843 2.27152,0.42577 2.98077,0.67473 0.53244,0.17735 0.71033,0.46083 0.67473,0.85154 l -0.106,2.48352 z m 32.82653,29.66651 -2.66169,0 c -0.42631,0 -0.67473,-0.28348 -0.67473,-0.81538 -0.0356,-1.56119 -0.14174,-3.26466 -0.14174,-5.14602 l -0.10668,0 c -0.67473,1.41998 -1.48957,2.62607 -2.37711,3.65495 -0.9593,1.02929 -2.12979,1.8107 -3.62044,2.3426 -1.49066,0.46178 -3.08745,0.74472 -4.79093,0.74472 -2.05816,0 -3.79669,-0.31909 -5.21668,-0.99368 -1.41945,-0.60257 -2.62608,-1.52613 -3.51363,-2.66115 -0.88754,-1.13542 -1.56118,-2.51994 -1.98695,-4.08058 -0.39016,-1.56228 -0.60311,-3.22974 -0.60311,-5.07495 l 0,-20.47605 c 0,-0.53245 0.24842,-0.74526 0.70979,-0.74526 l 2.55446,0 c 0.31963,0 0.56859,0.0361 0.67473,0.14228 0.14174,0.10668 0.17735,0.28403 0.17735,0.60311 l 0,19.44663 c 0,1.56119 0.14173,2.98077 0.42576,4.29463 0.28457,1.27675 0.74526,2.37712 1.38398,3.22864 0.60406,0.88701 1.49066,1.6324 2.48434,2.09418 0.99368,0.46137 2.20085,0.71034 3.61989,0.71034 2.55501,0 4.61412,-0.71034 6.24543,-2.23701 1.56174,-1.49011 2.62663,-3.12251 2.98172,-5.0388 0.42632,-1.84521 0.60258,-3.47761 0.60258,-4.86145 l 0,-17.63729 c 0,-0.53245 0.24896,-0.74526 0.7458,-0.74526 l 2.62716,0 c 0.318,0 0.53136,0.0361 0.60203,0.14228 0.10668,0.14175 0.14228,0.28403 0.14228,0.56751 l 0,24.73439 c 0,2.23538 0.10614,4.64864 0.17681,7.23966 -1.4e-4,0.39016 -0.14188,0.56696 -0.46042,0.56696 z m 26.40238,-2.76782 c -1.49064,1.52613 -3.1229,2.48434 -4.89706,2.9101 -1.77413,0.42686 -3.22918,0.67419 -4.50689,0.67419 -1.56173,0 -3.05238,-0.10613 -4.43582,-0.31854 -1.34892,-0.1783 -2.66223,-0.46178 -4.0106,-0.85248 -0.56805,-0.1412 -0.88754,-0.53245 -0.85153,-1.02875 l 0.14174,-2.66114 c 0.0362,-0.39125 0.10668,-0.53244 0.28402,-0.53244 0.17735,0 0.42577,0.0356 0.67419,0.17734 1.24224,0.53245 2.48434,0.95821 3.79765,1.24169 1.27676,0.28403 2.66168,0.42686 4.1518,0.42686 1.49011,0 2.80342,-0.28457 4.04566,-0.85249 1.24223,-0.60352 2.09363,-1.38452 2.62662,-2.27098 0.46028,-0.88754 0.7098,-1.84521 0.7098,-2.7689 0,-0.99327 -0.1779,-1.84522 -0.67419,-2.555 -0.46137,-0.74472 -1.02983,-1.41891 -1.81016,-1.98642 -0.74525,-0.56859 -2.09417,-1.34837 -4.01005,-2.23592 -1.9875,-0.9582 -3.51363,-1.70238 -4.47184,-2.23333 -0.95821,-0.5319 -1.80961,-1.10145 -2.55554,-1.81233 -0.7098,-0.67418 -1.34838,-1.49065 -1.80961,-2.34259 -0.42577,-0.887 -0.67419,-1.95081 -0.67419,-3.19359 0,-2.27044 0.60257,-4.15125 1.84576,-5.5707 1.24169,-1.49066 2.69674,-2.37766 4.36461,-2.83903 1.66746,-0.42631 3.22919,-0.67419 4.61303,-0.67419 0.67419,0 1.70348,0.10669 3.19414,0.28403 1.49064,0.17734 2.83957,0.46137 4.18781,0.887 0.5675,0.17735 0.81593,0.46137 0.74525,0.887 l -0.10667,2.23592 c -0.0356,0.31963 -0.14229,0.53244 -0.28349,0.56751 -0.14174,0.0356 -0.46178,-0.035 -0.88754,-0.17735 -0.99369,-0.39016 -2.09363,-0.67419 -3.22919,-0.85153 -1.10049,-0.17789 -2.20033,-0.28403 -3.19414,-0.28403 -1.66786,0 -3.08799,0.17735 -4.1878,0.67419 -1.13502,0.42631 -1.91643,1.10049 -2.34151,1.95189 -0.42686,0.887 -0.67419,1.84522 -0.67419,2.90902 0,0.7458 0.24733,1.49066 0.70925,2.05857 0.46137,0.56805 1.09995,1.09995 1.84575,1.63186 0.74472,0.46177 2.1287,1.13542 4.08114,2.05911 2.09363,0.88918 3.58429,1.70402 4.57756,2.27098 0.99327,0.60311 1.84575,1.27771 2.62662,2.09363 0.74472,0.74472 1.38399,1.66787 1.84466,2.69621 0.46137,0.99368 0.71036,2.20085 0.71036,3.54868 0.0711,2.41394 -0.71036,4.40144 -2.16541,5.85595 z"
       id="path3360" />
  </g>
</svg>
