<?xml version="1.0" encoding="UTF-8" standalone="no"?>
<svg width="500" height="420" xmlns="http://www.w3.org/2000/svg">
  <polygon fill="#217a30" points="65,270 65,310 138.1370849898476,332.8553390593274 138.1370849898476,283.7132034355964 232.84609690826528,301.47114317029974 232.84609690826528,362.4519052838329 345,397.5 345,322.5 472.21359549995793,346.35254915624216 472.21359549995793,255.45084971874735 345,247.5 345,172.5 472.21359549995793,164.54915028125262 472.21359549995793,73.64745084375787 345,97.5 345,22.5 232.84609690826528,57.5480947161671 232.84609690826528,118.52885682970026 138.1370849898476,136.28679656440357 138.1370849898476,87.14466094067262 65,110 65,150 25,157.5 25,192.5 65,190 65,230 25,227.5 25,262.5" stroke="white" stroke-width="8"></polygon>
  <polygon fill="white" points="138.1370849898476,234.57106781186548 138.1370849898476,185.42893218813452 232.84609690826528,179.50961894323342 232.84609690826528,240.49038105676658" stroke="white" stroke-width="8"></polygon>
</svg>