<?xml version="1.0" encoding="UTF-8" standalone="no"?>
<svg width="500" height="540" xmlns="http://www.w3.org/2000/svg">
  <polygon fill="#217a30" points="60,330 60,370 133.1370849898476,408.4932026262356 133.1370849898476,353.09592157574133 227.84609690826528,383.0040306026101 227.84609690826528,458.34005100435013 340,517.3684210526316 340,418.42105263157896 467.21359549995793,458.5937669999867 467.21359549995793,332.8645889999956 340,319.47368421052636 340,220.5263157894737 467.21359549995793,207.1354110000044 467.21359549995793,81.40623300001326 340,121.57894736842104 340,22.63157894736844 227.84609690826528,81.65994899564986 227.84609690826528,156.9959693973899 133.1370849898476,186.90407842425867 133.1370849898476,131.5067973737644 60,170 60,210 20,222.63157894736844 20,254.21052631578948 60,250 60,290 20,285.7894736842105 20,317.36842105263156" stroke="white" stroke-width="8"></polygon>
  <polygon fill="white" points="133.1370849898476,297.69864052524713 133.1370849898476,242.30135947475287 227.84609690826528,232.33198979912999 227.84609690826528,307.66801020087007" stroke="white" stroke-width="8"></polygon>
</svg>