<?xml version="1.0" encoding="UTF-8" standalone="no"?>
<!-- Created with Inkscape (http://www.inkscape.org/) -->

<svg
   xmlns:dc="http://purl.org/dc/elements/1.1/"
   xmlns:cc="http://creativecommons.org/ns#"
   xmlns:rdf="http://www.w3.org/1999/02/22-rdf-syntax-ns#"
   xmlns:svg="http://www.w3.org/2000/svg"
   xmlns="http://www.w3.org/2000/svg"
   xmlns:sodipodi="http://sodipodi.sourceforge.net/DTD/sodipodi-0.dtd"
   xmlns:inkscape="http://www.inkscape.org/namespaces/inkscape"
   version="1.1"
   width="95.601463"
   height="56.674648"
   id="svg2985"
   inkscape:version="0.91 r13725"
   sodipodi:docname="csharp.svg">
  <sodipodi:namedview
     pagecolor="#ffffff"
     bordercolor="#666666"
     borderopacity="1"
     objecttolerance="10"
     gridtolerance="10"
     guidetolerance="10"
     inkscape:pageopacity="0"
     inkscape:pageshadow="2"
     inkscape:window-width="1920"
     inkscape:window-height="1027"
     id="namedview3023"
     showgrid="false"
     inkscape:zoom="5.5"
     inkscape:cx="8.7954845"
     inkscape:cy="43.199047"
     inkscape:window-x="-8"
     inkscape:window-y="-8"
     inkscape:window-maximized="1"
     inkscape:current-layer="svg2985"
     fit-margin-top="4"
     fit-margin-right="4"
     fit-margin-bottom="4"
     fit-margin-left="4" />
  <defs
     id="defs2987" />
  <metadata
     id="metadata2990">
    <rdf:RDF>
      <cc:Work
         rdf:about="">
        <dc:format>image/svg+xml</dc:format>
        <dc:type
           rdf:resource="http://purl.org/dc/dcmitype/StillImage" />
        <dc:title></dc:title>
      </cc:Work>
    </rdf:RDF>
  </metadata>
  <g
     transform="matrix(1.2458954,0,0,0.80263559,-11.931788,-13.251671)"
     style="font-style:normal;font-variant:normal;font-weight:normal;font-stretch:normal;font-size:74.10377502px;line-height:125%;font-family:Consolas;-inkscape-font-specification:'Consolas, Normal';text-align:start;letter-spacing:0px;word-spacing:0px;writing-mode:lr-tb;text-anchor:start;fill:#00d400;fill-opacity:1;stroke:none"
     id="text2995">
    <path
       d="m 83.099476,59.486436 -7.236697,3.22033 0,11.831999 -3.11178,0 0,-10.420843 -12.953687,5.789357 0,12.230018 -3.111779,0 0,-10.818862 -7.236697,3.22033 0,-6.078825 7.236697,-3.22033 0,-17.874641 -7.236697,3.22033 0,-6.078826 7.236697,-3.22033 0,-11.831999 3.111779,0 0,10.420843 12.953687,-5.789357 0,-12.591852 3.11178,0 0,11.180696 7.236697,-3.22033 0,6.078825 -7.236697,3.22033 0,17.874641 7.236697,-3.22033 0,6.078826 z m -10.348477,-1.44734 0,-17.874641 -12.953687,5.789358 0,17.874641 12.953687,-5.789358 z"
       style="font-style:normal;font-variant:normal;font-weight:normal;font-stretch:normal;font-size:74.10377502px;line-height:125%;font-family:Consolas;-inkscape-font-specification:'Consolas, Normal';text-align:start;writing-mode:lr-tb;text-anchor:start;fill:#00d400;fill-opacity:1"
       id="path4151"
       inkscape:connector-curvature="0" />
  </g>
  <g
     transform="matrix(1.0604963,0,0,0.94295472,-11.931788,-13.251671)"
     style="font-style:normal;font-variant:normal;font-weight:normal;font-stretch:normal;font-size:99.94746399px;line-height:125%;font-family:Consolas;-inkscape-font-specification:'Consolas, Normal';text-align:start;letter-spacing:0px;word-spacing:0px;writing-mode:lr-tb;text-anchor:start;fill:#00d400;fill-opacity:1;stroke:none"
     id="text2999">
    <path
       d="m 53.186488,66.535403 q -3.318568,1.268865 -6.832346,1.854494 -3.464976,0.634433 -7.173964,0.634433 -11.614988,0 -17.910507,-6.295519 -6.246716,-6.295519 -6.246716,-18.398533 0,-5.807494 1.805691,-10.541334 1.805691,-4.73384 5.075457,-8.10121 3.269766,-3.367371 7.808396,-5.173062 4.53863,-1.854494 10.004507,-1.854494 3.806593,0 7.125161,0.536827 3.318568,0.536827 6.344321,1.756889 l 0,8.10121 q -3.172161,-1.659284 -6.490729,-2.391321 -3.269765,-0.780839 -6.783543,-0.780839 -3.269766,0 -6.197914,1.268864 -2.879346,1.220062 -5.075458,3.562581 -2.196111,2.342518 -3.464975,5.709889 -1.268864,3.36737 -1.268864,7.613186 0,8.88205 4.294617,13.323075 4.34342,4.392222 12.005408,4.392222 3.464976,0 6.685939,-0.780839 3.269766,-0.78084 6.295519,-2.342519 l 0,7.906 z"
       style="font-style:normal;font-variant:normal;font-weight:normal;font-stretch:normal;font-size:99.94746399px;line-height:125%;font-family:Consolas;-inkscape-font-specification:'Consolas, Normal';text-align:start;writing-mode:lr-tb;text-anchor:start;fill:#00d400;fill-opacity:1"
       id="path4148"
       inkscape:connector-curvature="0" />
  </g>
</svg>
