<?xml version="1.0" encoding="UTF-8" standalone="no"?>
<svg
   xmlns:dc="http://purl.org/dc/elements/1.1/"
   xmlns:cc="http://creativecommons.org/ns#"
   xmlns:rdf="http://www.w3.org/1999/02/22-rdf-syntax-ns#"
   xmlns:svg="http://www.w3.org/2000/svg"
   xmlns="http://www.w3.org/2000/svg"
   xmlns:sodipodi="http://sodipodi.sourceforge.net/DTD/sodipodi-0.dtd"
   xmlns:inkscape="http://www.inkscape.org/namespaces/inkscape"
   width="397.28848"
   height="496.30887"
   viewBox="0 0 317.83079 397.04709"
   version="1.1"
   id="svg2"
   inkscape:version="0.48.5 r10040"
   sodipodi:docname="dos.svg">
  <metadata
     id="metadata26">
    <rdf:RDF>
      <cc:Work
         rdf:about="">
        <dc:format>image/svg+xml</dc:format>
        <dc:type
           rdf:resource="http://purl.org/dc/dcmitype/StillImage" />
      </cc:Work>
    </rdf:RDF>
  </metadata>
  <defs
     id="defs24" />
  <sodipodi:namedview
     pagecolor="#ffffff"
     bordercolor="#666666"
     borderopacity="1"
     objecttolerance="10"
     gridtolerance="10"
     guidetolerance="10"
     inkscape:pageopacity="0"
     inkscape:pageshadow="2"
     inkscape:window-width="1920"
     inkscape:window-height="1027"
     id="namedview22"
     showgrid="false"
     inkscape:zoom="1.0552529"
     inkscape:cx="197.93477"
     inkscape:cy="144.07572"
     inkscape:window-x="-8"
     inkscape:window-y="-8"
     inkscape:window-maximized="1"
     inkscape:current-layer="svg2"
     fit-margin-top="4"
     fit-margin-right="4"
     fit-margin-bottom="4"
     fit-margin-left="4" />
  <g
     id="#ffffffff"
     transform="translate(-53.24,-13.453288)" />
  <path
     style="fill:#b3b3b3;stroke:#000000;stroke-width:4;stroke-miterlimit:4;stroke-opacity:1;stroke-dasharray:none"
     inkscape:connector-curvature="0"
     id="path6"
     d="m 205.04,11.716712 c 16.83,-7.25 36.06,-8.31 53.76,-3.88 14.41,3.65 27.74,12.23 36.05,24.68 6.18,9.04 9.58,19.78 10.71,30.61 -12.26,-0.11 -24.54,0.74 -36.78,0.19 -1.3,-9 -7.45,-16.92 -15.44,-21.08 -12.28,-6.74 -29.17,-5.71 -39.26,4.52 -5.92,5.56 -5.38,15.69 0.06,21.37 4.87,5.24 11.91,7.58 18.57,9.62 18.57,5.26 38.4,7.15 55.57,16.55 10,5.38 18.23,14.429998 21.35,25.489998 4.4,15.83 2.54,33.84 -6.84,47.58 -8.92,13.12 -23.38,21.63 -38.6,25.32 -18.37,4.42 -38.13,3.04 -55.68,-3.96 -12.67,-5.14 -24.18,-13.99 -30.89,-26.07 -4.62,-8.37 -7.06,-18.01 -6.66,-27.58 11.91,0.47 23.85,0.09 35.77,0.24 2.66,7.63 7.51,14.58 14.27,19.1 9.5,6.39 21.78,8.38 32.87,5.69 6.47,-1.71 12.98,-4.91 16.9,-10.53 4.11,-5.66 4.01,-14.15 -0.69,-19.44 -4.3,-4.74 -10.48,-7.13 -16.4,-9.15 -18.95,-5.96 -39.26,-8.05 -57.04,-17.42 -10.3,-5.209998 -19.17,-13.909998 -22.82,-25.039998 -4,-12.46 -3.55,-26.47 1.64,-38.53 5.51,-12.96 16.83,-22.73 29.58,-28.28 z" />
  <path
     style="fill:#b3b3b3;stroke:#000000;stroke-width:4;stroke-miterlimit:4;stroke-opacity:1;stroke-dasharray:none"
     inkscape:connector-curvature="0"
     id="path8"
     d="m 5.2,8.826712 c 17.47,-0.02 34.95,-0.12 52.42,0.05 9.04,35.14 18.41,70.21 27.48,105.349998 6.84,-35.119998 13.77,-70.229998 20.46,-105.379998 19.87,-0.09 39.74,-0.09 59.61,0 -0.07,61.64 -0.02,123.279998 -0.03,184.929998 -11.94,0 -23.88,-0.01 -35.81,0 -0.74,-34.18 -1.21,-68.37 -2.37,-102.539998 -6.87,34.209998 -14.15,68.329998 -21.15,102.509998 -12.67,0.06 -25.34,0.02 -38.01,0.02 -8.12329,-35.81403 -18.77679,-66.09864 -25.53,-98.659998 -0.567416,33.086028 -0.259502,69.271348 -0.23,98.659998 -12.26,0.03 -24.53,-0.01 -36.79,0.02 C 5.18,132.13671 5.28,70.476712 5.2,8.826712 z"
     sodipodi:nodetypes="cccccccccccccc" />
  <path
     style="fill:#8000ff;fill-opacity:1;stroke:#000000;stroke-width:4;stroke-miterlimit:4;stroke-opacity:1;stroke-dasharray:none"
     inkscape:connector-curvature="0"
     id="path10"
     d="m 112.19,212.79671 c 23.35,-15.2 53.59,-16.12 79.64,-8 -12.46623,7.1259 -21.31017,16.64787 -25.94,29.63 -24.6,-3.26 -48.47,16.83 -51.5,41.03 -1.86,15.36 -3.78,30.71 -5.6,46.08 -0.6,8.15 -6.27,14.66 -11.49,20.48 -3.52,3.86 -8.93,4.47 -13.85,4.56 -11.45,-25.57 -13.45,-54.99 -6.55,-82.07 5.25,-20.6 17.19,-40.06 35.29,-51.71 z"
     sodipodi:nodetypes="ccccccccc" />
  <path
     style="fill:#ffff00;stroke:#000000;stroke-width:4;stroke-miterlimit:4;stroke-opacity:1;stroke-dasharray:none"
     inkscape:connector-curvature="0"
     id="path12"
     d="m 192.02,211.87671 c 16.57,-10.06 36.81,-12.03 55.73,-9.81 16.03,1.93 32.32,7.87 43.51,19.94 9.74,10.21 14.45,24.32 15.26,38.22 -12.05,0 -24.09,0.02 -36.12,-0.01 -1.3,-6.92 -4.64,-13.62 -10.18,-18.11 -8.92,-7.34 -21.27,-9.29 -32.44,-7.52 -7.65,1.3 -15.66,3.89 -20.94,9.89 -2.89,3.56 -5,8.66 -3.15,13.17 2.18,6.1 4.01197,12.76607 6.15197,18.87607 2.22786,9.54 4.46033,20.05803 0.93803,29.03393 -13.26,-3.54 -26.88,-9.34 -35.35,-20.63 -8.23,-11.28 -9.24,-26.21 -6.8,-39.55 2.48,-13.87 11.31,-26.31 23.39,-33.5 z"
     sodipodi:nodetypes="cccccccccccccc" />
  <path
     style="fill:#ff0000;stroke:#000000;stroke-width:4;stroke-miterlimit:4;stroke-opacity:1;stroke-dasharray:none"
     inkscape:connector-curvature="0"
     id="path14"
     d="m 5.24,206.74671 c 20.16,-0.75 40.35,-1.01 60.52,-1.6 12.79,-0.56 27.89426,1.27607 40.04426,5.46607 -9.72893,6.05069 -21.44661,19.83342 -25.50426,31.44393 -12.76,0.29 -25.53,0.16 -38.3,0.29 -0.12,36.24 0.08,72.48 0.06,108.72 8.56,0.47 17.11,1.29 25.67,1.69 7.61,-0.74 15.29,-0.03 22.9,-0.7 6.87,-1.66 12.05,-7.08 16.04,-12.63 4.76,-6.83 8.43,-14.7 9.22,-23.07 0.74,-8.9 1.46,-17.81 2.35,-26.7 0.68,-7.47 0.93,-15.17 3.84,-22.19 4.07,-10.61 12.88,-18.82 23.06,-23.55 12.31,20.09 15.37,44.6 12.52,67.68 -2.34,19.91 -10.51,39.68 -25.25,53.61 -14.02,13.57 -33.34,20.75 -52.62,22.01 -10.02,0.82 -20.05,-0.21 -30.08,-0.36 -14.82,-0.6 -29.65,-1.2 -44.47,-1.73 -0.01,-59.46 -0.02,-118.92 0,-178.38 z"
     sodipodi:nodetypes="ccccccccccccccccccc" />
  <path
     style="fill:#8000ff;fill-opacity:1;stroke:#000000;stroke-width:4;stroke-miterlimit:4;stroke-opacity:1;stroke-dasharray:none"
     inkscape:connector-curvature="0"
     id="path16"
     d="m 211.8,247.58671 c 7.5,-6.63 18.22,-7.78 27.84,-7.04 12.79261,14.852 18.33171,44.67074 17.99,58.1 -0.52,18.64 -5.93,36.98 -14.64,53.41 -10.28,1.1 -21.27,-0.92 -29.63,-7.23 -3.22,-2.34 -4.61,-6.57 -3.38,-10.37 2.43,-8.48 5.07,-16.9 7.53,-25.36 1.32,-5.72 0.74,-11.65 0.63,-17.46 -0.41,-10.97 -4.99,-21.08 -7.73,-31.55 -0.82,-4.1 -2.21,-9.29 1.39,-12.5 z"
     sodipodi:nodetypes="cccccccccc" />
  <path
     style="fill:#ffff00;stroke:#000000;stroke-width:4;stroke-miterlimit:4;stroke-opacity:1;stroke-dasharray:none"
     inkscape:connector-curvature="0"
     id="path18"
     d="m 262.56,283.56671 c 14.2,3.86 29.18,8.65 39.46,19.76 10.1,10.99 11.97,27.04 9.81,41.26 -2.28,14.76 -12.4,27.41 -25.23,34.62 -18.56,10.64 -40.86,12.75 -61.77,10.14 -16.45,-2.23 -33.41,-7.48 -45.51,-19.36 -6.77,-6.69 -11.11,-15.47 -13.95,-24.46 -1.73,-5.38 -1.81,-11.14 -0.6,-16.63 11.8,-0.23 23.59,0.21 35.39,0.08 1.39,9.13 5.71,18.46 14.02,23.19 9.5,5.48 20.96,5.96 31.66,5.51 8.18,-0.75 16.96,-2.05 23.49,-7.46 6.05,-4.94 7.94,-14.4 3.85,-21.12 -2.86,-4.55 -7.55,-7.5 -12.2,-9.95 2.4123,-12.41607 3.29426,-23.72 1.58,-35.58 z"
     sodipodi:nodetypes="ccccccccccccccc" />
  <path
     style="fill:#8000ff;fill-opacity:1;stroke:#000000;stroke-width:4;stroke-miterlimit:4;stroke-opacity:1;stroke-dasharray:none"
     inkscape:connector-curvature="0"
     id="path20"
     d="m 136.41164,368.42474 c 4.14,-3.9 7.77016,-9.62803 11.65016,-13.71803 4.59,-0.06 10.8082,0.1 15.4082,0.25 5.41,12.07 6.37294,12.43884 13.41048,20.42491 7.71476,6.47066 13.78329,9.75296 18.24969,12.32509 -23.16,7.77 -53.5546,3.79983 -75.9546,-5.25017 7.49623,-4.3659 11.69607,-8.7918 17.23607,-14.0318 z"
     sodipodi:nodetypes="ccccccc" />
</svg>
