<?xml version="1.0" encoding="UTF-8" standalone="no"?>
<svg
   xmlns:dc="http://purl.org/dc/elements/1.1/"
   xmlns:cc="http://creativecommons.org/ns#"
   xmlns:rdf="http://www.w3.org/1999/02/22-rdf-syntax-ns#"
   xmlns:svg="http://www.w3.org/2000/svg"
   xmlns="http://www.w3.org/2000/svg"
   xmlns:sodipodi="http://sodipodi.sourceforge.net/DTD/sodipodi-0.dtd"
   xmlns:inkscape="http://www.inkscape.org/namespaces/inkscape"
   width="590.20551"
   height="355.44006"
   viewBox="0 0 472.1644 284.35205"
   version="1.1"
   id="svg3965"
   inkscape:version="0.48.5 r10040"
   sodipodi:docname="fear.svg">
  <metadata
     id="metadata4007">
    <rdf:RDF>
      <cc:Work
         rdf:about="">
        <dc:format>image/svg+xml</dc:format>
        <dc:type
           rdf:resource="http://purl.org/dc/dcmitype/StillImage" />
      </cc:Work>
    </rdf:RDF>
  </metadata>
  <defs
     id="defs4005">
    <filter
       style="color-interpolation-filters:sRGB;"
       inkscape:label="Drop Shadow"
       id="filter4081">
      <feFlood
         flood-opacity="0.5"
         flood-color="rgb(0,0,0)"
         result="flood"
         id="feFlood4083" />
      <feComposite
         in="flood"
         in2="SourceGraphic"
         operator="in"
         result="composite1"
         id="feComposite4085" />
      <feGaussianBlur
         in="composite"
         stdDeviation="2"
         result="blur"
         id="feGaussianBlur4087" />
      <feOffset
         dx="2"
         dy="2"
         result="offset"
         id="feOffset4089" />
      <feComposite
         in="SourceGraphic"
         in2="offset"
         operator="over"
         result="composite2"
         id="feComposite4091" />
    </filter>
  </defs>
  <sodipodi:namedview
     pagecolor="#ffffff"
     bordercolor="#666666"
     borderopacity="1"
     objecttolerance="10"
     gridtolerance="10"
     guidetolerance="10"
     inkscape:pageopacity="0"
     inkscape:pageshadow="2"
     inkscape:window-width="1920"
     inkscape:window-height="1028"
     id="namedview4003"
     showgrid="false"
     fit-margin-top="4"
     fit-margin-left="4"
     fit-margin-right="4"
     fit-margin-bottom="4"
     inkscape:zoom="1"
     inkscape:cx="178.83953"
     inkscape:cy="184.0169"
     inkscape:window-x="-8"
     inkscape:window-y="-8"
     inkscape:window-maximized="1"
     inkscape:current-layer="svg3965" />
  <g
     id="#ffffffff"
     transform="translate(-27.085592,-25.34795)" />
  <g
     id="#0000ffff"
     transform="translate(-27.085592,-25.34795)"
     style="filter:url(#filter4081)">
    <path
       d="m 183.98,28.77 c 10.48,-0.25 20.98,-0.26 31.46,0.02 -0.13,2.39 -0.39,4.77 -0.73,7.14 -6.46,1.05 -13.01,0.12 -19.51,0.47 -0.47,1.83 -0.9,3.67 -1.28,5.53 4.97,0.48 9.96,0.2 14.93,0.38 -0.18,2.84 -0.58,5.66 -1.17,8.44 -5.2,0.46 -10.42,0.09 -15.62,0.42 -1.48,4.69 -2.13,9.59 -3.44,14.33 -4.81,0.19 -9.63,0.18 -14.44,0.02 1.28,-6.76 3.47,-13.3 5.16,-19.97 1.54,-5.59 2.49,-11.36 4.64,-16.78 z"
       id="path3969"
       inkscape:connector-curvature="0"
       style="fill:#0000ff" />
    <path
       d="m 220.24,29.02 c 10.99,-0.81 22.06,-0.36 33.07,-0.23 0.08,2.47 0.07,4.94 -0.04,7.41 -6.78,0.46 -13.56,0 -20.34,0.18 -0.16,1.51 -0.31,3.02 -0.41,4.53 5.54,0.24 11.1,-0.07 16.65,0.18 0.08,2.88 -0.08,5.75 -0.45,8.61 -5.8,0.31 -11.63,-0.26 -17.41,0.43 -0.07,1.91 -0.15,3.81 -0.23,5.71 7.19,0.48 14.4,-0.19 21.59,0.36 0.03,3.08 -0.04,6.17 -0.25,9.25 -12.39,0.29 -24.78,0.1 -37.17,0.1 1.23,-12.22 3.43,-24.34 4.99,-36.53 z"
       id="path3971"
       inkscape:connector-curvature="0"
       style="fill:#0000ff" />
    <path
       d="m 269.11,28.83 c 4.62,-0.37 9.26,-0.35 13.88,-0.07 4.93,8.38 8.81,17.32 13.31,25.93 1.74,3.54 3.88,6.95 4.75,10.85 -4.86,0.16 -9.73,0.16 -14.59,-0.04 -1.24,-2.7 -2.5,-5.39 -3.8,-8.05 -4.41,-0.22 -8.83,-0.23 -13.24,0.03 -0.99,2.66 -1.99,5.32 -2.97,7.98 -4.06,0.24 -8.14,0.24 -12.2,0.1 5,-12.22 9.63,-24.6 14.86,-36.73 m 6.09,9.94 c -1.36,3.04 -2.37,6.23 -3.13,9.47 2.33,0.1 4.66,0.11 6.99,0.04 -0.78,-3.36 -2,-6.61 -3.86,-9.51 z"
       id="path3973"
       inkscape:connector-curvature="0"
       style="fill:#0000ff" />
    <path
       d="m 301.72,28.79 c 7.08,-0.36 14.18,-0.08 21.27,-0.19 5.64,-0.07 11.73,0.51 16.32,4.12 2.89,2.11 4.72,5.68 4.23,9.29 -0.16,3.14 -3.42,4.61 -5.45,6.51 3.34,6.13 8.83,10.78 12,17.03 -5.21,0.01 -10.44,0.36 -15.63,-0.16 -4.46,-4.29 -6.8,-10.32 -10.89,-14.97 -1.49,-0.1 -2.98,-0.2 -4.46,-0.3 0.07,5.22 1.93,10.22 1.9,15.43 -4.84,0.11 -9.67,0.14 -14.51,-0.01 -1.68,-12.23 -3.72,-24.44 -4.78,-36.75 m 14.81,7.25 c 0.16,1.95 0.36,3.89 0.59,5.84 3.49,0.36 7.13,0.86 10.55,-0.18 2.35,-1.07 1.19,-4.79 -1.05,-5.25 -3.29,-0.85 -6.74,-0.45 -10.09,-0.41 z"
       id="path3975"
       inkscape:connector-curvature="0"
       style="fill:#0000ff" />
    <path
       d="m 199.44,70.65 c 8.14,-1.67 17.76,-1.26 24.04,4.88 5.31,4.82 6.42,12.63 5.24,19.39 -0.94,6.45 -3.9,12.63 -8.73,17.06 -7.12,7.19 -18.13,9.81 -27.89,7.66 -7.49,-1.57 -13.98,-7.91 -15,-15.61 -1.98,-14.5 7.76,-30.15 22.34,-33.38 m 3.9,9.66 c -5.88,2.17 -7.53,9.12 -8.4,14.65 -0.51,4.1 -1.11,9.58 2.84,12.2 3.1,1.24 7.22,0.75 9.36,-2.02 3.18,-3.98 4.04,-9.25 4.52,-14.18 0.09,-2.86 0.47,-6 -0.98,-8.6 -1.43,-2.54 -4.83,-2.76 -7.34,-2.05 z"
       id="path3977"
       inkscape:connector-curvature="0"
       style="fill:#0000ff" />
    <path
       d="m 237.68,70.58 c 12.09,-0.4 24.19,-0.08 36.28,-0.18 0.65,3.43 0.67,6.93 0.25,10.38 -7.2,0.22 -14.4,-0.22 -21.6,0.17 -0.17,2.44 -0.2,4.89 -0.08,7.33 5.67,0.37 11.35,0.06 17.03,0.15 0.23,3.8 0.27,7.6 0.16,11.41 -5.92,0.4 -11.86,-0.06 -17.78,0.31 -0.54,6.25 -0.27,12.54 -0.41,18.81 -5.6,0.86 -11.3,0.55 -16.94,0.29 0.82,-16.23 2.01,-32.45 3.09,-48.67 z"
       id="path3979"
       inkscape:connector-curvature="0"
       style="fill:#0000ff" />
    <path
       d="m 310.28,70.47 c 5.09,-0.05 10.21,-0.4 15.29,0.11 1.51,1.14 2.36,2.9 3.31,4.49 5.62,10.36 11.55,20.54 17.27,30.84 2.46,4.37 5.27,8.57 7.08,13.28 -5.71,0.39 -11.44,0.44 -17.14,0.01 -1.82,-3.4 -3.5,-6.87 -5.31,-10.29 -5.23,-0.6 -10.51,-0.53 -15.75,-0.02 -0.66,3.45 -1.38,6.88 -2.18,10.3 -4.54,0.43 -9.1,0.4 -13.64,0.03 1.16,-8.98 3.96,-17.64 5.67,-26.52 1.85,-7.4 3.25,-14.91 5.4,-22.23 m 6.1,26.13 c 2.85,0.09 5.71,0.1 8.58,-0.02 -1.62,-4.47 -3.74,-8.74 -6.14,-12.84 -1.22,4.2 -1.98,8.52 -2.44,12.86 z"
       id="path3981"
       inkscape:connector-curvature="0"
       style="fill:#0000ff" />
    <path
       d="m 159.77,126.53 c 7.37,-0.99 14.82,-0.17 22.22,-0.44 6.12,0.16 12.89,-0.86 18.31,2.63 6.72,4.77 6.68,15.26 1.81,21.34 -2.1,3.1 -5.64,4.57 -8.94,6 2.91,1.96 7.03,2.76 8.4,6.38 2.89,6.01 1.35,13.07 -1.36,18.84 -2.59,5.03 -6.72,9.88 -12.44,11.22 -7.11,1.76 -14.48,1.88 -21.77,1.78 -7.64,-0.12 -15.29,0.2 -22.93,-0.17 4.87,-22.68 11.74,-44.91 16.7,-67.58 m 13.82,12.98 c -0.94,3.31 -1.77,6.66 -2.31,10.07 3.83,0.13 7.69,0.4 11.5,-0.09 4.14,-0.58 6.85,-6.8 3.48,-9.7 -4.09,-1.25 -8.5,-0.84 -12.67,-0.28 m -5.75,25.13 c -0.92,3.77 -1.59,7.59 -2,11.44 4.58,0.22 9.33,0.86 13.81,-0.43 4.55,-1.36 6.44,-8.54 1.88,-11.01 -4.52,-0.76 -9.15,-0.4 -13.69,0 z"
       id="path3983"
       inkscape:connector-curvature="0"
       style="fill:#0000ff" />
    <path
       d="m 217.03,126.27 c 5.76,-0.32 11.53,-0.24 17.29,-0.12 0.5,5.61 -0.6,11.17 -0.81,16.77 -0.64,10.67 -1.72,21.33 -1.82,32.02 8.63,0.56 17.27,-0.18 25.9,0.36 -0.01,6.17 -0.05,12.35 -0.05,18.52 -6.48,0.88 -13.03,0.31 -19.54,0.44 -9.56,-0.11 -19.13,0.25 -28.68,-0.18 2.12,-22.65 5.18,-45.2 7.71,-67.81 z"
       id="path3985"
       inkscape:connector-curvature="0"
       style="fill:#0000ff" />
    <path
       d="m 264.29,126.23 c 6.07,-0.23 12.15,-0.32 18.22,0.1 0.05,5.56 -0.04,11.13 0.52,16.67 0.87,9.67 -0.15,19.52 2.05,29.05 2.13,8.38 17.23,6.87 17.08,-1.99 -0.44,-14.67 -2.8,-29.23 -3.46,-43.88 4.41,-0.21 8.84,-0.22 13.26,0.11 1.43,8.28 2.14,16.65 3.39,24.95 0.83,9.21 3.18,18.38 2.23,27.68 -0.61,7.04 -6.51,12.58 -12.99,14.65 -10.29,3.32 -22.3,2.22 -31.42,-3.75 -5.95,-3.79 -8.84,-10.9 -8.77,-17.78 -0.04,-15.27 -0.12,-30.54 -0.11,-45.81 z"
       id="path3987"
       inkscape:connector-curvature="0"
       style="fill:#0000ff" />
    <path
       d="m 322.57,126.13 c 12.15,-0.14 24.29,0.09 36.44,-0.09 2.44,-0.06 4.89,0.09 7.32,0.47 1.23,4.45 2.47,8.89 3.46,13.4 -9.02,0.65 -18.06,-0.04 -27.09,0.33 0.19,2.82 0.69,5.62 1.56,8.31 7.5,0.47 15.06,-0.62 22.52,0.52 1.42,4.96 2.72,9.96 3.55,15.07 -7.67,0.51 -15.36,-0.04 -23.04,0.24 0.43,3.87 1.21,7.68 2.13,11.46 9.99,1.23 20.09,-0.09 30.11,0.63 1.76,5.79 3.24,11.68 4.3,17.64 -10.94,0.38 -21.89,0.05 -32.83,0.15 -6.18,-0.11 -12.39,0.4 -18.54,-0.4 -2.18,-16.18 -4.97,-32.27 -7.25,-48.43 -0.84,-6.44 -2.46,-12.79 -2.64,-19.3 z"
       id="path3989"
       inkscape:connector-curvature="0"
       style="fill:#0000ff" />
    <path
       d="m 75.34,206.41 c 7.7,-4.06 16.73,-4.9 25.25,-3.64 9.11,2.15 15.13,11.84 14.09,20.97 -0.95,1.29 -2.71,1.53 -4.1,2.15 -5.37,1.68 -10.68,3.52 -15.86,5.71 -0.42,-2.27 -0.7,-4.61 -1.63,-6.74 -5.08,-4.06 -14.18,-3.39 -17.4,2.73 -0.55,2.2 -0.49,5.48 2.19,6.2 7.38,2.66 15.54,3.64 22.16,8.12 5.14,3.52 6.32,10.29 6.34,16.09 -1.02,11.86 -6.14,23.35 -14.41,31.93 -8.06,7.57 -17.89,13.69 -28.96,15.46 -7.34,2.23 -15.13,0.66 -22.06,-2.21 -6.94,-3.03 -11.02,-10.74 -10.64,-18.17 0.18,-4.21 -0.44,-8.99 1.93,-12.68 7.46,-2.2 15.06,-3.54088 22.9,-4.77 0.5,2.94 0.01,6.59 2.61,8.71 5.9,5.54 18.04,3.8 20.71,-4.33 1.21,-4.02 -2.64,-6.83 -6.07,-7.64 -7.91,-2.3 -16.85,-4.62 -21.73,-11.86 -2.51,-6.57 -1.41,-14.18 1.33,-20.54 4.86,-10.62 12.66,-20.35 23.35,-25.49 z"
       id="path3991"
       inkscape:connector-curvature="0"
       style="fill:#0000ff"
       sodipodi:nodetypes="cccccccccccccccccccccc" />
    <path
       d="m 151.94,203.71 c 8.47,-2.43 18.4,-1.56 25.58,3.8 7.48,7.87 9.06,19.7 7.51,30.08 -6.79,0.65 -13.61,0.99 -20.39,1.7 -0.69,-5.41 1.66,-12.55 -3.37,-16.42 -3.48,-1.03 -7.89,-1.06 -10.4,1.98 -7.36,7.39 -8.68,18.27 -11.3,27.89 -1.48,7.64 -4.11,16.35 -0.01,23.61 2.66,4.38 8.82,3.23 12.27,0.5 5.3,-3.55 5.88,-10.4 9.03,-15.47 6.67,1.14 13.43,1.17 20.17,1.56 -0.25,3.4 -0.86,6.79 -2.3,9.9 -2.82,6.26 -5.41,12.77 -9.86,18.09 -7.19,9.08 -18.47,14.49 -29.88,15.57 -7.89,-0.59 -16.34,-3.89 -20.7,-10.87 -5.95,-8.85 -6.63,-20.14 -5.3,-30.43 2.96,-17.3 8.19,-34.91 19.62,-48.61 5.35,-5.63 11.6,-11.03 19.33,-12.88 z"
       id="path3993"
       inkscape:connector-curvature="0"
       style="fill:#0000ff" />
    <path
       d="m 438.1,203.56 c 5.69,-0.06 11.4,-0.27 17.08,0.19 9.37,22.39 18.39,44.93 27.66,67.37 4.27,11.08 9.39,21.85 13.21,33.1 -5.7,0.36 -11.42,0.38 -17.12,0.21 -4.08,0.11 -6.4,-3.82 -8.8,-6.5 -4.97,-6.97 -10.98,-13.08 -16.14,-19.9 -7.74,-10.53 -16.7,-20.1 -24.25,-30.78 -2.86,-3.74 -5.05,-8.01 -8.51,-11.26 2.36,6.17 5.66,11.97 7.38,18.38 2.96,10.58 6.85,20.86 9.85,31.43 1.71,6.17 4.43,12.03 5.58,18.36 -6.68,0.55 -13.39,0.39 -20.07,0.15 -2.05,-4.75 -2.96,-9.87 -4.48,-14.79 -6,-21.95 -12.53,-43.75 -18.5,-65.7 -1.74,-6.67 -4.2,-13.17 -5.36,-19.99 5.8,-0.31 11.62,-0.38 17.43,-0.16 2.26,-0.22 3.72,1.72 5.08,3.21 5.64,7 12,13.38 17.53,20.47 8.11,8.29 14.7,17.89 22.34,26.58 -1.35,-4.32 -3.61,-8.24 -5.46,-12.35 -4.54,-10.77 -7.97,-21.97 -12.63,-32.69 -0.72,-1.74 -1.28,-3.53 -1.82,-5.33 z"
       id="path3995"
       inkscape:connector-curvature="0"
       style="fill:#0000ff" />
    <path
       d="m 198.51,204.13 c 8.44,-1.17 17,-0.2 25.49,-0.51 8.68,0.04 18.07,-0.84 25.94,3.56 5.37,4.02 10.31,9.82 10.64,16.82 0.27,4.8 0.34,9.66 -0.42,14.42 -1.5,7.4 -7.26,12.8 -12.61,17.68 0.85,5.36 2.98,10.38 4.31,15.62 2.77,10.98 6.92,21.62 8.98,32.77 -9.65,-0.01 -19.32,0.38 -28.95,-0.22 -2.92,-14.19 -6.09,-28.33 -8.89,-42.54 -2.41,-0.34 -4.85,-0.43 -7.27,-0.39 -1.5,3.3 -1.24,6.95 -1.5,10.48 -0.99,10.88 -1.84,21.78 -2.9,32.66 -8.67,0.16 -17.34,0.06 -26.01,0.06 0.05,-4.18 0.57,-8.33 1.19,-12.45 4.23,-29.29 7.93,-58.65 12,-87.96 m 19.84,18.36 c -0.95,5.57 -1.17,11.23 -1.71,16.86 4.68,0.19 9.39,0.47 14.06,-0.02 7.5,-1.09 9.82,-13.37 2.78,-16.6 -5,-0.79 -10.1,-0.33 -15.13,-0.24 z"
       id="path3997"
       inkscape:connector-curvature="0"
       style="fill:#0000ff" />
    <path
       d="m 271.45,204.1 c 5.15,-0.84 10.37,-0.44 15.55,-0.48 10,-0.03 20,0.06 30,-0.06 2.51,-0.05 5.01,0.15 7.48,0.56 0.89,6.49 1.93,12.97 2.29,19.52 -10.72,0.4 -21.45,-0.18 -32.17,0.24 -0.39,4.07 -0.25,8.18 0.21,12.24 9.18,0.61 18.38,-0.14 27.57,0.34 0.78,7.69 2.28,15.32 2.29,23.07 -9.34,0.14 -18.69,-0.34 -28.02,0.17 -0.33,5.76 -0.01,11.54 0.8,17.24 12.22,1.21 24.54,-0.23 36.77,0.69 1.24,8.95 2.64,17.88 3.46,26.87 -21.4,0.08 -42.8,0.06 -64.2,0.01 0.03,-6.87 0.01,-13.75 -0.71,-20.59 -0.34,-16.65 -0.11,-33.31 -0.51,-49.96 -0.95,-9.93 -0.59,-19.91 -0.81,-29.86 z"
       id="path3999"
       inkscape:connector-curvature="0"
       style="fill:#0000ff" />
    <path
       d="m 333.65,203.82 c 12.44,-0.49 24.9,-0.06 37.35,-0.2 4.92,0.11 9.89,-0.4 14.78,0.32 0.94,0.93 1.2,2.29 1.64,3.5 1.48,5.33 3.08,10.68 3.53,16.22 -10.72,0.39 -21.46,-0.28 -32.17,0.3 0.42,4.06 1.12,8.08 2.32,11.99 8.98,1.29 18.23,-0.64 27.11,0.89 2.61,7.21 4.08,14.85 5.31,22.4 -9.42,0.49 -18.85,-0.07 -28.27,0.23 0.75,6.04 2.02,12 3.37,17.92 12.14,0.37 24.3,-0.32 36.44,0.3 2.7,8.72 5.17,17.55 6.95,26.51 -16.65,0.61 -33.34,0.07 -50.01,0.26 -4.35,0.06 -8.71,0.14 -13.04,-0.31 -5.38,-33.4 -10.31,-66.88 -15.31,-100.33 z"
       id="path4001"
       inkscape:connector-curvature="0"
       style="fill:#0000ff" />
  </g>
</svg>
