<?xml version="1.0" encoding="UTF-8" ?>
<!DOCTYPE svg PUBLIC "-//W3C//DTD SVG 1.1//EN" "http://www.w3.org/Graphics/SVG/1.1/DTD/svg11.dtd">
<svg width="1228pt" height="765pt" viewBox="0 0 1228 765" version="1.1" xmlns="http://www.w3.org/2000/svg">
<g id="#ffffffff">
<path fill="#ffffff" opacity="1.00" d=" M 725.52 75.25 C 730.55 75.34 735.63 74.86 740.63 75.59 C 743.38 76.03 746.74 77.83 746.72 81.01 C 747.09 83.54 744.02 84.74 741.98 84.97 C 737.19 85.29 732.38 85.20 727.60 84.92 C 726.90 81.70 726.19 78.48 725.52 75.25 Z" />
<path fill="#ffffff" opacity="1.00" d=" M 636.63 98.27 C 637.79 93.95 639.09 89.65 640.77 85.50 C 642.70 89.73 644.56 93.99 646.37 98.27 C 643.12 98.35 639.87 98.35 636.63 98.27 Z" />
<path fill="#ffffff" opacity="1.00" d=" M 492.48 164.62 C 495.29 163.57 498.57 163.32 501.26 164.85 C 504.73 166.42 506.00 170.49 506.40 173.99 C 507.02 182.97 504.80 191.80 502.54 200.41 C 501.21 204.76 499.68 209.20 496.69 212.72 C 492.80 217.42 485.43 218.99 480.09 215.98 C 476.14 213.04 475.49 207.60 475.54 203.03 C 475.83 196.87 476.91 190.74 478.69 184.84 C 480.91 177.02 484.22 167.78 492.48 164.62 Z" />
<path fill="#ffffff" opacity="1.00" d=" M 730.36 195.86 C 730.91 189.92 731.47 183.96 732.78 178.14 C 735.97 183.95 738.93 189.89 741.89 195.83 C 738.04 195.89 734.20 195.88 730.36 195.86 Z" />
<path fill="#ffffff" opacity="1.00" d=" M 427.11 290.03 C 433.35 290.04 439.63 289.65 445.85 290.38 C 448.56 290.68 451.20 293.12 450.71 296.03 C 450.94 301.66 446.03 306.61 440.53 307.08 C 434.72 307.56 428.87 307.14 423.05 307.28 C 423.87 301.41 425.77 295.78 427.11 290.03 Z" />
<path fill="#ffffff" opacity="1.00" d=" M 412.93 345.71 C 418.98 345.66 425.03 345.63 431.08 345.68 C 434.39 345.75 438.54 346.73 439.76 350.26 C 442.96 358.23 435.54 367.96 427.07 367.52 C 420.50 367.55 413.94 367.54 407.38 367.50 C 409.19 360.22 411.02 352.95 412.93 345.71 Z" />
<path fill="#ffffff" opacity="1.00" d=" M 519.67 481.52 C 526.45 481.46 533.23 481.47 540.01 481.48 C 544.28 481.57 549.09 482.84 551.54 486.64 C 554.33 490.51 553.72 495.51 553.62 500.00 C 552.86 507.81 545.59 513.54 538.03 514.11 C 530.82 514.58 523.58 514.29 516.36 514.25 C 516.22 508.59 517.45 503.06 517.72 497.43 C 518.66 492.15 518.31 486.73 519.67 481.52 Z" />
</g>
<g id="#0000ffff">
<path fill="#0000ff" opacity="1.00" d=" M 454.04 58.16 C 476.82 58.14 499.60 58.11 522.39 58.17 C 521.37 64.46 520.18 70.72 518.99 76.97 C 505.86 77.11 492.71 76.82 479.58 77.12 C 478.94 79.76 478.29 82.40 477.62 85.03 C 487.88 85.17 498.14 85.02 508.41 85.11 C 507.29 91.65 505.82 98.13 504.62 104.65 C 493.99 104.71 483.37 104.71 472.74 104.65 C 469.63 114.56 467.54 124.77 464.70 134.76 C 452.92 134.91 441.14 134.80 429.37 134.82 C 437.71 109.31 445.66 83.66 454.04 58.16 Z" />
<path fill="#0000ff" opacity="1.00" d=" M 527.20 58.16 C 550.91 58.12 574.61 58.14 598.32 58.15 C 598.25 64.28 598.37 70.43 597.67 76.53 C 583.74 76.58 569.80 76.43 555.86 76.61 C 555.64 78.89 555.43 81.17 555.26 83.46 C 566.65 83.61 578.05 83.23 589.44 83.65 C 589.41 90.00 588.70 96.32 588.51 102.67 C 576.67 102.79 564.83 102.54 553.00 102.79 C 552.63 105.75 552.36 108.72 552.19 111.70 C 567.01 111.79 581.83 111.68 596.65 111.75 C 596.60 118.18 596.33 124.61 596.33 131.04 C 605.92 106.62 616.09 82.42 626.12 58.17 C 636.66 58.10 647.21 58.16 657.75 58.14 C 671.23 83.72 684.97 109.18 698.44 134.77 C 686.05 134.88 673.65 134.83 661.27 134.80 C 658.89 129.40 656.65 123.93 654.15 118.58 C 646.40 118.60 638.65 118.55 630.90 118.61 C 628.71 123.94 627.14 129.49 624.99 134.83 C 588.00 134.83 551.01 134.83 514.02 134.83 C 518.37 109.26 522.85 83.72 527.20 58.16 M 636.63 98.27 C 639.87 98.35 643.12 98.35 646.37 98.27 C 644.56 93.99 642.70 89.73 640.77 85.50 C 639.09 89.65 637.79 93.95 636.63 98.27 Z" />
<path fill="#0000ff" opacity="1.00" d=" M 690.45 58.15 C 705.65 58.13 720.85 58.15 736.05 58.14 C 747.41 58.56 759.43 59.34 769.24 65.75 C 777.19 70.32 782.72 79.69 781.09 88.96 C 779.79 94.16 774.78 97.10 770.34 99.35 C 780.23 111.14 790.08 122.96 799.91 134.80 C 786.97 134.84 774.03 134.85 761.09 134.81 C 759.68 135.03 759.03 133.56 758.28 132.70 C 751.39 123.23 744.60 113.69 737.70 104.22 C 735.80 104.17 733.90 104.15 732.02 104.12 C 733.82 114.42 736.42 124.57 738.56 134.80 C 726.53 134.83 714.50 134.88 702.48 134.78 C 698.33 109.26 694.52 83.68 690.45 58.15 M 725.52 75.25 C 726.19 78.48 726.90 81.70 727.60 84.92 C 732.38 85.20 737.19 85.29 741.98 84.97 C 744.02 84.74 747.09 83.54 746.72 81.01 C 746.74 77.83 743.38 76.03 740.63 75.59 C 735.63 74.86 730.55 75.34 725.52 75.25 Z" />
<path fill="#0000ff" opacity="1.00" d=" M 491.36 140.19 C 505.14 138.61 520.25 139.81 531.82 148.16 C 540.86 154.44 546.67 164.88 547.60 175.81 C 548.35 185.84 547.25 196.08 543.70 205.53 C 534.77 230.84 508.89 249.11 482.01 248.74 C 471.31 249.21 460.23 247.53 450.94 241.95 C 440.96 235.64 433.86 224.85 432.65 213.03 C 431.40 199.89 434.96 186.60 440.96 174.97 C 450.80 156.13 470.14 142.48 491.36 140.19 M 492.48 164.62 C 484.22 167.78 480.91 177.02 478.69 184.84 C 476.91 190.74 475.83 196.87 475.54 203.03 C 475.49 207.60 476.14 213.04 480.09 215.98 C 485.43 218.99 492.80 217.42 496.69 212.72 C 499.68 209.20 501.21 204.76 502.54 200.41 C 504.80 191.80 507.02 182.97 506.40 173.99 C 506.00 170.49 504.73 166.42 501.26 164.85 C 498.57 163.32 495.29 163.57 492.48 164.62 Z" />
<path fill="#0000ff" opacity="1.00" d=" M 561.40 141.01 C 587.98 140.84 614.58 140.91 641.16 140.98 C 641.50 149.45 642.20 157.90 642.36 166.38 C 627.03 166.46 611.71 166.38 596.38 166.41 C 596.27 170.13 596.20 173.85 596.20 177.57 C 608.22 177.58 620.25 177.51 632.28 177.60 C 632.57 186.64 633.13 195.68 632.98 204.72 C 620.47 204.76 607.95 204.62 595.44 204.79 C 594.14 218.91 594.73 233.11 594.22 247.27 C 580.21 247.45 566.19 247.36 552.18 247.32 C 552.31 236.69 553.92 226.17 554.58 215.58 C 556.98 190.74 558.88 165.84 561.40 141.01 Z" />
<path fill="#0000ff" opacity="1.00" d=" M 709.77 141.12 C 722.18 140.68 734.60 141.02 747.02 140.94 C 767.09 173.61 786.95 206.41 806.99 239.11 C 808.64 241.81 810.29 244.50 811.81 247.28 C 797.14 247.49 782.47 247.26 767.80 247.40 C 763.45 239.90 759.79 232.02 755.67 224.40 C 746.36 224.34 737.04 224.34 727.73 224.40 C 726.39 232.03 725.65 239.74 724.22 247.36 C 712.14 247.33 700.06 247.44 687.98 247.30 C 694.87 211.83 702.69 176.55 709.77 141.12 M 730.36 195.86 C 734.20 195.88 738.04 195.89 741.89 195.83 C 738.93 189.89 735.97 183.95 732.78 178.14 C 731.47 183.96 730.91 189.92 730.36 195.86 Z" />
<path fill="#0000ff" opacity="1.00" d=" M 394.91 256.07 C 410.27 255.99 425.64 256.06 441.00 256.04 C 451.23 256.11 461.51 255.61 471.66 257.11 C 479.48 258.45 487.56 262.29 491.35 269.63 C 496.53 277.73 496.77 287.91 494.75 297.05 C 491.98 308.54 483.98 318.26 473.93 324.26 C 479.68 327.56 484.81 332.45 487.14 338.78 C 489.33 344.90 489.92 351.56 488.80 357.97 C 487.11 373.44 480.19 388.23 469.61 399.61 C 459.84 409.62 445.44 413.14 431.95 414.39 C 426.61 414.35 421.33 415.32 416.00 415.22 C 392.40 415.15 368.79 415.27 345.20 415.17 C 350.87 395.20 357.56 375.53 363.62 355.67 C 374.06 322.47 384.42 289.25 394.91 256.07 M 427.11 290.03 C 425.77 295.78 423.87 301.41 423.05 307.28 C 428.87 307.14 434.72 307.56 440.53 307.08 C 446.03 306.61 450.94 301.66 450.71 296.03 C 451.20 293.12 448.56 290.68 445.85 290.38 C 439.63 289.65 433.35 290.04 427.11 290.03 M 412.93 345.71 C 411.02 352.95 409.19 360.22 407.38 367.50 C 413.94 367.54 420.50 367.55 427.07 367.52 C 435.54 367.96 442.96 358.23 439.76 350.26 C 438.54 346.73 434.39 345.75 431.08 345.68 C 425.03 345.63 418.98 345.66 412.93 345.71 Z" />
<path fill="#0000ff" opacity="1.00" d=" M 514.93 256.02 C 529.49 256.09 544.06 255.95 558.63 256.10 C 556.00 292.19 552.71 328.25 550.39 364.36 C 569.35 364.36 588.32 364.31 607.28 364.39 C 607.22 381.32 607.21 398.25 606.77 415.17 C 568.66 415.22 530.56 415.23 492.45 415.17 C 499.88 362.11 507.35 309.06 514.93 256.02 Z" />
<path fill="#0000ff" opacity="1.00" d=" M 614.66 256.05 C 629.54 256.09 644.43 255.88 659.31 256.16 C 659.37 264.79 660.60 273.34 660.74 281.97 C 661.78 288.62 661.26 295.38 662.31 302.03 C 662.44 310.37 663.61 318.63 663.72 326.97 C 664.80 333.62 664.24 340.39 665.26 347.05 C 665.54 353.11 666.05 359.92 670.48 364.54 C 674.47 367.87 680.17 369.15 685.20 367.76 C 690.41 367.06 696.30 363.73 696.74 357.95 C 696.83 351.64 696.76 345.30 695.76 339.06 C 693.05 311.39 689.59 283.78 687.18 256.08 C 698.94 256.03 710.72 255.96 722.49 256.12 C 727.76 288.71 732.73 321.36 737.99 353.97 C 739.54 364.84 739.86 376.12 736.38 386.69 C 733.92 393.70 729.83 400.38 723.68 404.73 C 712.75 414.06 698.04 417.27 684.00 417.54 C 670.49 417.62 656.75 415.43 644.60 409.29 C 637.15 405.17 629.77 400.27 625.08 392.98 C 615.74 379.68 614.29 362.77 614.70 347.00 C 614.70 316.68 614.63 286.37 614.66 256.05 Z" />
<path fill="#0000ff" opacity="1.00" d=" M 737.44 256.08 C 770.58 255.99 803.71 256.03 836.85 256.06 C 840.75 268.07 844.65 280.09 848.46 292.14 C 828.67 292.45 808.85 291.76 789.09 292.48 C 790.39 297.06 791.30 301.75 792.70 306.30 C 808.89 306.40 825.09 306.33 841.29 306.34 C 845.50 319.40 849.42 332.57 853.41 345.71 C 836.34 345.78 819.26 345.68 802.19 345.75 C 803.40 352.12 805.15 358.37 806.61 364.69 C 828.36 365.00 850.12 364.68 871.87 364.85 C 877.25 381.60 882.91 398.27 887.92 415.13 C 859.95 415.31 831.97 415.15 804.00 415.20 C 791.30 414.97 778.57 415.68 765.90 414.82 C 756.42 361.91 746.98 308.99 737.44 256.08 Z" />
<path fill="#0000ff" opacity="1.00" d=" M 219.97 428.45 C 230.60 425.57 241.73 426.37 252.61 426.62 C 262.41 427.79 272.33 431.53 279.11 438.95 C 285.95 446.58 288.90 456.89 289.53 466.94 C 289.60 472.41 289.73 477.89 289.51 483.37 C 277.36 488.04 264.95 491.96 252.72 496.39 C 245.87 498.36 239.43 501.56 232.46 503.08 C 232.24 497.47 233.78 491.27 230.59 486.22 C 228.05 482.00 222.84 479.94 218.04 480.45 C 211.80 479.75 204.83 481.91 201.47 487.53 C 200.52 489.43 198.78 491.78 200.28 493.86 C 202.06 497.08 206.02 497.95 209.16 499.35 C 221.82 503.68 234.70 507.76 246.39 514.41 C 252.36 517.83 257.06 523.31 259.64 529.68 C 264.58 541.91 264.41 555.57 261.76 568.32 C 260.84 575.57 258.08 582.39 255.89 589.32 C 243.96 623.94 220.30 654.36 189.84 674.65 C 172.44 686.47 152.00 694.15 130.98 695.52 C 125.57 695.41 120.07 696.05 114.75 694.85 C 111.05 694.10 107.11 694.98 103.54 693.52 C 99.65 691.99 95.56 691.02 91.78 689.24 C 83.34 684.63 76.31 677.35 72.75 668.36 C 71.60 664.71 70.44 661.04 69.61 657.31 C 69.24 653.55 69.54 649.74 68.82 646.01 C 67.80 639.45 69.95 633.06 70.54 626.58 C 71.23 619.72 73.49 613.17 75.22 606.53 C 76.46 601.82 77.76 597.11 79.57 592.58 C 102.00 587.44 124.37 581.97 146.86 577.10 C 146.62 584.01 143.27 590.75 145.06 597.70 C 145.82 602.16 148.53 606.42 152.75 608.32 C 159.87 611.63 168.14 610.88 175.50 608.78 C 181.81 606.86 187.07 600.78 186.69 593.98 C 186.78 589.01 181.26 586.86 177.50 585.03 C 164.43 580.22 150.77 575.92 139.70 567.13 C 131.91 561.27 126.15 552.02 126.51 542.04 C 125.48 525.26 132.09 509.26 139.52 494.58 C 146.11 482.92 153.87 471.83 163.27 462.24 C 178.75 446.33 198.01 433.19 219.97 428.45 Z" />
<path fill="#0000ff" opacity="1.00" d=" M 333.65 449.61 C 347.08 437.55 363.78 428.15 382.02 426.54 C 391.88 426.37 402.11 425.48 411.54 429.02 C 420.97 431.98 429.23 438.35 434.50 446.70 C 441.26 457.20 444.11 469.69 445.38 481.98 C 445.91 493.69 445.73 505.45 444.25 517.09 C 443.93 518.29 443.77 520.54 442.02 520.34 C 437.32 520.48 432.73 521.76 428.02 521.59 C 422.26 521.35 416.60 522.54 410.86 522.62 C 402.39 524.11 393.73 523.12 385.25 524.66 C 387.37 514.05 391.06 503.39 389.13 492.44 C 387.90 487.99 385.62 482.79 380.63 481.69 C 374.44 480.48 368.42 483.95 364.52 488.55 C 357.58 496.57 353.33 506.47 349.34 516.19 C 345.27 528.50 340.60 540.66 337.94 553.39 C 334.72 568.25 330.21 583.24 331.84 598.60 C 332.70 603.75 335.30 609.08 340.41 611.15 C 348.38 613.17 356.41 608.49 361.19 602.33 C 369.12 591.82 373.47 579.13 376.74 566.52 C 384.57 566.28 392.18 568.89 400.02 568.53 C 406.43 568.11 412.56 570.56 418.94 570.50 C 424.21 570.74 429.87 569.79 434.65 572.60 C 427.30 602.95 415.46 632.97 395.00 656.98 C 384.97 668.24 373.66 678.73 360.16 685.68 C 343.73 695.24 323.60 697.96 305.13 693.79 C 294.09 690.69 284.06 683.96 277.28 674.67 C 269.95 664.79 266.33 652.75 263.89 640.86 C 260.28 617.71 263.11 594.01 268.80 571.43 C 270.92 564.60 272.14 557.50 274.58 550.76 C 276.50 545.30 278.32 539.80 280.22 534.33 C 286.15 520.22 291.94 506.00 299.77 492.80 C 308.96 476.93 320.03 461.97 333.65 449.61 Z" />
<path fill="#0000ff" opacity="1.00" d=" M 470.55 428.50 C 497.03 428.63 523.53 428.55 550.02 428.54 C 555.39 428.29 560.66 429.65 566.03 429.66 C 579.77 431.32 593.27 438.01 601.61 449.27 C 608.92 458.62 613.03 470.16 614.45 481.85 C 614.90 490.90 614.83 499.97 614.43 509.01 C 613.37 517.10 611.64 525.16 608.56 532.74 C 603.65 544.10 595.42 553.94 585.26 560.98 C 585.58 566.67 587.65 572.05 589.03 577.53 C 595.43 602.39 602.17 627.15 608.55 652.01 C 611.78 665.15 615.94 678.07 618.62 691.34 C 592.51 691.52 566.40 691.33 540.29 691.43 C 539.18 688.48 538.67 685.37 538.28 682.26 C 534.30 658.57 529.98 634.94 526.04 611.24 C 524.07 600.33 522.46 589.35 520.23 578.48 C 516.74 578.45 513.26 578.46 509.78 578.50 C 507.55 593.83 506.71 609.37 504.78 624.76 C 502.78 646.96 500.08 669.08 498.25 691.29 C 474.38 691.50 450.51 691.46 426.64 691.31 C 433.80 650.15 440.26 608.87 447.20 567.67 C 454.20 524.74 461.38 481.84 468.41 438.92 C 468.92 435.41 469.34 431.85 470.55 428.50 M 519.67 481.52 C 518.31 486.73 518.66 492.15 517.72 497.43 C 517.45 503.06 516.22 508.59 516.36 514.25 C 523.58 514.29 530.82 514.58 538.03 514.11 C 545.59 513.54 552.86 507.81 553.62 500.00 C 553.72 495.51 554.33 490.51 551.54 486.64 C 549.09 482.84 544.28 481.57 540.01 481.48 C 533.23 481.47 526.45 481.46 519.67 481.52 Z" />
<path fill="#0000ff" opacity="1.00" d=" M 631.29 428.77 C 672.58 428.29 713.89 428.69 755.19 428.56 C 758.49 447.52 761.37 466.54 764.65 485.50 C 739.60 485.61 714.54 485.42 689.49 485.60 C 690.37 493.18 690.41 500.84 691.70 508.37 C 712.26 508.42 732.82 508.34 753.38 508.41 C 756.25 525.66 758.53 543.02 761.21 560.31 C 761.86 564.64 762.72 568.96 762.72 573.36 C 740.88 573.33 719.04 573.33 697.20 573.35 C 697.31 578.91 697.46 584.48 698.25 589.99 C 698.54 595.10 698.75 600.22 699.68 605.27 C 727.86 605.37 756.04 605.23 784.22 605.34 C 787.93 627.36 791.44 649.43 795.10 671.47 C 796.00 677.91 797.59 684.26 797.87 690.78 C 744.19 690.80 690.51 690.82 636.83 690.78 C 636.10 681.17 636.71 671.51 636.25 661.90 C 635.37 656.30 635.70 650.63 635.60 645.00 C 635.50 632.33 635.35 619.66 635.28 606.99 C 633.96 591.04 634.65 574.99 634.24 559.00 C 632.68 544.05 634.28 528.96 632.71 514.02 C 632.34 497.68 632.95 481.30 631.68 465.01 C 631.62 452.93 631.52 440.85 631.29 428.77 Z" />
<path fill="#0000ff" opacity="1.00" d=" M 767.36 428.60 C 808.65 428.50 849.94 428.60 891.23 428.55 C 897.76 447.39 903.46 466.52 909.72 485.46 C 884.66 485.68 859.60 485.38 834.55 485.61 C 836.68 493.09 837.96 500.80 840.29 508.24 C 860.92 508.64 881.55 508.17 902.18 508.47 C 908.85 529.79 915.17 551.22 921.84 572.55 C 918.35 573.80 914.62 573.25 911.00 573.34 C 892.72 573.36 874.45 573.30 856.17 573.38 C 856.44 577.86 857.82 582.15 858.84 586.50 C 860.36 592.52 861.57 598.63 863.27 604.62 C 890.52 604.93 917.78 604.65 945.03 604.76 C 946.86 604.57 948.63 605.73 948.93 607.60 C 957.87 635.53 966.83 663.45 975.84 691.36 C 922.05 691.46 868.26 691.41 814.48 691.38 C 813.01 686.86 812.55 682.11 811.65 677.48 C 796.90 594.52 782.14 511.56 767.36 428.60 Z" />
<path fill="#0000ff" opacity="1.00" d=" M 903.34 428.62 C 920.18 428.53 937.01 428.52 953.85 428.62 C 982.84 460.81 1012.16 492.71 1041.05 524.99 C 1037.00 515.05 1032.02 505.51 1027.21 495.92 C 1017.29 473.48 1007.29 451.08 997.43 428.61 C 1012.68 428.48 1027.94 428.62 1043.19 428.54 C 1052.18 445.54 1060.34 462.99 1069.05 480.14 C 1091.23 524.66 1113.19 569.29 1135.38 613.80 C 1148.12 639.69 1161.24 665.39 1173.78 691.37 C 1154.65 691.46 1135.51 691.37 1116.38 691.42 C 1079.87 647.65 1043.50 603.76 1007.10 559.90 C 1002.71 554.32 997.95 549.02 993.99 543.12 C 996.61 552.04 1000.47 560.52 1003.69 569.23 C 1019.36 609.97 1035.44 650.57 1050.87 691.40 C 1031.10 691.39 1011.34 691.45 991.58 691.37 C 988.05 682.97 985.68 674.14 982.62 665.56 C 956.20 586.58 929.77 507.60 903.34 428.62 Z" />
</g>
</svg>
