<?xml version="1.0" encoding="UTF-8" standalone="no"?>
<svg
   xmlns:dc="http://purl.org/dc/elements/1.1/"
   xmlns:cc="http://creativecommons.org/ns#"
   xmlns:rdf="http://www.w3.org/1999/02/22-rdf-syntax-ns#"
   xmlns:svg="http://www.w3.org/2000/svg"
   xmlns="http://www.w3.org/2000/svg"
   xmlns:sodipodi="http://sodipodi.sourceforge.net/DTD/sodipodi-0.dtd"
   xmlns:inkscape="http://www.inkscape.org/namespaces/inkscape"
   width="590.20551"
   height="355.44006"
   viewBox="0 0 472.1644 284.35205"
   version="1.1"
   id="svg3965"
   inkscape:version="0.48.5 r10040"
   sodipodi:docname="fearOfABlueScreen.svg">
  <metadata
     id="metadata4007">
    <rdf:RDF>
      <cc:Work
         rdf:about="">
        <dc:format>image/svg+xml</dc:format>
        <dc:type
           rdf:resource="http://purl.org/dc/dcmitype/StillImage" />
      </cc:Work>
    </rdf:RDF>
  </metadata>
  <defs
     id="defs4005">
    <filter
       style="color-interpolation-filters:sRGB;"
       inkscape:label="Drop Shadow"
       id="filter4081">
      <feFlood
         flood-opacity="0.5"
         flood-color="rgb(0,0,0)"
         result="flood"
         id="feFlood4083" />
      <feComposite
         in="flood"
         in2="SourceGraphic"
         operator="in"
         result="composite1"
         id="feComposite4085" />
      <feGaussianBlur
         in="composite"
         stdDeviation="2"
         result="blur"
         id="feGaussianBlur4087" />
      <feOffset
         dx="2"
         dy="2"
         result="offset"
         id="feOffset4089" />
      <feComposite
         in="SourceGraphic"
         in2="offset"
         operator="over"
         result="composite2"
         id="feComposite4091" />
    </filter>
  </defs>
  <sodipodi:namedview
     pagecolor="#ffffff"
     bordercolor="#666666"
     borderopacity="1"
     objecttolerance="10"
     gridtolerance="10"
     guidetolerance="10"
     inkscape:pageopacity="0"
     inkscape:pageshadow="2"
     inkscape:window-width="1920"
     inkscape:window-height="1027"
     id="namedview4003"
     showgrid="false"
     fit-margin-top="4"
     fit-margin-left="4"
     fit-margin-right="4"
     fit-margin-bottom="4"
     inkscape:zoom="2.07"
     inkscape:cx="318.88147"
     inkscape:cy="181.1365"
     inkscape:window-x="-8"
     inkscape:window-y="-8"
     inkscape:window-maximized="1"
     inkscape:current-layer="svg3965" />
  <g
     id="#ffffffff"
     transform="translate(-27.085592,-25.34795)" />
  <g
     id="#0000ffff"
     transform="translate(-27.085592,-25.34795)"
     style="filter:url(#filter4081)">
    <path
       d="m 183.98,28.77 31.46,0.02 -0.73,7.14 -19.51,0.47 -1.28,5.53 14.93,0.38 -1.17,8.44 -15.62,0.42 -3.44,14.33 -14.44,0.02 5.16,-19.97 z"
       id="path3969"
       inkscape:connector-curvature="0"
       style="fill:#0000ff"
       sodipodi:nodetypes="cccccccccccc" />
    <path
       d="m 220.24,29.02 33.07,-0.23 -0.04,7.41 -20.34,0.18 -0.41,4.53 16.65,0.18 -0.45,8.61 -17.41,0.43 -0.23,5.71 21.59,0.36 -0.25,9.25 -37.17,0.1 z"
       id="path3971"
       inkscape:connector-curvature="0"
       style="fill:#0000ff"
       sodipodi:nodetypes="ccccccccccccc" />
    <path
       d="m 269.11,28.83 13.88,-0.07 13.31,25.93 4.75,10.85 -14.59,-0.04 -3.8,-8.05 -13.24,0.03 -2.97,7.98 -12.2,0.1 14.86,-36.73 m 6.09,9.94 -3.13,9.47 6.99,0.04 z"
       id="path3973"
       inkscape:connector-curvature="0"
       style="fill:#0000ff"
       sodipodi:nodetypes="cccccccccccccc" />
    <path
       d="m 301.72,28.79 c 7.08,-0.36 14.18,-0.08 21.27,-0.19 5.64,-0.07 11.73,0.51 16.32,4.12 2.89,2.11 4.72,5.68 4.23,9.29 -0.16,3.14 -3.42,4.61 -5.45,6.51 3.34,6.13 12,17.03 12,17.03 l -15.63,-0.16 -10.89,-14.97 -4.46,-0.3 1.9,15.43 -14.51,-0.01 -4.78,-36.75 m 14.81,7.25 c 0.16,1.95 0.36,3.89 0.59,5.84 3.49,0.36 7.13,0.86 10.55,-0.18 2.35,-1.07 1.19,-4.79 -1.05,-5.25 -3.29,-0.85 -6.74,-0.45 -10.09,-0.41 z"
       id="path3975"
       inkscape:connector-curvature="0"
       style="fill:#0000ff"
       sodipodi:nodetypes="ccccccccccccccccc" />
    <path
       d="m 199.44,70.65 c 8.14,-1.67 17.76,-1.26 24.04,4.88 5.31,4.82 6.42,12.63 5.24,19.39 -0.94,6.45 -3.9,12.63 -8.73,17.06 -7.12,7.19 -18.13,9.81 -27.89,7.66 -7.49,-1.57 -13.98,-7.91 -15,-15.61 -1.98,-14.5 7.76,-30.15 22.34,-33.38 m 3.9,9.66 c -5.88,2.17 -7.53,9.12 -8.4,14.65 -0.51,4.1 -1.11,9.58 2.84,12.2 3.1,1.24 7.22,0.75 9.36,-2.02 3.18,-3.98 4.04,-9.25 4.52,-14.18 0.09,-2.86 0.47,-6 -0.98,-8.6 -1.43,-2.54 -4.83,-2.76 -7.34,-2.05 z"
       id="path3977"
       inkscape:connector-curvature="0"
       style="fill:#0000ff" />
    <path
       d="m 237.68,70.58 36.28,-0.18 0.25,10.38 -21.6,0.17 -0.08,7.33 17.03,0.15 0.16,11.41 -17.78,0.31 -0.41,18.81 -16.94,0.29 z"
       id="path3979"
       inkscape:connector-curvature="0"
       style="fill:#0000ff"
       sodipodi:nodetypes="ccccccccccc" />
    <path
       d="m 310.28,70.47 15.29,0.11 27.66,48.61 -17.14,0.01 -5.31,-10.29 -15.75,-0.02 -2.18,10.3 -13.64,0.03 11.07,-48.75 m 6.1,26.13 8.58,-0.02 -6.14,-12.84 z"
       id="path3981"
       inkscape:connector-curvature="0"
       style="fill:#0000ff"
       sodipodi:nodetypes="ccccccccccccc" />
    <path
       d="m 159.77,126.53 22.22,-0.44 c 6.12,0.16 12.89,-0.86 18.31,2.63 6.72,4.77 6.68,15.26 1.81,21.34 -2.1,3.1 -5.64,4.57 -8.94,6 2.91,1.96 7.03,2.76 8.4,6.38 2.89,6.01 1.35,13.07 -1.36,18.84 -2.59,5.03 -6.72,9.88 -12.44,11.22 -7.11,1.76 -14.48,1.88 -21.77,1.78 l -22.93,-0.17 16.7,-67.58 m 13.82,12.98 -2.31,10.07 c 0,0 7.69,0.4 11.5,-0.09 4.14,-0.58 6.85,-6.8 3.48,-9.7 -4.09,-1.25 -12.67,-0.28 -12.67,-0.28 m -5.75,25.13 -2,11.44 c 0,0 9.33,0.86 13.81,-0.43 4.55,-1.36 6.44,-8.54 1.88,-11.01 -4.52,-0.76 -13.69,0 -13.69,0 z"
       id="path3983"
       inkscape:connector-curvature="0"
       style="fill:#0000ff"
       sodipodi:nodetypes="ccccccccccccccccccccc" />
    <path
       d="m 217.03,126.27 17.29,-0.12 -2.63,48.79 25.9,0.36 -0.05,18.52 -48.22,0.26 z"
       id="path3985"
       inkscape:connector-curvature="0"
       style="fill:#0000ff"
       sodipodi:nodetypes="ccccccc" />
    <path
       d="m 264.29,126.23 c 6.07,-0.23 12.15,-0.32 18.22,0.1 0.05,5.56 -0.04,11.13 0.52,16.67 0.87,9.67 -0.15,19.52 2.05,29.05 2.13,8.38 17.23,6.87 17.08,-1.99 -0.44,-14.67 -2.8,-29.23 -3.46,-43.88 4.41,-0.21 8.84,-0.22 13.26,0.11 1.43,8.28 2.14,16.65 3.39,24.95 0.83,9.21 3.18,18.38 2.23,27.68 -0.61,7.04 -6.51,12.58 -12.99,14.65 -10.29,3.32 -22.3,2.22 -31.42,-3.75 -5.95,-3.79 -8.84,-10.9 -8.77,-17.78 -0.04,-15.27 -0.12,-30.54 -0.11,-45.81 z"
       id="path3987"
       inkscape:connector-curvature="0"
       style="fill:#0000ff" />
    <path
       d="m 322.57,126.13 43.76,-0.09 3.46,13.87 -27.09,0.33 1.56,8.31 22.52,0.52 3.55,15.07 -23.04,0.24 2.13,11.46 30.11,0.63 4.3,17.64 -51.37,-0.25 z"
       id="path3989"
       inkscape:connector-curvature="0"
       style="fill:#0000ff"
       sodipodi:nodetypes="ccccccccccccc" />
    <path
       d="m 75.34,206.41 c 7.7,-4.06 16.73,-4.9 25.25,-3.64 9.11,2.15 15.13,11.84 14.09,20.97 -0.95,1.29 -2.71,1.53 -4.1,2.15 -5.37,1.68 -10.68,3.52 -15.86,5.71 -0.42,-2.27 -0.7,-4.61 -1.63,-6.74 -5.08,-4.06 -14.18,-3.39 -17.4,2.73 -0.55,2.2 -0.49,5.48 2.19,6.2 7.38,2.66 15.54,3.64 22.16,8.12 5.14,3.52 6.32,10.29 6.34,16.09 -1.02,11.86 -6.14,23.35 -14.41,31.93 -8.06,7.57 -17.89,13.69 -28.96,15.46 -7.34,2.23 -15.13,0.66 -22.06,-2.21 -6.94,-3.03 -11.02,-10.74 -10.64,-18.17 0.18,-4.21 -0.44,-8.99 1.93,-12.68 7.46,-2.2 15.06,-3.54088 22.9,-4.77 0.5,2.94 0.01,6.59 2.61,8.71 5.9,5.54 18.04,3.8 20.71,-4.33 1.21,-4.02 -2.64,-6.83 -6.07,-7.64 -7.91,-2.3 -16.85,-4.62 -21.73,-11.86 -2.51,-6.57 -1.41,-14.18 1.33,-20.54 4.86,-10.62 12.66,-20.35 23.35,-25.49 z"
       id="path3991"
       inkscape:connector-curvature="0"
       style="fill:#0000ff"
       sodipodi:nodetypes="cccccccccccccccccccccc" />
    <path
       d="m 151.94,203.71 c 8.47,-2.43 18.4,-1.56 25.58,3.8 7.48,7.87 9.06,19.7 7.51,30.08 -6.79,0.65 -13.61,0.99 -20.39,1.7 -0.69,-5.41 1.66,-12.55 -3.37,-16.42 -3.48,-1.03 -7.89,-1.06 -10.4,1.98 -7.36,7.39 -8.68,18.27 -11.3,27.89 -1.48,7.64 -4.11,16.35 -0.01,23.61 2.66,4.38 8.82,3.23 12.27,0.5 5.3,-3.55 5.88,-10.4 9.03,-15.47 6.67,1.14 13.43,1.17 20.17,1.56 -0.25,3.4 -0.86,6.79 -2.3,9.9 -2.82,6.26 -5.41,12.77 -9.86,18.09 -7.19,9.08 -18.47,14.49 -29.88,15.57 -7.89,-0.59 -16.34,-3.89 -20.7,-10.87 -5.95,-8.85 -6.63,-20.14 -5.3,-30.43 2.96,-17.3 8.19,-34.91 19.62,-48.61 5.35,-5.63 11.6,-11.03 19.33,-12.88 z"
       id="path3993"
       inkscape:connector-curvature="0"
       style="fill:#0000ff" />
    <path
       d="m 438.1,203.56 17.08,0.19 40.87,100.47 -17.12,0.21 -57.7,-68.44 22.81,68.3196 -20.07,0 -28.34,-100.4796 17.43,-0.16 44.95,50.26 z"
       id="path3995"
       inkscape:connector-curvature="0"
       style="fill:#0000ff"
       sodipodi:nodetypes="ccccccccccc" />
    <path
       d="m 198.51,203.62 25.49,0 c 8.68,0.04 18.07,-0.84 25.94,3.56 5.37,4.02 10.31,9.82 10.64,16.82 0.27,4.8 0.34,9.66 -0.42,14.42 -1.5,7.4 -7.26,12.8 -12.61,17.68 3.62446,16.43119 13.29,48.39 13.29,48.39 l -28.95,-0.22 -8.89,-42.54 -7.27,-0.39 -4.4,43.14 -26.01,0.06 m 33.03,-82.05 c -0.95,5.57 -1.17,11.23 -1.71,16.86 4.68,0.19 9.39,0.47 14.06,-0.02 7.5,-1.09 9.82,-13.37 2.78,-16.6 -5,-0.79 -10.1,-0.33 -15.13,-0.24 z"
       id="path3997"
       inkscape:connector-curvature="0"
       style="fill:#0000ff"
       sodipodi:nodetypes="ccccccccccccccccc" />
    <path
       d="m 271.45,204.1 53.03,0.02 2.29,19.52 -32.17,0.24 0.21,12.24 27.57,0.34 2.29,23.07 -28.02,0.17 0.8,17.24 36.77,0.69 3.46,26.87 -64.2,0.01 z"
       id="path3999"
       inkscape:connector-curvature="0"
       style="fill:#0000ff"
       sodipodi:nodetypes="ccccccccccccc" />
    <path
       d="m 333.65,203.82 52.13,0.12 5.17,19.72 -32.17,0.3 2.32,11.99 27.11,0.89 5.31,22.4 -28.27,0.23 3.37,17.92 36.44,0.3 6.95,26.51 -63.05,-0.05 z"
       id="path4001"
       inkscape:connector-curvature="0"
       style="fill:#0000ff"
       sodipodi:nodetypes="ccccccccccccc" />
  </g>
</svg>
