<?xml version="1.0" encoding="UTF-8" standalone="no"?>
<svg
   xmlns:dc="http://purl.org/dc/elements/1.1/"
   xmlns:cc="http://creativecommons.org/ns#"
   xmlns:rdf="http://www.w3.org/1999/02/22-rdf-syntax-ns#"
   xmlns:svg="http://www.w3.org/2000/svg"
   xmlns="http://www.w3.org/2000/svg"
   xmlns:sodipodi="http://sodipodi.sourceforge.net/DTD/sodipodi-0.dtd"
   xmlns:inkscape="http://www.inkscape.org/namespaces/inkscape"
   width="1389.5382"
   height="804.93707"
   viewBox="0 0 1111.6306 643.94966"
   version="1.1"
   id="svg3041"
   inkscape:version="0.48.5 r10040"
   sodipodi:docname="fearOfABlueScreen.svg">
  <metadata
     id="metadata3095">
    <rdf:RDF>
      <cc:Work
         rdf:about="">
        <dc:format>image/svg+xml</dc:format>
        <dc:type
           rdf:resource="http://purl.org/dc/dcmitype/StillImage" />
      </cc:Work>
    </rdf:RDF>
  </metadata>
  <defs
     id="defs3093" />
  <sodipodi:namedview
     pagecolor="#ffffff"
     bordercolor="#666666"
     borderopacity="1"
     objecttolerance="10"
     gridtolerance="10"
     guidetolerance="10"
     inkscape:pageopacity="0"
     inkscape:pageshadow="2"
     inkscape:window-width="640"
     inkscape:window-height="480"
     id="namedview3091"
     showgrid="false"
     fit-margin-top="4"
     fit-margin-left="4"
     fit-margin-right="4"
     fit-margin-bottom="4"
     inkscape:zoom="0.24134518"
     inkscape:cx="685.81324"
     inkscape:cy="395.4803"
     inkscape:window-x="0"
     inkscape:window-y="0"
     inkscape:window-maximized="0"
     inkscape:current-layer="svg3041" />
  <g
     id="#ffffffff"
     transform="translate(-65.349405,-54.934562)">
    <path
       d="m 725.52,75.25 c 5.03,0.09 10.11,-0.39 15.11,0.34 2.75,0.44 6.11,2.24 6.09,5.42 0.37,2.53 -2.7,3.73 -4.74,3.96 -4.79,0.32 -9.6,0.23 -14.38,-0.05 -0.7,-3.22 -1.41,-6.44 -2.08,-9.67 z"
       id="path3044"
       inkscape:connector-curvature="0"
       style="fill:#ffffff" />
    <path
       d="m 636.63,98.27 c 1.16,-4.32 2.46,-8.62 4.14,-12.77 1.93,4.23 3.79,8.49 5.6,12.77 -3.25,0.08 -6.5,0.08 -9.74,0 z"
       id="path3046"
       inkscape:connector-curvature="0"
       style="fill:#ffffff" />
    <path
       d="m 492.48,164.62 c 2.81,-1.05 6.09,-1.3 8.78,0.23 3.47,1.57 4.74,5.64 5.14,9.14 0.62,8.98 -1.6,17.81 -3.86,26.42 -1.33,4.35 -2.86,8.79 -5.85,12.31 -3.89,4.7 -11.26,6.27 -16.6,3.26 -3.95,-2.94 -4.6,-8.38 -4.55,-12.95 0.29,-6.16 1.37,-12.29 3.15,-18.19 2.22,-7.82 5.53,-17.06 13.79,-20.22 z"
       id="path3048"
       inkscape:connector-curvature="0"
       style="fill:#ffffff" />
    <path
       d="m 730.36,195.86 c 0.55,-5.94 1.11,-11.9 2.42,-17.72 3.19,5.81 6.15,11.75 9.11,17.69 -3.85,0.06 -7.69,0.05 -11.53,0.03 z"
       id="path3050"
       inkscape:connector-curvature="0"
       style="fill:#ffffff" />
    <path
       d="m 427.11,290.03 c 6.24,0.01 12.52,-0.38 18.74,0.35 2.71,0.3 5.35,2.74 4.86,5.65 0.23,5.63 -4.68,10.58 -10.18,11.05 -5.81,0.48 -11.66,0.06 -17.48,0.2 0.82,-5.87 2.72,-11.5 4.06,-17.25 z"
       id="path3052"
       inkscape:connector-curvature="0"
       style="fill:#ffffff" />
    <path
       d="m 412.93,345.71 c 6.05,-0.05 12.1,-0.08 18.15,-0.03 3.31,0.07 7.46,1.05 8.68,4.58 3.2,7.97 -4.22,17.7 -12.69,17.26 -6.57,0.03 -13.13,0.02 -19.69,-0.02 1.81,-7.28 3.64,-14.55 5.55,-21.79 z"
       id="path3054"
       inkscape:connector-curvature="0"
       style="fill:#ffffff" />
    <path
       d="m 519.67,481.52 c 6.78,-0.06 13.56,-0.05 20.34,-0.04 4.27,0.09 9.08,1.36 11.53,5.16 2.79,3.87 2.18,8.87 2.08,13.36 -0.76,7.81 -8.03,13.54 -15.59,14.11 -7.21,0.47 -14.45,0.18 -21.67,0.14 -0.14,-5.66 1.09,-11.19 1.36,-16.82 0.94,-5.28 0.59,-10.7 1.95,-15.91 z"
       id="path3056"
       inkscape:connector-curvature="0"
       style="fill:#ffffff" />
  </g>
  <g
     id="#0000ffff"
     transform="translate(-65.349405,-54.934562)">
    <path
       d="m 454.04,58.16 c 22.78,-0.02 45.56,-0.05 68.35,0.01 -1.02,6.29 -2.21,12.55 -3.4,18.8 -13.13,0.14 -26.28,-0.15 -39.41,0.15 -0.64,2.64 -1.29,5.28 -1.96,7.91 10.26,0.14 20.52,-0.01 30.79,0.08 -1.12,6.54 -2.59,13.02 -3.79,19.54 -10.63,0.06 -21.25,0.06 -31.88,0 -3.11,9.91 -5.2,20.12 -8.04,30.11 -11.78,0.15 -23.56,0.04 -35.33,0.06 8.34,-25.51 16.29,-51.16 24.67,-76.66 z"
       id="path3059"
       inkscape:connector-curvature="0"
       style="fill:#0000ff" />
    <path
       d="m 527.2,58.16 c 23.71,-0.04 47.41,-0.02 71.12,-0.01 -0.07,6.13 0.05,12.28 -0.65,18.38 -13.93,0.05 -27.87,-0.1 -41.81,0.08 -0.22,2.28 -0.43,4.56 -0.6,6.85 11.39,0.15 22.79,-0.23 34.18,0.19 -0.03,6.35 -0.74,12.67 -0.93,19.02 -11.84,0.12 -23.68,-0.13 -35.51,0.12 -0.37,2.96 -0.64,5.93 -0.81,8.91 14.82,0.09 29.64,-0.02 44.46,0.05 -0.05,6.43 -0.32,12.86 -0.32,19.29 9.59,-24.42 19.76,-48.62 29.79,-72.87 10.54,-0.07 21.09,-0.01 31.63,-0.03 13.48,25.58 27.22,51.04 40.69,76.63 -12.39,0.11 -24.79,0.06 -37.17,0.03 -2.38,-5.4 -4.62,-10.87 -7.12,-16.22 -7.75,0.02 -15.5,-0.03 -23.25,0.03 -2.19,5.33 -3.76,10.88 -5.91,16.22 -36.99,0 -73.98,0 -110.97,0 4.35,-25.57 8.83,-51.11 13.18,-76.67 m 109.43,40.11 c 3.24,0.08 6.49,0.08 9.74,0 -1.81,-4.28 -3.67,-8.54 -5.6,-12.77 -1.68,4.15 -2.98,8.45 -4.14,12.77 z"
       id="path3061"
       inkscape:connector-curvature="0"
       style="fill:#0000ff" />
    <path
       d="m 690.45,58.15 c 15.2,-0.02 30.4,0 45.6,-0.01 11.36,0.42 23.38,1.2 33.19,7.61 7.95,4.57 13.48,13.94 11.85,23.21 -1.3,5.2 -6.31,8.14 -10.75,10.39 9.89,11.79 19.74,23.61 29.57,35.45 -12.94,0.04 -25.88,0.05 -38.82,0.01 -1.41,0.22 -2.06,-1.25 -2.81,-2.11 -6.89,-9.47 -13.68,-19.01 -20.58,-28.48 -1.9,-0.05 -3.8,-0.07 -5.68,-0.1 1.8,10.3 4.4,20.45 6.54,30.68 -12.03,0.03 -24.06,0.08 -36.08,-0.02 -4.15,-25.52 -7.96,-51.1 -12.03,-76.63 m 35.07,17.1 c 0.67,3.23 1.38,6.45 2.08,9.67 4.78,0.28 9.59,0.37 14.38,0.05 2.04,-0.23 5.11,-1.43 4.74,-3.96 0.02,-3.18 -3.34,-4.98 -6.09,-5.42 -5,-0.73 -10.08,-0.25 -15.11,-0.34 z"
       id="path3063"
       inkscape:connector-curvature="0"
       style="fill:#0000ff" />
    <path
       d="m 491.36,140.19 c 13.78,-1.58 28.89,-0.38 40.46,7.97 9.04,6.28 14.85,16.72 15.78,27.65 0.75,10.03 -0.35,20.27 -3.9,29.72 -8.93,25.31 -34.81,43.58 -61.69,43.21 -10.7,0.47 -21.78,-1.21 -31.07,-6.79 -9.98,-6.31 -17.08,-17.1 -18.29,-28.92 -1.25,-13.14 2.31,-26.43 8.31,-38.06 9.84,-18.84 29.18,-32.49 50.4,-34.78 m 1.12,24.43 c -8.26,3.16 -11.57,12.4 -13.79,20.22 -1.78,5.9 -2.86,12.03 -3.15,18.19 -0.05,4.57 0.6,10.01 4.55,12.95 5.34,3.01 12.71,1.44 16.6,-3.26 2.99,-3.52 4.52,-7.96 5.85,-12.31 2.26,-8.61 4.48,-17.44 3.86,-26.42 -0.4,-3.5 -1.67,-7.57 -5.14,-9.14 -2.69,-1.53 -5.97,-1.28 -8.78,-0.23 z"
       id="path3065"
       inkscape:connector-curvature="0"
       style="fill:#0000ff" />
    <path
       d="m 561.4,141.01 c 26.58,-0.17 53.18,-0.1 79.76,-0.03 0.34,8.47 1.04,16.92 1.2,25.4 -15.33,0.08 -30.65,0 -45.98,0.03 -0.11,3.72 -0.18,7.44 -0.18,11.16 12.02,0.01 24.05,-0.06 36.08,0.03 0.29,9.04 0.85,18.08 0.7,27.12 -12.51,0.04 -25.03,-0.1 -37.54,0.07 -1.3,14.12 -0.71,28.32 -1.22,42.48 -14.01,0.18 -28.03,0.09 -42.04,0.05 0.13,-10.63 1.74,-21.15 2.4,-31.74 2.4,-24.84 4.3,-49.74 6.82,-74.57 z"
       id="path3067"
       inkscape:connector-curvature="0"
       style="fill:#0000ff" />
    <path
       d="m 709.77,141.12 c 12.41,-0.44 24.83,-0.1 37.25,-0.18 20.07,32.67 39.93,65.47 59.97,98.17 1.65,2.7 3.3,5.39 4.82,8.17 -14.67,0.21 -29.34,-0.02 -44.01,0.12 -4.35,-7.5 -8.01,-15.38 -12.13,-23 -9.31,-0.06 -18.63,-0.06 -27.94,0 -1.34,7.63 -2.08,15.34 -3.51,22.96 -12.08,-0.03 -24.16,0.08 -36.24,-0.06 6.89,-35.47 14.71,-70.75 21.79,-106.18 m 20.59,54.74 c 3.84,0.02 7.68,0.03 11.53,-0.03 -2.96,-5.94 -5.92,-11.88 -9.11,-17.69 -1.31,5.82 -1.87,11.78 -2.42,17.72 z"
       id="path3069"
       inkscape:connector-curvature="0"
       style="fill:#0000ff" />
    <path
       d="m 394.91,256.07 c 15.36,-0.08 30.73,-0.01 46.09,-0.03 10.23,0.07 20.51,-0.43 30.66,1.07 7.82,1.34 15.9,5.18 19.69,12.52 5.18,8.1 5.42,18.28 3.4,27.42 -2.77,11.49 -10.77,21.21 -20.82,27.21 5.75,3.3 10.88,8.19 13.21,14.52 2.19,6.12 2.78,12.78 1.66,19.19 -1.69,15.47 -8.61,30.26 -19.19,41.64 -9.77,10.01 -24.17,13.53 -37.66,14.78 -5.34,-0.04 -10.62,0.93 -15.95,0.83 -23.6,-0.07 -47.21,0.05 -70.8,-0.05 5.67,-19.97 12.36,-39.64 18.42,-59.5 10.44,-33.2 20.8,-66.42 31.29,-99.6 m 32.2,33.96 c -1.34,5.75 -3.24,11.38 -4.06,17.25 5.82,-0.14 11.67,0.28 17.48,-0.2 5.5,-0.47 10.41,-5.42 10.18,-11.05 0.49,-2.91 -2.15,-5.35 -4.86,-5.65 -6.22,-0.73 -12.5,-0.34 -18.74,-0.35 m -14.18,55.68 c -1.91,7.24 -3.74,14.51 -5.55,21.79 6.56,0.04 13.12,0.05 19.69,0.02 8.47,0.44 15.89,-9.29 12.69,-17.26 -1.22,-3.53 -5.37,-4.51 -8.68,-4.58 -6.05,-0.05 -12.1,-0.02 -18.15,0.03 z"
       id="path3071"
       inkscape:connector-curvature="0"
       style="fill:#0000ff" />
    <path
       d="m 514.93,256.02 c 14.56,0.07 29.13,-0.07 43.7,0.08 -2.63,36.09 -5.92,72.15 -8.24,108.26 18.96,0 37.93,-0.05 56.89,0.03 -0.06,16.93 -0.07,33.86 -0.51,50.78 -38.11,0.05 -76.21,0.06 -114.32,0 7.43,-53.06 14.9,-106.11 22.48,-159.15 z"
       id="path3073"
       inkscape:connector-curvature="0"
       style="fill:#0000ff" />
    <path
       d="m 614.66,256.05 c 14.88,0.04 29.77,-0.17 44.65,0.11 0.06,8.63 1.29,17.18 1.43,25.81 1.04,6.65 0.52,13.41 1.57,20.06 0.13,8.34 1.3,16.6 1.41,24.94 1.08,6.65 0.52,13.42 1.54,20.08 0.28,6.06 0.79,12.87 5.22,17.49 3.99,3.33 9.69,4.61 14.72,3.22 5.21,-0.7 11.1,-4.03 11.54,-9.81 0.09,-6.31 0.02,-12.65 -0.98,-18.89 -2.71,-27.67 -6.17,-55.28 -8.58,-82.98 11.76,-0.05 23.54,-0.12 35.31,0.04 5.27,32.59 10.24,65.24 15.5,97.85 1.55,10.87 1.87,22.15 -1.61,32.72 -2.46,7.01 -6.55,13.69 -12.7,18.04 -10.93,9.33 -25.64,12.54 -39.68,12.81 -13.51,0.08 -27.25,-2.11 -39.4,-8.25 -7.45,-4.12 -14.83,-9.02 -19.52,-16.31 -9.34,-13.3 -10.79,-30.21 -10.38,-45.98 0,-30.32 -0.07,-60.63 -0.04,-90.95 z"
       id="path3075"
       inkscape:connector-curvature="0"
       style="fill:#0000ff" />
    <path
       d="m 737.44,256.08 c 33.14,-0.09 66.27,-0.05 99.41,-0.02 3.9,12.01 7.8,24.03 11.61,36.08 -19.79,0.31 -39.61,-0.38 -59.37,0.34 1.3,4.58 2.21,9.27 3.61,13.82 16.19,0.1 32.39,0.03 48.59,0.04 4.21,13.06 8.13,26.23 12.12,39.37 -17.07,0.07 -34.15,-0.03 -51.22,0.04 1.21,6.37 2.96,12.62 4.42,18.94 21.75,0.31 43.51,-0.01 65.26,0.16 5.38,16.75 11.04,33.42 16.05,50.28 -27.97,0.18 -55.95,0.02 -83.92,0.07 -12.7,-0.23 -25.43,0.48 -38.1,-0.38 -9.48,-52.91 -18.92,-105.83 -28.46,-158.74 z"
       id="path3077"
       inkscape:connector-curvature="0"
       style="fill:#0000ff" />
    <path
       d="m 219.97,428.45 c 10.63,-2.88 21.76,-2.08 32.64,-1.83 9.8,1.17 19.72,4.91 26.5,12.33 6.84,7.63 9.79,17.94 10.42,27.99 0.07,5.47 0.2,10.95 -0.02,16.43 -12.15,4.67 -24.56,8.59 -36.79,13.02 -6.85,1.97 -13.29,5.17 -20.26,6.69 -0.22,-5.61 1.32,-11.81 -1.87,-16.86 -2.54,-4.22 -7.75,-6.28 -12.55,-5.77 -6.24,-0.7 -13.21,1.46 -16.57,7.08 -0.95,1.9 -2.69,4.25 -1.19,6.33 1.78,3.22 5.74,4.09 8.88,5.49 12.66,4.33 25.54,8.41 37.23,15.06 5.97,3.42 10.67,8.9 13.25,15.27 4.94,12.23 4.77,25.89 2.12,38.64 -0.92,7.25 -3.68,14.07 -5.87,21 -11.93,34.62 -35.59,65.04 -66.05,85.33 -17.4,11.82 -37.84,19.5 -58.86,20.87 -5.41,-0.11 -10.91,0.53 -16.23,-0.67 -3.7,-0.75 -7.64,0.13 -11.21,-1.33 -3.89,-1.53 -7.98,-2.5 -11.76,-4.28 -8.44,-4.61 -15.47,-11.89 -19.03,-20.88 -1.15,-3.65 -2.31,-7.32 -3.14,-11.05 -0.37,-3.76 -0.07,-7.57 -0.79,-11.3 -1.02,-6.56 1.13,-12.95 1.72,-19.43 0.69,-6.86 2.95,-13.41 4.68,-20.05 1.24,-4.71 2.54,-9.42 4.35,-13.95 22.43,-5.14 44.8,-10.61 67.29,-15.48 -0.24,6.91 -3.59,13.65 -1.8,20.6 0.76,4.46 3.47,8.72 7.69,10.62 7.12,3.31 15.39,2.56 22.75,0.46 6.31,-1.92 11.57,-8 11.19,-14.8 0.09,-4.97 -5.43,-7.12 -9.19,-8.95 -13.07,-4.81 -26.73,-9.11 -37.8,-17.9 -7.79,-5.86 -13.55,-15.11 -13.19,-25.09 -1.03,-16.78 5.58,-32.78 13.01,-47.46 6.59,-11.66 14.35,-22.75 23.75,-32.34 15.48,-15.91 34.74,-29.05 56.7,-33.79 z"
       id="path3079"
       inkscape:connector-curvature="0"
       style="fill:#0000ff" />
    <path
       d="m 333.65,449.61 c 13.43,-12.06 30.13,-21.46 48.37,-23.07 9.86,-0.17 20.09,-1.06 29.52,2.48 9.43,2.96 17.69,9.33 22.96,17.68 6.76,10.5 9.61,22.99 10.88,35.28 0.53,11.71 0.35,23.47 -1.13,35.11 -0.32,1.2 -0.48,3.45 -2.23,3.25 -4.7,0.14 -9.29,1.42 -14,1.25 -5.76,-0.24 -11.42,0.95 -17.16,1.03 -8.47,1.49 -17.13,0.5 -25.61,2.04 2.12,-10.61 5.81,-21.27 3.88,-32.22 -1.23,-4.45 -3.51,-9.65 -8.5,-10.75 -6.19,-1.21 -12.21,2.26 -16.11,6.86 -6.94,8.02 -11.19,17.92 -15.18,27.64 -4.07,12.31 -8.74,24.47 -11.4,37.2 -3.22,14.86 -7.73,29.85 -6.1,45.21 0.86,5.15 3.46,10.48 8.57,12.55 7.97,2.02 16,-2.66 20.78,-8.82 7.93,-10.51 12.28,-23.2 15.55,-35.81 7.83,-0.24 15.44,2.37 23.28,2.01 6.41,-0.42 12.54,2.03 18.92,1.97 5.27,0.24 10.93,-0.71 15.71,2.1 -7.35,30.35 -19.19,60.37 -39.65,84.38 -10.03,11.26 -21.34,21.75 -34.84,28.7 -16.43,9.56 -36.56,12.28 -55.03,8.11 -11.04,-3.1 -21.07,-9.83 -27.85,-19.12 -7.33,-9.88 -10.95,-21.92 -13.39,-33.81 -3.61,-23.15 -0.78,-46.85 4.91,-69.43 2.12,-6.83 3.34,-13.93 5.78,-20.67 1.92,-5.46 3.74,-10.96 5.64,-16.43 5.93,-14.11 11.72,-28.33 19.55,-41.53 9.19,-15.87 20.26,-30.83 33.88,-43.19 z"
       id="path3081"
       inkscape:connector-curvature="0"
       style="fill:#0000ff" />
    <path
       d="m 470.55,428.5 c 26.48,0.13 52.98,0.05 79.47,0.04 5.37,-0.25 10.64,1.11 16.01,1.12 13.74,1.66 27.24,8.35 35.58,19.61 7.31,9.35 11.42,20.89 12.84,32.58 0.45,9.05 0.38,18.12 -0.02,27.16 -1.06,8.09 -2.79,16.15 -5.87,23.73 -4.91,11.36 -13.14,21.2 -23.3,28.24 0.32,5.69 2.39,11.07 3.77,16.55 6.4,24.86 13.14,49.62 19.52,74.48 3.23,13.14 7.39,26.06 10.07,39.33 -26.11,0.18 -52.22,-0.01 -78.33,0.09 -1.11,-2.95 -1.62,-6.06 -2.01,-9.17 -3.98,-23.69 -8.3,-47.32 -12.24,-71.02 -1.97,-10.91 -3.58,-21.89 -5.81,-32.76 -3.49,-0.03 -6.97,-0.02 -10.45,0.02 -2.23,15.33 -3.07,30.87 -5,46.26 -2,22.2 -4.7,44.32 -6.53,66.53 -23.87,0.21 -47.74,0.17 -71.61,0.02 7.16,-41.16 13.62,-82.44 20.56,-123.64 7,-42.93 14.18,-85.83 21.21,-128.75 0.51,-3.51 0.93,-7.07 2.14,-10.42 m 49.12,53.02 c -1.36,5.21 -1.01,10.63 -1.95,15.91 -0.27,5.63 -1.5,11.16 -1.36,16.82 7.22,0.04 14.46,0.33 21.67,-0.14 7.56,-0.57 14.83,-6.3 15.59,-14.11 0.1,-4.49 0.71,-9.49 -2.08,-13.36 -2.45,-3.8 -7.26,-5.07 -11.53,-5.16 -6.78,-0.01 -13.56,-0.02 -20.34,0.04 z"
       id="path3083"
       inkscape:connector-curvature="0"
       style="fill:#0000ff" />
    <path
       d="m 631.29,428.77 c 41.29,-0.48 82.6,-0.08 123.9,-0.21 3.3,18.96 6.18,37.98 9.46,56.94 -25.05,0.11 -50.11,-0.08 -75.16,0.1 0.88,7.58 0.92,15.24 2.21,22.77 20.56,0.05 41.12,-0.03 61.68,0.04 2.87,17.25 5.15,34.61 7.83,51.9 0.65,4.33 1.51,8.65 1.51,13.05 -21.84,-0.03 -43.68,-0.03 -65.52,-0.01 0.11,5.56 0.26,11.13 1.05,16.64 0.29,5.11 0.5,10.23 1.43,15.28 28.18,0.1 56.36,-0.04 84.54,0.07 3.71,22.02 7.22,44.09 10.88,66.13 0.9,6.44 2.49,12.79 2.77,19.31 -53.68,0.02 -107.36,0.04 -161.04,0 -0.73,-9.61 -0.12,-19.27 -0.58,-28.88 -0.88,-5.6 -0.55,-11.27 -0.65,-16.9 -0.1,-12.67 -0.25,-25.34 -0.32,-38.01 -1.32,-15.95 -0.63,-32 -1.04,-47.99 -1.56,-14.95 0.04,-30.04 -1.53,-44.98 -0.37,-16.34 0.24,-32.72 -1.03,-49.01 -0.06,-12.08 -0.16,-24.16 -0.39,-36.24 z"
       id="path3085"
       inkscape:connector-curvature="0"
       style="fill:#0000ff" />
    <path
       d="m 767.36,428.6 c 41.29,-0.1 82.58,0 123.87,-0.05 6.53,18.84 12.23,37.97 18.49,56.91 -25.06,0.22 -50.12,-0.08 -75.17,0.15 2.13,7.48 3.41,15.19 5.74,22.63 20.63,0.4 41.26,-0.07 61.89,0.23 6.67,21.32 12.99,42.75 19.66,64.08 -3.49,1.25 -7.22,0.7 -10.84,0.79 -18.28,0.02 -36.55,-0.04 -54.83,0.04 0.27,4.48 1.65,8.77 2.67,13.12 1.52,6.02 2.73,12.13 4.43,18.12 27.25,0.31 54.51,0.03 81.76,0.14 1.83,-0.19 3.6,0.97 3.9,2.84 8.94,27.93 17.9,55.85 26.91,83.76 -53.79,0.1 -107.58,0.05 -161.36,0.02 -1.47,-4.52 -1.93,-9.27 -2.83,-13.9 C 796.9,594.52 782.14,511.56 767.36,428.6 z"
       id="path3087"
       inkscape:connector-curvature="0"
       style="fill:#0000ff" />
    <path
       d="m 903.34,428.62 c 16.84,-0.09 33.67,-0.1 50.51,0 28.99,32.19 58.31,64.09 87.2,96.37 -4.05,-9.94 -9.03,-19.48 -13.84,-29.07 -9.92,-22.44 -19.92,-44.84 -29.78,-67.31 15.25,-0.13 30.51,0.01 45.76,-0.07 8.99,17 17.15,34.45 25.86,51.6 22.18,44.52 44.14,89.15 66.33,133.66 12.74,25.89 25.86,51.59 38.4,77.57 -19.13,0.09 -38.27,0 -57.4,0.05 -36.51,-43.77 -72.88,-87.66 -109.28,-131.52 -4.39,-5.58 -9.15,-10.88 -13.11,-16.78 2.62,8.92 6.48,17.4 9.7,26.11 15.67,40.74 31.75,81.34 47.18,122.17 -19.77,-0.01 -39.53,0.05 -59.29,-0.03 -3.53,-8.4 -5.9,-17.23 -8.96,-25.81 C 956.2,586.58 929.77,507.6 903.34,428.62 z"
       id="path3089"
       inkscape:connector-curvature="0"
       style="fill:#0000ff" />
  </g>
</svg>
