<?xml version="1.0" encoding="UTF-8" standalone="no"?>
<svg
   xmlns:dc="http://purl.org/dc/elements/1.1/"
   xmlns:cc="http://creativecommons.org/ns#"
   xmlns:rdf="http://www.w3.org/1999/02/22-rdf-syntax-ns#"
   xmlns:svg="http://www.w3.org/2000/svg"
   xmlns="http://www.w3.org/2000/svg"
   xmlns:sodipodi="http://sodipodi.sourceforge.net/DTD/sodipodi-0.dtd"
   xmlns:inkscape="http://www.inkscape.org/namespaces/inkscape"
   width="256px"
   height="181px"
   viewBox="0 0 256 181"
   version="1.1"
   preserveAspectRatio="xMidYMid"
   id="svg4146"
   inkscape:version="0.91 r13725"
   sodipodi:docname="haskell.svg">
  <metadata
     id="metadata4162">
    <rdf:RDF>
      <cc:Work
         rdf:about="">
        <dc:format>image/svg+xml</dc:format>
        <dc:type
           rdf:resource="http://purl.org/dc/dcmitype/StillImage" />
      </cc:Work>
    </rdf:RDF>
  </metadata>
  <defs
     id="defs4160" />
  <sodipodi:namedview
     pagecolor="#ffffff"
     bordercolor="#666666"
     borderopacity="1"
     objecttolerance="10"
     gridtolerance="10"
     guidetolerance="10"
     inkscape:pageopacity="0"
     inkscape:pageshadow="2"
     inkscape:window-width="935"
     inkscape:window-height="538"
     id="namedview4158"
     showgrid="false"
     inkscape:zoom="1.125"
     inkscape:cx="128"
     inkscape:cy="90.5"
     inkscape:window-x="0"
     inkscape:window-y="0"
     inkscape:window-maximized="0"
     inkscape:current-layer="svg4146" />
  <path
     style="fill:#696ad6;fill-opacity:1"
     inkscape:connector-curvature="0"
     id="path4150"
     d="M 0,180.6639 60.221992,90.33195 0,0 45.165975,0 105.38797,90.33195 45.165975,180.6639 0,180.6639 l 0,0 z" />
  <path
     style="fill:#6bc9dd;fill-opacity:1"
     inkscape:connector-curvature="0"
     id="path4152"
     d="M 60.221992,180.6639 120.44398,90.33195 60.221992,0 l 45.165978,0 120.4419,180.6639 -45.16597,0 -37.63693,-56.45643 -37.639,56.45643 -45.165978,0 0,0 z" />
  <path
     style="fill:#696ad6;fill-opacity:1"
     inkscape:connector-curvature="0"
     id="path4154"
     d="m 205.75726,127.97095 -20.07261,-30.109954 70.25726,-0.0021 0,30.112024 -50.18465,0 0,0 z" />
  <path
     style="fill:#696ad6;fill-opacity:1"
     inkscape:connector-curvature="0"
     id="path4156"
     d="m 175.6473,82.804979 -20.07469,-30.109958 100.3693,-0.0021 0,30.112033 -80.29461,0 0,0 z" />
</svg>
