<?xml version="1.0" encoding="UTF-8" standalone="no"?>
<!-- Generator: Adobe Illustrator 15.1.0, SVG Export Plug-In . SVG Version: 6.00 Build 0)  -->

<svg
   xmlns:dc="http://purl.org/dc/elements/1.1/"
   xmlns:cc="http://creativecommons.org/ns#"
   xmlns:rdf="http://www.w3.org/1999/02/22-rdf-syntax-ns#"
   xmlns:svg="http://www.w3.org/2000/svg"
   xmlns="http://www.w3.org/2000/svg"
   xmlns:sodipodi="http://sodipodi.sourceforge.net/DTD/sodipodi-0.dtd"
   xmlns:inkscape="http://www.inkscape.org/namespaces/inkscape"
   version="1.1"
   id="Layer_1"
   x="0px"
   y="0px"
   width="305.45001"
   height="427.85199"
   viewBox="0 0 305.45001 427.85199"
   enable-background="new 0 0 1024 600"
   xml:space="preserve"
   inkscape:version="0.91 r13725"
   sodipodi:docname="html.svg"><metadata
     id="metadata4215"><rdf:RDF><cc:Work
         rdf:about=""><dc:format>image/svg+xml</dc:format><dc:type
           rdf:resource="http://purl.org/dc/dcmitype/StillImage" /><dc:title></dc:title></cc:Work></rdf:RDF></metadata><defs
     id="defs4213" /><sodipodi:namedview
     pagecolor="#ffffff"
     bordercolor="#666666"
     borderopacity="1"
     objecttolerance="10"
     gridtolerance="10"
     guidetolerance="10"
     inkscape:pageopacity="0"
     inkscape:pageshadow="2"
     inkscape:window-width="1276"
     inkscape:window-height="862"
     id="namedview4211"
     showgrid="false"
     fit-margin-top="4"
     fit-margin-left="4"
     fit-margin-right="4"
     fit-margin-bottom="4"
     inkscape:zoom="0.715"
     inkscape:cx="192.02822"
     inkscape:cy="292.89337"
     inkscape:window-x="273"
     inkscape:window-y="137"
     inkscape:window-maximized="0"
     inkscape:current-layer="Layer_1" /><g
     id="g4137"
     transform="translate(-22,-141.838)"><polygon
       points="26,228.35 323.45,228.35 296.352,531.921 174.543,565.69 53.07,531.97 "
       id="polygon4139"
       style="fill:#e45126" /><polygon
       points="296.31,253.175 174.725,253.175 174.725,539.878 273.152,512.591 "
       id="polygon4141"
       style="fill:#f1682b" /><polygon
       points="81.35,290.413 82.242,300.404 91.394,403.02 174.725,403.02 174.725,365.784 125.45,365.784 122.046,327.652 174.725,327.652 174.725,290.413 174.596,290.413 "
       id="polygon4143"
       style="fill:#ebebeb" /><polygon
       points="98.275,480.108 174.553,501.284 174.725,501.235 174.725,462.491 174.562,462.538 133.09,451.338 130.438,421.641 110.287,421.641 93.058,421.641 "
       id="polygon4145"
       style="fill:#ebebeb" /><g
       id="g4147"><path
         d="m 53.675,145.838 18.924,0 0,18.696 17.311,0 0,-18.696 18.925,0 0,56.618 -18.924,0 0,-18.958 -17.31,0 0,18.958 -18.926,0 0,-56.618 0,0 z"
         id="path4149"
         inkscape:connector-curvature="0"
         style="fill:#020202" /><path
         d="m 133.719,164.614 -16.66,0 0,-18.775 52.252,0 0,18.775 -16.667,0 0,37.843 -18.924,0 -0.001,-37.843 0,0 z"
         id="path4151"
         inkscape:connector-curvature="0"
         style="fill:#020202" /><path
         d="m 177.604,145.838 19.733,0 12.137,19.894 12.127,-19.894 19.739,0 0,56.618 -18.846,0 0,-28.063 -13.021,20.13 -0.325,0 -13.028,-20.13 0,28.063 -18.517,0 0.001,-56.618 0,0 z"
         id="path4153"
         inkscape:connector-curvature="0"
         style="fill:#020202" /><path
         d="m 250.758,145.838 18.929,0 0,37.903 26.612,0 0,18.714 -45.542,0 0.001,-56.617 0,0 z"
         id="path4155"
         inkscape:connector-curvature="0"
         style="fill:#020202" /></g><polygon
       points="250.936,480.108 251.495,473.817 260.246,375.783 261.154,365.784 251.12,365.784 174.596,365.784 174.596,403.02 220.45,403.02 216.128,451.312 174.596,462.524 174.596,501.267 "
       id="polygon4157"
       style="fill:#ffffff" /><polygon
       points="264.543,327.652 265.29,319.282 266.986,300.404 267.877,290.413 174.596,290.413 174.596,313.541 174.596,327.56 174.596,327.652 264.423,327.652 264.423,327.652 "
       id="polygon4159"
       style="fill:#ffffff" /></g></svg>