<?xml version="1.0" encoding="UTF-8" standalone="no"?>
<!-- Created with Inkscape (http://www.inkscape.org/) -->

<svg
   xmlns:dc="http://purl.org/dc/elements/1.1/"
   xmlns:cc="http://creativecommons.org/ns#"
   xmlns:rdf="http://www.w3.org/1999/02/22-rdf-syntax-ns#"
   xmlns:svg="http://www.w3.org/2000/svg"
   xmlns="http://www.w3.org/2000/svg"
   xmlns:sodipodi="http://sodipodi.sourceforge.net/DTD/sodipodi-0.dtd"
   xmlns:inkscape="http://www.inkscape.org/namespaces/inkscape"
   version="1.1"
   width="146.46049"
   height="146.46986"
   id="svg2"
   xml:space="preserve"
   inkscape:version="0.48.5 r10040"
   sodipodi:docname="jasmine.svg"><sodipodi:namedview
     pagecolor="#ffffff"
     bordercolor="#666666"
     borderopacity="1"
     objecttolerance="10"
     gridtolerance="10"
     guidetolerance="10"
     inkscape:pageopacity="0"
     inkscape:pageshadow="2"
     inkscape:window-width="640"
     inkscape:window-height="480"
     id="namedview3041"
     showgrid="false"
     fit-margin-top="0"
     fit-margin-left="0"
     fit-margin-right="0"
     fit-margin-bottom="0"
     inkscape:zoom="0.54323343"
     inkscape:cx="322.17801"
     inkscape:cy="73.23487"
     inkscape:window-x="0"
     inkscape:window-y="0"
     inkscape:window-maximized="0"
     inkscape:current-layer="svg2" /><metadata
     id="metadata8"><rdf:RDF><cc:Work
         rdf:about=""><dc:format>image/svg+xml</dc:format><dc:type
           rdf:resource="http://purl.org/dc/dcmitype/StillImage" /></cc:Work></rdf:RDF></metadata><defs
     id="defs6"><clipPath
       id="clipPath18"><path
         d="M 0,1500 0,0 l 5455.74,0 0,1500 L 0,1500 z"
         inkscape:connector-curvature="0"
         id="path20" /></clipPath></defs><g
     id="g3121"
     transform="translate(-18.80325,-20.515)"><path
       style="fill:#8a4182;fill-opacity:1;fill-rule:nonzero;stroke:none"
       id="path36"
       inkscape:connector-curvature="0"
       d="m 86.361875,81.162125 11.34375,0 2.817875,-3.879375 0,-30.39025 -16.978625,0 0,30.392625 2.817,3.877" /><path
       style="fill:#8a4182;fill-opacity:1;fill-rule:nonzero;stroke:none"
       id="path38"
       inkscape:connector-curvature="0"
       d="m 79.049375,94.71775 3.504875,-10.788 -2.818875,-3.88 -28.902875,-9.391 -5.247,16.147875 28.907125,9.392125 4.55675,-1.481" /><path
       style="fill:#8a4182;fill-opacity:1;fill-rule:nonzero;stroke:none"
       id="path40"
       inkscape:connector-curvature="0"
       d="m 89.681125,105.86187 -9.17625,-6.669995 -4.561,1.484375 -17.862875,24.5865 13.735375,9.9785 17.86475,-24.58788 0,-4.7915" /><path
       style="fill:#8a4182;fill-opacity:1;fill-rule:nonzero;stroke:none"
       id="path42"
       inkscape:connector-curvature="0"
       d="m 103.565,99.191875 -9.17825,6.667505 0.0014,4.79487 17.86237,24.587 13.737,-9.9785 -17.86588,-24.58888 -4.55662,-1.481995" /><path
       style="fill:#8a4182;fill-opacity:1;fill-rule:nonzero;stroke:none"
       id="path44"
       inkscape:connector-curvature="0"
       d="m 101.51075,83.92675 3.50687,10.79 4.56051,1.4795 28.90312,-9.389625 -5.24625,-16.147875 -28.90488,9.3925 -2.81937,3.8755" /><path
       style="fill:#8a4182;fill-opacity:1;fill-rule:nonzero;stroke:none"
       id="path46"
       inkscape:connector-curvature="0"
       d="m 92.037625,20.515 c -40.380875,0 -73.234375,32.8475 -73.234375,73.22275 0,40.38975 32.8535,73.24712 73.234375,73.24712 40.377375,0 73.226125,-32.85737 73.226125,-73.24712 C 165.26375,53.3625 132.415,20.515 92.037625,20.515 l 0,0 z m 0,14.82625 c 32.246505,0 58.398625,26.14125 58.398625,58.3965 0,32.26612 -26.15212,58.4185 -58.398625,58.4185 -32.25925,0 -58.40675,-26.15238 -58.40675,-58.4185 0,-32.25525 26.1475,-58.3965 58.40675,-58.3965" /><path
       style="fill:#8a4182;fill-opacity:1;fill-rule:nonzero;stroke:none"
       id="path48"
       inkscape:connector-curvature="0"
       d="m 136.39125,110.01462 -21.97137,-7.14012 1.45362,-4.476 21.97025,7.14012 -1.4525,4.476" /><path
       style="fill:#8a4182;fill-opacity:1;fill-rule:nonzero;stroke:none"
       id="path50"
       inkscape:connector-curvature="0"
       d="m 108.36963,74.74075 -3.80713,-2.765625 13.57762,-18.691375 3.80813,2.765 -13.57862,18.692" /><path
       style="fill:#8a4182;fill-opacity:1;fill-rule:nonzero;stroke:none"
       id="path52"
       inkscape:connector-curvature="0"
       d="M 75.933125,74.569375 62.356875,55.87875 66.165,53.1125 79.74125,71.80425 75.933125,74.569375" /><path
       style="fill:#8a4182;fill-opacity:1;fill-rule:nonzero;stroke:none"
       id="path54"
       inkscape:connector-curvature="0"
       d="M 47.586,109.73387 46.13275,105.25875 68.1025,98.1225 69.555125,102.59762 47.586,109.73387" /><path
       style="fill:#8a4182;fill-opacity:1;fill-rule:nonzero;stroke:none"
       id="path56"
       inkscape:connector-curvature="0"
       d="m 89.536125,140.42625 4.705075,0 0,-23.102 -4.705075,0 0,23.102 z" /></g></svg>