<?xml version="1.0" encoding="UTF-8" standalone="no"?>
<!-- Generator: Adobe Illustrator 15.1.0, SVG Export Plug-In . SVG Version: 6.00 Build 0)  -->

<svg
   xmlns:dc="http://purl.org/dc/elements/1.1/"
   xmlns:cc="http://creativecommons.org/ns#"
   xmlns:rdf="http://www.w3.org/1999/02/22-rdf-syntax-ns#"
   xmlns:svg="http://www.w3.org/2000/svg"
   xmlns="http://www.w3.org/2000/svg"
   xmlns:sodipodi="http://sodipodi.sourceforge.net/DTD/sodipodi-0.dtd"
   xmlns:inkscape="http://www.inkscape.org/namespaces/inkscape"
   version="1.1"
   id="Layer_1"
   x="0px"
   y="0px"
   width="305.45001"
   height="427.95001"
   viewBox="0 0 305.45001 427.95001"
   enable-background="new 0 0 1024 600"
   xml:space="preserve"
   inkscape:version="0.91 r13725"
   sodipodi:docname="javascript.svg"><metadata
     id="metadata4296"><rdf:RDF><cc:Work
         rdf:about=""><dc:format>image/svg+xml</dc:format><dc:type
           rdf:resource="http://purl.org/dc/dcmitype/StillImage" /><dc:title></dc:title></cc:Work></rdf:RDF></metadata><defs
     id="defs4294" /><sodipodi:namedview
     pagecolor="#ffffff"
     bordercolor="#666666"
     borderopacity="1"
     objecttolerance="10"
     gridtolerance="10"
     guidetolerance="10"
     inkscape:pageopacity="0"
     inkscape:pageshadow="2"
     inkscape:window-width="1158"
     inkscape:window-height="614"
     id="namedview4292"
     showgrid="false"
     fit-margin-top="4"
     fit-margin-right="4"
     fit-margin-bottom="4"
     fit-margin-left="4"
     inkscape:zoom="0.28125"
     inkscape:cx="-274.55123"
     inkscape:cy="364.45782"
     inkscape:window-x="274"
     inkscape:window-y="313"
     inkscape:window-maximized="0"
     inkscape:current-layer="Layer_1" /><polygon
     style="fill:#e4a227"
     id="polygon4270"
     points="390.345,408.754 363.275,105.132 660.725,105.132 633.627,408.705 511.818,442.475 "
     transform="translate(-359.275,-18.525)" /><path
     transform="translate(-359.275,-18.525)"
     style="fill:#f0bf26"
     d="m 610.178,389 23.158,-259.417 -121.586,0 0,286.704 z"
     id="polygon4272" /><g
     id="g4274"
     transform="translate(-359.275,-18.525)"><polygon
       style="fill:#151515"
       id="polygon4276"
       points="513.039,63.665 538.709,63.665 513.039,35.806 513.039,22.525 564.936,22.525 564.936,38.071 564.936,38.071 540.246,38.071 565.922,65.931 565.922,79.191 513.039,79.191 " /><path
       style="fill:#020202"
       inkscape:connector-curvature="0"
       id="path4278"
       d="m 503.621,22.55 0,56.617 -45.543,0 0,-18.714 26.613,0 0,-37.903 18.928,0 0.002,0 z" /></g><path
     style="fill:#ffffff"
     d="m 152.475,359.176 76.34,-21.158 c 3.55809,-39.50696 7.14076,-80.38261 10.219,-114.325 -28.853,0 -57.706,0 -86.559,0 l 0,37.236 45.854,0 -4.322,48.294 -41.532,11.211 z"
     id="polygon4288"
     inkscape:connector-curvature="0"
     sodipodi:nodetypes="ccccccccc" /><path
     style="fill:#ffffff"
     inkscape:connector-curvature="0"
     id="path4290"
     d="M 230.225,162.668" /><path
     inkscape:connector-curvature="0"
     style="fill:#ffffff"
     d="m 152.475,126.39201 76.34001,21.15787 10.219,52.57619 -40.70501,0 -4.322,-23.78119 -41.532,-11.21087 z"
     id="polygon4288-0"
     sodipodi:nodetypes="ccccccc" /><path
     id="polygon4288-1"
     style="fill:#ebebeb;fill-opacity:1"
     d="m 152.475,223.69301 -46.941,0 4.95081,-46.95789 41.99019,-11.60111 0,-38.742 L 75.676804,147.94012 64.829,223.69301 c 3.07824,33.94239 6.661181,74.81804 10.219271,114.325 l 77.426729,21.158 0,-38.742 -42.61873,-11.211 -4.32227,-48.294 46.941,0 0,-37.236"
     inkscape:connector-curvature="0"
     sodipodi:nodetypes="cccccccccccccc" /></svg>