<?xml version="1.0" encoding="UTF-8" standalone="no"?>
<!-- Created with Inkscape (http://www.inkscape.org/) -->

<svg
   xmlns:dc="http://purl.org/dc/elements/1.1/"
   xmlns:cc="http://creativecommons.org/ns#"
   xmlns:rdf="http://www.w3.org/1999/02/22-rdf-syntax-ns#"
   xmlns:svg="http://www.w3.org/2000/svg"
   xmlns="http://www.w3.org/2000/svg"
   xmlns:sodipodi="http://sodipodi.sourceforge.net/DTD/sodipodi-0.dtd"
   xmlns:inkscape="http://www.inkscape.org/namespaces/inkscape"
   version="1.1"
   width="35.575001"
   height="40.116455"
   id="svg2"
   xml:space="preserve"
   inkscape:version="0.48.5 r10040"
   sodipodi:docname="nodejs.svg"><sodipodi:namedview
     pagecolor="#ffffff"
     bordercolor="#666666"
     borderopacity="1"
     objecttolerance="10"
     gridtolerance="10"
     guidetolerance="10"
     inkscape:pageopacity="0"
     inkscape:pageshadow="2"
     inkscape:window-width="1920"
     inkscape:window-height="1027"
     id="namedview3023"
     showgrid="false"
     fit-margin-top="0"
     fit-margin-left="0"
     fit-margin-right="0"
     fit-margin-bottom="0"
     inkscape:zoom="25.378259"
     inkscape:cx="27.837271"
     inkscape:cy="31.019922"
     inkscape:window-x="-8"
     inkscape:window-y="-8"
     inkscape:window-maximized="1"
     inkscape:current-layer="svg2" /><metadata
     id="metadata8"><rdf:RDF><cc:Work
         rdf:about=""><dc:format>image/svg+xml</dc:format><dc:type
           rdf:resource="http://purl.org/dc/dcmitype/StillImage" /></cc:Work></rdf:RDF></metadata><defs
     id="defs6"><clipPath
       id="clipPath18"><path
         d="M 0,501.602 0,0 l 1863.85,0 0,501.602 -1863.85,0 z"
         inkscape:connector-curvature="0"
         id="path20" /></clipPath></defs><path
     d="m 17.78375,40.116454 c -0.5375,0 -1.07125,-0.140625 -1.54125,-0.412599 l -4.90875,-2.904299 c -0.7325,-0.41015 -0.375,-0.555175 -0.13375,-0.63965 0.97875,-0.33935 1.17625,-0.417475 2.22,-1.009275 0.10875,-0.06104 0.2525,-0.03809 0.365,0.02784 l 3.77,2.238762 c 0.1375,0.07569 0.33,0.07569 0.45625,0 l 14.7,-8.484862 c 0.1375,-0.07813 0.225,-0.235838 0.225,-0.39795 l 0,-16.965388 c 0,-0.166 -0.0875,-0.32125 -0.2275,-0.40525 l -14.695,-8.4779998 c -0.13625,-0.07913 -0.31625,-0.07913 -0.45375,0 L 2.86875,11.166283 c -0.1425,0.0815 -0.2325,0.241625 -0.2325,0.40275 l 0,16.965388 c 0,0.162112 0.09,0.315925 0.23125,0.393075 l 4.0275,2.32665 c 2.185,1.092287 3.52375,-0.194338 3.52375,-1.486813 l 0,-16.75055 c 0,-0.23675 0.19,-0.42375 0.42625,-0.42375 l 1.865,0 c 0.2325,0 0.425,0.187 0.425,0.42375 l 0,16.75055 c 0,2.916013 -1.5875,4.588375 -4.3525,4.588375 -0.85,0 -1.51875,0 -3.38625,-0.9204 l -3.855,-2.21925 C 0.58875,30.665769 0,29.636469 0,28.534419 L 0,11.569031 C 0,10.466531 0.58875,9.4377813 1.54125,8.8894063 L 16.2425,0.39478125 c 0.93,-0.526375 2.16625,-0.526375 3.08875,0 l 14.7,8.49462495 c 0.9525,0.55075 1.54375,1.5771248 1.54375,2.6796248 l 0,16.965388 c 0,1.10205 -0.59125,2.12745 -1.54375,2.681637 l -14.7,8.487799 c -0.47,0.271974 -1.0025,0.412599 -1.5475,0.412599"
     inkscape:connector-curvature="0"
     id="path30"
     style="fill:#83cd29;fill-opacity:1;fill-rule:nonzero;stroke:none" /><path
     d="m 22.325,28.427981 c -6.43375,0 -7.78125,-2.9527 -7.78125,-5.4297 0,-0.235375 0.19,-0.423375 0.425,-0.423375 l 1.90125,0 c 0.2125,0 0.38875,0.152375 0.4225,0.359875 0.28625,1.935125 1.1425,2.911625 5.0325,2.911625 3.09625,0 4.415,-0.700625 4.415,-2.34375 0,-0.94725 -0.37375,-1.650375 -5.18625,-2.1215 -4.0225,-0.398 -6.51,-1.286625 -6.51,-4.5045 0,-2.96625 2.5,-4.73525 6.69125,-4.73525 4.71,0 7.04,1.63475 7.335,5.1415 0.0112,0.121125 -0.0312,0.236875 -0.11125,0.32725 -0.0812,0.08438 -0.19375,0.13575 -0.31125,0.13575 l -1.90875,0 c -0.1975,0 -0.3725,-0.140625 -0.4125,-0.332125 -0.4575,-2.036125 -1.57125,-2.687 -4.59125,-2.687 -3.38125,0 -3.77375,1.17825 -3.77375,2.060625 0,1.06925 0.46375,1.38075 5.02875,1.98475 4.5175,0.59725 6.66375,1.442875 6.66375,4.61825 0,3.203125 -2.67125,5.037575 -7.32875,5.037575"
     inkscape:connector-curvature="0"
     id="path32"
     style="fill:#83cd29;fill-opacity:1;fill-rule:nonzero;stroke:none" /><path
     d="m 30.972127,0.7096079 0,0.435625 -1.2375,0 0,3.2241249 -0.49875,0 0,-3.2241249 -1.2325,0 0,-0.435625 2.96875,0"
     inkscape:connector-curvature="0"
     id="path34"
     style="fill:#83cd29;fill-opacity:1;fill-rule:nonzero;stroke:none" /><path
     d="m 31.413377,0.7096079 0.71125,0 1.05,3.0933749 1.04625,-3.0933749 0.70625,0 0,3.6597499 -0.47375,0 0,-2.15975 c 0,-0.07562 10e-4,-0.198625 0.004,-0.369625 0.005,-0.17575 0.008,-0.36125 0.008,-0.558 l -1.04625,3.087375 -0.49125,0 -1.055,-3.087375 0,0.10975 c 0,0.09037 0,0.227125 0.006,0.412625 0.004,0.182125 0.009,0.317375 0.009,0.40525 l 0,2.15975 -0.47375,0 0,-3.6597499"
     inkscape:connector-curvature="0"
     id="path36"
     style="fill:#83cd29;fill-opacity:1;fill-rule:nonzero;stroke:none" /></svg>