<?xml version="1.0" encoding="UTF-8" standalone="no"?>
<svg
   xmlns:dc="http://purl.org/dc/elements/1.1/"
   xmlns:cc="http://creativecommons.org/ns#"
   xmlns:rdf="http://www.w3.org/1999/02/22-rdf-syntax-ns#"
   xmlns:svg="http://www.w3.org/2000/svg"
   xmlns="http://www.w3.org/2000/svg"
   xmlns:sodipodi="http://sodipodi.sourceforge.net/DTD/sodipodi-0.dtd"
   xmlns:inkscape="http://www.inkscape.org/namespaces/inkscape"
   width="874.30676"
   height="508.64999"
   viewBox="0 0 699.44541 406.92"
   version="1.1"
   id="svg3054"
   inkscape:version="0.48.5 r10040"
   sodipodi:docname="razor3.svg">
  <metadata
     id="metadata3121">
    <rdf:RDF>
      <cc:Work
         rdf:about="">
        <dc:format>image/svg+xml</dc:format>
        <dc:type
           rdf:resource="http://purl.org/dc/dcmitype/StillImage" />
      </cc:Work>
    </rdf:RDF>
  </metadata>
  <defs
     id="defs3119" />
  <sodipodi:namedview
     pagecolor="#ffffff"
     bordercolor="#666666"
     borderopacity="1"
     objecttolerance="10"
     gridtolerance="10"
     guidetolerance="10"
     inkscape:pageopacity="0"
     inkscape:pageshadow="2"
     inkscape:window-width="1920"
     inkscape:window-height="1027"
     id="namedview3117"
     showgrid="false"
     fit-margin-top="4"
     fit-margin-right="4"
     fit-margin-bottom="4"
     fit-margin-left="4"
     inkscape:zoom="1.631068"
     inkscape:cx="436.54993"
     inkscape:cy="254.4375"
     inkscape:window-x="-8"
     inkscape:window-y="-8"
     inkscape:window-maximized="1"
     inkscape:current-layer="svg3054" />
  <g
     id="#960000ff"
     transform="translate(-6.7600547,-2.63)">
    <path
       d="m 65.52,6.44 c 3.43,-0.8 7,-0.47 10.49,-0.61 190.35,0.05 380.7,0.21 571.04,0.14 4.45,-0.88 5.76,4.32 7.43,7.31 0.04,0.1 0.13,0.3 0.18,0.4 1.09,2.46 2.22,4.92 2.82,7.56 0.03,0.11 0.08,0.35 0.11,0.47 0.12,0.79 0.36,2.38 0.48,3.18 C 608.05,25.15 558.02,24.93 508,25 356.69,25.03 205.37,24.93 54.05,25.05 c 0.67,-2.56 1.29,-5.17 2.51,-7.55 0.07,-0.15 0.22,-0.47 0.3,-0.63 l 0.48,-0.96 c 0.1,-0.19 0.3,-0.58 0.39,-0.77 l 0.49,-0.96 c 0.09,-0.15 0.25,-0.46 0.33,-0.61 1.72,-2.8 3.39,-6.45 6.97,-7.13 z"
       id="path3057"
       inkscape:connector-curvature="0"
       style="fill:#960000" />
  </g>
  <g
     id="#630000ff"
     transform="translate(-6.7600547,-2.63)">
    <path
       d="m 58.22,14.18 c 0.09,-0.15 0.25,-0.46 0.33,-0.61 -0.08,0.15 -0.24,0.46 -0.33,0.61 z"
       id="path3060"
       inkscape:connector-curvature="0"
       style="fill:#630000" />
    <path
       d="m 654.48,13.28 c 0.04,0.1 0.13,0.3 0.18,0.4 -0.05,-0.1 -0.14,-0.3 -0.18,-0.4 z"
       id="path3062"
       inkscape:connector-curvature="0"
       style="fill:#630000" />
    <path
       d="m 57.34,15.91 c 0.1,-0.19 0.3,-0.58 0.39,-0.77 -0.09,0.19 -0.29,0.58 -0.39,0.77 z"
       id="path3064"
       inkscape:connector-curvature="0"
       style="fill:#630000" />
    <path
       d="m 56.56,17.5 c 0.07,-0.15 0.22,-0.47 0.3,-0.63 -0.08,0.16 -0.23,0.48 -0.3,0.63 z"
       id="path3066"
       inkscape:connector-curvature="0"
       style="fill:#630000" />
    <path
       d="m 657.48,21.24 c 0.03,0.11 0.08,0.35 0.11,0.47 -0.03,-0.12 -0.08,-0.36 -0.11,-0.47 z"
       id="path3068"
       inkscape:connector-curvature="0"
       style="fill:#630000" />
    <path
       d="m 327.29,78.42 c 13.72,-2.75 27.76,-3.87 41.75,-3.54 9.43,0.77 18.88,1.46 28.25,2.86 2.4,0.37 4.68,1.25 6.91,2.19 -12.25,-2.6 -24.74,-3.6 -37.2,-4.51 -13.27,-0.21 -26.56,1.22 -39.56,3.87 l -0.15,-0.87 z"
       id="path3070"
       inkscape:connector-curvature="0"
       style="fill:#630000" />
    <path
       d="m 405.03,80.11 0.77,-0.52 1,0.39 0.2,0.89 c -0.49,-0.19 -1.47,-0.57 -1.97,-0.76 z"
       id="path3072"
       inkscape:connector-curvature="0"
       style="fill:#630000" />
    <path
       d="m 15.28,93.52 c 0.11,-0.04 0.33,-0.11 0.44,-0.15 -0.11,0.04 -0.33,0.11 -0.44,0.15 z"
       id="path3074"
       inkscape:connector-curvature="0"
       style="fill:#630000" />
    <path
       d="m 331.76,108.74 c 10.96,-3.77 22.71,-4.7 34.24,-4.39 10.43,-0.25 21.03,0.56 31.02,3.75 -10.62,-1.51 -21.23,-3.73 -32.02,-3.18 -11.24,-0.59 -22.25,1.94 -33.24,3.82 z"
       id="path3076"
       inkscape:connector-curvature="0"
       style="fill:#630000" />
    <path
       d="m 403.32,110.35 c 0.11,0.05 0.34,0.13 0.45,0.17 -0.11,-0.04 -0.34,-0.12 -0.45,-0.17 z"
       id="path3078"
       inkscape:connector-curvature="0"
       style="fill:#630000" />
    <path
       d="m 258.88,117.97 c 0.49,-2.74 2.35,-4.54 5.07,-5.08 -1.76,1.62 -3.46,3.31 -5.07,5.08 z"
       id="path3080"
       inkscape:connector-curvature="0"
       style="fill:#630000" />
    <path
       d="m 351.29,136.75 c -0.68,-1.82 3.08,-1.83 2.43,0 -0.61,0 -1.83,0 -2.43,0 z"
       id="path3082"
       inkscape:connector-curvature="0"
       style="fill:#630000" />
    <path
       d="m 419.57,138.77 c 1.25,5.02 -0.01,10.22 -0.2,15.31 -0.29,9.99 -1.58,19.92 -2.35,29.88 -0.27,3.41 0.6,7.2 -1.55,10.17 1.33,-18.46 3.61,-36.85 4.1,-55.36 z"
       id="path3084"
       inkscape:connector-curvature="0"
       style="fill:#630000" />
    <path
       d="m 372.96,141.97 c 2.27,0.56 3.96,2.09 4.83,4.25 -1.59,-1.44 -3.18,-2.88 -4.83,-4.25 z"
       id="path3086"
       inkscape:connector-curvature="0"
       style="fill:#630000" />
    <path
       d="m 80.26,150.81 c -0.64,-1.8 3.11,-1.83 2.5,-0.02 -0.62,0.01 -1.87,0.02 -2.5,0.02 z"
       id="path3088"
       inkscape:connector-curvature="0"
       style="fill:#630000" />
    <path
       d="m 86.22,151.42 c 0.11,0.05 0.33,0.15 0.44,0.19 -0.11,-0.04 -0.33,-0.14 -0.44,-0.19 z"
       id="path3090"
       inkscape:connector-curvature="0"
       style="fill:#630000" />
    <path
       d="m 90.41,155.3 c 0.04,0.1 0.12,0.31 0.17,0.41 -0.05,-0.1 -0.13,-0.31 -0.17,-0.41 z"
       id="path3092"
       inkscape:connector-curvature="0"
       style="fill:#630000" />
    <path
       d="m 290.16,198.16 0.91,-0.16 c -0.22,0.48 -0.66,1.44 -0.88,1.92 l -0.48,-0.77 0.45,-0.99 z"
       id="path3094"
       inkscape:connector-curvature="0"
       style="fill:#630000" />
    <path
       d="m 65.02,206.81 c -1.6,-0.54 -1.6,-1.09 0,-1.62 0,0.4 0,1.22 0,1.62 z"
       id="path3096"
       inkscape:connector-curvature="0"
       style="fill:#630000" />
    <path
       d="m 620.47,233.24 c 0.07,0.12 0.21,0.36 0.28,0.48 -0.07,-0.12 -0.21,-0.36 -0.28,-0.48 z"
       id="path3098"
       inkscape:connector-curvature="0"
       style="fill:#630000" />
    <path
       d="m 418.21,297.14 0.94,-0.53 0.81,0.41 c -0.46,0.26 -1.37,0.78 -1.83,1.04 l 0.08,-0.92 z"
       id="path3100"
       inkscape:connector-curvature="0"
       style="fill:#630000" />
    <path
       d="m 13.37,321.41 c 0.1,0.05 0.3,0.14 0.4,0.19 -0.1,-0.05 -0.3,-0.14 -0.4,-0.19 z"
       id="path3102"
       inkscape:connector-curvature="0"
       style="fill:#630000" />
    <path
       d="m 693.28,323.61 c 0.11,-0.04 0.32,-0.11 0.43,-0.15 -0.11,0.04 -0.32,0.11 -0.43,0.15 z"
       id="path3104"
       inkscape:connector-curvature="0"
       style="fill:#630000" />
    <path
       d="m 66.47,337.05 c 1.3,0.69 1.26,1.29 -0.11,1.81 0.03,-0.45 0.08,-1.36 0.11,-1.81 z"
       id="path3106"
       inkscape:connector-curvature="0"
       style="fill:#630000" />
    <path
       d="m 655.38,358.34 c 0.05,0.1 0.15,0.28 0.21,0.37 -0.06,-0.09 -0.16,-0.27 -0.21,-0.37 z"
       id="path3108"
       inkscape:connector-curvature="0"
       style="fill:#630000" />
    <path
       d="m 52.07,384.97 c 201.98,0.09 403.97,-0.04 605.95,0.07 -1.44,6.06 -0.93,13.49 -6.09,17.89 -2.84,2.88 -7.08,3.41 -10.93,3.38 -190.33,0.03 -380.66,0.01 -570.99,0.04 -3.45,-0.13 -7.32,0.05 -10.26,-2.05 -4.97,-5.24 -5.97,-12.63 -7.68,-19.33 z"
       id="path3110"
       inkscape:connector-curvature="0"
       style="fill:#630000" />
  </g>
  <g
     id="#7f0000ff"
     transform="translate(-6.7600547,-2.63)">
    <path
       d="M 54.05,25.05 C 205.37,24.93 356.69,25.03 508,25 c 50.02,-0.07 100.05,0.15 150.07,-0.11 l 0.82,-0.02 c 1.48,10.5 2.04,21.34 -0.21,31.78 -2.9,6.09 -8.76,10.29 -11.52,16.48 -2.71,6.61 0.92,15.79 8.23,17.42 15.65,3.62 32.37,-1.67 47.59,4.49 0.02,74.93 0.05,149.87 -0.01,224.8 -3.05,1.3 -6.1,2.62 -9.26,3.62 -0.11,0.04 -0.32,0.11 -0.43,0.15 -13.93,3.99 -28.74,-0.22 -42.87,2.75 -4.73,3.67 -7.16,10.37 -5.92,16.22 2.21,6.12 7.85,10.1 10.89,15.76 0.05,0.1 0.15,0.28 0.21,0.37 3.61,8.27 2.14,17.57 2.43,26.33 -201.98,-0.11 -403.97,0.02 -605.95,-0.07 0.24,-7.19 -1.08,-14.64 1.16,-21.61 3.21,-8.84 13.13,-14.35 13.13,-24.5 1.37,-0.52 1.41,-1.12 0.11,-1.81 -0.94,-5.59 -5.37,-10.86 -11.26,-11.23 -10.68,-1.22 -21.46,-0.03 -32.17,-0.81 -3.31,-0.38 -6.32,-1.97 -9.27,-3.41 -0.1,-0.05 -0.3,-0.14 -0.4,-0.19 -1.11,-0.54 -2.22,-1.06 -3.34,-1.58 C 9.96,249.56 10.02,179.28 10,109 c 0.08,-4.27 -0.2,-8.55 0.11,-12.81 1.35,-1.47 3.38,-1.95 5.17,-2.67 0.11,-0.04 0.33,-0.11 0.44,-0.15 C 23.48,90.51 31.85,90.6 40,90.66 46.3,90.83 52.57,90.13 58.85,89.8 66.05,87.82 69.76,78.39 65.98,71.97 61.88,64.74 54.73,58.95 53.47,50.32 52.36,41.93 53.05,33.42 54.05,25.05 m 132.14,45.17 c -10.04,2.05 -20.45,5.66 -27.49,13.47 -6.62,6.65 -8.71,16.3 -9.62,25.32 -0.1,5.36 -1.53,10.61 -1.1,16 -0.32,11.33 0.77,22.75 -0.88,34.01 -0.05,5.64 -1.77,11.09 -3.81,16.29 -2.55,5.65 -6.76,11.3 -13.01,13 -4.88,1.73 -9.91,-1.18 -14.84,0.16 -5.5,1.14 -12.43,1.02 -16.18,-3.82 -5.26,-8.82 -4.89,-19.56 -8.68,-28.94 -0.05,-0.1 -0.13,-0.31 -0.17,-0.41 -0.47,-1.85 -2.2,-2.83 -3.75,-3.69 -0.11,-0.04 -0.33,-0.14 -0.44,-0.19 -0.86,-0.15 -2.59,-0.47 -3.46,-0.63 0.61,-1.81 -3.14,-1.78 -2.5,0.02 -4.38,-0.41 -8.02,3.38 -8.92,7.4 -3.94,15.31 -6.84,31.11 -6.32,46.98 -1.6,0.53 -1.6,1.08 0,1.62 -0.72,16.1 1.66,32.16 5.52,47.75 1.21,4.37 3.17,9.37 7.63,11.27 3.72,0.09 8.18,1.19 11.33,-1.35 4.04,-8.85 3.96,-18.79 6.93,-27.94 0.92,-3.69 4.15,-6.33 7.6,-7.58 5.45,-2.14 11.35,-0.25 16.99,-0.5 3.89,-0.22 7.94,0.06 11.32,2.2 7.87,3.77 11.6,12.5 13.49,20.54 1.8,5.48 0.65,11.33 1.93,16.91 0.57,11.59 -0.12,23.22 0.38,34.81 0.88,4.36 0.7,8.85 1.69,13.19 1.78,8.76 5.89,17.41 13,23.08 8.37,6.31 18.72,9.63 29.16,9.96 7.92,1.47 16,0.65 24.01,0.85 0,-11.67 0,-23.34 0,-35.01 -5.69,0.06 -11.42,0.24 -17.02,-0.94 -6.09,-0.56 -11.3,-5.38 -12.81,-11.22 -0.48,-3.91 0.12,-7.85 -0.31,-11.76 -1.47,-8.28 -0.6,-16.74 -0.83,-25.1 -1.3,-14.25 -1.75,-29.55 -10.19,-41.8 -3.85,-6.59 -10.03,-11.3 -16.46,-15.17 4.01,-2.39 7.49,-5.58 11.21,-8.39 8.09,-7.68 12.03,-18.65 13.63,-29.48 1.11,-4.72 0.5,-9.62 1.52,-14.34 0.87,-7.64 -0.49,-15.41 1.01,-23 0.68,-5.56 -0.08,-11.17 0.34,-16.74 0.51,-4.47 3.19,-8.74 7.35,-10.64 7.16,-2.89 15,-2.45 22.56,-2.41 0,-11.67 0,-23.33 0,-35 -6.31,0.12 -12.63,-0.24 -18.92,0.14 -3.6,0.71 -7.25,0.78 -10.89,1.08 M 500,69 c -0.01,11.66 0,23.31 0,34.96 4.73,-0.47 9.29,1.21 14.01,1.05 5.01,-0.19 10.41,1.31 13.7,5.3 4.12,8.25 1.34,17.69 2.56,26.46 1.86,8.33 -0.43,16.99 1.56,25.32 0.45,13.45 4.23,27.46 13.51,37.56 3.82,3.29 7.75,6.43 11.84,9.34 -4.35,3.7 -10,6.07 -13.07,11.12 -8.5,10.61 -12.16,24.38 -12.26,37.8 -1.98,8.78 0.07,17.85 -1.27,26.68 -1.93,7.76 1.68,16.66 -3.34,23.62 -2.92,4.3 -8.31,5.68 -13.22,5.76 -4.72,-0.1 -9.29,1.52 -14.02,1.06 0,11.66 -0.01,23.31 0,34.97 7.34,0 14.69,0 22.03,0.02 10.29,-0.53 20.38,-3.55 29.32,-8.68 11.27,-6.98 15.98,-20.66 16.64,-33.33 -0.27,-3.72 1.07,-7.28 1.04,-10.98 -0.06,-10.35 0,-20.71 -0.06,-31.07 0.93,-10.61 2.06,-22.21 9.42,-30.57 6.07,-6.9 15.94,-8.15 24.63,-7.96 6.13,0.06 13.8,-0.16 17.45,5.81 0.07,0.12 0.21,0.36 0.28,0.48 4.16,10.31 4.54,21.6 7.46,32.26 5.51,0.01 11.02,0.05 16.53,0.09 1.16,-5.69 3.35,-11.12 4.38,-16.84 2.34,-12.6 4.28,-25.38 3.88,-38.23 0.51,-20.21 -2.89,-40.26 -7.21,-59.93 -4.59,-0.03 -9.18,-0.25 -13.76,0 -2.29,0.08 -4.14,2.03 -4.85,4.09 -2.17,6.66 -2.87,13.67 -4.46,20.47 -1.17,4.81 -3.84,9.4 -8.08,12.1 -4.9,2.41 -10.47,1.57 -15.72,1.93 -7.42,0.84 -15.37,-1.57 -20.66,-6.93 -5.39,-6.65 -8.4,-15.17 -8.26,-23.74 0.13,-3.37 -1.13,-6.59 -1.03,-9.96 0.06,-9.69 0,-19.38 0.06,-29.07 0.04,-3.36 -1.06,-6.6 -1.07,-9.96 C 567.34,99.2 563.5,88.09 555.28,80.71 546.67,72.55 534.47,70.02 523.03,69 515.36,68.96 507.68,69.02 500,69 m -172.71,9.42 0.15,0.87 c -23.77,4.86 -46.04,16.79 -63.49,33.6 -2.72,0.54 -4.58,2.34 -5.07,5.08 -11.82,12.23 -21.05,26.94 -27.2,42.76 -2.91,5.32 -3.77,11.39 -5.61,17.1 -1.31,3.69 -0.7,7.71 -1.98,11.39 -2.58,8.3 -1.78,17.08 -2.57,25.62 0.26,2.02 0.97,4.01 0.81,6.08 -0.76,6.21 0.66,12.41 2.43,18.32 1.58,7.04 2.92,14.16 5.42,20.95 9.59,26.64 30.15,48.77 55.29,61.5 8.14,4.69 17.24,7.24 26.03,10.38 11.61,2.94 23.57,4.21 35.49,4.94 11.35,-0.03 22.76,0.55 34.04,-1.01 15.1,-1.71 30.25,-4.67 44.21,-10.87 1.54,-1.25 0.97,-3.38 1.13,-5.09 -0.08,-8.18 0.01,-16.35 -0.11,-24.53 -2.17,0.2 -4.3,0.67 -6.3,1.51 l -0.81,-0.41 -0.94,0.53 -0.08,0.92 c -16.24,5.28 -32.99,9.74 -50.16,10.07 -15.7,0.81 -31.56,-0.5 -46.76,-4.61 -19.77,-6.81 -39.12,-18.37 -50.14,-36.69 -9.71,-14.97 -12.43,-33.21 -13.22,-50.66 1.16,-6.11 0.14,-12.41 1.61,-18.47 2.02,-11.61 5.05,-23.19 10.58,-33.66 11.86,-25.8 34.57,-46.65 61.72,-55.3 10.99,-1.88 22,-4.41 33.24,-3.82 10.79,-0.55 21.4,1.67 32.02,3.18 2.12,0.68 4.21,1.47 6.3,2.25 0.11,0.05 0.34,0.13 0.45,0.17 9.75,3.63 18.66,9.29 26.36,16.26 8.57,8.28 14.92,18.63 19.51,29.58 2.87,7.53 4.7,15.4 6.55,23.22 1.06,7.12 1.68,14.29 2.64,21.42 0.16,15.11 -4.91,30.46 -14.87,41.94 -4.75,4.87 -9.99,10.21 -17.01,11.33 -5,-0.39 -10.34,-2.98 -12.4,-7.83 -3.16,-10.59 -0.04,-21.5 -0.22,-32.26 1.16,-6.63 0.9,-13.35 1.14,-20.05 2.15,-2.97 1.28,-6.76 1.55,-10.17 0.77,-9.96 2.06,-19.89 2.35,-29.88 0.19,-5.09 1.45,-10.29 0.2,-15.31 -11.28,-0.54 -22.7,-1.72 -33.93,-0.31 -0.45,3.76 -1.21,7.48 -2.15,11.15 -2.45,1 -3.88,-2.24 -5.7,-3.39 -0.87,-2.16 -2.56,-3.69 -4.83,-4.25 -5.38,-4.3 -12.48,-5.8 -19.24,-5.22 0.65,-1.83 -3.11,-1.82 -2.43,0 -4.16,-0.15 -8.35,0 -12.38,1.08 -15.46,3.42 -27.32,15.44 -35.85,28.17 -3.5,4.55 -5.15,10.11 -7.68,15.2 -2.22,5.34 -3.99,11 -4.31,16.8 l -0.91,0.16 -0.45,0.99 0.48,0.77 c -0.19,4.02 -0.66,8.01 -0.99,12.02 -0.27,11.88 1.46,23.79 5.08,35.11 1.71,4.02 3.95,7.81 6.17,11.58 6.34,9.88 17.59,15.28 28.7,17.89 8.4,1.73 17.43,1.79 25.62,-0.91 12.68,-5.2 17.21,-19.62 28.15,-26.93 1.6,5.76 2.08,11.88 5,17.22 2.13,4.83 7.13,7.28 11.61,9.5 6.07,2.92 12.94,2.29 19.46,2.33 7.36,0.13 14.75,-1.08 21.73,-3.38 7.18,-3.27 14.34,-7 20.09,-12.52 4.59,-4.43 9.24,-8.87 12.91,-14.12 3.19,-3.91 5.12,-8.68 8.51,-12.44 2.67,-2.89 2.6,-7.15 4.48,-10.49 4.85,-9.46 4.15,-20.37 4.67,-30.67 0.8,-4.82 1.23,-9.78 0.16,-14.59 -1.6,-7.66 -1.76,-15.58 -3.97,-23.12 -2.76,-12.26 -8.98,-23.52 -16.39,-33.57 -4.29,-5.97 -9.81,-10.88 -14.99,-16.05 C 447.65,99.27 437.89,93.22 427.64,88.33 421.19,84.8 414.01,82.88 407,80.87 l -0.2,-0.89 -1,-0.39 -0.77,0.52 -0.83,-0.18 c -2.23,-0.94 -4.51,-1.82 -6.91,-2.19 -9.37,-1.4 -18.82,-2.09 -28.25,-2.86 -13.99,-0.33 -28.03,0.79 -41.75,3.54 z"
       id="path3113"
       inkscape:connector-curvature="0"
       style="fill:#7f0000" />
    <path
       d="m 354.55,161.67 c 5.52,-0.91 11.57,-0.78 16.44,2.32 8.21,4.43 13.83,13.58 13.22,23 0.42,13.85 -3.2,27.36 -6.95,40.56 -2.35,8.32 -7.9,15.95 -15.71,19.87 -7.47,3.97 -16.9,4.46 -24.45,0.42 -6.02,-4.1 -9.71,-10.81 -11.34,-17.78 -1.65,-5.55 -1.13,-11.4 -1.05,-17.11 1.23,-10.04 1.95,-20.49 6.6,-29.68 4.67,-9.75 12.79,-18.22 23.24,-21.6 z"
       id="path3115"
       inkscape:connector-curvature="0"
       style="fill:#7f0000" />
  </g>
</svg>
