<?xml version="1.0" encoding="UTF-8" standalone="no"?>
<svg
   xmlns:dc="http://purl.org/dc/elements/1.1/"
   xmlns:cc="http://creativecommons.org/ns#"
   xmlns:rdf="http://www.w3.org/1999/02/22-rdf-syntax-ns#"
   xmlns:svg="http://www.w3.org/2000/svg"
   xmlns="http://www.w3.org/2000/svg"
   xmlns:sodipodi="http://sodipodi.sourceforge.net/DTD/sodipodi-0.dtd"
   xmlns:inkscape="http://www.inkscape.org/namespaces/inkscape"
   width="2299.6414"
   height="672.16638"
   viewBox="0 0 1839.7131 537.73311"
   version="1.1"
   id="svg3064"
   inkscape:version="0.48.5 r10040"
   sodipodi:docname="reyrey.svg">
  <metadata
     id="metadata3141">
    <rdf:RDF>
      <cc:Work
         rdf:about="">
        <dc:format>image/svg+xml</dc:format>
        <dc:type
           rdf:resource="http://purl.org/dc/dcmitype/StillImage" />
      </cc:Work>
    </rdf:RDF>
  </metadata>
  <defs
     id="defs3139" />
  <sodipodi:namedview
     pagecolor="#ffffff"
     bordercolor="#666666"
     borderopacity="1"
     objecttolerance="10"
     gridtolerance="10"
     guidetolerance="10"
     inkscape:pageopacity="0"
     inkscape:pageshadow="2"
     inkscape:window-width="1920"
     inkscape:window-height="1028"
     id="namedview3137"
     showgrid="false"
     fit-margin-top="4"
     fit-margin-right="4"
     fit-margin-bottom="4"
     fit-margin-left="4"
     inkscape:zoom="0.67855422"
     inkscape:cx="1189.525"
     inkscape:cy="343.2539"
     inkscape:window-x="-8"
     inkscape:window-y="-8"
     inkscape:window-maximized="1"
     inkscape:current-layer="svg3064" />
  <g
     id="#ffffffff"
     transform="translate(-85.88,-50.37)" />
  <g
     id="#292929ff"
     transform="translate(-85.88,-50.37)">
    <path
       d="m 1483.4,56.27 c 15.62,0.04 31.33,0.06 46.78,-2.64 -0.04,67.98 -0.06,135.95 0.01,203.93 7.73,-0.03 15.47,0.02 23.21,-0.04 0.08,2.32 0.08,4.65 0.02,6.98 -23.31,-0.02 -46.61,-0.07 -69.91,0.02 -0.18,-2.35 -0.2,-4.71 0.02,-7.06 7.67,0.19 15.35,0.05 23.03,0.08 0.07,-64.77 -0.02,-129.55 0.04,-194.33 -7.76,-0.15 -15.54,0.22 -23.29,-0.24 0.05,-2.24 0.07,-4.47 0.09,-6.7 z"
       id="path3068"
       inkscape:connector-curvature="0"
       style="fill:#292929" />
    <path
       d="m 1623.48,56.27 c 14.64,0.02 29.38,-0.05 43.84,-2.7 0.05,67.99 -0.06,135.99 0.06,203.98 5.53,0.03 11.06,-0.02 16.6,0.01 -0.04,2.31 -0.05,4.63 -0.06,6.94 -13.31,-0.07 -26.66,0.4 -39.84,2.33 -0.22,-6.93 0.08,-13.87 -0.19,-20.8 -12.54,23.66 -46.61,29.27 -67.44,13.48 -28.42,-20.97 -33.53,-64.94 -14.88,-93.96 12.19,-19.69 39.01,-29.23 60.67,-20.61 9.5,3.69 16.58,11.54 21.45,20.28 0.13,-34.02 -0.01,-68.05 0.06,-102.07 -6.77,-0.04 -13.54,0.13 -20.3,-0.11 0.02,-2.26 0.03,-4.51 0.03,-6.77 m -23.1,92.26 c -14.83,2.84 -20.39,19.16 -21.42,32.42 -1.42,17.66 -1.12,35.53 1.15,53.1 1.51,9.46 4.52,20.4 13.8,25.05 14.19,6.96 31.63,0.9 41.36,-10.78 6.28,-6.65 8.37,-15.96 9.03,-24.81 1,-13.05 0.93,-26.21 -0.54,-39.22 -1.97,-11.55 -7.17,-23.19 -16.74,-30.39 -7.59,-5.43 -17.57,-7.19 -26.64,-5.37 z"
       id="path3070"
       inkscape:connector-curvature="0"
       style="fill:#292929" />
    <path
       d="m 813.62,62.59 c 30.79,0.05 61.58,-0.03 92.37,0.05 18.19,0.42 37.96,3.73 51.68,16.69 17.66,16.37 15.12,48.14 -3.77,62.52 -13.68,10.4 -31.34,12.72 -47.92,14.58 16.99,5.18 36.09,10.34 46.73,25.84 10,14.48 10.04,32.86 9.06,49.73 0.42,8.43 -0.17,19.15 7.24,24.86 8.46,5.06 18.7,1.42 27.41,-1.08 0.02,2.49 0.04,4.98 0.06,7.47 -13.69,4.74 -28.95,8.34 -43.08,3.26 -11.31,-3.7 -20.02,-13.94 -21.89,-25.68 -1.81,-12.52 -2.66,-25.15 -4.09,-37.72 -1.09,-9.54 -1.39,-19.63 -6.32,-28.16 -3.9,-6.9 -10.94,-11.54 -18.46,-13.63 -11.82,-3.42 -24.26,-2.04 -36.39,-2.29 -0.05,32.84 -0.01,65.69 -0.02,98.53 7.89,0 15.79,-0.06 23.69,0.02 0.06,2.28 0.13,4.57 0.22,6.85 -25.52,0.08 -51.04,0.06 -76.56,0.01 -0.02,-2.3 -0.03,-4.6 -0.03,-6.9 7.76,0.03 15.52,-0.05 23.28,0.07 0.1,-62.69 0.04,-125.38 0.03,-188.06 -7.77,-0.16 -15.55,0.16 -23.32,-0.17 0.04,-2.26 0.06,-4.53 0.08,-6.79 m 52.55,7.1 c 0.16,27.42 -0.01,54.85 0.08,82.27 18.27,-0.59 37.94,2.44 54.9,-5.97 13.22,-7.43 15.52,-24.24 15.49,-38 0.35,-12.92 -3.06,-28.74 -16.27,-34.31 -17.22,-6.61 -36.19,-3.52 -54.2,-3.99 z"
       id="path3072"
       inkscape:connector-curvature="0"
       style="fill:#292929" />
    <path
       d="m 1015.25,154.27 c 21.04,-17.9 55.85,-16.54 75.07,3.45 9.69,10.03 14.23,24.07 14.36,37.84 -28.51,0.05 -57.03,-0.02 -85.54,0.04 0.46,17.68 -1.68,36.88 7.38,52.89 6.99,11.49 21.81,14.83 34.34,13.12 17.47,-3.1 32.71,-17.11 36.79,-34.46 2.25,-0.14 4.5,-0.16 6.77,-0.13 -2.88,13.07 -9.91,25.7 -21.46,32.94 -19.04,11.57 -44.5,11.12 -63.39,-0.57 -16.06,-9.38 -27.58,-26.68 -28.7,-45.41 -1.25,-22.1 7.09,-45.39 24.38,-59.71 m 5.69,18.73 c -0.84,4.56 -1.46,9.19 -1.4,13.84 19.21,-0.09 38.42,0.01 57.63,-0.05 -0.15,-9.32 0.92,-19.47 -4.2,-27.77 -4.2,-7.36 -12.86,-10.79 -20.99,-11.11 -14.77,-1.5 -29.11,10.55 -31.04,25.09 z"
       id="path3074"
       inkscape:connector-curvature="0"
       style="fill:#292929" />
    <path
       d="m 1236.29,144.9 c 13.43,-0.15 26.98,-0.12 40.16,-3.1 0.16,10.51 -0.06,21.02 0.14,31.52 4.62,-6.57 7.6,-14.48 13.74,-20.02 11.44,-12.14 30.15,-13.89 45.43,-9.21 11.2,2.87 19.38,13.44 19.55,24.97 0.28,29.49 -0.01,58.98 0.14,88.47 5.45,0.07 10.9,-0.12 16.36,0.12 -0.07,2.23 -0.08,4.46 -0.01,6.69 -18.57,0.3 -37.16,0.08 -55.74,0.11 0.01,-2.31 0.03,-4.61 0.05,-6.91 5.21,0 10.43,0 15.65,-0.02 0.07,-25.84 0,-51.68 0.03,-77.52 -0.24,-8.92 0.69,-19.67 -6.36,-26.39 -9.5,-5.9 -22.6,-3.11 -30.46,4.4 -12.97,12.13 -19.12,30.47 -18.48,47.99 0,17.14 0.05,34.28 -0.01,51.43 5.46,0.21 10.92,-0.01 16.38,0.17 -0.01,2.27 0,4.54 0.02,6.81 -18.77,0.22 -37.55,-0.12 -56.32,0.18 -0.25,-2.35 -0.29,-4.7 -0.23,-7.05 5.55,-0.03 11.11,-0.01 16.67,-0.02 -0.06,-35.27 0.03,-70.54 -0.05,-105.82 -5.54,0.04 -11.08,0.03 -16.61,0.01 -0.01,-2.27 -0.03,-4.54 -0.05,-6.81 z"
       id="path3076"
       inkscape:connector-curvature="0"
       style="fill:#292929" />
    <path
       d="m 1419.45,142.75 c 18.45,-3.75 38.45,2.81 51.27,16.54 24.29,24.94 23.34,69.51 -1.96,93.42 -18.07,18.03 -48.82,20.93 -69.74,6.2 -26.62,-17.54 -34.4,-55.61 -20.78,-83.63 7.66,-16.47 23.25,-29.21 41.21,-32.53 m 2.97,5.86 c -10.42,1.82 -17.65,11.14 -20.08,20.97 -3.96,15.46 -3.17,31.6 -3.02,47.42 0.54,11.81 1.3,24.44 8,34.6 7.41,10.98 22.98,13.07 34.68,8.58 9.25,-3.45 14.3,-13.03 16.33,-22.17 2.96,-14.1 2.5,-28.62 2.43,-42.94 -0.69,-12.9 -1,-26.99 -9.05,-37.8 -6.68,-8.8 -19.02,-10.83 -29.29,-8.66 z"
       id="path3078"
       inkscape:connector-curvature="0"
       style="fill:#292929" />
    <path
       d="m 1715.79,146.77 c 16.04,-8.65 36.62,-5.77 50.29,6.09 1.84,-2.77 3.7,-5.54 5.74,-8.19 1.5,0.28 3.45,-0.46 4.75,0.58 0.31,11.12 0.08,22.27 0.1,33.4 -2.19,0 -4.36,0.01 -6.51,0.02 -2.97,-10.22 -7.98,-20.74 -17.52,-26.31 -12.42,-7.31 -31.25,-6.35 -39.95,6.23 -4.39,6.18 -6.6,16.98 1.33,21.37 16.13,8.58 34.85,9.74 52.11,14.95 8.52,2.68 16.73,8.21 20.12,16.8 5.69,16.01 1.98,35.97 -11.65,46.9 -18.55,14.89 -47.88,12.3 -64.17,-4.83 -2.2,3.56 -4.41,7.1 -6.53,10.69 -2.27,0.04 -4.52,0.04 -6.75,-0.08 0.05,-13.26 0.07,-26.53 0.02,-39.8 2.29,-0.01 4.59,-0.01 6.91,-0.03 4.37,17.4 17.15,34.46 35.88,37.2 15.33,3.34 34.09,-6.25 36.21,-22.73 1.58,-7.23 -4.22,-13.12 -10.24,-15.93 -14.88,-7.39 -31.55,-9.81 -47.33,-14.58 -7.42,-2.29 -14.9,-6.5 -18.32,-13.82 -7.56,-16.73 -1.09,-39.23 15.51,-47.93 z"
       id="path3080"
       inkscape:connector-curvature="0"
       style="fill:#292929" />
    <path
       d="m 1098.96,144.74 c 19.35,0.08 38.7,0.06 58.05,0.01 -0.02,2.32 -0.03,4.63 -0.07,6.95 -6.38,0.06 -12.76,0.06 -19.13,-0.01 11.09,26.95 21.68,54.18 33.58,80.75 9.52,-26.89 19.11,-53.77 28.42,-80.73 -6.41,0.05 -12.83,0 -19.24,0.01 0.02,-2.25 -0.01,-4.5 -0.09,-6.74 14.13,-0.41 28.29,-0.16 42.43,-0.14 1.32,1.78 0.29,4.67 0.6,6.87 -5.1,0.12 -10.2,-0.16 -15.28,0.19 -16.97,47.11 -34.14,94.15 -51.3,141.2 -5.02,11.86 -9.47,24.71 -19.15,33.69 -6.94,6.45 -19.12,9.1 -26.51,1.96 -5.35,-4.28 -5.82,-12.8 -1.33,-17.86 4.29,-5.1 12.52,-5.28 17.67,-1.4 2.9,2.2 4.19,5.79 6.65,8.39 4.23,0.31 6.27,-4.61 7.9,-7.8 6.05,-14.56 11.99,-29.2 16.82,-44.22 0.33,-1.15 0.22,-2.27 -0.32,-3.36 -15.23,-36.92 -30.29,-73.92 -45.57,-110.83 -4.69,0.08 -9.38,0.08 -14.06,0.03 -0.03,-2.32 -0.06,-4.64 -0.07,-6.96 z"
       id="path3082"
       inkscape:connector-curvature="0"
       style="fill:#292929" />
    <path
       d="m 1616.99,308.12 c 15.55,0.09 31.24,0.22 46.58,-2.72 0.48,67.99 0.05,136.01 0.21,204.01 7.72,-0.04 15.44,-0.05 23.17,0.01 0.03,2.32 0.04,4.64 0.07,6.97 -23.38,-0.02 -46.75,0.04 -70.12,-0.03 -0.01,-2.32 0,-4.63 0.07,-6.95 7.71,-0.05 15.43,-0.03 23.16,0 0.13,-64.78 -0.04,-129.56 0.08,-194.33 -7.79,-0.06 -15.58,-0.08 -23.36,0 0.04,-2.32 0.08,-4.64 0.14,-6.96 z"
       id="path3084"
       inkscape:connector-curvature="0"
       style="fill:#292929" />
    <path
       d="m 1757.07,308.17 c 14.66,0.16 29.35,-0.29 43.86,-2.56 -0.12,67.94 -0.05,135.88 -0.03,203.82 5.53,-0.07 11.07,-0.07 16.62,-0.04 0,2.35 -0.02,4.7 -0.16,7.05 -13.29,-0.23 -26.61,0.47 -39.79,2.26 -0.06,-6.72 0.12,-13.43 -0.09,-20.14 -2.72,2.64 -4.37,6.17 -7.15,8.75 -10.64,11.26 -27.5,15 -42.36,12.01 -14.15,-2.88 -26.09,-12.72 -33.45,-24.89 -10.94,-18.1 -12.98,-40.92 -6.88,-61.02 4.39,-14.32 13.97,-27.5 27.65,-34.14 14.63,-7.19 33.31,-8.2 47.26,1.14 6.32,4.02 10.77,10.16 14.63,16.45 0.35,-33.91 0.05,-67.84 0.14,-101.76 -6.78,-0.11 -13.55,-0.12 -20.31,0.04 -0.02,-2.33 0,-4.65 0.06,-6.97 m -24.62,92.61 c -16.28,4.49 -19.8,23.69 -20.45,38.22 -0.58,16.33 -0.54,32.8 1.97,48.98 1.65,8.69 4.74,18.55 13.2,22.88 14.76,7.43 33.1,0.65 42.72,-11.94 7.85,-9.4 8.06,-22.32 8.56,-33.94 0.11,-17.19 0.81,-36.04 -9.71,-50.71 -7.57,-11.76 -22.93,-17.11 -36.29,-13.49 z"
       id="path3086"
       inkscape:connector-curvature="0"
       style="fill:#292929" />
    <path
       d="m 833.13,311.08 c 12.08,-3.6 25.74,1.63 33.04,11.73 7.88,10.93 9.76,25.93 5.17,38.54 -5.21,13.69 -17.64,22.87 -30.15,29.48 11.34,27.14 23.23,54.07 35.03,81.02 12.5,-21.66 18.63,-46.6 19.09,-71.52 -6.41,-0.1 -12.82,0 -19.22,-0.07 0.01,-2.32 0.03,-4.62 0.04,-6.93 14.15,0.07 28.29,0 42.44,0.04 -0.24,2.23 0.67,4.95 -0.53,6.87 -5.85,0.18 -11.71,-0.02 -17.56,0.05 -1.46,27.25 -6.66,55.21 -21.53,78.56 4.58,10.09 8.87,20.32 13.27,30.49 6.25,0.09 12.5,-0.01 18.76,0.09 0.01,2.31 -0.01,4.63 -0.03,6.95 -13.03,0.02 -26.06,0.01 -39.09,0 -2.44,-5.71 -4.88,-11.41 -7.34,-17.11 -13.95,16.23 -37.98,27.61 -58.83,18.08 -20.45,-9.83 -27.09,-34.47 -28.1,-55.38 -1.84,-28.73 17.51,-54.83 42.25,-67.6 -6.62,-16.64 -14.44,-34.1 -11.66,-52.48 1.46,-13.89 10.96,-27.4 24.95,-30.81 m -5.05,12.93 c -6.88,9.53 -5.42,22.16 -1.79,32.65 3.63,9.65 7.43,19.27 11.97,28.54 9.84,-5.35 17.59,-14.86 18.87,-26.23 1.55,-12.31 2.84,-26.5 -5.07,-37.02 -6.05,-7.77 -18.92,-5.83 -23.98,2.06 m -31,114.98 c 0.59,19.32 5.73,38.69 15.32,55.51 4.5,7.3 11.12,15.65 20.63,15.17 11.69,-0.4 20.87,-8.71 28.54,-16.7 -12.63,-30.83 -26.33,-61.22 -39.01,-92.02 -15.31,5.85 -26.08,21.52 -25.48,38.04 z"
       id="path3088"
       inkscape:connector-curvature="0"
       style="fill:#292929" />
    <path
       d="m 947.24,314.47 c 31.19,0.02 62.39,-0.1 93.59,0.06 17.89,0.67 37.36,3.99 50.71,16.94 17.06,16.32 14.78,47.19 -3.39,61.78 -13.76,10.86 -31.83,13.16 -48.7,15.09 15.86,4.83 33.34,9.38 44.4,22.72 11.8,14.02 12.75,33.51 11.56,50.97 0.18,8.68 -0.34,18.86 5.83,25.76 8.38,6.57 19.71,2.43 28.87,-0.08 -0.04,2.56 -0.11,5.12 -0.29,7.68 -13.52,4.3 -28.35,7.96 -42.27,3.24 -11.72,-3.7 -20.85,-14.39 -22.55,-26.57 -1.89,-13.98 -2.95,-28.05 -4.53,-42.07 -0.8,-8.02 -1.74,-16.36 -5.93,-23.42 -3.97,-6.82 -11.03,-11.36 -18.52,-13.43 -11.8,-3.38 -24.19,-2 -36.28,-2.26 -0.03,32.84 -0.06,65.68 0.02,98.52 7.94,-0.02 15.9,-0.05 23.85,0.03 0.01,2.25 0.06,4.5 0.18,6.75 -25.53,0.47 -51.09,0.1 -76.63,0.18 0.02,-2.33 0.05,-4.65 0.09,-6.98 7.7,0 15.41,0.01 23.12,-0.02 0.15,-62.6 -0.07,-125.21 0.11,-187.81 -7.77,-0.32 -15.55,0 -23.33,-0.17 0.03,-2.31 0.05,-4.61 0.09,-6.91 m 52.37,7.18 c 0.27,27.4 -0.01,54.81 0.14,82.21 13.45,0.06 26.99,0.58 40.36,-1.26 9.02,-1.25 18.49,-5.06 23.49,-13.1 6.06,-9.61 6.58,-21.45 6.5,-32.49 -0.27,-10.2 -2.41,-21.63 -10.96,-28.23 -9.74,-7.21 -22.53,-7.32 -34.14,-7.36 -8.46,0.14 -16.94,-0.3 -25.39,0.23 z"
       id="path3090"
       inkscape:connector-curvature="0"
       style="fill:#292929" />
    <path
       d="m 1144.83,409.81 c 19.7,-20.69 55.78,-21.63 76.74,-2.4 11.26,10.01 16.46,25.27 16.75,40.05 -28.46,-0.08 -56.93,0.08 -85.4,-0.08 -0.43,14.08 -0.73,28.45 2.66,42.23 2.4,10.05 9.38,19.51 19.71,22.3 23.75,8.38 50.66,-9.27 56.03,-33.03 2.19,-0.01 4.4,-0.01 6.62,-0.01 -2.97,14.22 -11.21,27.91 -24.39,34.74 -28.32,15.21 -67.21,3.63 -82.29,-24.83 -13.64,-25.36 -6.16,-58.91 13.57,-78.97 m 11.1,9.16 c -2,6.36 -2.58,13.08 -2.93,19.7 19.22,-0.01 38.44,0.03 57.66,-0.01 0.01,-9.62 0.93,-20.21 -4.69,-28.61 -5.51,-8.43 -16.48,-11.09 -25.98,-10.14 -10.85,1.06 -20.02,9.21 -24.06,19.06 z"
       id="path3092"
       inkscape:connector-curvature="0"
       style="fill:#292929" />
    <path
       d="m 1369.89,396.64 c 13.42,0.26 26.93,-0.14 40.12,-2.88 0.18,10.87 -0.29,21.75 0.29,32.61 4.62,-10.04 10.41,-20.14 19.87,-26.35 13.55,-8.48 31.84,-8.42 45.87,-1.12 8.57,4.7 12.97,14.57 12.89,24.08 0.08,28.82 0.02,57.64 0.03,86.46 5.46,-0.08 10.92,-0.07 16.39,-0.04 -0.04,2.34 -0.05,4.68 -0.08,7.03 -18.5,-0.08 -36.99,-0.04 -55.49,-0.01 -0.09,-2.33 -0.09,-4.65 -0.07,-6.97 5.21,-0.12 10.43,-0.04 15.65,-0.1 0.07,-28.11 0.07,-56.22 0.01,-84.33 -0.37,-7.44 -1,-17.16 -8.69,-20.82 -10.55,-4.55 -23.07,-0.39 -30.46,7.96 -11.1,11.98 -16.7,28.6 -16.19,44.83 0.04,17.47 -0.08,34.94 0.05,52.4 5.44,-0.03 10.89,-0.04 16.34,0.01 0,2.34 -0.03,4.69 -0.19,7.03 -18.78,-0.1 -37.55,0.01 -56.32,-0.06 0.01,-2.33 0.04,-4.65 0.12,-6.97 5.45,-0.02 10.91,-0.07 16.38,0.06 0.06,-35.3 0.37,-70.64 -0.15,-105.92 -5.43,0.19 -10.85,0.08 -16.27,0.1 -0.07,-2.34 -0.1,-4.67 -0.1,-7 z"
       id="path3094"
       inkscape:connector-curvature="0"
       style="fill:#292929" />
    <path
       d="m 1552.45,394.74 c 19.44,-4.15 40.58,3.26 53.54,18.24 21.16,23.9 21.19,63.31 0.33,87.41 -11.52,13.48 -29.53,21.37 -47.3,19.71 -15,-1.16 -29.22,-8.86 -38.78,-20.4 -20.71,-24.65 -20.03,-64.8 2.31,-88.21 7.98,-8.39 18.5,-14.49 29.9,-16.75 m 2.08,6.13 c -14.94,3.65 -20.05,20.48 -20.98,34.04 -1.16,15.97 -1.24,32.08 0.44,48.01 1.4,10.84 5.24,23.08 15.7,28.38 11.64,5.26 27.68,3.94 35.82,-6.83 7.01,-9.61 8.03,-22.01 8.6,-33.5 0.56,-12.84 0.48,-25.73 -0.74,-38.53 -1.2,-9.14 -3.41,-18.89 -10.18,-25.62 -7.44,-7.26 -18.97,-8.33 -28.66,-5.95 z"
       id="path3096"
       inkscape:connector-curvature="0"
       style="fill:#292929" />
    <path
       d="m 1850.91,397.87 c 15.98,-7.77 35.45,-4.39 48.95,6.77 1.66,-2.69 3.47,-5.3 5.18,-7.96 1.73,0 3.47,-0.02 5.25,-0.02 -0.1,11.1 0.16,22.22 -0.12,33.32 -1.68,1.32 -4.43,0.3 -6.5,0.55 -2.94,-10.57 -8.32,-21.37 -18.33,-26.81 -11.94,-6.37 -29.21,-5.68 -38.15,5.42 -5.08,6.32 -8.07,18.29 0.7,22.89 15.75,8.16 33.85,9.58 50.71,14.39 8.77,2.58 17.43,7.99 20.98,16.79 6.26,16.4 2.04,37.22 -12.34,48.05 -18.66,14.06 -47.26,11.33 -63.24,-5.63 -2.22,3.62 -4.41,7.25 -6.76,10.78 -2.17,-0.03 -4.31,-0.04 -6.43,-0.04 0.07,-13.33 -0.28,-26.68 0.17,-40.01 2.19,0.09 4.41,0.12 6.64,0.11 3.18,11.03 8.65,21.85 17.79,29.11 11.37,9.06 28.49,11.86 41.26,4.07 7.93,-4.48 13.96,-13.23 13.21,-22.59 -0.62,-5.91 -5.9,-9.73 -10.73,-12.31 -15.02,-7.2 -31.68,-9.59 -47.46,-14.5 -6.92,-2.14 -13.74,-6.12 -17.34,-12.62 -8.57,-17.37 -1.45,-41.52 16.56,-49.76 z"
       id="path3098"
       inkscape:connector-curvature="0"
       style="fill:#292929" />
    <path
       d="m 1232.56,403.63 c 0.21,-2.24 -0.7,-4.94 0.49,-6.86 19.08,-0.28 38.19,0.15 57.28,-0.23 0.28,2.35 0.3,4.72 0.25,7.09 -6.44,0.01 -12.87,0.03 -19.3,0.02 11.05,27.11 22.29,54.15 33.43,81.22 9.65,-27.06 19.14,-54.18 28.76,-81.25 -6.45,0.02 -12.89,0.06 -19.34,0.01 -0.01,-2.33 -0.04,-4.66 -0.04,-6.99 14.31,0.08 28.62,0.06 42.94,0.02 -0.03,2.32 -0.03,4.65 -0.06,6.99 -5.01,0 -10.01,0.03 -15,-0.03 -17.5,47.71 -34.6,95.56 -52.19,143.23 -4.85,11.37 -9.35,23.61 -18.77,32.08 -6.7,5.92 -17.98,8.69 -25.33,2.38 -5.97,-3.89 -6.89,-12.75 -2.57,-18.2 5.21,-6.6 16.98,-5.69 21.11,1.66 1.55,1.9 2.92,6.61 6.13,4.56 4.42,-2.97 5.77,-8.61 7.86,-13.22 4.99,-12.77 10.29,-25.44 14.31,-38.55 0.31,-0.98 0.24,-1.93 -0.21,-2.84 -15.21,-37.02 -30.44,-74.01 -45.53,-111.07 -4.75,0.01 -9.49,0.01 -14.22,-0.02 z"
       id="path3100"
       inkscape:connector-curvature="0"
       style="fill:#292929" />
  </g>
  <g
     id="#2e5592ff"
     transform="translate(-85.88,-50.37)">
    <path
       d="m 330.14,61.45 c 1.58,-2.91 4.4,-5.23 7.87,-5.06 78.68,-0.03 157.37,-0.03 236.05,0 3.22,-0.13 6.79,1.34 8.04,4.51 2.55,4.8 -1.58,11.42 -7.05,11.1 -78.7,0.11 -157.4,0 -236.09,0.06 -3.82,0.42 -6.97,-2.04 -8.97,-5.03 -79.33,-0.04 -158.67,0.1 -238,-0.07 -3.44,0.25 -3.63,-5.67 -0.03,-5.3 79.38,-0.25 158.79,0.18 238.18,-0.21 z"
       id="path3103"
       inkscape:connector-curvature="0"
       style="fill:#2e5592" />
    <path
       d="m 397.91,89.9 c 2,-2.53 4.42,-5.53 8.04,-5.19 73.02,-0.08 146.05,-0.08 219.07,0.01 5.31,-0.58 10.13,5.25 8.04,10.29 -1.04,3.87 -5.33,5.71 -9.06,5.34 -72.33,0.04 -144.67,0.05 -217,0 -3.72,0.42 -7.01,-1.83 -8.64,-5.05 -102.14,-0.24 -204.28,0.07 -306.41,-0.16 -4.19,0.03 -2.96,-6.46 1,-5.28 101.65,0 203.31,-0.09 304.96,0.04 z"
       id="path3105"
       inkscape:connector-curvature="0"
       style="fill:#2e5592" />
    <path
       d="m 420.03,118.16 c 4.55,-0.87 7.14,-7.16 12.97,-5.24 74.02,0.14 148.05,-0.1 222.06,0.12 9.19,-0.05 9.6,14.71 0.59,15.48 -75.2,0.24 -150.43,0.05 -225.63,0.1 -3.52,0.26 -5.82,-2.76 -7.94,-5.07 -109.98,-0.06 -219.97,0.05 -329.95,-0.05 -2.85,0.6 -3.89,-3.72 -1.63,-4.97 3.12,-0.67 6.34,-0.3 9.5,-0.37 106.68,0.01 213.36,0 320.03,0 z"
       id="path3107"
       inkscape:connector-curvature="0"
       style="fill:#2e5592" />
    <path
       d="m 433.16,146.47 c 2.11,-2.81 4.97,-5.6 8.8,-5.22 75.36,-0.05 150.73,0.04 226.09,-0.05 4.52,-0.43 9.21,3.05 9.11,7.81 0.21,4.84 -4.51,8.39 -9.1,7.98 -75.37,-0.03 -150.74,0.02 -226.12,-0.07 -3.82,0.41 -6.62,-2.37 -8.8,-5.1 -113.4,0.04 -226.79,0.03 -340.18,0 -4.08,1.36 -5.15,-5.82 -0.83,-5.3 113.68,-0.13 227.36,-0.03 341.03,-0.05 z"
       id="path3109"
       inkscape:connector-curvature="0"
       style="fill:#2e5592" />
    <path
       d="m 433.05,174.74 c 4.57,1.06 5.31,-5.7 9.94,-5.09 77.33,-0.26 154.67,-0.04 232,-0.11 4.43,-0.45 8.86,2.9 8.94,7.49 0.36,4.8 -4.3,8.63 -8.91,8.18 -77.02,0 -154.04,0.05 -231.06,-0.02 -3.58,0.28 -6.11,-2.48 -8.04,-5.08 -111.97,-0.06 -223.95,-0.01 -335.92,-0.02 -3.23,-0.11 -6.56,0.38 -9.71,-0.45 -2.33,-1.83 -0.26,-5.74 2.65,-4.93 113.37,0.01 226.74,-0.04 340.11,0.03 z"
       id="path3111"
       inkscape:connector-curvature="0"
       style="fill:#2e5592" />
    <path
       d="m 433.78,202.88 c 1.67,-2.98 4.57,-5.37 8.2,-5.02 77.01,-0.01 154.03,-0.08 231.05,0.04 4.22,-0.46 8.35,2.89 8.68,7.13 0.63,4.4 -3.42,8.51 -7.73,8.46 -77.32,0.04 -154.64,-0.01 -231.96,0.02 -3.65,0.3 -6.52,-2.25 -8.45,-5.05 -114.2,-0.12 -228.41,0.04 -342.61,-0.08 -0.43,-0.45 -1.3,-1.34 -1.73,-1.79 0.14,-1 0.28,-1.99 0.43,-2.98 4.37,-1.09 8.89,-0.53 13.34,-0.63 110.26,-0.07 220.52,0.12 330.78,-0.1 z"
       id="path3113"
       inkscape:connector-curvature="0"
       style="fill:#2e5592" />
    <path
       d="m 425.03,231.28 c 1.94,-2.54 4.32,-5.48 7.91,-5.09 77.33,-0.03 154.66,-0.06 231.99,0.01 5.29,-0.45 9.73,5.59 7.62,10.49 -1.25,3.46 -4.88,5.51 -8.49,5.13 -77.05,-0.02 -154.1,0.06 -231.14,-0.03 -3.56,0.33 -5.99,-2.48 -7.86,-5.08 C 317.37,236.6 209.68,236.7 102,236.66 c -4.12,0.02 -8.25,0.17 -12.35,-0.32 -0.87,-2.54 0.06,-5.75 3.34,-5.05 110.68,-0.04 221.36,0 332.04,-0.01 z"
       id="path3115"
       inkscape:connector-curvature="0"
       style="fill:#2e5592" />
    <path
       d="m 403.62,259.58 c 2.03,-2.63 4.64,-5.49 8.31,-5.14 77.04,-0.05 154.08,0.01 231.12,-0.04 3.43,-0.24 7.21,1.58 8.36,4.99 2.18,4.83 -2.08,10.9 -7.34,10.65 -77.38,0.05 -154.76,-0.03 -232.13,0.04 -3.57,0.34 -6.29,-2.19 -8.06,-4.99 -103.64,-0.16 -207.3,0 -310.94,-0.08 -2.42,0.43 -3.74,-1.47 -3.86,-3.63 0.5,-0.43 1.49,-1.3 1.98,-1.73 104.19,-0.11 208.38,0.02 312.56,-0.07 z"
       id="path3117"
       inkscape:connector-curvature="0"
       style="fill:#2e5592" />
    <path
       d="m 361.55,287.71 c 1.57,-3.21 4.8,-5.27 8.44,-4.96 77.34,0.09 154.69,-0.09 232.03,0.09 9.15,0.3 9.14,15.17 0,15.48 -77.33,0.26 -154.68,0.05 -232.02,0.11 -3.69,0.26 -7.08,-1.78 -8.63,-5.11 -89.8,-0.11 -179.61,0.08 -269.41,-0.09 -3.45,0.32 -3.6,-5.74 0,-5.22 89.85,-0.34 179.74,0.25 269.59,-0.3 z"
       id="path3119"
       inkscape:connector-curvature="0"
       style="fill:#2e5592" />
    <path
       d="m 384.12,316.18 c 2.16,-2.75 4.99,-5.5 8.8,-5.2 76.71,-0.02 153.42,0 230.13,-0.02 3.87,-0.2 8.26,1.95 9.02,6.06 1.59,4.86 -3.1,9.99 -8,9.68 -77.04,0.01 -154.09,0 -231.13,0.01 -3.85,0.38 -6.69,-2.37 -8.8,-5.2 -96.72,0.19 -193.45,0 -290.18,0.09 -1.62,0.07 -3.18,-0.4 -4.69,-0.92 -0.03,-1.87 0.16,-4.7 2.77,-4.43 97.35,-0.14 194.72,-0.01 292.08,-0.07 z"
       id="path3121"
       inkscape:connector-curvature="0"
       style="fill:#2e5592" />
    <path
       d="m 411.68,344.56 c 2.12,-2.55 4.67,-5.5 8.34,-5.24 77.29,0.01 154.59,-0.02 231.88,0.01 3.82,-0.03 7.33,3.04 7.7,6.87 0.67,4.81 -3.77,9.18 -8.54,8.82 -76.71,0.02 -153.42,0.01 -230.13,0.01 -3.92,0.48 -6.66,-2.28 -9.02,-4.93 -106.62,-0.38 -213.28,0.06 -319.9,-0.22 -3.57,0.37 -3.68,-5.66 -0.07,-5.3 106.57,-0.08 213.16,-0.04 319.74,-0.02 z"
       id="path3123"
       inkscape:connector-curvature="0"
       style="fill:#2e5592" />
    <path
       d="m 421.35,372.6 c 1.56,-2.78 4.24,-5.07 7.61,-4.96 77.35,-0.08 154.7,0.01 232.05,-0.04 5.33,-0.52 10.09,5.22 8.01,10.31 -0.92,3.98 -5.35,5.56 -9.03,5.35 -77,-0.01 -154.01,0.03 -231.01,-0.02 -3.74,0.44 -5.75,-2.91 -8.12,-5.01 -109.29,-0.21 -218.62,0.01 -327.92,-0.11 -3.97,1.14 -5.16,-5.33 -0.98,-5.28 109.79,-0.26 219.6,0.22 329.39,-0.24 z"
       id="path3125"
       inkscape:connector-curvature="0"
       style="fill:#2e5592" />
    <path
       d="m 424.93,400.92 c 1.98,-3.11 5.15,-5.49 9.03,-5 77.36,0.11 154.72,-0.13 232.07,0.12 8.99,0.54 8.7,15.34 -0.41,15.43 -77.81,0.13 -155.65,0.15 -233.46,-0.01 -4.68,0.64 -5.59,-5.96 -10.1,-5.05 -110.04,-0.02 -220.08,0.06 -330.11,-0.04 -4.07,0 -3.04,-6.53 0.96,-5.36 110.67,-0.13 221.35,0.04 332.02,-0.09 z"
       id="path3127"
       inkscape:connector-curvature="0"
       style="fill:#2e5592" />
    <path
       d="m 426.14,429.35 c 2.06,-2.86 4.98,-5.61 8.8,-5.21 77.65,0.13 155.32,-0.12 232.96,0.13 8.77,0.61 8.79,14.79 0.01,15.43 -77.65,0.26 -155.31,0.03 -232.96,0.12 -3.79,0.37 -6.73,-2.24 -8.8,-5.08 -111.36,0.04 -222.74,0.12 -334.1,-0.04 -3.7,0.53 -3.63,-5.94 0.07,-5.27 111.33,-0.17 222.68,-0.02 334.02,-0.08 z"
       id="path3129"
       inkscape:connector-curvature="0"
       style="fill:#2e5592" />
    <path
       d="m 429.61,457.58 c 1.89,-2.35 4.05,-5.16 7.4,-5.09 77.34,-0.06 154.69,-0.01 232.04,-0.02 3.47,-0.27 7.08,1.72 8.23,5.11 2.41,5.16 -2.74,11.26 -8.24,10.53 -77.03,0.05 -154.06,0.03 -231.09,0.01 -3.57,0.3 -6.35,-2.2 -8.09,-5.03 -112.32,-0.19 -224.64,0.05 -336.96,-0.12 -3.94,1.12 -5.13,-5.41 -0.92,-5.31 112.54,-0.2 225.09,-0.03 337.63,-0.08 z"
       id="path3131"
       inkscape:connector-curvature="0"
       style="fill:#2e5592" />
    <path
       d="m 436.83,485.81 c 1.82,-2.78 4.56,-5.22 8.12,-4.99 77.02,-0.05 154.06,-0.01 231.08,-0.02 4.51,-0.37 8.95,3.51 8.59,8.14 -0.03,4.41 -4.39,7.74 -8.61,7.5 -77.01,-0.03 -154.01,0.03 -231.02,-0.02 -3.65,0.29 -6.32,-2.42 -8.3,-5.1 -111.9,-0.03 -223.79,-0.01 -335.69,-0.01 -3.89,-0.06 -7.88,0.41 -11.65,-0.81 0.07,-1.3 0.14,-2.59 0.19,-3.88 4.4,-1.18 8.97,-0.58 13.46,-0.69 111.28,-0.08 222.56,0.14 333.83,-0.12 z"
       id="path3133"
       inkscape:connector-curvature="0"
       style="fill:#2e5592" />
    <path
       d="m 451.79,514.16 c 1.75,-2.88 4.5,-5.41 8.12,-5.16 77.05,-0.09 154.1,0.01 231.15,-0.05 3.39,-0.12 6.98,1.84 8.13,5.15 2.14,4.78 -2.01,10.89 -7.3,10.53 -77.29,0.12 -154.59,-0.01 -231.89,0.07 -3.57,0.27 -6.31,-2.29 -8.2,-4.99 -119.88,-0.25 -239.78,0.01 -359.66,-0.14 -3.75,0.6 -3.77,-5.82 -0.05,-5.26 119.9,-0.24 239.8,0.05 359.7,-0.15 z"
       id="path3135"
       inkscape:connector-curvature="0"
       style="fill:#2e5592" />
  </g>
</svg>
