<?xml version="1.0" encoding="UTF-8" standalone="no"?>
<svg
   xmlns:dc="http://purl.org/dc/elements/1.1/"
   xmlns:cc="http://creativecommons.org/ns#"
   xmlns:rdf="http://www.w3.org/1999/02/22-rdf-syntax-ns#"
   xmlns:svg="http://www.w3.org/2000/svg"
   xmlns="http://www.w3.org/2000/svg"
   xmlns:sodipodi="http://sodipodi.sourceforge.net/DTD/sodipodi-0.dtd"
   xmlns:inkscape="http://www.inkscape.org/namespaces/inkscape"
   width="482.03351pt"
   height="246.37009pt"
   viewBox="0 0 482.03351 246.37009"
   version="1.1"
   id="svg2"
   inkscape:version="0.48.5 r10040"
   sodipodi:docname="sds.svg">
  <metadata
     id="metadata32">
    <rdf:RDF>
      <cc:Work
         rdf:about="">
        <dc:format>image/svg+xml</dc:format>
        <dc:type
           rdf:resource="http://purl.org/dc/dcmitype/StillImage" />
        <dc:title />
      </cc:Work>
    </rdf:RDF>
  </metadata>
  <defs
     id="defs30" />
  <sodipodi:namedview
     pagecolor="#ffffff"
     bordercolor="#666666"
     borderopacity="1"
     objecttolerance="10"
     gridtolerance="10"
     guidetolerance="10"
     inkscape:pageopacity="0"
     inkscape:pageshadow="2"
     inkscape:window-width="1479"
     inkscape:window-height="834"
     id="namedview28"
     showgrid="false"
     inkscape:zoom="1"
     inkscape:cx="199.80642"
     inkscape:cy="2.1201389"
     inkscape:window-x="121"
     inkscape:window-y="73"
     inkscape:window-maximized="0"
     inkscape:current-layer="svg2"
     fit-margin-top="4"
     fit-margin-left="4"
     fit-margin-right="4"
     fit-margin-bottom="4" />
  <path
     d="m 172.46257,5.4020324 c 7.23,-2.59 15.79,-1.6 21.98,3.04 7.33,5.0999996 11.17,14.6899996 9.42,23.4399996 -1.46,8.31 -7.76,15.55 -15.79,18.12 -8.34,2.83 -18.21,0.54 -24.3,-5.86 -5.99,-5.92 -8.37,-15.23 -5.81,-23.27 2.04,-7.08 7.58,-12.9699996 14.5,-15.4699996 z"
     id="path6"
     inkscape:connector-curvature="0"
     style="fill:#ed5f14" />
  <path
     d="m 113.56257,7.3420324 c 11.96,-3.86 25.94,2.34 31.28,13.6599996 3.68,7.5 3.53,16.79 -0.48,24.13 -3.65,6.86 -10.5,11.92 -18.15,13.34 -8.43,1.73 -17.59,-1.02 -23.67,-7.11 -5.160004,-5.08 -8.110004,-12.37 -7.750004,-19.62 0.06,-11.08 8.160004,-21.41 18.770004,-24.3999996 z"
     id="path8"
     inkscape:connector-curvature="0"
     style="fill:#ef2416" />
  <path
     d="m 222.68257,34.502032 c 8.73,-2.59 18.85,1.71 22.78,9.97 4.08,7.79 1.9,18.21 -5.01,23.66 -6.1,5.18 -15.55,5.97 -22.34,1.68 -6.8,-3.92 -10.69,-12.32 -9.15,-20.03 1.19,-7.16 6.74,-13.3 13.72,-15.28 z"
     id="path10"
     inkscape:connector-curvature="0"
     style="fill:#ed5f14" />
  <path
     d="m 57.542566,35.492032 c 14.77,-4.32 31.8,4.2 37.12,18.64 6.040004,14.38 -0.88,32.51 -14.96,39.2 -14.1,7.529998 -33.31,1.84 -41,-12.17 -7.66,-12.65 -4.47,-30.43 7.09,-39.63 3.45,-2.79 7.48,-4.87 11.75,-6.04 z"
     id="path12"
     inkscape:connector-curvature="0"
     style="fill:#bb0a19" />
  <path
     d="m 250.37257,74.102032 c 8.96,-2.85 19.27,3.49 20.92,12.7 2.35,9.73 -6.11,20.309998 -16.16,19.879998 -8.68,0.52 -16.7,-7.189998 -16.82,-15.819998 -0.57,-7.52 4.88,-14.76 12.06,-16.76 z"
     id="path14"
     inkscape:connector-curvature="0"
     style="fill:#ed5f14" />
  <path
     d="m 32.592566,104.49203 c 16.59,-3.74 34.72,6.46 40.36,22.45 5.95,15.2 -0.32,33.94 -14.27,42.43 -11.33,7.3 -26.85,7.34 -38.18,0.01 -12.1599997,-7.49 -18.6699997,-22.72 -15.8499997,-36.7 2.43,-13.93 14.0699997,-25.57 27.9399997,-28.19 z"
     id="path16"
     inkscape:connector-curvature="0"
     style="fill:#bb0a19" />
  <path
     d="m 130.49257,126.12203 c 30.9,-0.2 61.81,-0.01 92.71,-0.09 2.49,-0.19 5.24,1.08 6.01,3.6 1.04,3.2 1.2,6.89 -0.3,9.97 -1.04,2.09 -3.54,2.93 -5.74,2.86 -28.04,-0.01 -56.08,0 -84.11,-0.02 -2.24,0.05 -4.74,0.03 -6.54,1.57 -3.9,3.54 -2.3,11.9 3.66,11.91 25,0.25 50.01,0.01 75.01,0.12 5.16,0.03 10.32,2.08 13.82,5.91 5.63,5.67 7.09,14.28 5.95,21.94 -0.95,7.52 -5.8,14.69 -12.97,17.5 -3.76,1.54 -7.87,1.11 -11.83,1.15 -28.7,0 -57.4,-0.01 -86.11,0.01 -2.53,0.19 -5.19,-1.3 -5.92,-3.81 -1.78,-4.71 -0.55,-12.93 5.94,-12.52 28.03,0 56.06,0 84.09,0.01 2.5,-0.17 5.47,0 7.33,-2 3.7,-3.72 1.46,-11.75 -4.31,-11.62 -25.06,-0.12 -50.13,0.03 -75.19,-0.07 -6.88,-0.01 -13.27,-4.26 -16.59,-10.17 -3.59,-6.17 -4.03,-13.8 -2.29,-20.63 1.98,-8 8.96,-14.93 17.38,-15.62 z"
     id="path18"
     inkscape:connector-curvature="0"
     style="fill:#251b19" />
  <path
     d="m 236.45226,126.04234 c 0,25.5 9.3e-4,51 0.0109,76.5 27.89,0 55.77969,-0.01 83.67969,0 9.94,0.93 20.75031,-2.79093 26.42031,-11.36093 6.22,-9.14 8.06876,-20.59 7.26876,-31.45 -0.64,-9.05 -3.45969,-18.25876 -9.52969,-25.16876 -4.99,-5.7 -12.65938,-8.44093 -20.10938,-8.51093 -29.24,-0.01 -58.49062,-0.009 -87.74062,-0.009 z m 17.67031,16.40938 c 21.33,0.01 42.66062,-0.01 63.99062,0.0203 4.8,-0.04 9.97,1.36031 13.15,5.17031 3.97,4.74 4.67876,11.24938 4.66876,17.20938 -0.15,6.02 -1.17907,12.65093 -5.68907,17.06093 -3.7,3.61 -9.12031,4.30876 -14.07031,4.31876 -20.68,-0.02 -41.36,6.2e-4 -62.05,-0.009 l 0,-43.77031 z"
     id="path20"
     inkscape:connector-curvature="0"
     style="fill:#251b19;fill-opacity:1" />
  <path
     d="m 377.51257,126.12203 c 30.89,-0.17 61.78,-0.04 92.67,-0.07 3.38,-0.36 6.22,2.43 6.31,5.76 0.82,4.09 -0.19,10.44 -5.43,10.59 -28.66,0.13 -57.32,0 -85.98,0.06 -2.62,-0.02 -5.92,0.53 -7.11,3.21 -1.46,3.2 -1.08,8.03 2.48,9.66 2.43,0.95 5.11,0.64 7.67,0.71 23.33,-0.02 46.67,-0.04 70.01,0 5.4,0.02 10.68,2.41 14.2,6.51 5.47,5.95 6.48,14.68 5.21,22.36 -1.22,7.42 -6.33,14.41 -13.63,16.76 -3.13,1.1 -6.49,0.88 -9.74,0.88 -29.37,-0.04 -58.74,0.03 -88.11,-0.04 -4.53,0.12 -6.3,-5.06 -5.82,-8.82 -0.22,-3.49 2.1,-7.68 6.03,-7.44 28.28,-0.06 56.57,-0.02 84.85,-0.02 2.92,-0.08 6.75,-0.29 8.16,-3.35 1.14,-2.66 0.95,-6.08 -0.92,-8.37 -1.31,-1.44 -3.33,-1.96 -5.22,-1.93 -24.7,-0.04 -49.41,0.01 -74.11,-0.03 -8.23,0.1 -15.6,-5.84 -18.42,-13.37 -3.52,-9.62 -1.86,-21.86 6.29,-28.68 2.93,-2.58 6.72,-4.11 10.61,-4.38 z"
     id="path22"
     inkscape:connector-curvature="0"
     style="fill:#251b19" />
  <path
     d="m 65.692566,178.59203 c 15.18,-3.44 31.89,5.87 36.840004,20.64 5.41,14.13 -0.87,31.43 -14.090004,38.79 -13.33,8.11 -32.23,4.54 -41.64,-7.92 -9.26,-11.39 -9.09,-29.11 0.39,-40.33 4.61,-5.73 11.3,-9.73 18.5,-11.18 z"
     id="path26"
     inkscape:connector-curvature="0"
     style="fill:#8d0602" />
</svg>
