<?xml version="1.0" encoding="UTF-8" standalone="no"?>
<!-- Created with Inkscape (http://www.inkscape.org/) -->

<svg
   xmlns:dc="http://purl.org/dc/elements/1.1/"
   xmlns:cc="http://creativecommons.org/ns#"
   xmlns:rdf="http://www.w3.org/1999/02/22-rdf-syntax-ns#"
   xmlns:svg="http://www.w3.org/2000/svg"
   xmlns="http://www.w3.org/2000/svg"
   xmlns:sodipodi="http://sodipodi.sourceforge.net/DTD/sodipodi-0.dtd"
   xmlns:inkscape="http://www.inkscape.org/namespaces/inkscape"
   version="1.1"
   width="73.673439"
   height="64.149338"
   id="svg28489"
   xml:space="preserve"
   inkscape:version="0.91 r13725"
   sodipodi:docname="uc_icon.svg"><sodipodi:namedview
     pagecolor="#ffffff"
     bordercolor="#666666"
     borderopacity="1"
     objecttolerance="10"
     gridtolerance="10"
     guidetolerance="10"
     inkscape:pageopacity="0"
     inkscape:pageshadow="2"
     inkscape:window-width="1366"
     inkscape:window-height="716"
     id="namedview3444"
     showgrid="false"
     fit-margin-top="0"
     fit-margin-left="0"
     fit-margin-right="0"
     fit-margin-bottom="0"
     inkscape:zoom="5.5211859"
     inkscape:cx="-21.626907"
     inkscape:cy="20.198637"
     inkscape:window-x="-8"
     inkscape:window-y="-8"
     inkscape:window-maximized="1"
     inkscape:current-layer="svg28489" /><metadata
     id="metadata28495"><rdf:RDF><cc:Work
         rdf:about=""><dc:format>image/svg+xml</dc:format><dc:type
           rdf:resource="http://purl.org/dc/dcmitype/StillImage" /><dc:title></dc:title></cc:Work></rdf:RDF></metadata><defs
     id="defs28493"><clipPath
       id="clipPath28511"><path
         d="M 0,0 612,0 612,792 0,792 0,0 Z"
         id="path28513"
         inkscape:connector-curvature="0" /></clipPath><clipPath
       id="clipPath28531"><path
         d="M 0,0 612,0 612,792 0,792 0,0 Z"
         id="path28533"
         inkscape:connector-curvature="0" /></clipPath><clipPath
       id="clipPath28547"><path
         d="M 0,0 612,0 612,792 0,792 0,0 Z"
         id="path28549"
         inkscape:connector-curvature="0" /></clipPath><clipPath
       id="clipPath28571"><path
         d="M 0,0 612,0 612,792 0,792 0,0 Z"
         id="path28573"
         inkscape:connector-curvature="0" /></clipPath><clipPath
       id="clipPath28591"><path
         d="M 0,0 612,0 612,792 0,792 0,0 Z"
         id="path28593"
         inkscape:connector-curvature="0" /></clipPath><clipPath
       id="clipPath28627"><path
         d="M 0,0 612,0 612,792 0,792 0,0 Z"
         id="path28629"
         inkscape:connector-curvature="0" /></clipPath><clipPath
       id="clipPath28651"><path
         d="M 0,0 612,0 612,792 0,792 0,0 Z"
         id="path28653"
         inkscape:connector-curvature="0" /></clipPath><clipPath
       id="clipPath28669"><path
         d="M 0,0 612,0 612,792 0,792 0,0 Z"
         id="path28671"
         inkscape:connector-curvature="0" /></clipPath><clipPath
       id="clipPath28669-2"><path
         d="M 0,0 612,0 612,792 0,792 0,0 Z"
         id="path28671-7"
         inkscape:connector-curvature="0" /></clipPath><clipPath
       id="clipPath28651-7"><path
         d="M 0,0 612,0 612,792 0,792 0,0 Z"
         id="path28653-9"
         inkscape:connector-curvature="0" /></clipPath><clipPath
       id="clipPath28627-3"><path
         d="M 0,0 612,0 612,792 0,792 0,0 Z"
         id="path28629-1"
         inkscape:connector-curvature="0" /></clipPath><clipPath
       id="clipPath28591-9"><path
         d="M 0,0 612,0 612,792 0,792 0,0 Z"
         id="path28593-8"
         inkscape:connector-curvature="0" /></clipPath><clipPath
       id="clipPath28571-6"><path
         d="M 0,0 612,0 612,792 0,792 0,0 Z"
         id="path28573-5"
         inkscape:connector-curvature="0" /></clipPath><clipPath
       id="clipPath28547-0"><path
         d="M 0,0 612,0 612,792 0,792 0,0 Z"
         id="path28549-2"
         inkscape:connector-curvature="0" /></clipPath><clipPath
       id="clipPath28531-8"><path
         d="M 0,0 612,0 612,792 0,792 0,0 Z"
         id="path28533-6"
         inkscape:connector-curvature="0" /></clipPath><clipPath
       id="clipPath28511-0"><path
         d="M 0,0 612,0 612,792 0,792 0,0 Z"
         id="path28513-2"
         inkscape:connector-curvature="0" /></clipPath></defs><path
     d="m 47.799715,0.0180481 -12.29227,0 0,3.5872515 12.29227,0 0,-3.5872515 z"
     id="path28663"
     style="fill:#e31837;fill-opacity:1;fill-rule:nonzero;stroke:none"
     inkscape:connector-curvature="0" /><g
     transform="matrix(1.0940078,0,0,-1.0940078,-343.74567,564.56984)"
     id="g28665"><g
       clip-path="url(#clipPath28669-2)"
       id="g28667"><g
         transform="translate(356.9577,460.6885)"
         id="g28673"><path
           d="m 0,0 c -10.704,2.725 -18.596,11.834 -18.596,23.512 0,8.948 5.23,16.182 12.958,20.238 l 0,4.397 C -16.744,44.51 -24.706,35.122 -24.706,23.512 c 0,-5.742 1.497,-10.227 4.104,-14.245 -6.866,1.206 -9.825,5.996 -9.825,14.245 l 0,31.856 -0.008,0 -12.315,0 0,-3.279 5.89,0 0,-28.577 c 0,-11.45 7.463,-17.396 18.823,-17.584 4.344,-4.83 10.493,-8.201 17.477,-9.197 L 0,0 Z"
           id="path28675"
           style="fill:#e31837;fill-opacity:1;fill-rule:nonzero;stroke:none"
           inkscape:connector-curvature="0" /></g><g
         transform="translate(351.3154,484.2001)"
         id="g28677"><path
           d="M 0,0 C 0,-4.498 0.448,-8.055 3.286,-11.186 5.866,-8.014 6.594,-5.041 6.594,0 L 6.57,25.913 c 1.202,0.144 2.424,0.218 3.665,0.218 5.06,0 10.154,-0.554 16.224,-3.607 l 0.411,2.46 3.365,-0.654 -1.98,-11.533 -2.827,0.556 c -0.246,5.18 -4.804,9.7 -12.402,9.7 L 13.026,0 c 0,-6.721 -2.29,-11.008 -6.827,-14.356 5.367,-5.023 14.152,-4.509 18.479,-2.301 l 0.809,-1.208 c -3.207,-2.181 -7.6,-3.111 -11.41,-3.111 -11.099,0 -20.195,9.197 -20.195,20.976 0,5.63 2.356,10.156 6.122,13.799 C 0.004,13.799 0,2.397 0,0"
           id="path28679"
           style="fill:#e31837;fill-opacity:1;fill-rule:nonzero;stroke:none"
           inkscape:connector-curvature="0" /></g></g></g></svg>