<?xml version="1.0" encoding="UTF-8" standalone="no"?>
<!-- Created with Inkscape (http://www.inkscape.org/) -->

<svg
   xmlns:dc="http://purl.org/dc/elements/1.1/"
   xmlns:cc="http://creativecommons.org/ns#"
   xmlns:rdf="http://www.w3.org/1999/02/22-rdf-syntax-ns#"
   xmlns:svg="http://www.w3.org/2000/svg"
   xmlns="http://www.w3.org/2000/svg"
   version="1.1"
   width="218.43134"
   height="94.982086"
   id="svg28489"
   xml:space="preserve"><metadata
     id="metadata28495"><rdf:RDF><cc:Work
         rdf:about=""><dc:format>image/svg+xml</dc:format><dc:type
           rdf:resource="http://purl.org/dc/dcmitype/StillImage" /><dc:title></dc:title></cc:Work></rdf:RDF></metadata><defs
     id="defs28493"><clipPath
       id="clipPath28511"><path
         d="M 0,0 612,0 612,792 0,792 0,0 z"
         id="path28513" /></clipPath><clipPath
       id="clipPath28531"><path
         d="M 0,0 612,0 612,792 0,792 0,0 z"
         id="path28533" /></clipPath><clipPath
       id="clipPath28547"><path
         d="M 0,0 612,0 612,792 0,792 0,0 z"
         id="path28549" /></clipPath><clipPath
       id="clipPath28571"><path
         d="M 0,0 612,0 612,792 0,792 0,0 z"
         id="path28573" /></clipPath><clipPath
       id="clipPath28591"><path
         d="M 0,0 612,0 612,792 0,792 0,0 z"
         id="path28593" /></clipPath><clipPath
       id="clipPath28627"><path
         d="M 0,0 612,0 612,792 0,792 0,0 z"
         id="path28629" /></clipPath><clipPath
       id="clipPath28651"><path
         d="M 0,0 612,0 612,792 0,792 0,0 z"
         id="path28653" /></clipPath><clipPath
       id="clipPath28669"><path
         d="M 0,0 612,0 612,792 0,792 0,0 z"
         id="path28671" /></clipPath><clipPath
       id="clipPath28669-2"><path
         d="M 0,0 612,0 612,792 0,792 0,0 z"
         id="path28671-7" /></clipPath><clipPath
       id="clipPath28651-7"><path
         d="M 0,0 612,0 612,792 0,792 0,0 z"
         id="path28653-9" /></clipPath><clipPath
       id="clipPath28627-3"><path
         d="M 0,0 612,0 612,792 0,792 0,0 z"
         id="path28629-1" /></clipPath><clipPath
       id="clipPath28591-9"><path
         d="M 0,0 612,0 612,792 0,792 0,0 z"
         id="path28593-8" /></clipPath><clipPath
       id="clipPath28571-6"><path
         d="M 0,0 612,0 612,792 0,792 0,0 z"
         id="path28573-5" /></clipPath><clipPath
       id="clipPath28547-0"><path
         d="M 0,0 612,0 612,792 0,792 0,0 z"
         id="path28549-2" /></clipPath><clipPath
       id="clipPath28531-8"><path
         d="M 0,0 612,0 612,792 0,792 0,0 z"
         id="path28533-6" /></clipPath><clipPath
       id="clipPath28511-0"><path
         d="M 0,0 612,0 612,792 0,792 0,0 z"
         id="path28513-2" /></clipPath></defs><g
     transform="matrix(1.25,0,0,-1.25,-148.84834,723.15274)"
     id="g28497"><g
       transform="matrix(0.87520622,0,0,0.87520622,36.667376,72.195971)"
       id="g29055"><g
         transform="translate(-100.44625,62.465696)"
         id="g28507"><g
           clip-path="url(#clipPath28511-0)"
           id="g28509"><g
             transform="translate(202.6454,476.1769)"
             id="g28515"><path
               d="m 0,0 -1.799,0 0,-5.799 c 0,-1.802 -0.761,-2.838 -2.082,-2.838 -1.456,0 -2.103,0.91 -2.103,2.951 l 0,5.686 -2.053,0 0,-6.051 c 0,-2.674 1.383,-4.029 4.103,-4.029 2.447,0 3.97,1.506 3.97,3.932 L 0.036,0 0,0 z"
               id="path28517"
               style="fill:#000000;fill-opacity:1;fill-rule:nonzero;stroke:none" /></g><g
             transform="translate(214.498,476.1769)"
             id="g28519"><path
               d="m 0,0 -1.622,0 0,-6.992 c -1.884,2.569 -3.766,4.812 -5.583,6.982 L -7.211,0 l -1.504,0 0,-9.911 1.654,0 0,7.037 c 1.775,-2.43 3.604,-4.627 5.375,-6.753 l 0.237,-0.284 1.48,0 L 0.031,0 0,0 z"
               id="path28521"
               style="fill:#000000;fill-opacity:1;fill-rule:nonzero;stroke:none" /></g></g></g><g
         transform="translate(119.40735,538.6426)"
         id="g28523"><path
           d="m 0,0 -2.015,0 0,-9.911 2.048,0 L 0.033,0 0,0 z"
           id="path28525"
           style="fill:#000000;fill-opacity:1;fill-rule:nonzero;stroke:none" /></g><g
         transform="translate(-100.44625,62.465696)"
         id="g28527"><g
           clip-path="url(#clipPath28531-8)"
           id="g28529"><g
             transform="translate(232.0331,476.1769)"
             id="g28535"><path
               d="m 0,0 -1.85,0 -0.008,-0.018 c -0.972,-2.649 -1.781,-4.9 -2.655,-7.661 -0.868,2.862 -1.715,5.301 -2.535,7.659 L -7.054,0 l -2.245,0 3.708,-9.911 1.662,0 L 0.049,0 0,0 z"
               id="path28537"
               style="fill:#000000;fill-opacity:1;fill-rule:nonzero;stroke:none" /></g></g></g><g
         transform="translate(136.22455,530.1196)"
         id="g28539"><path
           d="m 0,0 0,3.114 3.24,0 0,1.385 -3.24,0 0,2.639 3.31,0 0,1.385 -0.035,0 -5.324,0 0,-9.911 5.964,0 L 3.915,0 0,0 z"
           id="path28541"
           style="fill:#000000;fill-opacity:1;fill-rule:nonzero;stroke:none" /></g><g
         transform="translate(-100.44625,62.465696)"
         id="g28543"><g
           clip-path="url(#clipPath28547-0)"
           id="g28545"><g
             transform="translate(248.3933,470.7061)"
             id="g28551"><path
               d="m 0,0 c 1.104,0.666 1.647,1.601 1.647,2.867 0,1.632 -1.19,2.604 -3.185,2.604 l -3.419,0 -0.028,0 0,-9.911 2.045,0 0,3.937 1.131,0 c 0.013,-0.034 1.913,-3.941 1.913,-3.941 l 2.34,0 c 0,0 -2.419,4.393 -2.444,4.444 m -2.94,4.086 0.996,0 c 0.364,0 1.538,-0.108 1.538,-1.458 0,-0.65 -0.369,-1.741 -1.765,-1.741 l -0.769,0 0,3.199 z"
               id="path28553"
               style="fill:#000000;fill-opacity:1;fill-rule:nonzero;stroke:none" /></g><g
             transform="translate(256.9052,471.9229)"
             id="g28555"><path
               d="m 0,0 -0.256,0.203 c -0.981,0.776 -1.578,1.242 -1.578,1.826 0,0.602 0.505,1.007 1.248,1.007 0.66,0 1.266,-0.346 1.574,-0.555 l 0.028,-0.019 0.74,1.077 -0.021,0.02 c -0.433,0.42 -1.323,0.864 -2.514,0.864 -1.77,0 -3.154,-1.063 -3.154,-2.421 0,-1.282 0.768,-1.905 1.667,-2.633 l 0.099,-0.083 0.466,-0.344 c 0.767,-0.551 1.636,-1.175 1.636,-2.049 0,-0.983 -0.808,-1.332 -1.502,-1.332 -0.854,0 -1.452,0.386 -1.996,0.781 l -0.026,0.019 -0.746,-1.176 0.019,-0.016 c 0.671,-0.623 1.761,-0.995 2.918,-0.995 2.153,0 3.435,1.376 3.435,2.705 C 2.037,-1.869 1.29,-1.03 0,0"
               id="path28557"
               style="fill:#000000;fill-opacity:1;fill-rule:nonzero;stroke:none" /></g></g></g><g
         transform="translate(163.10805,538.6426)"
         id="g28559"><path
           d="m 0,0 -2.015,0 0,-9.911 2.051,0 L 0.036,0 0,0 z"
           id="path28561"
           style="fill:#000000;fill-opacity:1;fill-rule:nonzero;stroke:none" /></g><g
         transform="translate(173.80304,538.6426)"
         id="g28563"><path
           d="m 0,0 -8.091,0 0,-1.385 3.036,0 0,-8.526 2.05,0 0,8.526 3.042,0 L 0.037,0 0,0 z"
           id="path28565"
           style="fill:#000000;fill-opacity:1;fill-rule:nonzero;stroke:none" /></g><g
         transform="translate(-100.44625,62.465696)"
         id="g28567"><g
           clip-path="url(#clipPath28571-6)"
           id="g28569"><g
             transform="translate(284.6452,476.1769)"
             id="g28575"><path
               d="m 0,0 -1.677,0 -0.759,-1.363 c -0.519,-0.919 -1.059,-1.866 -1.565,-2.99 -0.659,1.616 -1.267,2.88 -1.913,4.212 L -5.982,0 -8.42,0 l 3.134,-5.773 -0.002,-4.138 2.053,0 0,4.154 c 0.003,0 3.267,5.711 3.267,5.711 L 0.055,0 0,0 z"
               id="path28577"
               style="fill:#000000;fill-opacity:1;fill-rule:nonzero;stroke:none" /></g><g
             transform="translate(296.6257,476.3462)"
             id="g28579"><path
               d="m 0,0 c -2.814,0 -4.939,-2.142 -4.939,-4.983 0,-3.1 2.027,-5.266 4.939,-5.266 2.912,0 4.942,2.166 4.942,5.266 C 4.942,-2.142 2.819,0 0,0 m 0,-8.776 c -2.569,0 -2.764,2.903 -2.764,3.793 0,1.697 0.729,3.51 2.764,3.51 2.036,0 2.768,-1.813 2.768,-3.51 0,-0.89 -0.2,-3.793 -2.768,-3.793"
               id="path28581"
               style="fill:#000000;fill-opacity:1;fill-rule:nonzero;stroke:none" /></g></g></g><g
         transform="translate(208.33285,537.2578)"
         id="g28583"><path
           d="m 0,0 0,1.385 -0.033,0 -5.306,0 0,-9.911 2.046,0 0,3.966 3.238,0 0,1.391 -3.238,0 0,3.169 L 0,0 z"
           id="path28585"
           style="fill:#000000;fill-opacity:1;fill-rule:nonzero;stroke:none" /></g><g
         transform="translate(-100.44625,62.465696)"
         id="g28587"><g
           clip-path="url(#clipPath28591-9)"
           id="g28589"><g
             transform="translate(239.3456,456.0142)"
             id="g28595"><path
               d="m 0,0 c 3.071,0 6.141,-1.389 7.492,-2.497 l 1.635,2.459 c -1.881,1.472 -4.75,2.905 -8.842,2.905 -10.275,0 -15.927,-7.535 -15.927,-14.738 0,-7.908 5.201,-14.907 15.435,-14.907 3.686,0 7.082,1.312 9.012,2.62 l -1.559,2.377 C 5.568,-22.928 3.112,-23.909 0,-23.909 c -6.265,0 -11.258,4.869 -11.258,12.118 C -11.258,-5.076 -7.087,0 0,0"
               id="path28597"
               style="fill:#000000;fill-opacity:1;fill-rule:nonzero;stroke:none" /></g><g
             transform="translate(271.0774,450.6904)"
             id="g28599"><path
               d="m 0,0 c -2.129,0 -5.081,-0.983 -7.001,-3.028 l 0,0.981 0.005,0 0,1.554 -0.005,0 0,0.002 -3.643,0 0,-0.002 -1.652,0 0,-1.554 1.652,0 0,-18.914 3.682,0 0,12.323 c 0,3.93 2.663,5.94 5.57,5.94 3.317,0 4.953,-2.01 4.953,-5.858 l 0,-12.405 3.687,0 0,13.181 C 7.248,-2.618 4.706,0 0,0"
               id="path28601"
               style="fill:#000000;fill-opacity:1;fill-rule:nonzero;stroke:none" /></g><g
             transform="translate(291.9097,431.9386)"
             id="g28603"><path
               d="m 0,0 c -4.957,0 -7.127,4.012 -7.127,8.272 0,5.569 3.809,7.782 7.167,7.782 1.518,0 3.028,-0.493 4.219,-1.068 l 1.225,2.088 C 3.969,18.223 2.086,18.752 0,18.752 c -7.697,0 -11.095,-5.565 -11.095,-10.688 0,-2.821 1.225,-10.766 10.929,-10.766 1.763,0 4.176,0.699 6.187,2.129 L 4.992,1.475 C 3.395,0.452 1.758,0 0,0"
               id="path28605"
               style="fill:#000000;fill-opacity:1;fill-rule:nonzero;stroke:none" /></g><g
             transform="translate(320.9196,450.6904)"
             id="g28607"><path
               d="m 0,0 c -2.127,0 -5.076,-0.983 -7,-3.028 l 0,2.537 -3.647,0 0,-0.002 -1.662,0 0,-1.554 1.662,0 0,-18.914 3.684,0 0,12.323 c 0,3.93 2.661,5.94 5.571,5.94 3.317,0 4.953,-2.01 4.953,-5.858 l 0,-12.405 3.684,0 0,13.181 C 7.245,-2.618 4.705,0 0,0"
               id="path28609"
               style="fill:#000000;fill-opacity:1;fill-rule:nonzero;stroke:none" /></g><g
             transform="translate(342.7819,450.6904)"
             id="g28611"><path
               d="m 0,0 c -2.131,0 -5.079,-0.983 -7.001,-3.028 l 0,2.537 -3.644,0 0,-0.002 -1.659,0 0,-1.554 1.659,0 0,-18.914 3.685,0 0,12.323 c 0,3.93 2.659,5.94 5.568,5.94 3.315,0 4.957,-2.01 4.957,-5.858 l 0,-12.405 3.684,0 0,13.181 C 7.249,-2.618 4.711,0 0,0"
               id="path28613"
               style="fill:#000000;fill-opacity:1;fill-rule:nonzero;stroke:none" /></g><g
             transform="translate(391.933,454.4594)"
             id="g28615"><path
               d="M 0,0 C 1.8,0 2.337,1.391 2.337,2.495 2.337,3.516 1.475,4.669 0,4.669 -1.475,4.669 -2.332,3.516 -2.332,2.495 -2.332,1.391 -1.8,0 0,0"
               id="path28617"
               style="fill:#000000;fill-opacity:1;fill-rule:nonzero;stroke:none" /></g></g></g><g
         transform="translate(293.35135,512.6489)"
         id="g28619"><path
           d="m 0,0 -5.301,0 0,-1.553 1.626,0 0,-18.927 3.68,0 0,20.469 L 0,-0.011 0,0 z"
           id="path28621"
           style="fill:#000000;fill-opacity:1;fill-rule:nonzero;stroke:none" /></g><g
         transform="translate(-100.44625,62.465696)"
         id="g28623"><g
           clip-path="url(#clipPath28627-3)"
           id="g28625"><g
             transform="translate(368.6204,449.6916)"
             id="g28631"><path
               d="m 0,0 c -1.95,0.628 -3.721,0.992 -5.449,0.992 -6.386,0 -10.465,-4.374 -10.465,-10.826 0,-6.311 3.947,-10.554 9.488,-10.554 2.172,0 4.341,0.726 6.692,2.075 0.134,-0.72 0.019,-0.896 0.284,-1.571 l 2.953,0 0,20.397 L 0.078,0.501 0,0 z m 0,-15.834 c -2.128,-1.125 -3.9,-1.845 -5.719,-1.845 -3.945,0 -6.603,2.885 -6.603,7.759 0,4.958 2.927,8.16 7.267,8.16 1.553,0 3.236,-0.45 5.055,-1.35 l 0,-12.724 z"
               id="path28633"
               style="fill:#000000;fill-opacity:1;fill-rule:nonzero;stroke:none" /></g><g
             transform="translate(383.6146,432.0901)"
             id="g28635"><path
               d="m 0,0 c -2.229,0 -2.796,1.702 -2.796,4.54 l 0,11.47 5.309,0 0,2.108 -5.309,0 0,6.081 -3.65,-1.217 0,-4.864 -2.833,0 0,-2.108 2.833,0 0,-12.157 c 0,-4.134 1.946,-6.485 6.001,-6.485 1.376,0 2.876,0.486 4.133,1.297 L 2.798,0.692 C 2.107,0.325 1.338,0 0,0"
               id="path28637"
               style="fill:#000000;fill-opacity:1;fill-rule:nonzero;stroke:none" /></g><g
             transform="translate(303.6198,454.4594)"
             id="g28639"><path
               d="M 0,0 C 1.802,0 2.333,1.391 2.333,2.495 2.333,3.516 1.475,4.669 0,4.669 -1.475,4.669 -2.334,3.516 -2.334,2.495 -2.334,1.391 -1.8,0 0,0"
               id="path28641"
               style="fill:#000000;fill-opacity:1;fill-rule:nonzero;stroke:none" /></g></g></g><g
         transform="translate(205.04005,512.6489)"
         id="g28643"><path
           d="m 0,0 -5.302,0 0,-1.553 1.624,0 0,-18.927 3.682,0 0,20.469 L 0,-0.011 0,0 z"
           id="path28645"
           style="fill:#000000;fill-opacity:1;fill-rule:nonzero;stroke:none" /></g><g
         transform="translate(-100.44625,62.465696)"
         id="g28647"><g
           clip-path="url(#clipPath28651-7)"
           id="g28649"><g
             transform="translate(253.7737,454.4594)"
             id="g28655"><path
               d="M 0,0 C 1.804,0 2.338,1.391 2.338,2.495 2.338,3.516 1.476,4.669 0,4.669 -1.471,4.669 -2.333,3.516 -2.333,2.495 -2.333,1.391 -1.8,0 0,0"
               id="path28657"
               style="fill:#000000;fill-opacity:1;fill-rule:nonzero;stroke:none" /></g></g></g><g
         transform="translate(155.19504,512.6489)"
         id="g28659"><path
           d="m 0,0 -5.303,0 0,-1.553 1.624,0 0,-18.927 3.684,0 0,20.469 L 0,-0.011 0,0 z"
           id="path28661"
           style="fill:#000000;fill-opacity:1;fill-rule:nonzero;stroke:none" /></g><path
         d="m 257.45375,578.5057 -11.236,0 0,-3.279 11.236,0 0,3.279 z"
         id="path28663"
         style="fill:#e31837;fill-opacity:1;fill-rule:nonzero;stroke:none" /><g
         transform="translate(-100.44625,62.465696)"
         id="g28665"><g
           clip-path="url(#clipPath28669-2)"
           id="g28667"><g
             transform="translate(356.9577,460.6885)"
             id="g28673"><path
               d="m 0,0 c -10.704,2.725 -18.596,11.834 -18.596,23.512 0,8.948 5.23,16.182 12.958,20.238 l 0,4.397 C -16.744,44.51 -24.706,35.122 -24.706,23.512 c 0,-5.742 1.497,-10.227 4.104,-14.245 -6.866,1.206 -9.825,5.996 -9.825,14.245 l 0,31.856 -0.008,0 -12.315,0 0,-3.279 5.89,0 0,-28.577 c 0,-11.45 7.463,-17.396 18.823,-17.584 4.344,-4.83 10.493,-8.201 17.477,-9.197 L 0,0 z"
               id="path28675"
               style="fill:#e31837;fill-opacity:1;fill-rule:nonzero;stroke:none" /></g><g
             transform="translate(351.3154,484.2001)"
             id="g28677"><path
               d="M 0,0 C 0,-4.498 0.448,-8.055 3.286,-11.186 5.866,-8.014 6.594,-5.041 6.594,0 L 6.57,25.913 c 1.202,0.144 2.424,0.218 3.665,0.218 5.06,0 10.154,-0.554 16.224,-3.607 l 0.411,2.46 3.365,-0.654 -1.98,-11.533 -2.827,0.556 c -0.246,5.18 -4.804,9.7 -12.402,9.7 L 13.026,0 c 0,-6.721 -2.29,-11.008 -6.827,-14.356 5.367,-5.023 14.152,-4.509 18.479,-2.301 l 0.809,-1.208 c -3.207,-2.181 -7.6,-3.111 -11.41,-3.111 -11.099,0 -20.195,9.197 -20.195,20.976 0,5.63 2.356,10.156 6.122,13.799 C 0.004,13.799 0,2.397 0,0"
               id="path28679"
               style="fill:#e31837;fill-opacity:1;fill-rule:nonzero;stroke:none" /></g></g></g></g></g></svg>