<?xml version="1.0" encoding="UTF-8" standalone="no"?>
<svg
   xmlns:dc="http://purl.org/dc/elements/1.1/"
   xmlns:cc="http://creativecommons.org/ns#"
   xmlns:rdf="http://www.w3.org/1999/02/22-rdf-syntax-ns#"
   xmlns:svg="http://www.w3.org/2000/svg"
   xmlns="http://www.w3.org/2000/svg"
   xmlns:sodipodi="http://sodipodi.sourceforge.net/DTD/sodipodi-0.dtd"
   xmlns:inkscape="http://www.inkscape.org/namespaces/inkscape"
   viewBox="249.3 336.5 40 40"
   enable-background="new 249.3 336.5 106 40"
   id="svg3009"
   version="1.1"
   inkscape:version="0.48.5 r10040"
   width="100%"
   height="100%"
   sodipodi:docname="upwork_icon.svg">
  <metadata
     id="metadata3031">
    <rdf:RDF>
      <cc:Work
         rdf:about="">
        <dc:format>image/svg+xml</dc:format>
        <dc:type
           rdf:resource="http://purl.org/dc/dcmitype/StillImage" />
      </cc:Work>
    </rdf:RDF>
  </metadata>
  <defs
     id="defs3029" />
  <sodipodi:namedview
     pagecolor="#000000"
     bordercolor="#666666"
     borderopacity="1"
     objecttolerance="10"
     gridtolerance="10"
     guidetolerance="10"
     inkscape:pageopacity="0"
     inkscape:pageshadow="2"
     inkscape:window-width="1920"
     inkscape:window-height="1027"
     id="namedview3027"
     showgrid="false"
     inkscape:zoom="9.4049726"
     inkscape:cx="16.917438"
     inkscape:cy="19.9939"
     inkscape:window-x="-8"
     inkscape:window-y="-8"
     inkscape:window-maximized="1"
     inkscape:current-layer="svg3009" />
  <rect
     style="fill:#6fda44;fill-opacity:1;stroke:none"
     id="rect2982"
     width="40"
     height="40"
     x="249.3"
     y="336.5" />
  <path
     d="m 279.06175,346.78859 c -3.8,0 -6.7,2.5 -7.8,6.5 -1.8,-2.8 -3.2,-6 -4,-8.7 h -4 v 10.6 c 0,2.1 -1.7,3.8 -3.8,3.8 -2.1,0 -3.8,-1.7 -3.8,-3.8 v -10.6 h -4 v 10.6 c 0,4.4 3.5,7.9 7.8,7.9 4.3,0 7.8,-3.5 7.8,-7.9 v -1.8 c 0.8,1.6 1.8,3.3 2.9,4.8 l -2.5,11.7 h 4.1 l 1.8,-8.5 c 1.6,1 3.4,1.6 5.5,1.6 4.4,0 8,-3.6 8,-8.2 0,-4.4 -3.6,-8 -8,-8 z m 0,12.1 c -1.6,0 -3.2,-0.7 -4.5,-1.8 l 0.4,-1.6 v -0.1 c 0.3,-1.7 1.2,-4.6 4.2,-4.6 2.2,0 4,1.8 4,4 -0.1,2.3 -2,4.1 -4.1,4.1 z"
     id="path3017"
     style="fill:#ffffff"
     inkscape:connector-curvature="0" />
</svg>
