<svg xmlns="http://www.w3.org/2000/svg" viewBox="249.3 336.5 106 40" enable-background="new 249.3 336.5 106 40"><g fill="#4B4B4B"><path d="M314.1 343.4c-4.4 0-8 3.6-8 8.1s3.6 8.1 8 8.1 8-3.6 8-8.1-3.6-8.1-8-8.1zm0 12.9c-2.6 0-4.7-2.1-4.7-4.7s2.1-4.7 4.7-4.7 4.7 2.1 4.7 4.7c0 2.5-2.2 4.7-4.7 4.7zM331.9 347.3c-2.3 0-4.1 1.9-4.1 4.2v7.7h-3.5v-15.3h3.5v2.4s1.5-2.4 4.5-2.4h1v3.4h-1.4zM297 343.9l2.6 10.5 2.8-10.5h3.5l-4.4 15.3h-3.4l-2.7-10.7-2.7 10.7h-3.4l-4.5-15.3h3.4l3 10.5 2.5-10.5z"/></g><path fill="#4B4B4B" d="M343.5 350.9c2.4-1.4 4.1-4 4.1-7h-3.5c0 2.6-2.1 4.7-4.6 4.7h-.5v-12.1h-3.5v22.7h3.5V352h.4c.4 0 .8.2.9.5l4.9 6.7h4.1l-5.8-8.3z"/><path fill="#6FDA44" d="M276.7 343.4c-3.8 0-6.7 2.5-7.8 6.5-1.8-2.8-3.2-6-4-8.7h-4v10.6c0 2.1-1.7 3.8-3.8 3.8-2.1 0-3.8-1.7-3.8-3.8v-10.6h-4v10.6c0 4.4 3.5 7.9 7.8 7.9s7.8-3.5 7.8-7.9V350c.8 1.6 1.8 3.3 2.9 4.8l-2.5 11.7h4.1l1.8-8.5c1.6 1 3.4 1.6 5.5 1.6 4.4 0 8-3.6 8-8.2 0-4.4-3.6-8-8-8zm0 12.1c-1.6 0-3.2-.7-4.5-1.8l.4-1.6v-.1c.3-1.7 1.2-4.6 4.2-4.6 2.2 0 4 1.8 4 4-.1 2.3-2 4.1-4.1 4.1z"/><g fill="#B2B2B2"><path d="M277.2 370.5h-.7v-.7h.7v-.5c0-.6.2-1 .5-1.3.3-.3.7-.4 1-.4s.6 0 .8.1v.7c-.3-.1-.5-.1-.8-.1-.6 0-.8.4-.8 1v.5h1.6v.7H278v4.4h-.8v-4.4zM280.1 372.4c0-1.4 1.1-2.7 2.6-2.7s2.6 1.2 2.6 2.7c0 1.4-1.1 2.7-2.6 2.7s-2.6-1.3-2.6-2.7zm4.4 0c0-1.1-.8-2-1.9-2s-1.8.9-1.8 2c0 1 .8 2 1.9 2 1-.1 1.8-1 1.8-2zM286.6 369.8h.8v1.3c.4-.9 1.1-1.4 2.1-1.4v.9h-.1c-1.1 0-2 .8-2 2.3v2h-.8v-5.1zM290.5 369.8h.8v.9c.3-.5.8-.9 1.6-.9s1.3.5 1.6 1c.4-.6.8-1 1.8-1 1.1 0 1.9.8 1.9 2v3.1h-.8V372c0-.9-.5-1.5-1.3-1.5s-1.4.6-1.4 1.5v2.9h-.8V372c0-.9-.5-1.5-1.3-1.5s-1.4.7-1.4 1.6v2.8h-.8l.1-5.1zM299.4 372.4c0-1.5 1-2.7 2.4-2.7 1.5 0 2.4 1.2 2.4 2.7v.3h-4c.1 1 .8 1.7 1.8 1.7.7 0 1.1-.3 1.6-.7l.5.4c-.5.6-1.1.9-2.1.9-1.4 0-2.6-1.1-2.6-2.6zm4-.3c-.1-.9-.6-1.7-1.6-1.7-.8 0-1.5.8-1.6 1.7h3.2zM305.5 369.8h.8v1.3c.4-.9 1.1-1.4 2.1-1.4v.9h-.1c-1.1 0-2 .8-2 2.3v2h-.8v-5.1zM309.4 367.7h.8v7.1h-.8v-7.1zM315.6 369.8h.8l-2.1 5.2c-.5 1-.9 1.4-1.7 1.4-.4 0-.8-.1-1-.3l.3-.6c.3.1.5.2.8.2.5 0 .8-.2 1-.9l-2.3-5h.8l1.8 4.2 1.6-4.2zM320.1 372.4c0-1.4 1.1-2.7 2.6-2.7s2.6 1.2 2.6 2.7c0 1.4-1.1 2.7-2.6 2.7s-2.6-1.3-2.6-2.7zm4.4 0c0-1.1-.8-2-1.9-2-1.1 0-1.8.9-1.8 2 0 1 .8 2 1.9 2 1.1-.1 1.8-1 1.8-2zM326.8 368h2.4c2.2 0 3.6 1.5 3.6 3.4s-1.5 3.4-3.6 3.4h-2.4V368zm.8.8v5.4h1.6c1.7 0 2.8-1.1 2.8-2.7 0-1.5-1.1-2.7-2.8-2.7h-1.6zM334 372.4c0-1.5 1-2.7 2.4-2.7 1.5 0 2.4 1.2 2.4 2.7v.3h-4c.1 1 .8 1.7 1.8 1.7.7 0 1.1-.3 1.6-.7l.5.4c-.5.6-1.1.9-2.1.9-1.5 0-2.6-1.1-2.6-2.6zm3.9-.3c-.1-.9-.6-1.7-1.6-1.7-.8 0-1.5.8-1.6 1.7h3.2zM339.5 374.2l.4-.6c.6.4 1.1.7 1.7.7.6 0 1-.3 1-.8s-.6-.7-1.2-.9c-.8-.2-1.7-.5-1.7-1.4 0-.9.8-1.4 1.7-1.4.6 0 1.3.2 1.8.6l-.4.6c-.5-.3-1-.5-1.5-.5-.6 0-.9.3-.9.8s.7.7 1.3.9c.8.2 1.6.6 1.6 1.4 0 .9-.8 1.5-1.8 1.5-.6-.2-1.4-.4-2-.9zM344.8 367.7h.8v4.9l2.7-2.8h.9l-2.1 2.2 2.2 2.8h-.8l-1.8-2.4-1 1v1.3h-.8l-.1-7z"/></g><g fill="#4B4B4B"><path d="M349.8 344.4h-1.1v-.4h2.7v.4h-1.1v3.1h-.4v-3.1zM352.1 344h.4l1.2 1.9 1.2-1.9h.4v3.4h-.4v-2.8l-1.2 1.8-1.2-1.8v2.8h-.4V344z"/></g></svg>