<?xml version="1.0" encoding="UTF-8" standalone="no"?>
<!-- Generator: Adobe Illustrator 15.1.0, SVG Export Plug-In . SVG Version: 6.00 Build 0)  -->

<svg
   xmlns:dc="http://purl.org/dc/elements/1.1/"
   xmlns:cc="http://creativecommons.org/ns#"
   xmlns:rdf="http://www.w3.org/1999/02/22-rdf-syntax-ns#"
   xmlns:svg="http://www.w3.org/2000/svg"
   xmlns="http://www.w3.org/2000/svg"
   xmlns:sodipodi="http://sodipodi.sourceforge.net/DTD/sodipodi-0.dtd"
   xmlns:inkscape="http://www.inkscape.org/namespaces/inkscape"
   version="1.1"
   id="Layer_1"
   x="0px"
   y="0px"
   width="305.45001"
   height="427.85199"
   viewBox="0 0 305.45001 427.85199"
   enable-background="new 0 0 1024 600"
   xml:space="preserve"
   inkscape:version="0.48.5 r10040"
   sodipodi:docname="xml.svg"><metadata
     id="metadata4215"><rdf:RDF><cc:Work
         rdf:about=""><dc:format>image/svg+xml</dc:format><dc:type
           rdf:resource="http://purl.org/dc/dcmitype/StillImage" /><dc:title></dc:title></cc:Work></rdf:RDF></metadata><defs
     id="defs4213" /><sodipodi:namedview
     pagecolor="#ffffff"
     bordercolor="#666666"
     borderopacity="1"
     objecttolerance="10"
     gridtolerance="10"
     guidetolerance="10"
     inkscape:pageopacity="0"
     inkscape:pageshadow="2"
     inkscape:window-width="1324"
     inkscape:window-height="973"
     id="namedview4211"
     showgrid="false"
     fit-margin-top="4"
     fit-margin-left="4"
     fit-margin-right="4"
     fit-margin-bottom="4"
     inkscape:zoom="0.7092355"
     inkscape:cx="145.0689"
     inkscape:cy="186.24852"
     inkscape:window-x="279"
     inkscape:window-y="19"
     inkscape:window-maximized="0"
     inkscape:current-layer="Layer_1" /><path
     transform="translate(-22,-141.838)"
     style="fill:#578940;fill-opacity:1"
     d="M 296.352,531.921 174.543,565.69 53.07,531.97 26,228.35 l 297.45,0 z"
     id="polygon4139" /><polygon
     style="fill:#71b352;fill-opacity:1"
     id="polygon4141"
     points="174.725,539.878 273.152,512.591 296.31,253.175 174.725,253.175 "
     transform="translate(-22,-141.838)" /><path
     d="M 131.604,4 151.337,4 163.474,23.894 175.601,4 l 19.739,0 0,56.618 -18.846,0 0,-28.063 -13.021,20.13 -0.325,0 -13.028,-20.13 0,28.063 -18.517,-1e-5 L 131.604,4 z"
     id="path4153"
     inkscape:connector-curvature="0"
     style="fill:#020202"
     sodipodi:nodetypes="ccccccccccccccc" /><path
     d="m 204.758,4 18.929,0 0,37.903 26.612,0 0,18.714 -45.542,0 0.001,-56.617 0,0 z"
     id="path4155"
     inkscape:connector-curvature="0"
     style="fill:#020202" /><path
     d="m 53.299765,3.5429898 21.539,0 13.247255,15.8940002 13.23743,-15.8940002 21.54555,0 -23.002001,30.0350002 23.002001,27.04 -21.54555,0 -13.238521,-15.361443 -13.246164,15.361443 -21.539,0 23.648234,-27.04 z"
     id="path4153-1"
     inkscape:connector-curvature="0"
     style="fill:#020202"
     sodipodi:nodetypes="ccccccccccccc" /><path
     style="fill:#ffffff;stroke:none"
     d="m 152.7312,193.20886 35.02443,-54.01308 57.00659,0 -60.86015,102.06886 60.86015,91.89083 -57.00659,0 -35.02732,-52.20326"
     id="path3900" /><path
     style="fill:#ebebeb;fill-opacity:1;stroke:none"
     d="m 152.72831,280.95221 -35.04755,52.20326 -56.989257,0 62.570007,-91.89083 -62.570007,-102.06886 56.989257,0 35.05044,54.01308"
     id="path4153-1-7" /></svg>